%TF.GenerationSoftware,KiCad,Pcbnew,7.0.1*%
%TF.CreationDate,2024-01-03T20:12:55+01:00*%
%TF.ProjectId,PicBytesMicro,50696342-7974-4657-934d-6963726f2e6b,rev?*%
%TF.SameCoordinates,Original*%
%TF.FileFunction,Soldermask,Top*%
%TF.FilePolarity,Negative*%
%FSLAX46Y46*%
G04 Gerber Fmt 4.6, Leading zero omitted, Abs format (unit mm)*
G04 Created by KiCad (PCBNEW 7.0.1) date 2024-01-03 20:12:55*
%MOMM*%
%LPD*%
G01*
G04 APERTURE LIST*
G04 Aperture macros list*
%AMRoundRect*
0 Rectangle with rounded corners*
0 $1 Rounding radius*
0 $2 $3 $4 $5 $6 $7 $8 $9 X,Y pos of 4 corners*
0 Add a 4 corners polygon primitive as box body*
4,1,4,$2,$3,$4,$5,$6,$7,$8,$9,$2,$3,0*
0 Add four circle primitives for the rounded corners*
1,1,$1+$1,$2,$3*
1,1,$1+$1,$4,$5*
1,1,$1+$1,$6,$7*
1,1,$1+$1,$8,$9*
0 Add four rect primitives between the rounded corners*
20,1,$1+$1,$2,$3,$4,$5,0*
20,1,$1+$1,$4,$5,$6,$7,0*
20,1,$1+$1,$6,$7,$8,$9,0*
20,1,$1+$1,$8,$9,$2,$3,0*%
G04 Aperture macros list end*
%ADD10RoundRect,0.050000X0.176777X-0.813173X0.813173X-0.176777X-0.176777X0.813173X-0.813173X0.176777X0*%
%ADD11RoundRect,0.050000X0.700000X-0.450000X0.700000X0.450000X-0.700000X0.450000X-0.700000X-0.450000X0*%
%ADD12RoundRect,0.050000X-0.500000X-0.725000X0.500000X-0.725000X0.500000X0.725000X-0.500000X0.725000X0*%
%ADD13C,0.989000*%
%ADD14C,1.650000*%
%ADD15RoundRect,0.050000X0.775000X-0.650000X0.775000X0.650000X-0.775000X0.650000X-0.775000X-0.650000X0*%
%ADD16RoundRect,0.050000X0.500000X0.725000X-0.500000X0.725000X-0.500000X-0.725000X0.500000X-0.725000X0*%
%ADD17RoundRect,0.050000X0.510000X0.735000X-0.510000X0.735000X-0.510000X-0.735000X0.510000X-0.735000X0*%
%ADD18RoundRect,0.050000X-0.250000X-0.600000X0.250000X-0.600000X0.250000X0.600000X-0.250000X0.600000X0*%
%ADD19RoundRect,0.050000X-0.250000X0.200000X-0.250000X-0.200000X0.250000X-0.200000X0.250000X0.200000X0*%
%ADD20RoundRect,0.050000X-1.200000X1.105000X-1.200000X-1.105000X1.200000X-1.105000X1.200000X1.105000X0*%
%ADD21RoundRect,0.050000X-0.735000X0.510000X-0.735000X-0.510000X0.735000X-0.510000X0.735000X0.510000X0*%
%ADD22C,2.100000*%
%ADD23C,1.400000*%
G04 APERTURE END LIST*
D10*
%TO.C,LED1*%
X120209307Y-49695443D03*
X121552809Y-48351941D03*
%TD*%
%TO.C,LED2*%
X120209307Y-53287546D03*
X121552809Y-51944044D03*
%TD*%
%TO.C,LED3*%
X120209307Y-56879648D03*
X121552809Y-55536146D03*
%TD*%
%TO.C,LED4*%
X120209307Y-60471751D03*
X121552809Y-59128249D03*
%TD*%
%TO.C,LED5*%
X120209307Y-64063853D03*
X121552809Y-62720351D03*
%TD*%
%TO.C,LED6*%
X120209307Y-67655956D03*
X121552809Y-66312454D03*
%TD*%
%TO.C,LED7*%
X120209307Y-71248058D03*
X121552809Y-69904556D03*
%TD*%
%TO.C,LED8*%
X120209307Y-74840160D03*
X121552809Y-73496658D03*
%TD*%
%TO.C,LED9*%
X120209307Y-78432263D03*
X121552809Y-77088761D03*
%TD*%
%TO.C,LED10*%
X120209307Y-82024365D03*
X121552809Y-80680863D03*
%TD*%
%TO.C,LED11*%
X120209307Y-85616468D03*
X121552809Y-84272966D03*
%TD*%
%TO.C,LED12*%
X120209307Y-89208570D03*
X121552809Y-87865068D03*
%TD*%
%TO.C,LED13*%
X120209307Y-92800673D03*
X121552809Y-91457171D03*
%TD*%
%TO.C,LED14*%
X120209307Y-96392775D03*
X121552809Y-95049273D03*
%TD*%
%TO.C,LED15*%
X120209307Y-99984878D03*
X121552809Y-98641376D03*
%TD*%
%TO.C,LED16*%
X120209307Y-103576980D03*
X121552809Y-102233478D03*
%TD*%
%TO.C,LED17*%
X123835778Y-49695443D03*
X125179280Y-48351941D03*
%TD*%
%TO.C,LED18*%
X123835778Y-53287545D03*
X125179280Y-51944043D03*
%TD*%
%TO.C,LED19*%
X123835778Y-56879648D03*
X125179280Y-55536146D03*
%TD*%
%TO.C,LED20*%
X123835778Y-60471750D03*
X125179280Y-59128248D03*
%TD*%
%TO.C,LED21*%
X123835778Y-64063852D03*
X125179280Y-62720350D03*
%TD*%
%TO.C,LED22*%
X123835778Y-67655955D03*
X125179280Y-66312453D03*
%TD*%
%TO.C,LED23*%
X123835778Y-71248057D03*
X125179280Y-69904555D03*
%TD*%
%TO.C,LED24*%
X123835778Y-74840160D03*
X125179280Y-73496658D03*
%TD*%
%TO.C,LED25*%
X123835778Y-78432262D03*
X125179280Y-77088760D03*
%TD*%
%TO.C,LED26*%
X123835778Y-82024365D03*
X125179280Y-80680863D03*
%TD*%
%TO.C,LED27*%
X123835778Y-85616467D03*
X125179280Y-84272965D03*
%TD*%
%TO.C,LED28*%
X123835778Y-89208570D03*
X125179280Y-87865068D03*
%TD*%
%TO.C,LED29*%
X123835778Y-92800672D03*
X125179280Y-91457170D03*
%TD*%
%TO.C,LED30*%
X123835778Y-96392775D03*
X125179280Y-95049273D03*
%TD*%
%TO.C,LED31*%
X123835778Y-99984877D03*
X125179280Y-98641375D03*
%TD*%
%TO.C,LED32*%
X123835778Y-103576979D03*
X125179280Y-102233477D03*
%TD*%
%TO.C,LED33*%
X127462249Y-49695443D03*
X128805751Y-48351941D03*
%TD*%
%TO.C,LED34*%
X127462249Y-53287546D03*
X128805751Y-51944044D03*
%TD*%
%TO.C,LED35*%
X127462249Y-56879648D03*
X128805751Y-55536146D03*
%TD*%
%TO.C,LED36*%
X127462249Y-60471751D03*
X128805751Y-59128249D03*
%TD*%
%TO.C,LED37*%
X127462249Y-64063853D03*
X128805751Y-62720351D03*
%TD*%
%TO.C,LED38*%
X127462249Y-67655956D03*
X128805751Y-66312454D03*
%TD*%
%TO.C,LED39*%
X127462249Y-71248058D03*
X128805751Y-69904556D03*
%TD*%
%TO.C,LED40*%
X127462249Y-74840160D03*
X128805751Y-73496658D03*
%TD*%
%TO.C,LED41*%
X127462249Y-78432263D03*
X128805751Y-77088761D03*
%TD*%
%TO.C,LED42*%
X127462249Y-82024365D03*
X128805751Y-80680863D03*
%TD*%
%TO.C,LED43*%
X127462249Y-85616468D03*
X128805751Y-84272966D03*
%TD*%
%TO.C,LED44*%
X127462249Y-89208570D03*
X128805751Y-87865068D03*
%TD*%
%TO.C,LED45*%
X127462249Y-92800673D03*
X128805751Y-91457171D03*
%TD*%
%TO.C,LED46*%
X127462249Y-96392775D03*
X128805751Y-95049273D03*
%TD*%
%TO.C,LED47*%
X127462249Y-99984878D03*
X128805751Y-98641376D03*
%TD*%
%TO.C,LED48*%
X127462249Y-103576980D03*
X128805751Y-102233478D03*
%TD*%
%TO.C,LED49*%
X131088720Y-49695443D03*
X132432222Y-48351941D03*
%TD*%
%TO.C,LED50*%
X131088720Y-53287546D03*
X132432222Y-51944044D03*
%TD*%
%TO.C,LED51*%
X131088720Y-56879648D03*
X132432222Y-55536146D03*
%TD*%
%TO.C,LED52*%
X131088720Y-60471751D03*
X132432222Y-59128249D03*
%TD*%
%TO.C,LED53*%
X131088720Y-64063853D03*
X132432222Y-62720351D03*
%TD*%
%TO.C,LED54*%
X131088720Y-67655956D03*
X132432222Y-66312454D03*
%TD*%
%TO.C,LED55*%
X131088720Y-71248058D03*
X132432222Y-69904556D03*
%TD*%
%TO.C,LED56*%
X131088720Y-74840160D03*
X132432222Y-73496658D03*
%TD*%
%TO.C,LED57*%
X131088720Y-78432263D03*
X132432222Y-77088761D03*
%TD*%
%TO.C,LED58*%
X131088720Y-82024365D03*
X132432222Y-80680863D03*
%TD*%
%TO.C,LED59*%
X131088720Y-85616468D03*
X132432222Y-84272966D03*
%TD*%
%TO.C,LED60*%
X131088720Y-89208570D03*
X132432222Y-87865068D03*
%TD*%
%TO.C,LED61*%
X131088720Y-92800673D03*
X132432222Y-91457171D03*
%TD*%
%TO.C,LED62*%
X131088720Y-96392775D03*
X132432222Y-95049273D03*
%TD*%
%TO.C,LED63*%
X131088720Y-99984878D03*
X132432222Y-98641376D03*
%TD*%
%TO.C,LED64*%
X131088720Y-103576980D03*
X132432222Y-102233478D03*
%TD*%
%TO.C,LED65*%
X134715191Y-49695443D03*
X136058693Y-48351941D03*
%TD*%
%TO.C,LED66*%
X134715191Y-53287546D03*
X136058693Y-51944044D03*
%TD*%
%TO.C,LED67*%
X134715191Y-56879648D03*
X136058693Y-55536146D03*
%TD*%
%TO.C,LED68*%
X134715191Y-60471751D03*
X136058693Y-59128249D03*
%TD*%
%TO.C,LED69*%
X134715191Y-64063853D03*
X136058693Y-62720351D03*
%TD*%
%TO.C,LED70*%
X134715191Y-67655956D03*
X136058693Y-66312454D03*
%TD*%
%TO.C,LED71*%
X134715191Y-71248058D03*
X136058693Y-69904556D03*
%TD*%
%TO.C,LED72*%
X134715191Y-74840160D03*
X136058693Y-73496658D03*
%TD*%
%TO.C,LED73*%
X134715191Y-78432263D03*
X136058693Y-77088761D03*
%TD*%
%TO.C,LED74*%
X134715191Y-82024365D03*
X136058693Y-80680863D03*
%TD*%
%TO.C,LED75*%
X134715191Y-85616468D03*
X136058693Y-84272966D03*
%TD*%
%TO.C,LED76*%
X134715191Y-89208570D03*
X136058693Y-87865068D03*
%TD*%
%TO.C,LED77*%
X134715191Y-92800673D03*
X136058693Y-91457171D03*
%TD*%
%TO.C,LED78*%
X134715191Y-96392775D03*
X136058693Y-95049273D03*
%TD*%
%TO.C,LED79*%
X134715191Y-99984878D03*
X136058693Y-98641376D03*
%TD*%
%TO.C,LED80*%
X134715191Y-103576980D03*
X136058693Y-102233478D03*
%TD*%
%TO.C,LED81*%
X138341662Y-49695443D03*
X139685164Y-48351941D03*
%TD*%
%TO.C,LED82*%
X138341662Y-53287546D03*
X139685164Y-51944044D03*
%TD*%
%TO.C,LED83*%
X138341662Y-56879648D03*
X139685164Y-55536146D03*
%TD*%
%TO.C,LED84*%
X138341662Y-60471751D03*
X139685164Y-59128249D03*
%TD*%
%TO.C,LED85*%
X138341662Y-64063853D03*
X139685164Y-62720351D03*
%TD*%
%TO.C,LED86*%
X138341662Y-67655956D03*
X139685164Y-66312454D03*
%TD*%
%TO.C,LED87*%
X138341662Y-71248058D03*
X139685164Y-69904556D03*
%TD*%
%TO.C,LED88*%
X138341662Y-74840160D03*
X139685164Y-73496658D03*
%TD*%
%TO.C,LED89*%
X138341662Y-78432263D03*
X139685164Y-77088761D03*
%TD*%
%TO.C,LED90*%
X138341662Y-82024365D03*
X139685164Y-80680863D03*
%TD*%
%TO.C,LED91*%
X138341662Y-85616468D03*
X139685164Y-84272966D03*
%TD*%
%TO.C,LED92*%
X138341662Y-89208570D03*
X139685164Y-87865068D03*
%TD*%
%TO.C,LED93*%
X138341662Y-92800673D03*
X139685164Y-91457171D03*
%TD*%
%TO.C,LED94*%
X138341662Y-96392775D03*
X139685164Y-95049273D03*
%TD*%
%TO.C,LED95*%
X138341662Y-99984878D03*
X139685164Y-98641376D03*
%TD*%
%TO.C,LED96*%
X138341662Y-103576980D03*
X139685164Y-102233478D03*
%TD*%
%TO.C,LED97*%
X141968133Y-49695443D03*
X143311635Y-48351941D03*
%TD*%
%TO.C,LED98*%
X141968133Y-53287546D03*
X143311635Y-51944044D03*
%TD*%
%TO.C,LED99*%
X141968133Y-56879648D03*
X143311635Y-55536146D03*
%TD*%
%TO.C,LED100*%
X141968133Y-60471751D03*
X143311635Y-59128249D03*
%TD*%
%TO.C,LED101*%
X141968133Y-64063853D03*
X143311635Y-62720351D03*
%TD*%
%TO.C,LED102*%
X141968133Y-67655956D03*
X143311635Y-66312454D03*
%TD*%
%TO.C,LED103*%
X141968133Y-71248058D03*
X143311635Y-69904556D03*
%TD*%
%TO.C,LED104*%
X141968133Y-74840160D03*
X143311635Y-73496658D03*
%TD*%
%TO.C,LED105*%
X141968133Y-78432263D03*
X143311635Y-77088761D03*
%TD*%
%TO.C,LED106*%
X141968133Y-82024365D03*
X143311635Y-80680863D03*
%TD*%
%TO.C,LED107*%
X141968133Y-85616468D03*
X143311635Y-84272966D03*
%TD*%
%TO.C,LED108*%
X141968133Y-89208570D03*
X143311635Y-87865068D03*
%TD*%
%TO.C,LED109*%
X141968133Y-92800673D03*
X143311635Y-91457171D03*
%TD*%
%TO.C,LED110*%
X141968133Y-96392775D03*
X143311635Y-95049273D03*
%TD*%
%TO.C,LED111*%
X141968133Y-99984878D03*
X143311635Y-98641376D03*
%TD*%
%TO.C,LED112*%
X141968133Y-103576980D03*
X143311635Y-102233478D03*
%TD*%
%TO.C,LED113*%
X145594604Y-49695443D03*
X146938106Y-48351941D03*
%TD*%
%TO.C,LED114*%
X145594604Y-53287546D03*
X146938106Y-51944044D03*
%TD*%
%TO.C,LED115*%
X145594604Y-56879648D03*
X146938106Y-55536146D03*
%TD*%
%TO.C,LED116*%
X145594604Y-60471751D03*
X146938106Y-59128249D03*
%TD*%
%TO.C,LED117*%
X145594604Y-64063853D03*
X146938106Y-62720351D03*
%TD*%
%TO.C,LED118*%
X145594604Y-67655956D03*
X146938106Y-66312454D03*
%TD*%
%TO.C,LED119*%
X145594604Y-71248058D03*
X146938106Y-69904556D03*
%TD*%
%TO.C,LED120*%
X145594604Y-74840160D03*
X146938106Y-73496658D03*
%TD*%
%TO.C,LED121*%
X145594604Y-78432263D03*
X146938106Y-77088761D03*
%TD*%
%TO.C,LED122*%
X145594604Y-82024365D03*
X146938106Y-80680863D03*
%TD*%
%TO.C,LED123*%
X145594604Y-85616468D03*
X146938106Y-84272966D03*
%TD*%
%TO.C,LED124*%
X145594604Y-89208570D03*
X146938106Y-87865068D03*
%TD*%
%TO.C,LED125*%
X145594604Y-92800673D03*
X146938106Y-91457171D03*
%TD*%
%TO.C,LED126*%
X145594604Y-96392775D03*
X146938106Y-95049273D03*
%TD*%
%TO.C,LED127*%
X145594604Y-99984878D03*
X146938106Y-98641376D03*
%TD*%
%TO.C,LED128*%
X145594604Y-103576980D03*
X146938106Y-102233478D03*
%TD*%
%TO.C,LED129*%
X149221075Y-49695443D03*
X150564577Y-48351941D03*
%TD*%
%TO.C,LED130*%
X149221075Y-53287546D03*
X150564577Y-51944044D03*
%TD*%
%TO.C,LED131*%
X149221075Y-56879648D03*
X150564577Y-55536146D03*
%TD*%
%TO.C,LED132*%
X149221075Y-60471751D03*
X150564577Y-59128249D03*
%TD*%
%TO.C,LED133*%
X149221075Y-64063853D03*
X150564577Y-62720351D03*
%TD*%
%TO.C,LED134*%
X149221075Y-67655956D03*
X150564577Y-66312454D03*
%TD*%
%TO.C,LED135*%
X149221075Y-71248058D03*
X150564577Y-69904556D03*
%TD*%
%TO.C,LED136*%
X149221075Y-74840160D03*
X150564577Y-73496658D03*
%TD*%
%TO.C,LED137*%
X149221075Y-78432263D03*
X150564577Y-77088761D03*
%TD*%
%TO.C,LED138*%
X149221075Y-82024365D03*
X150564577Y-80680863D03*
%TD*%
%TO.C,LED139*%
X149221075Y-85616468D03*
X150564577Y-84272966D03*
%TD*%
%TO.C,LED140*%
X149221075Y-89208570D03*
X150564577Y-87865068D03*
%TD*%
%TO.C,LED141*%
X149221075Y-92800673D03*
X150564577Y-91457171D03*
%TD*%
%TO.C,LED142*%
X149221075Y-96392775D03*
X150564577Y-95049273D03*
%TD*%
%TO.C,LED143*%
X149221075Y-99984878D03*
X150564577Y-98641376D03*
%TD*%
%TO.C,LED144*%
X149221075Y-103576980D03*
X150564577Y-102233478D03*
%TD*%
%TO.C,LED145*%
X152847546Y-49695443D03*
X154191048Y-48351941D03*
%TD*%
%TO.C,LED146*%
X152847546Y-53287546D03*
X154191048Y-51944044D03*
%TD*%
%TO.C,LED147*%
X152847546Y-56879648D03*
X154191048Y-55536146D03*
%TD*%
%TO.C,LED148*%
X152847546Y-60471751D03*
X154191048Y-59128249D03*
%TD*%
%TO.C,LED149*%
X152847546Y-64063853D03*
X154191048Y-62720351D03*
%TD*%
%TO.C,LED150*%
X152847546Y-67655956D03*
X154191048Y-66312454D03*
%TD*%
%TO.C,LED151*%
X152847546Y-71248058D03*
X154191048Y-69904556D03*
%TD*%
%TO.C,LED152*%
X152847546Y-74840160D03*
X154191048Y-73496658D03*
%TD*%
%TO.C,LED153*%
X152847546Y-78432263D03*
X154191048Y-77088761D03*
%TD*%
%TO.C,LED154*%
X152847546Y-82024365D03*
X154191048Y-80680863D03*
%TD*%
%TO.C,LED155*%
X152847546Y-85616468D03*
X154191048Y-84272966D03*
%TD*%
%TO.C,LED156*%
X152847546Y-89208570D03*
X154191048Y-87865068D03*
%TD*%
%TO.C,LED157*%
X152847546Y-92800673D03*
X154191048Y-91457171D03*
%TD*%
%TO.C,LED158*%
X152847546Y-96392775D03*
X154191048Y-95049273D03*
%TD*%
%TO.C,LED159*%
X152847546Y-99984878D03*
X154191048Y-98641376D03*
%TD*%
%TO.C,LED160*%
X152847546Y-103576980D03*
X154191048Y-102233478D03*
%TD*%
D11*
%TO.C,LED_Green_bms1*%
X116092500Y-128150000D03*
X116092500Y-126250000D03*
%TD*%
%TO.C,LED_RED_bms1*%
X118600000Y-128150000D03*
X118600000Y-126250000D03*
%TD*%
D12*
%TO.C,R_10K_12*%
X155250000Y-117900000D03*
X157150000Y-117900000D03*
%TD*%
%TO.C,R_10K_13*%
X147350000Y-116000000D03*
X149250000Y-116000000D03*
%TD*%
%TO.C,R_5.1_1*%
X136350000Y-126500000D03*
X138250000Y-126500000D03*
%TD*%
%TO.C,R_5.1k_1*%
X136350000Y-128600000D03*
X138250000Y-128600000D03*
%TD*%
%TO.C,R_10K_11*%
X148500000Y-124400000D03*
X150400000Y-124400000D03*
%TD*%
D13*
%TO.C,J1*%
X159040000Y-105500000D03*
X159040000Y-106770000D03*
X157770000Y-105500000D03*
X157770000Y-106770000D03*
X156500000Y-105500000D03*
X156500000Y-106770000D03*
D14*
X160310000Y-106135000D03*
X155230000Y-107151000D03*
X155230000Y-105119000D03*
%TD*%
D15*
%TO.C,S_b1*%
X152025065Y-111271365D03*
X152025065Y-115771365D03*
X159975065Y-111271365D03*
X159975065Y-115771365D03*
%TD*%
D16*
%TO.C,R4*%
X136150000Y-107700000D03*
X134250000Y-107700000D03*
%TD*%
D15*
%TO.C,S_left1*%
X114625000Y-114500000D03*
X114625000Y-119000000D03*
X122575000Y-114500000D03*
X122575000Y-119000000D03*
%TD*%
D17*
%TO.C,C_22p_6*%
X155150000Y-109300000D03*
X153550000Y-109300000D03*
%TD*%
D16*
%TO.C,R1*%
X116650000Y-112525000D03*
X114750000Y-112525000D03*
%TD*%
D17*
%TO.C,C_22p_7*%
X147000000Y-124400000D03*
X145400000Y-124400000D03*
%TD*%
D15*
%TO.C,S_right1*%
X130575000Y-114500000D03*
X130575000Y-119000000D03*
X138525000Y-114500000D03*
X138525000Y-119000000D03*
%TD*%
%TO.C,S_down1*%
X122625000Y-121292730D03*
X122625000Y-125792730D03*
X130575000Y-121292730D03*
X130575000Y-125792730D03*
%TD*%
D18*
%TO.C,IC1*%
X116700000Y-108500000D03*
D19*
X116700000Y-109450000D03*
X116700000Y-110000000D03*
X120000000Y-110000000D03*
X120000000Y-109450000D03*
D18*
X120000000Y-108500000D03*
D20*
X118350000Y-109050000D03*
%TD*%
D12*
%TO.C,R2*%
X118750000Y-112525000D03*
X120650000Y-112525000D03*
%TD*%
%TO.C,R_10K_10*%
X156650000Y-109300000D03*
X158550000Y-109300000D03*
%TD*%
D15*
%TO.C,S_up1*%
X122625000Y-107950000D03*
X122625000Y-112450000D03*
X130575000Y-107950000D03*
X130575000Y-112450000D03*
%TD*%
%TO.C,S_a1*%
X144125065Y-117971365D03*
X144125065Y-122471365D03*
X152075065Y-117971365D03*
X152075065Y-122471365D03*
%TD*%
D21*
%TO.C,C1*%
X114485000Y-108250000D03*
X114485000Y-109850000D03*
%TD*%
D22*
%TO.C,J_USB_C1*%
X141570000Y-127850000D03*
X132930000Y-127850000D03*
X132930000Y-124050000D03*
X141570000Y-124050000D03*
%TD*%
D23*
%TO.C,LS1*%
X116800000Y-105900000D03*
X124400000Y-105900000D03*
%TD*%
%TO.C,SW_Toggle1*%
X124275000Y-128050000D03*
X126775000Y-128050000D03*
X129275000Y-128050000D03*
%TD*%
M02*
