%TF.GenerationSoftware,KiCad,Pcbnew,(5.1.10)-1*%
%TF.CreationDate,2021-07-01T23:21:13+02:00*%
%TF.ProjectId,PicBytesMicro,50696342-7974-4657-934d-6963726f2e6b,rev?*%
%TF.SameCoordinates,Original*%
%TF.FileFunction,Soldermask,Top*%
%TF.FilePolarity,Negative*%
%FSLAX46Y46*%
G04 Gerber Fmt 4.6, Leading zero omitted, Abs format (unit mm)*
G04 Created by KiCad (PCBNEW (5.1.10)-1) date 2021-07-01 23:21:13*
%MOMM*%
%LPD*%
G01*
G04 APERTURE LIST*
%ADD10C,1.400000*%
%ADD11C,1.900000*%
%ADD12C,1.950000*%
%ADD13C,1.825000*%
%ADD14C,2.100000*%
%ADD15C,1.394000*%
G04 APERTURE END LIST*
D10*
%TO.C,SW_Toggle1*%
X173900000Y-50900000D03*
X173900000Y-53400000D03*
X173900000Y-55900000D03*
%TD*%
D11*
%TO.C,S_up1*%
X120200000Y-129690000D03*
X120200000Y-120690000D03*
D12*
X113950000Y-122940000D03*
X126450000Y-122940000D03*
X113950000Y-127440000D03*
X126450000Y-127440000D03*
%TD*%
D11*
%TO.C,S_right1*%
X132900000Y-142390000D03*
X132900000Y-133390000D03*
D12*
X126650000Y-135640000D03*
X139150000Y-135640000D03*
X126650000Y-140140000D03*
X139150000Y-140140000D03*
%TD*%
D11*
%TO.C,S_left1*%
X107500000Y-142390000D03*
X107500000Y-133390000D03*
D12*
X101250000Y-135640000D03*
X113750000Y-135640000D03*
X101250000Y-140140000D03*
X113750000Y-140140000D03*
%TD*%
D11*
%TO.C,S_down1*%
X120200000Y-155090000D03*
X120200000Y-146090000D03*
D12*
X113950000Y-148340000D03*
X126450000Y-148340000D03*
X113950000Y-152840000D03*
X126450000Y-152840000D03*
%TD*%
D11*
%TO.C,S_B1*%
X165500000Y-133500000D03*
X165500000Y-124500000D03*
D12*
X159250000Y-126750000D03*
X171750000Y-126750000D03*
X159250000Y-131250000D03*
X171750000Y-131250000D03*
%TD*%
D11*
%TO.C,S_A1*%
X152800000Y-146200000D03*
X152800000Y-137200000D03*
D12*
X146550000Y-139450000D03*
X159050000Y-139450000D03*
X146550000Y-143950000D03*
X159050000Y-143950000D03*
%TD*%
%TO.C,R_1k_2*%
G36*
G01*
X166525000Y-42450000D02*
X167925000Y-42450000D01*
G75*
G02*
X167975000Y-42500000I0J-50000D01*
G01*
X167975000Y-43500000D01*
G75*
G02*
X167925000Y-43550000I-50000J0D01*
G01*
X166525000Y-43550000D01*
G75*
G02*
X166475000Y-43500000I0J50000D01*
G01*
X166475000Y-42500000D01*
G75*
G02*
X166525000Y-42450000I50000J0D01*
G01*
G37*
G36*
G01*
X166525000Y-40550000D02*
X167925000Y-40550000D01*
G75*
G02*
X167975000Y-40600000I0J-50000D01*
G01*
X167975000Y-41600000D01*
G75*
G02*
X167925000Y-41650000I-50000J0D01*
G01*
X166525000Y-41650000D01*
G75*
G02*
X166475000Y-41600000I0J50000D01*
G01*
X166475000Y-40600000D01*
G75*
G02*
X166525000Y-40550000I50000J0D01*
G01*
G37*
%TD*%
%TO.C,R_1k_1*%
G36*
G01*
X169625000Y-42450000D02*
X171025000Y-42450000D01*
G75*
G02*
X171075000Y-42500000I0J-50000D01*
G01*
X171075000Y-43500000D01*
G75*
G02*
X171025000Y-43550000I-50000J0D01*
G01*
X169625000Y-43550000D01*
G75*
G02*
X169575000Y-43500000I0J50000D01*
G01*
X169575000Y-42500000D01*
G75*
G02*
X169625000Y-42450000I50000J0D01*
G01*
G37*
G36*
G01*
X169625000Y-40550000D02*
X171025000Y-40550000D01*
G75*
G02*
X171075000Y-40600000I0J-50000D01*
G01*
X171075000Y-41600000D01*
G75*
G02*
X171025000Y-41650000I-50000J0D01*
G01*
X169625000Y-41650000D01*
G75*
G02*
X169575000Y-41600000I0J50000D01*
G01*
X169575000Y-40600000D01*
G75*
G02*
X169625000Y-40550000I50000J0D01*
G01*
G37*
%TD*%
D13*
%TO.C,PicKit1*%
X173180000Y-152980000D03*
X173180000Y-150440000D03*
X173180000Y-147900000D03*
X173180000Y-145360000D03*
X173180000Y-142820000D03*
G36*
G01*
X172267500Y-141142500D02*
X172267500Y-139417500D01*
G75*
G02*
X172317500Y-139367500I50000J0D01*
G01*
X174042500Y-139367500D01*
G75*
G02*
X174092500Y-139417500I0J-50000D01*
G01*
X174092500Y-141142500D01*
G75*
G02*
X174042500Y-141192500I-50000J0D01*
G01*
X172317500Y-141192500D01*
G75*
G02*
X172267500Y-141142500I0J50000D01*
G01*
G37*
%TD*%
D10*
%TO.C,LS1*%
X169228000Y-59727000D03*
X169228000Y-67327000D03*
%TD*%
%TO.C,LED_RED_bms1*%
G36*
G01*
X171025000Y-45425000D02*
X169625000Y-45425000D01*
G75*
G02*
X169575000Y-45375000I0J50000D01*
G01*
X169575000Y-44425000D01*
G75*
G02*
X169625000Y-44375000I50000J0D01*
G01*
X171025000Y-44375000D01*
G75*
G02*
X171075000Y-44425000I0J-50000D01*
G01*
X171075000Y-45375000D01*
G75*
G02*
X171025000Y-45425000I-50000J0D01*
G01*
G37*
G36*
G01*
X171025000Y-47325000D02*
X169625000Y-47325000D01*
G75*
G02*
X169575000Y-47275000I0J50000D01*
G01*
X169575000Y-46325000D01*
G75*
G02*
X169625000Y-46275000I50000J0D01*
G01*
X171025000Y-46275000D01*
G75*
G02*
X171075000Y-46325000I0J-50000D01*
G01*
X171075000Y-47275000D01*
G75*
G02*
X171025000Y-47325000I-50000J0D01*
G01*
G37*
%TD*%
%TO.C,LED_Green_bms1*%
G36*
G01*
X167925000Y-45425000D02*
X166525000Y-45425000D01*
G75*
G02*
X166475000Y-45375000I0J50000D01*
G01*
X166475000Y-44425000D01*
G75*
G02*
X166525000Y-44375000I50000J0D01*
G01*
X167925000Y-44375000D01*
G75*
G02*
X167975000Y-44425000I0J-50000D01*
G01*
X167975000Y-45375000D01*
G75*
G02*
X167925000Y-45425000I-50000J0D01*
G01*
G37*
G36*
G01*
X167925000Y-47325000D02*
X166525000Y-47325000D01*
G75*
G02*
X166475000Y-47275000I0J50000D01*
G01*
X166475000Y-46325000D01*
G75*
G02*
X166525000Y-46275000I50000J0D01*
G01*
X167925000Y-46275000D01*
G75*
G02*
X167975000Y-46325000I0J-50000D01*
G01*
X167975000Y-47275000D01*
G75*
G02*
X167925000Y-47325000I-50000J0D01*
G01*
G37*
%TD*%
%TO.C,LED160*%
G36*
G01*
X160695000Y-114565000D02*
X159295000Y-114565000D01*
G75*
G02*
X159245000Y-114515000I0J50000D01*
G01*
X159245000Y-113565000D01*
G75*
G02*
X159295000Y-113515000I50000J0D01*
G01*
X160695000Y-113515000D01*
G75*
G02*
X160745000Y-113565000I0J-50000D01*
G01*
X160745000Y-114515000D01*
G75*
G02*
X160695000Y-114565000I-50000J0D01*
G01*
G37*
G36*
G01*
X160695000Y-116465000D02*
X159295000Y-116465000D01*
G75*
G02*
X159245000Y-116415000I0J50000D01*
G01*
X159245000Y-115465000D01*
G75*
G02*
X159295000Y-115415000I50000J0D01*
G01*
X160695000Y-115415000D01*
G75*
G02*
X160745000Y-115465000I0J-50000D01*
G01*
X160745000Y-116415000D01*
G75*
G02*
X160695000Y-116465000I-50000J0D01*
G01*
G37*
%TD*%
%TO.C,LED159*%
G36*
G01*
X160695000Y-109485000D02*
X159295000Y-109485000D01*
G75*
G02*
X159245000Y-109435000I0J50000D01*
G01*
X159245000Y-108485000D01*
G75*
G02*
X159295000Y-108435000I50000J0D01*
G01*
X160695000Y-108435000D01*
G75*
G02*
X160745000Y-108485000I0J-50000D01*
G01*
X160745000Y-109435000D01*
G75*
G02*
X160695000Y-109485000I-50000J0D01*
G01*
G37*
G36*
G01*
X160695000Y-111385000D02*
X159295000Y-111385000D01*
G75*
G02*
X159245000Y-111335000I0J50000D01*
G01*
X159245000Y-110385000D01*
G75*
G02*
X159295000Y-110335000I50000J0D01*
G01*
X160695000Y-110335000D01*
G75*
G02*
X160745000Y-110385000I0J-50000D01*
G01*
X160745000Y-111335000D01*
G75*
G02*
X160695000Y-111385000I-50000J0D01*
G01*
G37*
%TD*%
%TO.C,LED158*%
G36*
G01*
X160695000Y-104405000D02*
X159295000Y-104405000D01*
G75*
G02*
X159245000Y-104355000I0J50000D01*
G01*
X159245000Y-103405000D01*
G75*
G02*
X159295000Y-103355000I50000J0D01*
G01*
X160695000Y-103355000D01*
G75*
G02*
X160745000Y-103405000I0J-50000D01*
G01*
X160745000Y-104355000D01*
G75*
G02*
X160695000Y-104405000I-50000J0D01*
G01*
G37*
G36*
G01*
X160695000Y-106305000D02*
X159295000Y-106305000D01*
G75*
G02*
X159245000Y-106255000I0J50000D01*
G01*
X159245000Y-105305000D01*
G75*
G02*
X159295000Y-105255000I50000J0D01*
G01*
X160695000Y-105255000D01*
G75*
G02*
X160745000Y-105305000I0J-50000D01*
G01*
X160745000Y-106255000D01*
G75*
G02*
X160695000Y-106305000I-50000J0D01*
G01*
G37*
%TD*%
%TO.C,LED157*%
G36*
G01*
X160695000Y-99325000D02*
X159295000Y-99325000D01*
G75*
G02*
X159245000Y-99275000I0J50000D01*
G01*
X159245000Y-98325000D01*
G75*
G02*
X159295000Y-98275000I50000J0D01*
G01*
X160695000Y-98275000D01*
G75*
G02*
X160745000Y-98325000I0J-50000D01*
G01*
X160745000Y-99275000D01*
G75*
G02*
X160695000Y-99325000I-50000J0D01*
G01*
G37*
G36*
G01*
X160695000Y-101225000D02*
X159295000Y-101225000D01*
G75*
G02*
X159245000Y-101175000I0J50000D01*
G01*
X159245000Y-100225000D01*
G75*
G02*
X159295000Y-100175000I50000J0D01*
G01*
X160695000Y-100175000D01*
G75*
G02*
X160745000Y-100225000I0J-50000D01*
G01*
X160745000Y-101175000D01*
G75*
G02*
X160695000Y-101225000I-50000J0D01*
G01*
G37*
%TD*%
%TO.C,LED156*%
G36*
G01*
X160695000Y-94245000D02*
X159295000Y-94245000D01*
G75*
G02*
X159245000Y-94195000I0J50000D01*
G01*
X159245000Y-93245000D01*
G75*
G02*
X159295000Y-93195000I50000J0D01*
G01*
X160695000Y-93195000D01*
G75*
G02*
X160745000Y-93245000I0J-50000D01*
G01*
X160745000Y-94195000D01*
G75*
G02*
X160695000Y-94245000I-50000J0D01*
G01*
G37*
G36*
G01*
X160695000Y-96145000D02*
X159295000Y-96145000D01*
G75*
G02*
X159245000Y-96095000I0J50000D01*
G01*
X159245000Y-95145000D01*
G75*
G02*
X159295000Y-95095000I50000J0D01*
G01*
X160695000Y-95095000D01*
G75*
G02*
X160745000Y-95145000I0J-50000D01*
G01*
X160745000Y-96095000D01*
G75*
G02*
X160695000Y-96145000I-50000J0D01*
G01*
G37*
%TD*%
%TO.C,LED155*%
G36*
G01*
X160695000Y-89165000D02*
X159295000Y-89165000D01*
G75*
G02*
X159245000Y-89115000I0J50000D01*
G01*
X159245000Y-88165000D01*
G75*
G02*
X159295000Y-88115000I50000J0D01*
G01*
X160695000Y-88115000D01*
G75*
G02*
X160745000Y-88165000I0J-50000D01*
G01*
X160745000Y-89115000D01*
G75*
G02*
X160695000Y-89165000I-50000J0D01*
G01*
G37*
G36*
G01*
X160695000Y-91065000D02*
X159295000Y-91065000D01*
G75*
G02*
X159245000Y-91015000I0J50000D01*
G01*
X159245000Y-90065000D01*
G75*
G02*
X159295000Y-90015000I50000J0D01*
G01*
X160695000Y-90015000D01*
G75*
G02*
X160745000Y-90065000I0J-50000D01*
G01*
X160745000Y-91015000D01*
G75*
G02*
X160695000Y-91065000I-50000J0D01*
G01*
G37*
%TD*%
%TO.C,LED154*%
G36*
G01*
X160695000Y-84085000D02*
X159295000Y-84085000D01*
G75*
G02*
X159245000Y-84035000I0J50000D01*
G01*
X159245000Y-83085000D01*
G75*
G02*
X159295000Y-83035000I50000J0D01*
G01*
X160695000Y-83035000D01*
G75*
G02*
X160745000Y-83085000I0J-50000D01*
G01*
X160745000Y-84035000D01*
G75*
G02*
X160695000Y-84085000I-50000J0D01*
G01*
G37*
G36*
G01*
X160695000Y-85985000D02*
X159295000Y-85985000D01*
G75*
G02*
X159245000Y-85935000I0J50000D01*
G01*
X159245000Y-84985000D01*
G75*
G02*
X159295000Y-84935000I50000J0D01*
G01*
X160695000Y-84935000D01*
G75*
G02*
X160745000Y-84985000I0J-50000D01*
G01*
X160745000Y-85935000D01*
G75*
G02*
X160695000Y-85985000I-50000J0D01*
G01*
G37*
%TD*%
%TO.C,LED153*%
G36*
G01*
X160695000Y-79005000D02*
X159295000Y-79005000D01*
G75*
G02*
X159245000Y-78955000I0J50000D01*
G01*
X159245000Y-78005000D01*
G75*
G02*
X159295000Y-77955000I50000J0D01*
G01*
X160695000Y-77955000D01*
G75*
G02*
X160745000Y-78005000I0J-50000D01*
G01*
X160745000Y-78955000D01*
G75*
G02*
X160695000Y-79005000I-50000J0D01*
G01*
G37*
G36*
G01*
X160695000Y-80905000D02*
X159295000Y-80905000D01*
G75*
G02*
X159245000Y-80855000I0J50000D01*
G01*
X159245000Y-79905000D01*
G75*
G02*
X159295000Y-79855000I50000J0D01*
G01*
X160695000Y-79855000D01*
G75*
G02*
X160745000Y-79905000I0J-50000D01*
G01*
X160745000Y-80855000D01*
G75*
G02*
X160695000Y-80905000I-50000J0D01*
G01*
G37*
%TD*%
%TO.C,LED152*%
G36*
G01*
X160695000Y-73925000D02*
X159295000Y-73925000D01*
G75*
G02*
X159245000Y-73875000I0J50000D01*
G01*
X159245000Y-72925000D01*
G75*
G02*
X159295000Y-72875000I50000J0D01*
G01*
X160695000Y-72875000D01*
G75*
G02*
X160745000Y-72925000I0J-50000D01*
G01*
X160745000Y-73875000D01*
G75*
G02*
X160695000Y-73925000I-50000J0D01*
G01*
G37*
G36*
G01*
X160695000Y-75825000D02*
X159295000Y-75825000D01*
G75*
G02*
X159245000Y-75775000I0J50000D01*
G01*
X159245000Y-74825000D01*
G75*
G02*
X159295000Y-74775000I50000J0D01*
G01*
X160695000Y-74775000D01*
G75*
G02*
X160745000Y-74825000I0J-50000D01*
G01*
X160745000Y-75775000D01*
G75*
G02*
X160695000Y-75825000I-50000J0D01*
G01*
G37*
%TD*%
%TO.C,LED151*%
G36*
G01*
X160695000Y-68845000D02*
X159295000Y-68845000D01*
G75*
G02*
X159245000Y-68795000I0J50000D01*
G01*
X159245000Y-67845000D01*
G75*
G02*
X159295000Y-67795000I50000J0D01*
G01*
X160695000Y-67795000D01*
G75*
G02*
X160745000Y-67845000I0J-50000D01*
G01*
X160745000Y-68795000D01*
G75*
G02*
X160695000Y-68845000I-50000J0D01*
G01*
G37*
G36*
G01*
X160695000Y-70745000D02*
X159295000Y-70745000D01*
G75*
G02*
X159245000Y-70695000I0J50000D01*
G01*
X159245000Y-69745000D01*
G75*
G02*
X159295000Y-69695000I50000J0D01*
G01*
X160695000Y-69695000D01*
G75*
G02*
X160745000Y-69745000I0J-50000D01*
G01*
X160745000Y-70695000D01*
G75*
G02*
X160695000Y-70745000I-50000J0D01*
G01*
G37*
%TD*%
%TO.C,LED150*%
G36*
G01*
X160695000Y-63765000D02*
X159295000Y-63765000D01*
G75*
G02*
X159245000Y-63715000I0J50000D01*
G01*
X159245000Y-62765000D01*
G75*
G02*
X159295000Y-62715000I50000J0D01*
G01*
X160695000Y-62715000D01*
G75*
G02*
X160745000Y-62765000I0J-50000D01*
G01*
X160745000Y-63715000D01*
G75*
G02*
X160695000Y-63765000I-50000J0D01*
G01*
G37*
G36*
G01*
X160695000Y-65665000D02*
X159295000Y-65665000D01*
G75*
G02*
X159245000Y-65615000I0J50000D01*
G01*
X159245000Y-64665000D01*
G75*
G02*
X159295000Y-64615000I50000J0D01*
G01*
X160695000Y-64615000D01*
G75*
G02*
X160745000Y-64665000I0J-50000D01*
G01*
X160745000Y-65615000D01*
G75*
G02*
X160695000Y-65665000I-50000J0D01*
G01*
G37*
%TD*%
%TO.C,LED149*%
G36*
G01*
X160695000Y-58685000D02*
X159295000Y-58685000D01*
G75*
G02*
X159245000Y-58635000I0J50000D01*
G01*
X159245000Y-57685000D01*
G75*
G02*
X159295000Y-57635000I50000J0D01*
G01*
X160695000Y-57635000D01*
G75*
G02*
X160745000Y-57685000I0J-50000D01*
G01*
X160745000Y-58635000D01*
G75*
G02*
X160695000Y-58685000I-50000J0D01*
G01*
G37*
G36*
G01*
X160695000Y-60585000D02*
X159295000Y-60585000D01*
G75*
G02*
X159245000Y-60535000I0J50000D01*
G01*
X159245000Y-59585000D01*
G75*
G02*
X159295000Y-59535000I50000J0D01*
G01*
X160695000Y-59535000D01*
G75*
G02*
X160745000Y-59585000I0J-50000D01*
G01*
X160745000Y-60535000D01*
G75*
G02*
X160695000Y-60585000I-50000J0D01*
G01*
G37*
%TD*%
%TO.C,LED148*%
G36*
G01*
X160695000Y-53605000D02*
X159295000Y-53605000D01*
G75*
G02*
X159245000Y-53555000I0J50000D01*
G01*
X159245000Y-52605000D01*
G75*
G02*
X159295000Y-52555000I50000J0D01*
G01*
X160695000Y-52555000D01*
G75*
G02*
X160745000Y-52605000I0J-50000D01*
G01*
X160745000Y-53555000D01*
G75*
G02*
X160695000Y-53605000I-50000J0D01*
G01*
G37*
G36*
G01*
X160695000Y-55505000D02*
X159295000Y-55505000D01*
G75*
G02*
X159245000Y-55455000I0J50000D01*
G01*
X159245000Y-54505000D01*
G75*
G02*
X159295000Y-54455000I50000J0D01*
G01*
X160695000Y-54455000D01*
G75*
G02*
X160745000Y-54505000I0J-50000D01*
G01*
X160745000Y-55455000D01*
G75*
G02*
X160695000Y-55505000I-50000J0D01*
G01*
G37*
%TD*%
%TO.C,LED147*%
G36*
G01*
X160695000Y-48525000D02*
X159295000Y-48525000D01*
G75*
G02*
X159245000Y-48475000I0J50000D01*
G01*
X159245000Y-47525000D01*
G75*
G02*
X159295000Y-47475000I50000J0D01*
G01*
X160695000Y-47475000D01*
G75*
G02*
X160745000Y-47525000I0J-50000D01*
G01*
X160745000Y-48475000D01*
G75*
G02*
X160695000Y-48525000I-50000J0D01*
G01*
G37*
G36*
G01*
X160695000Y-50425000D02*
X159295000Y-50425000D01*
G75*
G02*
X159245000Y-50375000I0J50000D01*
G01*
X159245000Y-49425000D01*
G75*
G02*
X159295000Y-49375000I50000J0D01*
G01*
X160695000Y-49375000D01*
G75*
G02*
X160745000Y-49425000I0J-50000D01*
G01*
X160745000Y-50375000D01*
G75*
G02*
X160695000Y-50425000I-50000J0D01*
G01*
G37*
%TD*%
%TO.C,LED146*%
G36*
G01*
X160695000Y-43445000D02*
X159295000Y-43445000D01*
G75*
G02*
X159245000Y-43395000I0J50000D01*
G01*
X159245000Y-42445000D01*
G75*
G02*
X159295000Y-42395000I50000J0D01*
G01*
X160695000Y-42395000D01*
G75*
G02*
X160745000Y-42445000I0J-50000D01*
G01*
X160745000Y-43395000D01*
G75*
G02*
X160695000Y-43445000I-50000J0D01*
G01*
G37*
G36*
G01*
X160695000Y-45345000D02*
X159295000Y-45345000D01*
G75*
G02*
X159245000Y-45295000I0J50000D01*
G01*
X159245000Y-44345000D01*
G75*
G02*
X159295000Y-44295000I50000J0D01*
G01*
X160695000Y-44295000D01*
G75*
G02*
X160745000Y-44345000I0J-50000D01*
G01*
X160745000Y-45295000D01*
G75*
G02*
X160695000Y-45345000I-50000J0D01*
G01*
G37*
%TD*%
%TO.C,LED145*%
G36*
G01*
X160695000Y-38365000D02*
X159295000Y-38365000D01*
G75*
G02*
X159245000Y-38315000I0J50000D01*
G01*
X159245000Y-37365000D01*
G75*
G02*
X159295000Y-37315000I50000J0D01*
G01*
X160695000Y-37315000D01*
G75*
G02*
X160745000Y-37365000I0J-50000D01*
G01*
X160745000Y-38315000D01*
G75*
G02*
X160695000Y-38365000I-50000J0D01*
G01*
G37*
G36*
G01*
X160695000Y-40265000D02*
X159295000Y-40265000D01*
G75*
G02*
X159245000Y-40215000I0J50000D01*
G01*
X159245000Y-39265000D01*
G75*
G02*
X159295000Y-39215000I50000J0D01*
G01*
X160695000Y-39215000D01*
G75*
G02*
X160745000Y-39265000I0J-50000D01*
G01*
X160745000Y-40215000D01*
G75*
G02*
X160695000Y-40265000I-50000J0D01*
G01*
G37*
%TD*%
%TO.C,LED144*%
G36*
G01*
X155474000Y-114565000D02*
X154074000Y-114565000D01*
G75*
G02*
X154024000Y-114515000I0J50000D01*
G01*
X154024000Y-113565000D01*
G75*
G02*
X154074000Y-113515000I50000J0D01*
G01*
X155474000Y-113515000D01*
G75*
G02*
X155524000Y-113565000I0J-50000D01*
G01*
X155524000Y-114515000D01*
G75*
G02*
X155474000Y-114565000I-50000J0D01*
G01*
G37*
G36*
G01*
X155474000Y-116465000D02*
X154074000Y-116465000D01*
G75*
G02*
X154024000Y-116415000I0J50000D01*
G01*
X154024000Y-115465000D01*
G75*
G02*
X154074000Y-115415000I50000J0D01*
G01*
X155474000Y-115415000D01*
G75*
G02*
X155524000Y-115465000I0J-50000D01*
G01*
X155524000Y-116415000D01*
G75*
G02*
X155474000Y-116465000I-50000J0D01*
G01*
G37*
%TD*%
%TO.C,LED143*%
G36*
G01*
X155474000Y-109485000D02*
X154074000Y-109485000D01*
G75*
G02*
X154024000Y-109435000I0J50000D01*
G01*
X154024000Y-108485000D01*
G75*
G02*
X154074000Y-108435000I50000J0D01*
G01*
X155474000Y-108435000D01*
G75*
G02*
X155524000Y-108485000I0J-50000D01*
G01*
X155524000Y-109435000D01*
G75*
G02*
X155474000Y-109485000I-50000J0D01*
G01*
G37*
G36*
G01*
X155474000Y-111385000D02*
X154074000Y-111385000D01*
G75*
G02*
X154024000Y-111335000I0J50000D01*
G01*
X154024000Y-110385000D01*
G75*
G02*
X154074000Y-110335000I50000J0D01*
G01*
X155474000Y-110335000D01*
G75*
G02*
X155524000Y-110385000I0J-50000D01*
G01*
X155524000Y-111335000D01*
G75*
G02*
X155474000Y-111385000I-50000J0D01*
G01*
G37*
%TD*%
%TO.C,LED142*%
G36*
G01*
X155474000Y-104405000D02*
X154074000Y-104405000D01*
G75*
G02*
X154024000Y-104355000I0J50000D01*
G01*
X154024000Y-103405000D01*
G75*
G02*
X154074000Y-103355000I50000J0D01*
G01*
X155474000Y-103355000D01*
G75*
G02*
X155524000Y-103405000I0J-50000D01*
G01*
X155524000Y-104355000D01*
G75*
G02*
X155474000Y-104405000I-50000J0D01*
G01*
G37*
G36*
G01*
X155474000Y-106305000D02*
X154074000Y-106305000D01*
G75*
G02*
X154024000Y-106255000I0J50000D01*
G01*
X154024000Y-105305000D01*
G75*
G02*
X154074000Y-105255000I50000J0D01*
G01*
X155474000Y-105255000D01*
G75*
G02*
X155524000Y-105305000I0J-50000D01*
G01*
X155524000Y-106255000D01*
G75*
G02*
X155474000Y-106305000I-50000J0D01*
G01*
G37*
%TD*%
%TO.C,LED141*%
G36*
G01*
X155474000Y-99325000D02*
X154074000Y-99325000D01*
G75*
G02*
X154024000Y-99275000I0J50000D01*
G01*
X154024000Y-98325000D01*
G75*
G02*
X154074000Y-98275000I50000J0D01*
G01*
X155474000Y-98275000D01*
G75*
G02*
X155524000Y-98325000I0J-50000D01*
G01*
X155524000Y-99275000D01*
G75*
G02*
X155474000Y-99325000I-50000J0D01*
G01*
G37*
G36*
G01*
X155474000Y-101225000D02*
X154074000Y-101225000D01*
G75*
G02*
X154024000Y-101175000I0J50000D01*
G01*
X154024000Y-100225000D01*
G75*
G02*
X154074000Y-100175000I50000J0D01*
G01*
X155474000Y-100175000D01*
G75*
G02*
X155524000Y-100225000I0J-50000D01*
G01*
X155524000Y-101175000D01*
G75*
G02*
X155474000Y-101225000I-50000J0D01*
G01*
G37*
%TD*%
%TO.C,LED140*%
G36*
G01*
X155474000Y-94245000D02*
X154074000Y-94245000D01*
G75*
G02*
X154024000Y-94195000I0J50000D01*
G01*
X154024000Y-93245000D01*
G75*
G02*
X154074000Y-93195000I50000J0D01*
G01*
X155474000Y-93195000D01*
G75*
G02*
X155524000Y-93245000I0J-50000D01*
G01*
X155524000Y-94195000D01*
G75*
G02*
X155474000Y-94245000I-50000J0D01*
G01*
G37*
G36*
G01*
X155474000Y-96145000D02*
X154074000Y-96145000D01*
G75*
G02*
X154024000Y-96095000I0J50000D01*
G01*
X154024000Y-95145000D01*
G75*
G02*
X154074000Y-95095000I50000J0D01*
G01*
X155474000Y-95095000D01*
G75*
G02*
X155524000Y-95145000I0J-50000D01*
G01*
X155524000Y-96095000D01*
G75*
G02*
X155474000Y-96145000I-50000J0D01*
G01*
G37*
%TD*%
%TO.C,LED139*%
G36*
G01*
X155474000Y-89165000D02*
X154074000Y-89165000D01*
G75*
G02*
X154024000Y-89115000I0J50000D01*
G01*
X154024000Y-88165000D01*
G75*
G02*
X154074000Y-88115000I50000J0D01*
G01*
X155474000Y-88115000D01*
G75*
G02*
X155524000Y-88165000I0J-50000D01*
G01*
X155524000Y-89115000D01*
G75*
G02*
X155474000Y-89165000I-50000J0D01*
G01*
G37*
G36*
G01*
X155474000Y-91065000D02*
X154074000Y-91065000D01*
G75*
G02*
X154024000Y-91015000I0J50000D01*
G01*
X154024000Y-90065000D01*
G75*
G02*
X154074000Y-90015000I50000J0D01*
G01*
X155474000Y-90015000D01*
G75*
G02*
X155524000Y-90065000I0J-50000D01*
G01*
X155524000Y-91015000D01*
G75*
G02*
X155474000Y-91065000I-50000J0D01*
G01*
G37*
%TD*%
%TO.C,LED138*%
G36*
G01*
X155474000Y-84085000D02*
X154074000Y-84085000D01*
G75*
G02*
X154024000Y-84035000I0J50000D01*
G01*
X154024000Y-83085000D01*
G75*
G02*
X154074000Y-83035000I50000J0D01*
G01*
X155474000Y-83035000D01*
G75*
G02*
X155524000Y-83085000I0J-50000D01*
G01*
X155524000Y-84035000D01*
G75*
G02*
X155474000Y-84085000I-50000J0D01*
G01*
G37*
G36*
G01*
X155474000Y-85985000D02*
X154074000Y-85985000D01*
G75*
G02*
X154024000Y-85935000I0J50000D01*
G01*
X154024000Y-84985000D01*
G75*
G02*
X154074000Y-84935000I50000J0D01*
G01*
X155474000Y-84935000D01*
G75*
G02*
X155524000Y-84985000I0J-50000D01*
G01*
X155524000Y-85935000D01*
G75*
G02*
X155474000Y-85985000I-50000J0D01*
G01*
G37*
%TD*%
%TO.C,LED137*%
G36*
G01*
X155474000Y-79005000D02*
X154074000Y-79005000D01*
G75*
G02*
X154024000Y-78955000I0J50000D01*
G01*
X154024000Y-78005000D01*
G75*
G02*
X154074000Y-77955000I50000J0D01*
G01*
X155474000Y-77955000D01*
G75*
G02*
X155524000Y-78005000I0J-50000D01*
G01*
X155524000Y-78955000D01*
G75*
G02*
X155474000Y-79005000I-50000J0D01*
G01*
G37*
G36*
G01*
X155474000Y-80905000D02*
X154074000Y-80905000D01*
G75*
G02*
X154024000Y-80855000I0J50000D01*
G01*
X154024000Y-79905000D01*
G75*
G02*
X154074000Y-79855000I50000J0D01*
G01*
X155474000Y-79855000D01*
G75*
G02*
X155524000Y-79905000I0J-50000D01*
G01*
X155524000Y-80855000D01*
G75*
G02*
X155474000Y-80905000I-50000J0D01*
G01*
G37*
%TD*%
%TO.C,LED136*%
G36*
G01*
X155474000Y-73925000D02*
X154074000Y-73925000D01*
G75*
G02*
X154024000Y-73875000I0J50000D01*
G01*
X154024000Y-72925000D01*
G75*
G02*
X154074000Y-72875000I50000J0D01*
G01*
X155474000Y-72875000D01*
G75*
G02*
X155524000Y-72925000I0J-50000D01*
G01*
X155524000Y-73875000D01*
G75*
G02*
X155474000Y-73925000I-50000J0D01*
G01*
G37*
G36*
G01*
X155474000Y-75825000D02*
X154074000Y-75825000D01*
G75*
G02*
X154024000Y-75775000I0J50000D01*
G01*
X154024000Y-74825000D01*
G75*
G02*
X154074000Y-74775000I50000J0D01*
G01*
X155474000Y-74775000D01*
G75*
G02*
X155524000Y-74825000I0J-50000D01*
G01*
X155524000Y-75775000D01*
G75*
G02*
X155474000Y-75825000I-50000J0D01*
G01*
G37*
%TD*%
%TO.C,LED135*%
G36*
G01*
X155474000Y-68845000D02*
X154074000Y-68845000D01*
G75*
G02*
X154024000Y-68795000I0J50000D01*
G01*
X154024000Y-67845000D01*
G75*
G02*
X154074000Y-67795000I50000J0D01*
G01*
X155474000Y-67795000D01*
G75*
G02*
X155524000Y-67845000I0J-50000D01*
G01*
X155524000Y-68795000D01*
G75*
G02*
X155474000Y-68845000I-50000J0D01*
G01*
G37*
G36*
G01*
X155474000Y-70745000D02*
X154074000Y-70745000D01*
G75*
G02*
X154024000Y-70695000I0J50000D01*
G01*
X154024000Y-69745000D01*
G75*
G02*
X154074000Y-69695000I50000J0D01*
G01*
X155474000Y-69695000D01*
G75*
G02*
X155524000Y-69745000I0J-50000D01*
G01*
X155524000Y-70695000D01*
G75*
G02*
X155474000Y-70745000I-50000J0D01*
G01*
G37*
%TD*%
%TO.C,LED134*%
G36*
G01*
X155474000Y-63765000D02*
X154074000Y-63765000D01*
G75*
G02*
X154024000Y-63715000I0J50000D01*
G01*
X154024000Y-62765000D01*
G75*
G02*
X154074000Y-62715000I50000J0D01*
G01*
X155474000Y-62715000D01*
G75*
G02*
X155524000Y-62765000I0J-50000D01*
G01*
X155524000Y-63715000D01*
G75*
G02*
X155474000Y-63765000I-50000J0D01*
G01*
G37*
G36*
G01*
X155474000Y-65665000D02*
X154074000Y-65665000D01*
G75*
G02*
X154024000Y-65615000I0J50000D01*
G01*
X154024000Y-64665000D01*
G75*
G02*
X154074000Y-64615000I50000J0D01*
G01*
X155474000Y-64615000D01*
G75*
G02*
X155524000Y-64665000I0J-50000D01*
G01*
X155524000Y-65615000D01*
G75*
G02*
X155474000Y-65665000I-50000J0D01*
G01*
G37*
%TD*%
%TO.C,LED133*%
G36*
G01*
X155474000Y-58685000D02*
X154074000Y-58685000D01*
G75*
G02*
X154024000Y-58635000I0J50000D01*
G01*
X154024000Y-57685000D01*
G75*
G02*
X154074000Y-57635000I50000J0D01*
G01*
X155474000Y-57635000D01*
G75*
G02*
X155524000Y-57685000I0J-50000D01*
G01*
X155524000Y-58635000D01*
G75*
G02*
X155474000Y-58685000I-50000J0D01*
G01*
G37*
G36*
G01*
X155474000Y-60585000D02*
X154074000Y-60585000D01*
G75*
G02*
X154024000Y-60535000I0J50000D01*
G01*
X154024000Y-59585000D01*
G75*
G02*
X154074000Y-59535000I50000J0D01*
G01*
X155474000Y-59535000D01*
G75*
G02*
X155524000Y-59585000I0J-50000D01*
G01*
X155524000Y-60535000D01*
G75*
G02*
X155474000Y-60585000I-50000J0D01*
G01*
G37*
%TD*%
%TO.C,LED132*%
G36*
G01*
X155474000Y-53605000D02*
X154074000Y-53605000D01*
G75*
G02*
X154024000Y-53555000I0J50000D01*
G01*
X154024000Y-52605000D01*
G75*
G02*
X154074000Y-52555000I50000J0D01*
G01*
X155474000Y-52555000D01*
G75*
G02*
X155524000Y-52605000I0J-50000D01*
G01*
X155524000Y-53555000D01*
G75*
G02*
X155474000Y-53605000I-50000J0D01*
G01*
G37*
G36*
G01*
X155474000Y-55505000D02*
X154074000Y-55505000D01*
G75*
G02*
X154024000Y-55455000I0J50000D01*
G01*
X154024000Y-54505000D01*
G75*
G02*
X154074000Y-54455000I50000J0D01*
G01*
X155474000Y-54455000D01*
G75*
G02*
X155524000Y-54505000I0J-50000D01*
G01*
X155524000Y-55455000D01*
G75*
G02*
X155474000Y-55505000I-50000J0D01*
G01*
G37*
%TD*%
%TO.C,LED131*%
G36*
G01*
X155474000Y-48525000D02*
X154074000Y-48525000D01*
G75*
G02*
X154024000Y-48475000I0J50000D01*
G01*
X154024000Y-47525000D01*
G75*
G02*
X154074000Y-47475000I50000J0D01*
G01*
X155474000Y-47475000D01*
G75*
G02*
X155524000Y-47525000I0J-50000D01*
G01*
X155524000Y-48475000D01*
G75*
G02*
X155474000Y-48525000I-50000J0D01*
G01*
G37*
G36*
G01*
X155474000Y-50425000D02*
X154074000Y-50425000D01*
G75*
G02*
X154024000Y-50375000I0J50000D01*
G01*
X154024000Y-49425000D01*
G75*
G02*
X154074000Y-49375000I50000J0D01*
G01*
X155474000Y-49375000D01*
G75*
G02*
X155524000Y-49425000I0J-50000D01*
G01*
X155524000Y-50375000D01*
G75*
G02*
X155474000Y-50425000I-50000J0D01*
G01*
G37*
%TD*%
%TO.C,LED130*%
G36*
G01*
X155474000Y-43445000D02*
X154074000Y-43445000D01*
G75*
G02*
X154024000Y-43395000I0J50000D01*
G01*
X154024000Y-42445000D01*
G75*
G02*
X154074000Y-42395000I50000J0D01*
G01*
X155474000Y-42395000D01*
G75*
G02*
X155524000Y-42445000I0J-50000D01*
G01*
X155524000Y-43395000D01*
G75*
G02*
X155474000Y-43445000I-50000J0D01*
G01*
G37*
G36*
G01*
X155474000Y-45345000D02*
X154074000Y-45345000D01*
G75*
G02*
X154024000Y-45295000I0J50000D01*
G01*
X154024000Y-44345000D01*
G75*
G02*
X154074000Y-44295000I50000J0D01*
G01*
X155474000Y-44295000D01*
G75*
G02*
X155524000Y-44345000I0J-50000D01*
G01*
X155524000Y-45295000D01*
G75*
G02*
X155474000Y-45345000I-50000J0D01*
G01*
G37*
%TD*%
%TO.C,LED129*%
G36*
G01*
X155474000Y-38365000D02*
X154074000Y-38365000D01*
G75*
G02*
X154024000Y-38315000I0J50000D01*
G01*
X154024000Y-37365000D01*
G75*
G02*
X154074000Y-37315000I50000J0D01*
G01*
X155474000Y-37315000D01*
G75*
G02*
X155524000Y-37365000I0J-50000D01*
G01*
X155524000Y-38315000D01*
G75*
G02*
X155474000Y-38365000I-50000J0D01*
G01*
G37*
G36*
G01*
X155474000Y-40265000D02*
X154074000Y-40265000D01*
G75*
G02*
X154024000Y-40215000I0J50000D01*
G01*
X154024000Y-39265000D01*
G75*
G02*
X154074000Y-39215000I50000J0D01*
G01*
X155474000Y-39215000D01*
G75*
G02*
X155524000Y-39265000I0J-50000D01*
G01*
X155524000Y-40215000D01*
G75*
G02*
X155474000Y-40265000I-50000J0D01*
G01*
G37*
%TD*%
%TO.C,LED128*%
G36*
G01*
X150253000Y-114565000D02*
X148853000Y-114565000D01*
G75*
G02*
X148803000Y-114515000I0J50000D01*
G01*
X148803000Y-113565000D01*
G75*
G02*
X148853000Y-113515000I50000J0D01*
G01*
X150253000Y-113515000D01*
G75*
G02*
X150303000Y-113565000I0J-50000D01*
G01*
X150303000Y-114515000D01*
G75*
G02*
X150253000Y-114565000I-50000J0D01*
G01*
G37*
G36*
G01*
X150253000Y-116465000D02*
X148853000Y-116465000D01*
G75*
G02*
X148803000Y-116415000I0J50000D01*
G01*
X148803000Y-115465000D01*
G75*
G02*
X148853000Y-115415000I50000J0D01*
G01*
X150253000Y-115415000D01*
G75*
G02*
X150303000Y-115465000I0J-50000D01*
G01*
X150303000Y-116415000D01*
G75*
G02*
X150253000Y-116465000I-50000J0D01*
G01*
G37*
%TD*%
%TO.C,LED127*%
G36*
G01*
X150253000Y-109485000D02*
X148853000Y-109485000D01*
G75*
G02*
X148803000Y-109435000I0J50000D01*
G01*
X148803000Y-108485000D01*
G75*
G02*
X148853000Y-108435000I50000J0D01*
G01*
X150253000Y-108435000D01*
G75*
G02*
X150303000Y-108485000I0J-50000D01*
G01*
X150303000Y-109435000D01*
G75*
G02*
X150253000Y-109485000I-50000J0D01*
G01*
G37*
G36*
G01*
X150253000Y-111385000D02*
X148853000Y-111385000D01*
G75*
G02*
X148803000Y-111335000I0J50000D01*
G01*
X148803000Y-110385000D01*
G75*
G02*
X148853000Y-110335000I50000J0D01*
G01*
X150253000Y-110335000D01*
G75*
G02*
X150303000Y-110385000I0J-50000D01*
G01*
X150303000Y-111335000D01*
G75*
G02*
X150253000Y-111385000I-50000J0D01*
G01*
G37*
%TD*%
%TO.C,LED126*%
G36*
G01*
X150253000Y-104405000D02*
X148853000Y-104405000D01*
G75*
G02*
X148803000Y-104355000I0J50000D01*
G01*
X148803000Y-103405000D01*
G75*
G02*
X148853000Y-103355000I50000J0D01*
G01*
X150253000Y-103355000D01*
G75*
G02*
X150303000Y-103405000I0J-50000D01*
G01*
X150303000Y-104355000D01*
G75*
G02*
X150253000Y-104405000I-50000J0D01*
G01*
G37*
G36*
G01*
X150253000Y-106305000D02*
X148853000Y-106305000D01*
G75*
G02*
X148803000Y-106255000I0J50000D01*
G01*
X148803000Y-105305000D01*
G75*
G02*
X148853000Y-105255000I50000J0D01*
G01*
X150253000Y-105255000D01*
G75*
G02*
X150303000Y-105305000I0J-50000D01*
G01*
X150303000Y-106255000D01*
G75*
G02*
X150253000Y-106305000I-50000J0D01*
G01*
G37*
%TD*%
%TO.C,LED125*%
G36*
G01*
X150253000Y-99325000D02*
X148853000Y-99325000D01*
G75*
G02*
X148803000Y-99275000I0J50000D01*
G01*
X148803000Y-98325000D01*
G75*
G02*
X148853000Y-98275000I50000J0D01*
G01*
X150253000Y-98275000D01*
G75*
G02*
X150303000Y-98325000I0J-50000D01*
G01*
X150303000Y-99275000D01*
G75*
G02*
X150253000Y-99325000I-50000J0D01*
G01*
G37*
G36*
G01*
X150253000Y-101225000D02*
X148853000Y-101225000D01*
G75*
G02*
X148803000Y-101175000I0J50000D01*
G01*
X148803000Y-100225000D01*
G75*
G02*
X148853000Y-100175000I50000J0D01*
G01*
X150253000Y-100175000D01*
G75*
G02*
X150303000Y-100225000I0J-50000D01*
G01*
X150303000Y-101175000D01*
G75*
G02*
X150253000Y-101225000I-50000J0D01*
G01*
G37*
%TD*%
%TO.C,LED124*%
G36*
G01*
X150253000Y-94245000D02*
X148853000Y-94245000D01*
G75*
G02*
X148803000Y-94195000I0J50000D01*
G01*
X148803000Y-93245000D01*
G75*
G02*
X148853000Y-93195000I50000J0D01*
G01*
X150253000Y-93195000D01*
G75*
G02*
X150303000Y-93245000I0J-50000D01*
G01*
X150303000Y-94195000D01*
G75*
G02*
X150253000Y-94245000I-50000J0D01*
G01*
G37*
G36*
G01*
X150253000Y-96145000D02*
X148853000Y-96145000D01*
G75*
G02*
X148803000Y-96095000I0J50000D01*
G01*
X148803000Y-95145000D01*
G75*
G02*
X148853000Y-95095000I50000J0D01*
G01*
X150253000Y-95095000D01*
G75*
G02*
X150303000Y-95145000I0J-50000D01*
G01*
X150303000Y-96095000D01*
G75*
G02*
X150253000Y-96145000I-50000J0D01*
G01*
G37*
%TD*%
%TO.C,LED123*%
G36*
G01*
X150253000Y-89165000D02*
X148853000Y-89165000D01*
G75*
G02*
X148803000Y-89115000I0J50000D01*
G01*
X148803000Y-88165000D01*
G75*
G02*
X148853000Y-88115000I50000J0D01*
G01*
X150253000Y-88115000D01*
G75*
G02*
X150303000Y-88165000I0J-50000D01*
G01*
X150303000Y-89115000D01*
G75*
G02*
X150253000Y-89165000I-50000J0D01*
G01*
G37*
G36*
G01*
X150253000Y-91065000D02*
X148853000Y-91065000D01*
G75*
G02*
X148803000Y-91015000I0J50000D01*
G01*
X148803000Y-90065000D01*
G75*
G02*
X148853000Y-90015000I50000J0D01*
G01*
X150253000Y-90015000D01*
G75*
G02*
X150303000Y-90065000I0J-50000D01*
G01*
X150303000Y-91015000D01*
G75*
G02*
X150253000Y-91065000I-50000J0D01*
G01*
G37*
%TD*%
%TO.C,LED122*%
G36*
G01*
X150253000Y-84085000D02*
X148853000Y-84085000D01*
G75*
G02*
X148803000Y-84035000I0J50000D01*
G01*
X148803000Y-83085000D01*
G75*
G02*
X148853000Y-83035000I50000J0D01*
G01*
X150253000Y-83035000D01*
G75*
G02*
X150303000Y-83085000I0J-50000D01*
G01*
X150303000Y-84035000D01*
G75*
G02*
X150253000Y-84085000I-50000J0D01*
G01*
G37*
G36*
G01*
X150253000Y-85985000D02*
X148853000Y-85985000D01*
G75*
G02*
X148803000Y-85935000I0J50000D01*
G01*
X148803000Y-84985000D01*
G75*
G02*
X148853000Y-84935000I50000J0D01*
G01*
X150253000Y-84935000D01*
G75*
G02*
X150303000Y-84985000I0J-50000D01*
G01*
X150303000Y-85935000D01*
G75*
G02*
X150253000Y-85985000I-50000J0D01*
G01*
G37*
%TD*%
%TO.C,LED121*%
G36*
G01*
X150253000Y-79005000D02*
X148853000Y-79005000D01*
G75*
G02*
X148803000Y-78955000I0J50000D01*
G01*
X148803000Y-78005000D01*
G75*
G02*
X148853000Y-77955000I50000J0D01*
G01*
X150253000Y-77955000D01*
G75*
G02*
X150303000Y-78005000I0J-50000D01*
G01*
X150303000Y-78955000D01*
G75*
G02*
X150253000Y-79005000I-50000J0D01*
G01*
G37*
G36*
G01*
X150253000Y-80905000D02*
X148853000Y-80905000D01*
G75*
G02*
X148803000Y-80855000I0J50000D01*
G01*
X148803000Y-79905000D01*
G75*
G02*
X148853000Y-79855000I50000J0D01*
G01*
X150253000Y-79855000D01*
G75*
G02*
X150303000Y-79905000I0J-50000D01*
G01*
X150303000Y-80855000D01*
G75*
G02*
X150253000Y-80905000I-50000J0D01*
G01*
G37*
%TD*%
%TO.C,LED120*%
G36*
G01*
X150253000Y-73925000D02*
X148853000Y-73925000D01*
G75*
G02*
X148803000Y-73875000I0J50000D01*
G01*
X148803000Y-72925000D01*
G75*
G02*
X148853000Y-72875000I50000J0D01*
G01*
X150253000Y-72875000D01*
G75*
G02*
X150303000Y-72925000I0J-50000D01*
G01*
X150303000Y-73875000D01*
G75*
G02*
X150253000Y-73925000I-50000J0D01*
G01*
G37*
G36*
G01*
X150253000Y-75825000D02*
X148853000Y-75825000D01*
G75*
G02*
X148803000Y-75775000I0J50000D01*
G01*
X148803000Y-74825000D01*
G75*
G02*
X148853000Y-74775000I50000J0D01*
G01*
X150253000Y-74775000D01*
G75*
G02*
X150303000Y-74825000I0J-50000D01*
G01*
X150303000Y-75775000D01*
G75*
G02*
X150253000Y-75825000I-50000J0D01*
G01*
G37*
%TD*%
%TO.C,LED119*%
G36*
G01*
X150253000Y-68845000D02*
X148853000Y-68845000D01*
G75*
G02*
X148803000Y-68795000I0J50000D01*
G01*
X148803000Y-67845000D01*
G75*
G02*
X148853000Y-67795000I50000J0D01*
G01*
X150253000Y-67795000D01*
G75*
G02*
X150303000Y-67845000I0J-50000D01*
G01*
X150303000Y-68795000D01*
G75*
G02*
X150253000Y-68845000I-50000J0D01*
G01*
G37*
G36*
G01*
X150253000Y-70745000D02*
X148853000Y-70745000D01*
G75*
G02*
X148803000Y-70695000I0J50000D01*
G01*
X148803000Y-69745000D01*
G75*
G02*
X148853000Y-69695000I50000J0D01*
G01*
X150253000Y-69695000D01*
G75*
G02*
X150303000Y-69745000I0J-50000D01*
G01*
X150303000Y-70695000D01*
G75*
G02*
X150253000Y-70745000I-50000J0D01*
G01*
G37*
%TD*%
%TO.C,LED118*%
G36*
G01*
X150253000Y-63765000D02*
X148853000Y-63765000D01*
G75*
G02*
X148803000Y-63715000I0J50000D01*
G01*
X148803000Y-62765000D01*
G75*
G02*
X148853000Y-62715000I50000J0D01*
G01*
X150253000Y-62715000D01*
G75*
G02*
X150303000Y-62765000I0J-50000D01*
G01*
X150303000Y-63715000D01*
G75*
G02*
X150253000Y-63765000I-50000J0D01*
G01*
G37*
G36*
G01*
X150253000Y-65665000D02*
X148853000Y-65665000D01*
G75*
G02*
X148803000Y-65615000I0J50000D01*
G01*
X148803000Y-64665000D01*
G75*
G02*
X148853000Y-64615000I50000J0D01*
G01*
X150253000Y-64615000D01*
G75*
G02*
X150303000Y-64665000I0J-50000D01*
G01*
X150303000Y-65615000D01*
G75*
G02*
X150253000Y-65665000I-50000J0D01*
G01*
G37*
%TD*%
%TO.C,LED117*%
G36*
G01*
X150253000Y-58685000D02*
X148853000Y-58685000D01*
G75*
G02*
X148803000Y-58635000I0J50000D01*
G01*
X148803000Y-57685000D01*
G75*
G02*
X148853000Y-57635000I50000J0D01*
G01*
X150253000Y-57635000D01*
G75*
G02*
X150303000Y-57685000I0J-50000D01*
G01*
X150303000Y-58635000D01*
G75*
G02*
X150253000Y-58685000I-50000J0D01*
G01*
G37*
G36*
G01*
X150253000Y-60585000D02*
X148853000Y-60585000D01*
G75*
G02*
X148803000Y-60535000I0J50000D01*
G01*
X148803000Y-59585000D01*
G75*
G02*
X148853000Y-59535000I50000J0D01*
G01*
X150253000Y-59535000D01*
G75*
G02*
X150303000Y-59585000I0J-50000D01*
G01*
X150303000Y-60535000D01*
G75*
G02*
X150253000Y-60585000I-50000J0D01*
G01*
G37*
%TD*%
%TO.C,LED116*%
G36*
G01*
X150253000Y-53605000D02*
X148853000Y-53605000D01*
G75*
G02*
X148803000Y-53555000I0J50000D01*
G01*
X148803000Y-52605000D01*
G75*
G02*
X148853000Y-52555000I50000J0D01*
G01*
X150253000Y-52555000D01*
G75*
G02*
X150303000Y-52605000I0J-50000D01*
G01*
X150303000Y-53555000D01*
G75*
G02*
X150253000Y-53605000I-50000J0D01*
G01*
G37*
G36*
G01*
X150253000Y-55505000D02*
X148853000Y-55505000D01*
G75*
G02*
X148803000Y-55455000I0J50000D01*
G01*
X148803000Y-54505000D01*
G75*
G02*
X148853000Y-54455000I50000J0D01*
G01*
X150253000Y-54455000D01*
G75*
G02*
X150303000Y-54505000I0J-50000D01*
G01*
X150303000Y-55455000D01*
G75*
G02*
X150253000Y-55505000I-50000J0D01*
G01*
G37*
%TD*%
%TO.C,LED115*%
G36*
G01*
X150253000Y-48525000D02*
X148853000Y-48525000D01*
G75*
G02*
X148803000Y-48475000I0J50000D01*
G01*
X148803000Y-47525000D01*
G75*
G02*
X148853000Y-47475000I50000J0D01*
G01*
X150253000Y-47475000D01*
G75*
G02*
X150303000Y-47525000I0J-50000D01*
G01*
X150303000Y-48475000D01*
G75*
G02*
X150253000Y-48525000I-50000J0D01*
G01*
G37*
G36*
G01*
X150253000Y-50425000D02*
X148853000Y-50425000D01*
G75*
G02*
X148803000Y-50375000I0J50000D01*
G01*
X148803000Y-49425000D01*
G75*
G02*
X148853000Y-49375000I50000J0D01*
G01*
X150253000Y-49375000D01*
G75*
G02*
X150303000Y-49425000I0J-50000D01*
G01*
X150303000Y-50375000D01*
G75*
G02*
X150253000Y-50425000I-50000J0D01*
G01*
G37*
%TD*%
%TO.C,LED114*%
G36*
G01*
X150253000Y-43445000D02*
X148853000Y-43445000D01*
G75*
G02*
X148803000Y-43395000I0J50000D01*
G01*
X148803000Y-42445000D01*
G75*
G02*
X148853000Y-42395000I50000J0D01*
G01*
X150253000Y-42395000D01*
G75*
G02*
X150303000Y-42445000I0J-50000D01*
G01*
X150303000Y-43395000D01*
G75*
G02*
X150253000Y-43445000I-50000J0D01*
G01*
G37*
G36*
G01*
X150253000Y-45345000D02*
X148853000Y-45345000D01*
G75*
G02*
X148803000Y-45295000I0J50000D01*
G01*
X148803000Y-44345000D01*
G75*
G02*
X148853000Y-44295000I50000J0D01*
G01*
X150253000Y-44295000D01*
G75*
G02*
X150303000Y-44345000I0J-50000D01*
G01*
X150303000Y-45295000D01*
G75*
G02*
X150253000Y-45345000I-50000J0D01*
G01*
G37*
%TD*%
%TO.C,LED113*%
G36*
G01*
X150253000Y-38365000D02*
X148853000Y-38365000D01*
G75*
G02*
X148803000Y-38315000I0J50000D01*
G01*
X148803000Y-37365000D01*
G75*
G02*
X148853000Y-37315000I50000J0D01*
G01*
X150253000Y-37315000D01*
G75*
G02*
X150303000Y-37365000I0J-50000D01*
G01*
X150303000Y-38315000D01*
G75*
G02*
X150253000Y-38365000I-50000J0D01*
G01*
G37*
G36*
G01*
X150253000Y-40265000D02*
X148853000Y-40265000D01*
G75*
G02*
X148803000Y-40215000I0J50000D01*
G01*
X148803000Y-39265000D01*
G75*
G02*
X148853000Y-39215000I50000J0D01*
G01*
X150253000Y-39215000D01*
G75*
G02*
X150303000Y-39265000I0J-50000D01*
G01*
X150303000Y-40215000D01*
G75*
G02*
X150253000Y-40265000I-50000J0D01*
G01*
G37*
%TD*%
%TO.C,LED112*%
G36*
G01*
X145032000Y-114565000D02*
X143632000Y-114565000D01*
G75*
G02*
X143582000Y-114515000I0J50000D01*
G01*
X143582000Y-113565000D01*
G75*
G02*
X143632000Y-113515000I50000J0D01*
G01*
X145032000Y-113515000D01*
G75*
G02*
X145082000Y-113565000I0J-50000D01*
G01*
X145082000Y-114515000D01*
G75*
G02*
X145032000Y-114565000I-50000J0D01*
G01*
G37*
G36*
G01*
X145032000Y-116465000D02*
X143632000Y-116465000D01*
G75*
G02*
X143582000Y-116415000I0J50000D01*
G01*
X143582000Y-115465000D01*
G75*
G02*
X143632000Y-115415000I50000J0D01*
G01*
X145032000Y-115415000D01*
G75*
G02*
X145082000Y-115465000I0J-50000D01*
G01*
X145082000Y-116415000D01*
G75*
G02*
X145032000Y-116465000I-50000J0D01*
G01*
G37*
%TD*%
%TO.C,LED111*%
G36*
G01*
X145032000Y-109485000D02*
X143632000Y-109485000D01*
G75*
G02*
X143582000Y-109435000I0J50000D01*
G01*
X143582000Y-108485000D01*
G75*
G02*
X143632000Y-108435000I50000J0D01*
G01*
X145032000Y-108435000D01*
G75*
G02*
X145082000Y-108485000I0J-50000D01*
G01*
X145082000Y-109435000D01*
G75*
G02*
X145032000Y-109485000I-50000J0D01*
G01*
G37*
G36*
G01*
X145032000Y-111385000D02*
X143632000Y-111385000D01*
G75*
G02*
X143582000Y-111335000I0J50000D01*
G01*
X143582000Y-110385000D01*
G75*
G02*
X143632000Y-110335000I50000J0D01*
G01*
X145032000Y-110335000D01*
G75*
G02*
X145082000Y-110385000I0J-50000D01*
G01*
X145082000Y-111335000D01*
G75*
G02*
X145032000Y-111385000I-50000J0D01*
G01*
G37*
%TD*%
%TO.C,LED110*%
G36*
G01*
X145032000Y-104405000D02*
X143632000Y-104405000D01*
G75*
G02*
X143582000Y-104355000I0J50000D01*
G01*
X143582000Y-103405000D01*
G75*
G02*
X143632000Y-103355000I50000J0D01*
G01*
X145032000Y-103355000D01*
G75*
G02*
X145082000Y-103405000I0J-50000D01*
G01*
X145082000Y-104355000D01*
G75*
G02*
X145032000Y-104405000I-50000J0D01*
G01*
G37*
G36*
G01*
X145032000Y-106305000D02*
X143632000Y-106305000D01*
G75*
G02*
X143582000Y-106255000I0J50000D01*
G01*
X143582000Y-105305000D01*
G75*
G02*
X143632000Y-105255000I50000J0D01*
G01*
X145032000Y-105255000D01*
G75*
G02*
X145082000Y-105305000I0J-50000D01*
G01*
X145082000Y-106255000D01*
G75*
G02*
X145032000Y-106305000I-50000J0D01*
G01*
G37*
%TD*%
%TO.C,LED109*%
G36*
G01*
X145032000Y-99325000D02*
X143632000Y-99325000D01*
G75*
G02*
X143582000Y-99275000I0J50000D01*
G01*
X143582000Y-98325000D01*
G75*
G02*
X143632000Y-98275000I50000J0D01*
G01*
X145032000Y-98275000D01*
G75*
G02*
X145082000Y-98325000I0J-50000D01*
G01*
X145082000Y-99275000D01*
G75*
G02*
X145032000Y-99325000I-50000J0D01*
G01*
G37*
G36*
G01*
X145032000Y-101225000D02*
X143632000Y-101225000D01*
G75*
G02*
X143582000Y-101175000I0J50000D01*
G01*
X143582000Y-100225000D01*
G75*
G02*
X143632000Y-100175000I50000J0D01*
G01*
X145032000Y-100175000D01*
G75*
G02*
X145082000Y-100225000I0J-50000D01*
G01*
X145082000Y-101175000D01*
G75*
G02*
X145032000Y-101225000I-50000J0D01*
G01*
G37*
%TD*%
%TO.C,LED108*%
G36*
G01*
X145032000Y-94245000D02*
X143632000Y-94245000D01*
G75*
G02*
X143582000Y-94195000I0J50000D01*
G01*
X143582000Y-93245000D01*
G75*
G02*
X143632000Y-93195000I50000J0D01*
G01*
X145032000Y-93195000D01*
G75*
G02*
X145082000Y-93245000I0J-50000D01*
G01*
X145082000Y-94195000D01*
G75*
G02*
X145032000Y-94245000I-50000J0D01*
G01*
G37*
G36*
G01*
X145032000Y-96145000D02*
X143632000Y-96145000D01*
G75*
G02*
X143582000Y-96095000I0J50000D01*
G01*
X143582000Y-95145000D01*
G75*
G02*
X143632000Y-95095000I50000J0D01*
G01*
X145032000Y-95095000D01*
G75*
G02*
X145082000Y-95145000I0J-50000D01*
G01*
X145082000Y-96095000D01*
G75*
G02*
X145032000Y-96145000I-50000J0D01*
G01*
G37*
%TD*%
%TO.C,LED107*%
G36*
G01*
X145032000Y-89165000D02*
X143632000Y-89165000D01*
G75*
G02*
X143582000Y-89115000I0J50000D01*
G01*
X143582000Y-88165000D01*
G75*
G02*
X143632000Y-88115000I50000J0D01*
G01*
X145032000Y-88115000D01*
G75*
G02*
X145082000Y-88165000I0J-50000D01*
G01*
X145082000Y-89115000D01*
G75*
G02*
X145032000Y-89165000I-50000J0D01*
G01*
G37*
G36*
G01*
X145032000Y-91065000D02*
X143632000Y-91065000D01*
G75*
G02*
X143582000Y-91015000I0J50000D01*
G01*
X143582000Y-90065000D01*
G75*
G02*
X143632000Y-90015000I50000J0D01*
G01*
X145032000Y-90015000D01*
G75*
G02*
X145082000Y-90065000I0J-50000D01*
G01*
X145082000Y-91015000D01*
G75*
G02*
X145032000Y-91065000I-50000J0D01*
G01*
G37*
%TD*%
%TO.C,LED106*%
G36*
G01*
X145032000Y-84085000D02*
X143632000Y-84085000D01*
G75*
G02*
X143582000Y-84035000I0J50000D01*
G01*
X143582000Y-83085000D01*
G75*
G02*
X143632000Y-83035000I50000J0D01*
G01*
X145032000Y-83035000D01*
G75*
G02*
X145082000Y-83085000I0J-50000D01*
G01*
X145082000Y-84035000D01*
G75*
G02*
X145032000Y-84085000I-50000J0D01*
G01*
G37*
G36*
G01*
X145032000Y-85985000D02*
X143632000Y-85985000D01*
G75*
G02*
X143582000Y-85935000I0J50000D01*
G01*
X143582000Y-84985000D01*
G75*
G02*
X143632000Y-84935000I50000J0D01*
G01*
X145032000Y-84935000D01*
G75*
G02*
X145082000Y-84985000I0J-50000D01*
G01*
X145082000Y-85935000D01*
G75*
G02*
X145032000Y-85985000I-50000J0D01*
G01*
G37*
%TD*%
%TO.C,LED105*%
G36*
G01*
X145032000Y-79005000D02*
X143632000Y-79005000D01*
G75*
G02*
X143582000Y-78955000I0J50000D01*
G01*
X143582000Y-78005000D01*
G75*
G02*
X143632000Y-77955000I50000J0D01*
G01*
X145032000Y-77955000D01*
G75*
G02*
X145082000Y-78005000I0J-50000D01*
G01*
X145082000Y-78955000D01*
G75*
G02*
X145032000Y-79005000I-50000J0D01*
G01*
G37*
G36*
G01*
X145032000Y-80905000D02*
X143632000Y-80905000D01*
G75*
G02*
X143582000Y-80855000I0J50000D01*
G01*
X143582000Y-79905000D01*
G75*
G02*
X143632000Y-79855000I50000J0D01*
G01*
X145032000Y-79855000D01*
G75*
G02*
X145082000Y-79905000I0J-50000D01*
G01*
X145082000Y-80855000D01*
G75*
G02*
X145032000Y-80905000I-50000J0D01*
G01*
G37*
%TD*%
%TO.C,LED104*%
G36*
G01*
X145032000Y-73925000D02*
X143632000Y-73925000D01*
G75*
G02*
X143582000Y-73875000I0J50000D01*
G01*
X143582000Y-72925000D01*
G75*
G02*
X143632000Y-72875000I50000J0D01*
G01*
X145032000Y-72875000D01*
G75*
G02*
X145082000Y-72925000I0J-50000D01*
G01*
X145082000Y-73875000D01*
G75*
G02*
X145032000Y-73925000I-50000J0D01*
G01*
G37*
G36*
G01*
X145032000Y-75825000D02*
X143632000Y-75825000D01*
G75*
G02*
X143582000Y-75775000I0J50000D01*
G01*
X143582000Y-74825000D01*
G75*
G02*
X143632000Y-74775000I50000J0D01*
G01*
X145032000Y-74775000D01*
G75*
G02*
X145082000Y-74825000I0J-50000D01*
G01*
X145082000Y-75775000D01*
G75*
G02*
X145032000Y-75825000I-50000J0D01*
G01*
G37*
%TD*%
%TO.C,LED103*%
G36*
G01*
X145032000Y-68845000D02*
X143632000Y-68845000D01*
G75*
G02*
X143582000Y-68795000I0J50000D01*
G01*
X143582000Y-67845000D01*
G75*
G02*
X143632000Y-67795000I50000J0D01*
G01*
X145032000Y-67795000D01*
G75*
G02*
X145082000Y-67845000I0J-50000D01*
G01*
X145082000Y-68795000D01*
G75*
G02*
X145032000Y-68845000I-50000J0D01*
G01*
G37*
G36*
G01*
X145032000Y-70745000D02*
X143632000Y-70745000D01*
G75*
G02*
X143582000Y-70695000I0J50000D01*
G01*
X143582000Y-69745000D01*
G75*
G02*
X143632000Y-69695000I50000J0D01*
G01*
X145032000Y-69695000D01*
G75*
G02*
X145082000Y-69745000I0J-50000D01*
G01*
X145082000Y-70695000D01*
G75*
G02*
X145032000Y-70745000I-50000J0D01*
G01*
G37*
%TD*%
%TO.C,LED102*%
G36*
G01*
X145032000Y-63765000D02*
X143632000Y-63765000D01*
G75*
G02*
X143582000Y-63715000I0J50000D01*
G01*
X143582000Y-62765000D01*
G75*
G02*
X143632000Y-62715000I50000J0D01*
G01*
X145032000Y-62715000D01*
G75*
G02*
X145082000Y-62765000I0J-50000D01*
G01*
X145082000Y-63715000D01*
G75*
G02*
X145032000Y-63765000I-50000J0D01*
G01*
G37*
G36*
G01*
X145032000Y-65665000D02*
X143632000Y-65665000D01*
G75*
G02*
X143582000Y-65615000I0J50000D01*
G01*
X143582000Y-64665000D01*
G75*
G02*
X143632000Y-64615000I50000J0D01*
G01*
X145032000Y-64615000D01*
G75*
G02*
X145082000Y-64665000I0J-50000D01*
G01*
X145082000Y-65615000D01*
G75*
G02*
X145032000Y-65665000I-50000J0D01*
G01*
G37*
%TD*%
%TO.C,LED101*%
G36*
G01*
X145032000Y-58685000D02*
X143632000Y-58685000D01*
G75*
G02*
X143582000Y-58635000I0J50000D01*
G01*
X143582000Y-57685000D01*
G75*
G02*
X143632000Y-57635000I50000J0D01*
G01*
X145032000Y-57635000D01*
G75*
G02*
X145082000Y-57685000I0J-50000D01*
G01*
X145082000Y-58635000D01*
G75*
G02*
X145032000Y-58685000I-50000J0D01*
G01*
G37*
G36*
G01*
X145032000Y-60585000D02*
X143632000Y-60585000D01*
G75*
G02*
X143582000Y-60535000I0J50000D01*
G01*
X143582000Y-59585000D01*
G75*
G02*
X143632000Y-59535000I50000J0D01*
G01*
X145032000Y-59535000D01*
G75*
G02*
X145082000Y-59585000I0J-50000D01*
G01*
X145082000Y-60535000D01*
G75*
G02*
X145032000Y-60585000I-50000J0D01*
G01*
G37*
%TD*%
%TO.C,LED100*%
G36*
G01*
X145032000Y-53605000D02*
X143632000Y-53605000D01*
G75*
G02*
X143582000Y-53555000I0J50000D01*
G01*
X143582000Y-52605000D01*
G75*
G02*
X143632000Y-52555000I50000J0D01*
G01*
X145032000Y-52555000D01*
G75*
G02*
X145082000Y-52605000I0J-50000D01*
G01*
X145082000Y-53555000D01*
G75*
G02*
X145032000Y-53605000I-50000J0D01*
G01*
G37*
G36*
G01*
X145032000Y-55505000D02*
X143632000Y-55505000D01*
G75*
G02*
X143582000Y-55455000I0J50000D01*
G01*
X143582000Y-54505000D01*
G75*
G02*
X143632000Y-54455000I50000J0D01*
G01*
X145032000Y-54455000D01*
G75*
G02*
X145082000Y-54505000I0J-50000D01*
G01*
X145082000Y-55455000D01*
G75*
G02*
X145032000Y-55505000I-50000J0D01*
G01*
G37*
%TD*%
%TO.C,LED99*%
G36*
G01*
X145032000Y-48525000D02*
X143632000Y-48525000D01*
G75*
G02*
X143582000Y-48475000I0J50000D01*
G01*
X143582000Y-47525000D01*
G75*
G02*
X143632000Y-47475000I50000J0D01*
G01*
X145032000Y-47475000D01*
G75*
G02*
X145082000Y-47525000I0J-50000D01*
G01*
X145082000Y-48475000D01*
G75*
G02*
X145032000Y-48525000I-50000J0D01*
G01*
G37*
G36*
G01*
X145032000Y-50425000D02*
X143632000Y-50425000D01*
G75*
G02*
X143582000Y-50375000I0J50000D01*
G01*
X143582000Y-49425000D01*
G75*
G02*
X143632000Y-49375000I50000J0D01*
G01*
X145032000Y-49375000D01*
G75*
G02*
X145082000Y-49425000I0J-50000D01*
G01*
X145082000Y-50375000D01*
G75*
G02*
X145032000Y-50425000I-50000J0D01*
G01*
G37*
%TD*%
%TO.C,LED98*%
G36*
G01*
X145032000Y-43445000D02*
X143632000Y-43445000D01*
G75*
G02*
X143582000Y-43395000I0J50000D01*
G01*
X143582000Y-42445000D01*
G75*
G02*
X143632000Y-42395000I50000J0D01*
G01*
X145032000Y-42395000D01*
G75*
G02*
X145082000Y-42445000I0J-50000D01*
G01*
X145082000Y-43395000D01*
G75*
G02*
X145032000Y-43445000I-50000J0D01*
G01*
G37*
G36*
G01*
X145032000Y-45345000D02*
X143632000Y-45345000D01*
G75*
G02*
X143582000Y-45295000I0J50000D01*
G01*
X143582000Y-44345000D01*
G75*
G02*
X143632000Y-44295000I50000J0D01*
G01*
X145032000Y-44295000D01*
G75*
G02*
X145082000Y-44345000I0J-50000D01*
G01*
X145082000Y-45295000D01*
G75*
G02*
X145032000Y-45345000I-50000J0D01*
G01*
G37*
%TD*%
%TO.C,LED97*%
G36*
G01*
X145032000Y-38365000D02*
X143632000Y-38365000D01*
G75*
G02*
X143582000Y-38315000I0J50000D01*
G01*
X143582000Y-37365000D01*
G75*
G02*
X143632000Y-37315000I50000J0D01*
G01*
X145032000Y-37315000D01*
G75*
G02*
X145082000Y-37365000I0J-50000D01*
G01*
X145082000Y-38315000D01*
G75*
G02*
X145032000Y-38365000I-50000J0D01*
G01*
G37*
G36*
G01*
X145032000Y-40265000D02*
X143632000Y-40265000D01*
G75*
G02*
X143582000Y-40215000I0J50000D01*
G01*
X143582000Y-39265000D01*
G75*
G02*
X143632000Y-39215000I50000J0D01*
G01*
X145032000Y-39215000D01*
G75*
G02*
X145082000Y-39265000I0J-50000D01*
G01*
X145082000Y-40215000D01*
G75*
G02*
X145032000Y-40265000I-50000J0D01*
G01*
G37*
%TD*%
%TO.C,LED96*%
G36*
G01*
X139811000Y-114565000D02*
X138411000Y-114565000D01*
G75*
G02*
X138361000Y-114515000I0J50000D01*
G01*
X138361000Y-113565000D01*
G75*
G02*
X138411000Y-113515000I50000J0D01*
G01*
X139811000Y-113515000D01*
G75*
G02*
X139861000Y-113565000I0J-50000D01*
G01*
X139861000Y-114515000D01*
G75*
G02*
X139811000Y-114565000I-50000J0D01*
G01*
G37*
G36*
G01*
X139811000Y-116465000D02*
X138411000Y-116465000D01*
G75*
G02*
X138361000Y-116415000I0J50000D01*
G01*
X138361000Y-115465000D01*
G75*
G02*
X138411000Y-115415000I50000J0D01*
G01*
X139811000Y-115415000D01*
G75*
G02*
X139861000Y-115465000I0J-50000D01*
G01*
X139861000Y-116415000D01*
G75*
G02*
X139811000Y-116465000I-50000J0D01*
G01*
G37*
%TD*%
%TO.C,LED95*%
G36*
G01*
X139811000Y-109485000D02*
X138411000Y-109485000D01*
G75*
G02*
X138361000Y-109435000I0J50000D01*
G01*
X138361000Y-108485000D01*
G75*
G02*
X138411000Y-108435000I50000J0D01*
G01*
X139811000Y-108435000D01*
G75*
G02*
X139861000Y-108485000I0J-50000D01*
G01*
X139861000Y-109435000D01*
G75*
G02*
X139811000Y-109485000I-50000J0D01*
G01*
G37*
G36*
G01*
X139811000Y-111385000D02*
X138411000Y-111385000D01*
G75*
G02*
X138361000Y-111335000I0J50000D01*
G01*
X138361000Y-110385000D01*
G75*
G02*
X138411000Y-110335000I50000J0D01*
G01*
X139811000Y-110335000D01*
G75*
G02*
X139861000Y-110385000I0J-50000D01*
G01*
X139861000Y-111335000D01*
G75*
G02*
X139811000Y-111385000I-50000J0D01*
G01*
G37*
%TD*%
%TO.C,LED94*%
G36*
G01*
X139811000Y-104405000D02*
X138411000Y-104405000D01*
G75*
G02*
X138361000Y-104355000I0J50000D01*
G01*
X138361000Y-103405000D01*
G75*
G02*
X138411000Y-103355000I50000J0D01*
G01*
X139811000Y-103355000D01*
G75*
G02*
X139861000Y-103405000I0J-50000D01*
G01*
X139861000Y-104355000D01*
G75*
G02*
X139811000Y-104405000I-50000J0D01*
G01*
G37*
G36*
G01*
X139811000Y-106305000D02*
X138411000Y-106305000D01*
G75*
G02*
X138361000Y-106255000I0J50000D01*
G01*
X138361000Y-105305000D01*
G75*
G02*
X138411000Y-105255000I50000J0D01*
G01*
X139811000Y-105255000D01*
G75*
G02*
X139861000Y-105305000I0J-50000D01*
G01*
X139861000Y-106255000D01*
G75*
G02*
X139811000Y-106305000I-50000J0D01*
G01*
G37*
%TD*%
%TO.C,LED93*%
G36*
G01*
X139811000Y-99325000D02*
X138411000Y-99325000D01*
G75*
G02*
X138361000Y-99275000I0J50000D01*
G01*
X138361000Y-98325000D01*
G75*
G02*
X138411000Y-98275000I50000J0D01*
G01*
X139811000Y-98275000D01*
G75*
G02*
X139861000Y-98325000I0J-50000D01*
G01*
X139861000Y-99275000D01*
G75*
G02*
X139811000Y-99325000I-50000J0D01*
G01*
G37*
G36*
G01*
X139811000Y-101225000D02*
X138411000Y-101225000D01*
G75*
G02*
X138361000Y-101175000I0J50000D01*
G01*
X138361000Y-100225000D01*
G75*
G02*
X138411000Y-100175000I50000J0D01*
G01*
X139811000Y-100175000D01*
G75*
G02*
X139861000Y-100225000I0J-50000D01*
G01*
X139861000Y-101175000D01*
G75*
G02*
X139811000Y-101225000I-50000J0D01*
G01*
G37*
%TD*%
%TO.C,LED92*%
G36*
G01*
X139811000Y-94245000D02*
X138411000Y-94245000D01*
G75*
G02*
X138361000Y-94195000I0J50000D01*
G01*
X138361000Y-93245000D01*
G75*
G02*
X138411000Y-93195000I50000J0D01*
G01*
X139811000Y-93195000D01*
G75*
G02*
X139861000Y-93245000I0J-50000D01*
G01*
X139861000Y-94195000D01*
G75*
G02*
X139811000Y-94245000I-50000J0D01*
G01*
G37*
G36*
G01*
X139811000Y-96145000D02*
X138411000Y-96145000D01*
G75*
G02*
X138361000Y-96095000I0J50000D01*
G01*
X138361000Y-95145000D01*
G75*
G02*
X138411000Y-95095000I50000J0D01*
G01*
X139811000Y-95095000D01*
G75*
G02*
X139861000Y-95145000I0J-50000D01*
G01*
X139861000Y-96095000D01*
G75*
G02*
X139811000Y-96145000I-50000J0D01*
G01*
G37*
%TD*%
%TO.C,LED91*%
G36*
G01*
X139811000Y-89165000D02*
X138411000Y-89165000D01*
G75*
G02*
X138361000Y-89115000I0J50000D01*
G01*
X138361000Y-88165000D01*
G75*
G02*
X138411000Y-88115000I50000J0D01*
G01*
X139811000Y-88115000D01*
G75*
G02*
X139861000Y-88165000I0J-50000D01*
G01*
X139861000Y-89115000D01*
G75*
G02*
X139811000Y-89165000I-50000J0D01*
G01*
G37*
G36*
G01*
X139811000Y-91065000D02*
X138411000Y-91065000D01*
G75*
G02*
X138361000Y-91015000I0J50000D01*
G01*
X138361000Y-90065000D01*
G75*
G02*
X138411000Y-90015000I50000J0D01*
G01*
X139811000Y-90015000D01*
G75*
G02*
X139861000Y-90065000I0J-50000D01*
G01*
X139861000Y-91015000D01*
G75*
G02*
X139811000Y-91065000I-50000J0D01*
G01*
G37*
%TD*%
%TO.C,LED90*%
G36*
G01*
X139811000Y-84085000D02*
X138411000Y-84085000D01*
G75*
G02*
X138361000Y-84035000I0J50000D01*
G01*
X138361000Y-83085000D01*
G75*
G02*
X138411000Y-83035000I50000J0D01*
G01*
X139811000Y-83035000D01*
G75*
G02*
X139861000Y-83085000I0J-50000D01*
G01*
X139861000Y-84035000D01*
G75*
G02*
X139811000Y-84085000I-50000J0D01*
G01*
G37*
G36*
G01*
X139811000Y-85985000D02*
X138411000Y-85985000D01*
G75*
G02*
X138361000Y-85935000I0J50000D01*
G01*
X138361000Y-84985000D01*
G75*
G02*
X138411000Y-84935000I50000J0D01*
G01*
X139811000Y-84935000D01*
G75*
G02*
X139861000Y-84985000I0J-50000D01*
G01*
X139861000Y-85935000D01*
G75*
G02*
X139811000Y-85985000I-50000J0D01*
G01*
G37*
%TD*%
%TO.C,LED89*%
G36*
G01*
X139811000Y-79005000D02*
X138411000Y-79005000D01*
G75*
G02*
X138361000Y-78955000I0J50000D01*
G01*
X138361000Y-78005000D01*
G75*
G02*
X138411000Y-77955000I50000J0D01*
G01*
X139811000Y-77955000D01*
G75*
G02*
X139861000Y-78005000I0J-50000D01*
G01*
X139861000Y-78955000D01*
G75*
G02*
X139811000Y-79005000I-50000J0D01*
G01*
G37*
G36*
G01*
X139811000Y-80905000D02*
X138411000Y-80905000D01*
G75*
G02*
X138361000Y-80855000I0J50000D01*
G01*
X138361000Y-79905000D01*
G75*
G02*
X138411000Y-79855000I50000J0D01*
G01*
X139811000Y-79855000D01*
G75*
G02*
X139861000Y-79905000I0J-50000D01*
G01*
X139861000Y-80855000D01*
G75*
G02*
X139811000Y-80905000I-50000J0D01*
G01*
G37*
%TD*%
%TO.C,LED88*%
G36*
G01*
X139811000Y-73925000D02*
X138411000Y-73925000D01*
G75*
G02*
X138361000Y-73875000I0J50000D01*
G01*
X138361000Y-72925000D01*
G75*
G02*
X138411000Y-72875000I50000J0D01*
G01*
X139811000Y-72875000D01*
G75*
G02*
X139861000Y-72925000I0J-50000D01*
G01*
X139861000Y-73875000D01*
G75*
G02*
X139811000Y-73925000I-50000J0D01*
G01*
G37*
G36*
G01*
X139811000Y-75825000D02*
X138411000Y-75825000D01*
G75*
G02*
X138361000Y-75775000I0J50000D01*
G01*
X138361000Y-74825000D01*
G75*
G02*
X138411000Y-74775000I50000J0D01*
G01*
X139811000Y-74775000D01*
G75*
G02*
X139861000Y-74825000I0J-50000D01*
G01*
X139861000Y-75775000D01*
G75*
G02*
X139811000Y-75825000I-50000J0D01*
G01*
G37*
%TD*%
%TO.C,LED87*%
G36*
G01*
X139811000Y-68845000D02*
X138411000Y-68845000D01*
G75*
G02*
X138361000Y-68795000I0J50000D01*
G01*
X138361000Y-67845000D01*
G75*
G02*
X138411000Y-67795000I50000J0D01*
G01*
X139811000Y-67795000D01*
G75*
G02*
X139861000Y-67845000I0J-50000D01*
G01*
X139861000Y-68795000D01*
G75*
G02*
X139811000Y-68845000I-50000J0D01*
G01*
G37*
G36*
G01*
X139811000Y-70745000D02*
X138411000Y-70745000D01*
G75*
G02*
X138361000Y-70695000I0J50000D01*
G01*
X138361000Y-69745000D01*
G75*
G02*
X138411000Y-69695000I50000J0D01*
G01*
X139811000Y-69695000D01*
G75*
G02*
X139861000Y-69745000I0J-50000D01*
G01*
X139861000Y-70695000D01*
G75*
G02*
X139811000Y-70745000I-50000J0D01*
G01*
G37*
%TD*%
%TO.C,LED86*%
G36*
G01*
X139811000Y-63765000D02*
X138411000Y-63765000D01*
G75*
G02*
X138361000Y-63715000I0J50000D01*
G01*
X138361000Y-62765000D01*
G75*
G02*
X138411000Y-62715000I50000J0D01*
G01*
X139811000Y-62715000D01*
G75*
G02*
X139861000Y-62765000I0J-50000D01*
G01*
X139861000Y-63715000D01*
G75*
G02*
X139811000Y-63765000I-50000J0D01*
G01*
G37*
G36*
G01*
X139811000Y-65665000D02*
X138411000Y-65665000D01*
G75*
G02*
X138361000Y-65615000I0J50000D01*
G01*
X138361000Y-64665000D01*
G75*
G02*
X138411000Y-64615000I50000J0D01*
G01*
X139811000Y-64615000D01*
G75*
G02*
X139861000Y-64665000I0J-50000D01*
G01*
X139861000Y-65615000D01*
G75*
G02*
X139811000Y-65665000I-50000J0D01*
G01*
G37*
%TD*%
%TO.C,LED85*%
G36*
G01*
X139811000Y-58685000D02*
X138411000Y-58685000D01*
G75*
G02*
X138361000Y-58635000I0J50000D01*
G01*
X138361000Y-57685000D01*
G75*
G02*
X138411000Y-57635000I50000J0D01*
G01*
X139811000Y-57635000D01*
G75*
G02*
X139861000Y-57685000I0J-50000D01*
G01*
X139861000Y-58635000D01*
G75*
G02*
X139811000Y-58685000I-50000J0D01*
G01*
G37*
G36*
G01*
X139811000Y-60585000D02*
X138411000Y-60585000D01*
G75*
G02*
X138361000Y-60535000I0J50000D01*
G01*
X138361000Y-59585000D01*
G75*
G02*
X138411000Y-59535000I50000J0D01*
G01*
X139811000Y-59535000D01*
G75*
G02*
X139861000Y-59585000I0J-50000D01*
G01*
X139861000Y-60535000D01*
G75*
G02*
X139811000Y-60585000I-50000J0D01*
G01*
G37*
%TD*%
%TO.C,LED84*%
G36*
G01*
X139811000Y-53605000D02*
X138411000Y-53605000D01*
G75*
G02*
X138361000Y-53555000I0J50000D01*
G01*
X138361000Y-52605000D01*
G75*
G02*
X138411000Y-52555000I50000J0D01*
G01*
X139811000Y-52555000D01*
G75*
G02*
X139861000Y-52605000I0J-50000D01*
G01*
X139861000Y-53555000D01*
G75*
G02*
X139811000Y-53605000I-50000J0D01*
G01*
G37*
G36*
G01*
X139811000Y-55505000D02*
X138411000Y-55505000D01*
G75*
G02*
X138361000Y-55455000I0J50000D01*
G01*
X138361000Y-54505000D01*
G75*
G02*
X138411000Y-54455000I50000J0D01*
G01*
X139811000Y-54455000D01*
G75*
G02*
X139861000Y-54505000I0J-50000D01*
G01*
X139861000Y-55455000D01*
G75*
G02*
X139811000Y-55505000I-50000J0D01*
G01*
G37*
%TD*%
%TO.C,LED83*%
G36*
G01*
X139811000Y-48525000D02*
X138411000Y-48525000D01*
G75*
G02*
X138361000Y-48475000I0J50000D01*
G01*
X138361000Y-47525000D01*
G75*
G02*
X138411000Y-47475000I50000J0D01*
G01*
X139811000Y-47475000D01*
G75*
G02*
X139861000Y-47525000I0J-50000D01*
G01*
X139861000Y-48475000D01*
G75*
G02*
X139811000Y-48525000I-50000J0D01*
G01*
G37*
G36*
G01*
X139811000Y-50425000D02*
X138411000Y-50425000D01*
G75*
G02*
X138361000Y-50375000I0J50000D01*
G01*
X138361000Y-49425000D01*
G75*
G02*
X138411000Y-49375000I50000J0D01*
G01*
X139811000Y-49375000D01*
G75*
G02*
X139861000Y-49425000I0J-50000D01*
G01*
X139861000Y-50375000D01*
G75*
G02*
X139811000Y-50425000I-50000J0D01*
G01*
G37*
%TD*%
%TO.C,LED82*%
G36*
G01*
X139811000Y-43445000D02*
X138411000Y-43445000D01*
G75*
G02*
X138361000Y-43395000I0J50000D01*
G01*
X138361000Y-42445000D01*
G75*
G02*
X138411000Y-42395000I50000J0D01*
G01*
X139811000Y-42395000D01*
G75*
G02*
X139861000Y-42445000I0J-50000D01*
G01*
X139861000Y-43395000D01*
G75*
G02*
X139811000Y-43445000I-50000J0D01*
G01*
G37*
G36*
G01*
X139811000Y-45345000D02*
X138411000Y-45345000D01*
G75*
G02*
X138361000Y-45295000I0J50000D01*
G01*
X138361000Y-44345000D01*
G75*
G02*
X138411000Y-44295000I50000J0D01*
G01*
X139811000Y-44295000D01*
G75*
G02*
X139861000Y-44345000I0J-50000D01*
G01*
X139861000Y-45295000D01*
G75*
G02*
X139811000Y-45345000I-50000J0D01*
G01*
G37*
%TD*%
%TO.C,LED81*%
G36*
G01*
X139811000Y-38365000D02*
X138411000Y-38365000D01*
G75*
G02*
X138361000Y-38315000I0J50000D01*
G01*
X138361000Y-37365000D01*
G75*
G02*
X138411000Y-37315000I50000J0D01*
G01*
X139811000Y-37315000D01*
G75*
G02*
X139861000Y-37365000I0J-50000D01*
G01*
X139861000Y-38315000D01*
G75*
G02*
X139811000Y-38365000I-50000J0D01*
G01*
G37*
G36*
G01*
X139811000Y-40265000D02*
X138411000Y-40265000D01*
G75*
G02*
X138361000Y-40215000I0J50000D01*
G01*
X138361000Y-39265000D01*
G75*
G02*
X138411000Y-39215000I50000J0D01*
G01*
X139811000Y-39215000D01*
G75*
G02*
X139861000Y-39265000I0J-50000D01*
G01*
X139861000Y-40215000D01*
G75*
G02*
X139811000Y-40265000I-50000J0D01*
G01*
G37*
%TD*%
%TO.C,LED80*%
G36*
G01*
X134589000Y-114565000D02*
X133189000Y-114565000D01*
G75*
G02*
X133139000Y-114515000I0J50000D01*
G01*
X133139000Y-113565000D01*
G75*
G02*
X133189000Y-113515000I50000J0D01*
G01*
X134589000Y-113515000D01*
G75*
G02*
X134639000Y-113565000I0J-50000D01*
G01*
X134639000Y-114515000D01*
G75*
G02*
X134589000Y-114565000I-50000J0D01*
G01*
G37*
G36*
G01*
X134589000Y-116465000D02*
X133189000Y-116465000D01*
G75*
G02*
X133139000Y-116415000I0J50000D01*
G01*
X133139000Y-115465000D01*
G75*
G02*
X133189000Y-115415000I50000J0D01*
G01*
X134589000Y-115415000D01*
G75*
G02*
X134639000Y-115465000I0J-50000D01*
G01*
X134639000Y-116415000D01*
G75*
G02*
X134589000Y-116465000I-50000J0D01*
G01*
G37*
%TD*%
%TO.C,LED79*%
G36*
G01*
X134589000Y-109485000D02*
X133189000Y-109485000D01*
G75*
G02*
X133139000Y-109435000I0J50000D01*
G01*
X133139000Y-108485000D01*
G75*
G02*
X133189000Y-108435000I50000J0D01*
G01*
X134589000Y-108435000D01*
G75*
G02*
X134639000Y-108485000I0J-50000D01*
G01*
X134639000Y-109435000D01*
G75*
G02*
X134589000Y-109485000I-50000J0D01*
G01*
G37*
G36*
G01*
X134589000Y-111385000D02*
X133189000Y-111385000D01*
G75*
G02*
X133139000Y-111335000I0J50000D01*
G01*
X133139000Y-110385000D01*
G75*
G02*
X133189000Y-110335000I50000J0D01*
G01*
X134589000Y-110335000D01*
G75*
G02*
X134639000Y-110385000I0J-50000D01*
G01*
X134639000Y-111335000D01*
G75*
G02*
X134589000Y-111385000I-50000J0D01*
G01*
G37*
%TD*%
%TO.C,LED78*%
G36*
G01*
X134589000Y-104405000D02*
X133189000Y-104405000D01*
G75*
G02*
X133139000Y-104355000I0J50000D01*
G01*
X133139000Y-103405000D01*
G75*
G02*
X133189000Y-103355000I50000J0D01*
G01*
X134589000Y-103355000D01*
G75*
G02*
X134639000Y-103405000I0J-50000D01*
G01*
X134639000Y-104355000D01*
G75*
G02*
X134589000Y-104405000I-50000J0D01*
G01*
G37*
G36*
G01*
X134589000Y-106305000D02*
X133189000Y-106305000D01*
G75*
G02*
X133139000Y-106255000I0J50000D01*
G01*
X133139000Y-105305000D01*
G75*
G02*
X133189000Y-105255000I50000J0D01*
G01*
X134589000Y-105255000D01*
G75*
G02*
X134639000Y-105305000I0J-50000D01*
G01*
X134639000Y-106255000D01*
G75*
G02*
X134589000Y-106305000I-50000J0D01*
G01*
G37*
%TD*%
%TO.C,LED77*%
G36*
G01*
X134589000Y-99325000D02*
X133189000Y-99325000D01*
G75*
G02*
X133139000Y-99275000I0J50000D01*
G01*
X133139000Y-98325000D01*
G75*
G02*
X133189000Y-98275000I50000J0D01*
G01*
X134589000Y-98275000D01*
G75*
G02*
X134639000Y-98325000I0J-50000D01*
G01*
X134639000Y-99275000D01*
G75*
G02*
X134589000Y-99325000I-50000J0D01*
G01*
G37*
G36*
G01*
X134589000Y-101225000D02*
X133189000Y-101225000D01*
G75*
G02*
X133139000Y-101175000I0J50000D01*
G01*
X133139000Y-100225000D01*
G75*
G02*
X133189000Y-100175000I50000J0D01*
G01*
X134589000Y-100175000D01*
G75*
G02*
X134639000Y-100225000I0J-50000D01*
G01*
X134639000Y-101175000D01*
G75*
G02*
X134589000Y-101225000I-50000J0D01*
G01*
G37*
%TD*%
%TO.C,LED76*%
G36*
G01*
X134589000Y-94245000D02*
X133189000Y-94245000D01*
G75*
G02*
X133139000Y-94195000I0J50000D01*
G01*
X133139000Y-93245000D01*
G75*
G02*
X133189000Y-93195000I50000J0D01*
G01*
X134589000Y-93195000D01*
G75*
G02*
X134639000Y-93245000I0J-50000D01*
G01*
X134639000Y-94195000D01*
G75*
G02*
X134589000Y-94245000I-50000J0D01*
G01*
G37*
G36*
G01*
X134589000Y-96145000D02*
X133189000Y-96145000D01*
G75*
G02*
X133139000Y-96095000I0J50000D01*
G01*
X133139000Y-95145000D01*
G75*
G02*
X133189000Y-95095000I50000J0D01*
G01*
X134589000Y-95095000D01*
G75*
G02*
X134639000Y-95145000I0J-50000D01*
G01*
X134639000Y-96095000D01*
G75*
G02*
X134589000Y-96145000I-50000J0D01*
G01*
G37*
%TD*%
%TO.C,LED75*%
G36*
G01*
X134589000Y-89165000D02*
X133189000Y-89165000D01*
G75*
G02*
X133139000Y-89115000I0J50000D01*
G01*
X133139000Y-88165000D01*
G75*
G02*
X133189000Y-88115000I50000J0D01*
G01*
X134589000Y-88115000D01*
G75*
G02*
X134639000Y-88165000I0J-50000D01*
G01*
X134639000Y-89115000D01*
G75*
G02*
X134589000Y-89165000I-50000J0D01*
G01*
G37*
G36*
G01*
X134589000Y-91065000D02*
X133189000Y-91065000D01*
G75*
G02*
X133139000Y-91015000I0J50000D01*
G01*
X133139000Y-90065000D01*
G75*
G02*
X133189000Y-90015000I50000J0D01*
G01*
X134589000Y-90015000D01*
G75*
G02*
X134639000Y-90065000I0J-50000D01*
G01*
X134639000Y-91015000D01*
G75*
G02*
X134589000Y-91065000I-50000J0D01*
G01*
G37*
%TD*%
%TO.C,LED74*%
G36*
G01*
X134589000Y-84085000D02*
X133189000Y-84085000D01*
G75*
G02*
X133139000Y-84035000I0J50000D01*
G01*
X133139000Y-83085000D01*
G75*
G02*
X133189000Y-83035000I50000J0D01*
G01*
X134589000Y-83035000D01*
G75*
G02*
X134639000Y-83085000I0J-50000D01*
G01*
X134639000Y-84035000D01*
G75*
G02*
X134589000Y-84085000I-50000J0D01*
G01*
G37*
G36*
G01*
X134589000Y-85985000D02*
X133189000Y-85985000D01*
G75*
G02*
X133139000Y-85935000I0J50000D01*
G01*
X133139000Y-84985000D01*
G75*
G02*
X133189000Y-84935000I50000J0D01*
G01*
X134589000Y-84935000D01*
G75*
G02*
X134639000Y-84985000I0J-50000D01*
G01*
X134639000Y-85935000D01*
G75*
G02*
X134589000Y-85985000I-50000J0D01*
G01*
G37*
%TD*%
%TO.C,LED73*%
G36*
G01*
X134589000Y-79005000D02*
X133189000Y-79005000D01*
G75*
G02*
X133139000Y-78955000I0J50000D01*
G01*
X133139000Y-78005000D01*
G75*
G02*
X133189000Y-77955000I50000J0D01*
G01*
X134589000Y-77955000D01*
G75*
G02*
X134639000Y-78005000I0J-50000D01*
G01*
X134639000Y-78955000D01*
G75*
G02*
X134589000Y-79005000I-50000J0D01*
G01*
G37*
G36*
G01*
X134589000Y-80905000D02*
X133189000Y-80905000D01*
G75*
G02*
X133139000Y-80855000I0J50000D01*
G01*
X133139000Y-79905000D01*
G75*
G02*
X133189000Y-79855000I50000J0D01*
G01*
X134589000Y-79855000D01*
G75*
G02*
X134639000Y-79905000I0J-50000D01*
G01*
X134639000Y-80855000D01*
G75*
G02*
X134589000Y-80905000I-50000J0D01*
G01*
G37*
%TD*%
%TO.C,LED72*%
G36*
G01*
X134589000Y-73925000D02*
X133189000Y-73925000D01*
G75*
G02*
X133139000Y-73875000I0J50000D01*
G01*
X133139000Y-72925000D01*
G75*
G02*
X133189000Y-72875000I50000J0D01*
G01*
X134589000Y-72875000D01*
G75*
G02*
X134639000Y-72925000I0J-50000D01*
G01*
X134639000Y-73875000D01*
G75*
G02*
X134589000Y-73925000I-50000J0D01*
G01*
G37*
G36*
G01*
X134589000Y-75825000D02*
X133189000Y-75825000D01*
G75*
G02*
X133139000Y-75775000I0J50000D01*
G01*
X133139000Y-74825000D01*
G75*
G02*
X133189000Y-74775000I50000J0D01*
G01*
X134589000Y-74775000D01*
G75*
G02*
X134639000Y-74825000I0J-50000D01*
G01*
X134639000Y-75775000D01*
G75*
G02*
X134589000Y-75825000I-50000J0D01*
G01*
G37*
%TD*%
%TO.C,LED71*%
G36*
G01*
X134589000Y-68845000D02*
X133189000Y-68845000D01*
G75*
G02*
X133139000Y-68795000I0J50000D01*
G01*
X133139000Y-67845000D01*
G75*
G02*
X133189000Y-67795000I50000J0D01*
G01*
X134589000Y-67795000D01*
G75*
G02*
X134639000Y-67845000I0J-50000D01*
G01*
X134639000Y-68795000D01*
G75*
G02*
X134589000Y-68845000I-50000J0D01*
G01*
G37*
G36*
G01*
X134589000Y-70745000D02*
X133189000Y-70745000D01*
G75*
G02*
X133139000Y-70695000I0J50000D01*
G01*
X133139000Y-69745000D01*
G75*
G02*
X133189000Y-69695000I50000J0D01*
G01*
X134589000Y-69695000D01*
G75*
G02*
X134639000Y-69745000I0J-50000D01*
G01*
X134639000Y-70695000D01*
G75*
G02*
X134589000Y-70745000I-50000J0D01*
G01*
G37*
%TD*%
%TO.C,LED70*%
G36*
G01*
X134589000Y-63765000D02*
X133189000Y-63765000D01*
G75*
G02*
X133139000Y-63715000I0J50000D01*
G01*
X133139000Y-62765000D01*
G75*
G02*
X133189000Y-62715000I50000J0D01*
G01*
X134589000Y-62715000D01*
G75*
G02*
X134639000Y-62765000I0J-50000D01*
G01*
X134639000Y-63715000D01*
G75*
G02*
X134589000Y-63765000I-50000J0D01*
G01*
G37*
G36*
G01*
X134589000Y-65665000D02*
X133189000Y-65665000D01*
G75*
G02*
X133139000Y-65615000I0J50000D01*
G01*
X133139000Y-64665000D01*
G75*
G02*
X133189000Y-64615000I50000J0D01*
G01*
X134589000Y-64615000D01*
G75*
G02*
X134639000Y-64665000I0J-50000D01*
G01*
X134639000Y-65615000D01*
G75*
G02*
X134589000Y-65665000I-50000J0D01*
G01*
G37*
%TD*%
%TO.C,LED69*%
G36*
G01*
X134589000Y-58685000D02*
X133189000Y-58685000D01*
G75*
G02*
X133139000Y-58635000I0J50000D01*
G01*
X133139000Y-57685000D01*
G75*
G02*
X133189000Y-57635000I50000J0D01*
G01*
X134589000Y-57635000D01*
G75*
G02*
X134639000Y-57685000I0J-50000D01*
G01*
X134639000Y-58635000D01*
G75*
G02*
X134589000Y-58685000I-50000J0D01*
G01*
G37*
G36*
G01*
X134589000Y-60585000D02*
X133189000Y-60585000D01*
G75*
G02*
X133139000Y-60535000I0J50000D01*
G01*
X133139000Y-59585000D01*
G75*
G02*
X133189000Y-59535000I50000J0D01*
G01*
X134589000Y-59535000D01*
G75*
G02*
X134639000Y-59585000I0J-50000D01*
G01*
X134639000Y-60535000D01*
G75*
G02*
X134589000Y-60585000I-50000J0D01*
G01*
G37*
%TD*%
%TO.C,LED68*%
G36*
G01*
X134589000Y-53605000D02*
X133189000Y-53605000D01*
G75*
G02*
X133139000Y-53555000I0J50000D01*
G01*
X133139000Y-52605000D01*
G75*
G02*
X133189000Y-52555000I50000J0D01*
G01*
X134589000Y-52555000D01*
G75*
G02*
X134639000Y-52605000I0J-50000D01*
G01*
X134639000Y-53555000D01*
G75*
G02*
X134589000Y-53605000I-50000J0D01*
G01*
G37*
G36*
G01*
X134589000Y-55505000D02*
X133189000Y-55505000D01*
G75*
G02*
X133139000Y-55455000I0J50000D01*
G01*
X133139000Y-54505000D01*
G75*
G02*
X133189000Y-54455000I50000J0D01*
G01*
X134589000Y-54455000D01*
G75*
G02*
X134639000Y-54505000I0J-50000D01*
G01*
X134639000Y-55455000D01*
G75*
G02*
X134589000Y-55505000I-50000J0D01*
G01*
G37*
%TD*%
%TO.C,LED67*%
G36*
G01*
X134589000Y-48525000D02*
X133189000Y-48525000D01*
G75*
G02*
X133139000Y-48475000I0J50000D01*
G01*
X133139000Y-47525000D01*
G75*
G02*
X133189000Y-47475000I50000J0D01*
G01*
X134589000Y-47475000D01*
G75*
G02*
X134639000Y-47525000I0J-50000D01*
G01*
X134639000Y-48475000D01*
G75*
G02*
X134589000Y-48525000I-50000J0D01*
G01*
G37*
G36*
G01*
X134589000Y-50425000D02*
X133189000Y-50425000D01*
G75*
G02*
X133139000Y-50375000I0J50000D01*
G01*
X133139000Y-49425000D01*
G75*
G02*
X133189000Y-49375000I50000J0D01*
G01*
X134589000Y-49375000D01*
G75*
G02*
X134639000Y-49425000I0J-50000D01*
G01*
X134639000Y-50375000D01*
G75*
G02*
X134589000Y-50425000I-50000J0D01*
G01*
G37*
%TD*%
%TO.C,LED66*%
G36*
G01*
X134589000Y-43445000D02*
X133189000Y-43445000D01*
G75*
G02*
X133139000Y-43395000I0J50000D01*
G01*
X133139000Y-42445000D01*
G75*
G02*
X133189000Y-42395000I50000J0D01*
G01*
X134589000Y-42395000D01*
G75*
G02*
X134639000Y-42445000I0J-50000D01*
G01*
X134639000Y-43395000D01*
G75*
G02*
X134589000Y-43445000I-50000J0D01*
G01*
G37*
G36*
G01*
X134589000Y-45345000D02*
X133189000Y-45345000D01*
G75*
G02*
X133139000Y-45295000I0J50000D01*
G01*
X133139000Y-44345000D01*
G75*
G02*
X133189000Y-44295000I50000J0D01*
G01*
X134589000Y-44295000D01*
G75*
G02*
X134639000Y-44345000I0J-50000D01*
G01*
X134639000Y-45295000D01*
G75*
G02*
X134589000Y-45345000I-50000J0D01*
G01*
G37*
%TD*%
%TO.C,LED65*%
G36*
G01*
X134589000Y-38365000D02*
X133189000Y-38365000D01*
G75*
G02*
X133139000Y-38315000I0J50000D01*
G01*
X133139000Y-37365000D01*
G75*
G02*
X133189000Y-37315000I50000J0D01*
G01*
X134589000Y-37315000D01*
G75*
G02*
X134639000Y-37365000I0J-50000D01*
G01*
X134639000Y-38315000D01*
G75*
G02*
X134589000Y-38365000I-50000J0D01*
G01*
G37*
G36*
G01*
X134589000Y-40265000D02*
X133189000Y-40265000D01*
G75*
G02*
X133139000Y-40215000I0J50000D01*
G01*
X133139000Y-39265000D01*
G75*
G02*
X133189000Y-39215000I50000J0D01*
G01*
X134589000Y-39215000D01*
G75*
G02*
X134639000Y-39265000I0J-50000D01*
G01*
X134639000Y-40215000D01*
G75*
G02*
X134589000Y-40265000I-50000J0D01*
G01*
G37*
%TD*%
%TO.C,LED64*%
G36*
G01*
X129368000Y-114565000D02*
X127968000Y-114565000D01*
G75*
G02*
X127918000Y-114515000I0J50000D01*
G01*
X127918000Y-113565000D01*
G75*
G02*
X127968000Y-113515000I50000J0D01*
G01*
X129368000Y-113515000D01*
G75*
G02*
X129418000Y-113565000I0J-50000D01*
G01*
X129418000Y-114515000D01*
G75*
G02*
X129368000Y-114565000I-50000J0D01*
G01*
G37*
G36*
G01*
X129368000Y-116465000D02*
X127968000Y-116465000D01*
G75*
G02*
X127918000Y-116415000I0J50000D01*
G01*
X127918000Y-115465000D01*
G75*
G02*
X127968000Y-115415000I50000J0D01*
G01*
X129368000Y-115415000D01*
G75*
G02*
X129418000Y-115465000I0J-50000D01*
G01*
X129418000Y-116415000D01*
G75*
G02*
X129368000Y-116465000I-50000J0D01*
G01*
G37*
%TD*%
%TO.C,LED63*%
G36*
G01*
X129368000Y-109485000D02*
X127968000Y-109485000D01*
G75*
G02*
X127918000Y-109435000I0J50000D01*
G01*
X127918000Y-108485000D01*
G75*
G02*
X127968000Y-108435000I50000J0D01*
G01*
X129368000Y-108435000D01*
G75*
G02*
X129418000Y-108485000I0J-50000D01*
G01*
X129418000Y-109435000D01*
G75*
G02*
X129368000Y-109485000I-50000J0D01*
G01*
G37*
G36*
G01*
X129368000Y-111385000D02*
X127968000Y-111385000D01*
G75*
G02*
X127918000Y-111335000I0J50000D01*
G01*
X127918000Y-110385000D01*
G75*
G02*
X127968000Y-110335000I50000J0D01*
G01*
X129368000Y-110335000D01*
G75*
G02*
X129418000Y-110385000I0J-50000D01*
G01*
X129418000Y-111335000D01*
G75*
G02*
X129368000Y-111385000I-50000J0D01*
G01*
G37*
%TD*%
%TO.C,LED62*%
G36*
G01*
X129368000Y-104405000D02*
X127968000Y-104405000D01*
G75*
G02*
X127918000Y-104355000I0J50000D01*
G01*
X127918000Y-103405000D01*
G75*
G02*
X127968000Y-103355000I50000J0D01*
G01*
X129368000Y-103355000D01*
G75*
G02*
X129418000Y-103405000I0J-50000D01*
G01*
X129418000Y-104355000D01*
G75*
G02*
X129368000Y-104405000I-50000J0D01*
G01*
G37*
G36*
G01*
X129368000Y-106305000D02*
X127968000Y-106305000D01*
G75*
G02*
X127918000Y-106255000I0J50000D01*
G01*
X127918000Y-105305000D01*
G75*
G02*
X127968000Y-105255000I50000J0D01*
G01*
X129368000Y-105255000D01*
G75*
G02*
X129418000Y-105305000I0J-50000D01*
G01*
X129418000Y-106255000D01*
G75*
G02*
X129368000Y-106305000I-50000J0D01*
G01*
G37*
%TD*%
%TO.C,LED61*%
G36*
G01*
X129368000Y-99325000D02*
X127968000Y-99325000D01*
G75*
G02*
X127918000Y-99275000I0J50000D01*
G01*
X127918000Y-98325000D01*
G75*
G02*
X127968000Y-98275000I50000J0D01*
G01*
X129368000Y-98275000D01*
G75*
G02*
X129418000Y-98325000I0J-50000D01*
G01*
X129418000Y-99275000D01*
G75*
G02*
X129368000Y-99325000I-50000J0D01*
G01*
G37*
G36*
G01*
X129368000Y-101225000D02*
X127968000Y-101225000D01*
G75*
G02*
X127918000Y-101175000I0J50000D01*
G01*
X127918000Y-100225000D01*
G75*
G02*
X127968000Y-100175000I50000J0D01*
G01*
X129368000Y-100175000D01*
G75*
G02*
X129418000Y-100225000I0J-50000D01*
G01*
X129418000Y-101175000D01*
G75*
G02*
X129368000Y-101225000I-50000J0D01*
G01*
G37*
%TD*%
%TO.C,LED60*%
G36*
G01*
X129368000Y-94245000D02*
X127968000Y-94245000D01*
G75*
G02*
X127918000Y-94195000I0J50000D01*
G01*
X127918000Y-93245000D01*
G75*
G02*
X127968000Y-93195000I50000J0D01*
G01*
X129368000Y-93195000D01*
G75*
G02*
X129418000Y-93245000I0J-50000D01*
G01*
X129418000Y-94195000D01*
G75*
G02*
X129368000Y-94245000I-50000J0D01*
G01*
G37*
G36*
G01*
X129368000Y-96145000D02*
X127968000Y-96145000D01*
G75*
G02*
X127918000Y-96095000I0J50000D01*
G01*
X127918000Y-95145000D01*
G75*
G02*
X127968000Y-95095000I50000J0D01*
G01*
X129368000Y-95095000D01*
G75*
G02*
X129418000Y-95145000I0J-50000D01*
G01*
X129418000Y-96095000D01*
G75*
G02*
X129368000Y-96145000I-50000J0D01*
G01*
G37*
%TD*%
%TO.C,LED59*%
G36*
G01*
X129368000Y-89165000D02*
X127968000Y-89165000D01*
G75*
G02*
X127918000Y-89115000I0J50000D01*
G01*
X127918000Y-88165000D01*
G75*
G02*
X127968000Y-88115000I50000J0D01*
G01*
X129368000Y-88115000D01*
G75*
G02*
X129418000Y-88165000I0J-50000D01*
G01*
X129418000Y-89115000D01*
G75*
G02*
X129368000Y-89165000I-50000J0D01*
G01*
G37*
G36*
G01*
X129368000Y-91065000D02*
X127968000Y-91065000D01*
G75*
G02*
X127918000Y-91015000I0J50000D01*
G01*
X127918000Y-90065000D01*
G75*
G02*
X127968000Y-90015000I50000J0D01*
G01*
X129368000Y-90015000D01*
G75*
G02*
X129418000Y-90065000I0J-50000D01*
G01*
X129418000Y-91015000D01*
G75*
G02*
X129368000Y-91065000I-50000J0D01*
G01*
G37*
%TD*%
%TO.C,LED58*%
G36*
G01*
X129368000Y-84085000D02*
X127968000Y-84085000D01*
G75*
G02*
X127918000Y-84035000I0J50000D01*
G01*
X127918000Y-83085000D01*
G75*
G02*
X127968000Y-83035000I50000J0D01*
G01*
X129368000Y-83035000D01*
G75*
G02*
X129418000Y-83085000I0J-50000D01*
G01*
X129418000Y-84035000D01*
G75*
G02*
X129368000Y-84085000I-50000J0D01*
G01*
G37*
G36*
G01*
X129368000Y-85985000D02*
X127968000Y-85985000D01*
G75*
G02*
X127918000Y-85935000I0J50000D01*
G01*
X127918000Y-84985000D01*
G75*
G02*
X127968000Y-84935000I50000J0D01*
G01*
X129368000Y-84935000D01*
G75*
G02*
X129418000Y-84985000I0J-50000D01*
G01*
X129418000Y-85935000D01*
G75*
G02*
X129368000Y-85985000I-50000J0D01*
G01*
G37*
%TD*%
%TO.C,LED57*%
G36*
G01*
X129368000Y-79005000D02*
X127968000Y-79005000D01*
G75*
G02*
X127918000Y-78955000I0J50000D01*
G01*
X127918000Y-78005000D01*
G75*
G02*
X127968000Y-77955000I50000J0D01*
G01*
X129368000Y-77955000D01*
G75*
G02*
X129418000Y-78005000I0J-50000D01*
G01*
X129418000Y-78955000D01*
G75*
G02*
X129368000Y-79005000I-50000J0D01*
G01*
G37*
G36*
G01*
X129368000Y-80905000D02*
X127968000Y-80905000D01*
G75*
G02*
X127918000Y-80855000I0J50000D01*
G01*
X127918000Y-79905000D01*
G75*
G02*
X127968000Y-79855000I50000J0D01*
G01*
X129368000Y-79855000D01*
G75*
G02*
X129418000Y-79905000I0J-50000D01*
G01*
X129418000Y-80855000D01*
G75*
G02*
X129368000Y-80905000I-50000J0D01*
G01*
G37*
%TD*%
%TO.C,LED56*%
G36*
G01*
X129368000Y-73925000D02*
X127968000Y-73925000D01*
G75*
G02*
X127918000Y-73875000I0J50000D01*
G01*
X127918000Y-72925000D01*
G75*
G02*
X127968000Y-72875000I50000J0D01*
G01*
X129368000Y-72875000D01*
G75*
G02*
X129418000Y-72925000I0J-50000D01*
G01*
X129418000Y-73875000D01*
G75*
G02*
X129368000Y-73925000I-50000J0D01*
G01*
G37*
G36*
G01*
X129368000Y-75825000D02*
X127968000Y-75825000D01*
G75*
G02*
X127918000Y-75775000I0J50000D01*
G01*
X127918000Y-74825000D01*
G75*
G02*
X127968000Y-74775000I50000J0D01*
G01*
X129368000Y-74775000D01*
G75*
G02*
X129418000Y-74825000I0J-50000D01*
G01*
X129418000Y-75775000D01*
G75*
G02*
X129368000Y-75825000I-50000J0D01*
G01*
G37*
%TD*%
%TO.C,LED55*%
G36*
G01*
X129368000Y-68845000D02*
X127968000Y-68845000D01*
G75*
G02*
X127918000Y-68795000I0J50000D01*
G01*
X127918000Y-67845000D01*
G75*
G02*
X127968000Y-67795000I50000J0D01*
G01*
X129368000Y-67795000D01*
G75*
G02*
X129418000Y-67845000I0J-50000D01*
G01*
X129418000Y-68795000D01*
G75*
G02*
X129368000Y-68845000I-50000J0D01*
G01*
G37*
G36*
G01*
X129368000Y-70745000D02*
X127968000Y-70745000D01*
G75*
G02*
X127918000Y-70695000I0J50000D01*
G01*
X127918000Y-69745000D01*
G75*
G02*
X127968000Y-69695000I50000J0D01*
G01*
X129368000Y-69695000D01*
G75*
G02*
X129418000Y-69745000I0J-50000D01*
G01*
X129418000Y-70695000D01*
G75*
G02*
X129368000Y-70745000I-50000J0D01*
G01*
G37*
%TD*%
%TO.C,LED54*%
G36*
G01*
X129368000Y-63765000D02*
X127968000Y-63765000D01*
G75*
G02*
X127918000Y-63715000I0J50000D01*
G01*
X127918000Y-62765000D01*
G75*
G02*
X127968000Y-62715000I50000J0D01*
G01*
X129368000Y-62715000D01*
G75*
G02*
X129418000Y-62765000I0J-50000D01*
G01*
X129418000Y-63715000D01*
G75*
G02*
X129368000Y-63765000I-50000J0D01*
G01*
G37*
G36*
G01*
X129368000Y-65665000D02*
X127968000Y-65665000D01*
G75*
G02*
X127918000Y-65615000I0J50000D01*
G01*
X127918000Y-64665000D01*
G75*
G02*
X127968000Y-64615000I50000J0D01*
G01*
X129368000Y-64615000D01*
G75*
G02*
X129418000Y-64665000I0J-50000D01*
G01*
X129418000Y-65615000D01*
G75*
G02*
X129368000Y-65665000I-50000J0D01*
G01*
G37*
%TD*%
%TO.C,LED53*%
G36*
G01*
X129368000Y-58685000D02*
X127968000Y-58685000D01*
G75*
G02*
X127918000Y-58635000I0J50000D01*
G01*
X127918000Y-57685000D01*
G75*
G02*
X127968000Y-57635000I50000J0D01*
G01*
X129368000Y-57635000D01*
G75*
G02*
X129418000Y-57685000I0J-50000D01*
G01*
X129418000Y-58635000D01*
G75*
G02*
X129368000Y-58685000I-50000J0D01*
G01*
G37*
G36*
G01*
X129368000Y-60585000D02*
X127968000Y-60585000D01*
G75*
G02*
X127918000Y-60535000I0J50000D01*
G01*
X127918000Y-59585000D01*
G75*
G02*
X127968000Y-59535000I50000J0D01*
G01*
X129368000Y-59535000D01*
G75*
G02*
X129418000Y-59585000I0J-50000D01*
G01*
X129418000Y-60535000D01*
G75*
G02*
X129368000Y-60585000I-50000J0D01*
G01*
G37*
%TD*%
%TO.C,LED52*%
G36*
G01*
X129368000Y-53605000D02*
X127968000Y-53605000D01*
G75*
G02*
X127918000Y-53555000I0J50000D01*
G01*
X127918000Y-52605000D01*
G75*
G02*
X127968000Y-52555000I50000J0D01*
G01*
X129368000Y-52555000D01*
G75*
G02*
X129418000Y-52605000I0J-50000D01*
G01*
X129418000Y-53555000D01*
G75*
G02*
X129368000Y-53605000I-50000J0D01*
G01*
G37*
G36*
G01*
X129368000Y-55505000D02*
X127968000Y-55505000D01*
G75*
G02*
X127918000Y-55455000I0J50000D01*
G01*
X127918000Y-54505000D01*
G75*
G02*
X127968000Y-54455000I50000J0D01*
G01*
X129368000Y-54455000D01*
G75*
G02*
X129418000Y-54505000I0J-50000D01*
G01*
X129418000Y-55455000D01*
G75*
G02*
X129368000Y-55505000I-50000J0D01*
G01*
G37*
%TD*%
%TO.C,LED51*%
G36*
G01*
X129368000Y-48525000D02*
X127968000Y-48525000D01*
G75*
G02*
X127918000Y-48475000I0J50000D01*
G01*
X127918000Y-47525000D01*
G75*
G02*
X127968000Y-47475000I50000J0D01*
G01*
X129368000Y-47475000D01*
G75*
G02*
X129418000Y-47525000I0J-50000D01*
G01*
X129418000Y-48475000D01*
G75*
G02*
X129368000Y-48525000I-50000J0D01*
G01*
G37*
G36*
G01*
X129368000Y-50425000D02*
X127968000Y-50425000D01*
G75*
G02*
X127918000Y-50375000I0J50000D01*
G01*
X127918000Y-49425000D01*
G75*
G02*
X127968000Y-49375000I50000J0D01*
G01*
X129368000Y-49375000D01*
G75*
G02*
X129418000Y-49425000I0J-50000D01*
G01*
X129418000Y-50375000D01*
G75*
G02*
X129368000Y-50425000I-50000J0D01*
G01*
G37*
%TD*%
%TO.C,LED50*%
G36*
G01*
X129368000Y-43445000D02*
X127968000Y-43445000D01*
G75*
G02*
X127918000Y-43395000I0J50000D01*
G01*
X127918000Y-42445000D01*
G75*
G02*
X127968000Y-42395000I50000J0D01*
G01*
X129368000Y-42395000D01*
G75*
G02*
X129418000Y-42445000I0J-50000D01*
G01*
X129418000Y-43395000D01*
G75*
G02*
X129368000Y-43445000I-50000J0D01*
G01*
G37*
G36*
G01*
X129368000Y-45345000D02*
X127968000Y-45345000D01*
G75*
G02*
X127918000Y-45295000I0J50000D01*
G01*
X127918000Y-44345000D01*
G75*
G02*
X127968000Y-44295000I50000J0D01*
G01*
X129368000Y-44295000D01*
G75*
G02*
X129418000Y-44345000I0J-50000D01*
G01*
X129418000Y-45295000D01*
G75*
G02*
X129368000Y-45345000I-50000J0D01*
G01*
G37*
%TD*%
%TO.C,LED49*%
G36*
G01*
X129368000Y-38365000D02*
X127968000Y-38365000D01*
G75*
G02*
X127918000Y-38315000I0J50000D01*
G01*
X127918000Y-37365000D01*
G75*
G02*
X127968000Y-37315000I50000J0D01*
G01*
X129368000Y-37315000D01*
G75*
G02*
X129418000Y-37365000I0J-50000D01*
G01*
X129418000Y-38315000D01*
G75*
G02*
X129368000Y-38365000I-50000J0D01*
G01*
G37*
G36*
G01*
X129368000Y-40265000D02*
X127968000Y-40265000D01*
G75*
G02*
X127918000Y-40215000I0J50000D01*
G01*
X127918000Y-39265000D01*
G75*
G02*
X127968000Y-39215000I50000J0D01*
G01*
X129368000Y-39215000D01*
G75*
G02*
X129418000Y-39265000I0J-50000D01*
G01*
X129418000Y-40215000D01*
G75*
G02*
X129368000Y-40265000I-50000J0D01*
G01*
G37*
%TD*%
%TO.C,LED48*%
G36*
G01*
X124147000Y-114565000D02*
X122747000Y-114565000D01*
G75*
G02*
X122697000Y-114515000I0J50000D01*
G01*
X122697000Y-113565000D01*
G75*
G02*
X122747000Y-113515000I50000J0D01*
G01*
X124147000Y-113515000D01*
G75*
G02*
X124197000Y-113565000I0J-50000D01*
G01*
X124197000Y-114515000D01*
G75*
G02*
X124147000Y-114565000I-50000J0D01*
G01*
G37*
G36*
G01*
X124147000Y-116465000D02*
X122747000Y-116465000D01*
G75*
G02*
X122697000Y-116415000I0J50000D01*
G01*
X122697000Y-115465000D01*
G75*
G02*
X122747000Y-115415000I50000J0D01*
G01*
X124147000Y-115415000D01*
G75*
G02*
X124197000Y-115465000I0J-50000D01*
G01*
X124197000Y-116415000D01*
G75*
G02*
X124147000Y-116465000I-50000J0D01*
G01*
G37*
%TD*%
%TO.C,LED47*%
G36*
G01*
X124147000Y-109485000D02*
X122747000Y-109485000D01*
G75*
G02*
X122697000Y-109435000I0J50000D01*
G01*
X122697000Y-108485000D01*
G75*
G02*
X122747000Y-108435000I50000J0D01*
G01*
X124147000Y-108435000D01*
G75*
G02*
X124197000Y-108485000I0J-50000D01*
G01*
X124197000Y-109435000D01*
G75*
G02*
X124147000Y-109485000I-50000J0D01*
G01*
G37*
G36*
G01*
X124147000Y-111385000D02*
X122747000Y-111385000D01*
G75*
G02*
X122697000Y-111335000I0J50000D01*
G01*
X122697000Y-110385000D01*
G75*
G02*
X122747000Y-110335000I50000J0D01*
G01*
X124147000Y-110335000D01*
G75*
G02*
X124197000Y-110385000I0J-50000D01*
G01*
X124197000Y-111335000D01*
G75*
G02*
X124147000Y-111385000I-50000J0D01*
G01*
G37*
%TD*%
%TO.C,LED46*%
G36*
G01*
X124147000Y-104405000D02*
X122747000Y-104405000D01*
G75*
G02*
X122697000Y-104355000I0J50000D01*
G01*
X122697000Y-103405000D01*
G75*
G02*
X122747000Y-103355000I50000J0D01*
G01*
X124147000Y-103355000D01*
G75*
G02*
X124197000Y-103405000I0J-50000D01*
G01*
X124197000Y-104355000D01*
G75*
G02*
X124147000Y-104405000I-50000J0D01*
G01*
G37*
G36*
G01*
X124147000Y-106305000D02*
X122747000Y-106305000D01*
G75*
G02*
X122697000Y-106255000I0J50000D01*
G01*
X122697000Y-105305000D01*
G75*
G02*
X122747000Y-105255000I50000J0D01*
G01*
X124147000Y-105255000D01*
G75*
G02*
X124197000Y-105305000I0J-50000D01*
G01*
X124197000Y-106255000D01*
G75*
G02*
X124147000Y-106305000I-50000J0D01*
G01*
G37*
%TD*%
%TO.C,LED45*%
G36*
G01*
X124147000Y-99325000D02*
X122747000Y-99325000D01*
G75*
G02*
X122697000Y-99275000I0J50000D01*
G01*
X122697000Y-98325000D01*
G75*
G02*
X122747000Y-98275000I50000J0D01*
G01*
X124147000Y-98275000D01*
G75*
G02*
X124197000Y-98325000I0J-50000D01*
G01*
X124197000Y-99275000D01*
G75*
G02*
X124147000Y-99325000I-50000J0D01*
G01*
G37*
G36*
G01*
X124147000Y-101225000D02*
X122747000Y-101225000D01*
G75*
G02*
X122697000Y-101175000I0J50000D01*
G01*
X122697000Y-100225000D01*
G75*
G02*
X122747000Y-100175000I50000J0D01*
G01*
X124147000Y-100175000D01*
G75*
G02*
X124197000Y-100225000I0J-50000D01*
G01*
X124197000Y-101175000D01*
G75*
G02*
X124147000Y-101225000I-50000J0D01*
G01*
G37*
%TD*%
%TO.C,LED44*%
G36*
G01*
X124147000Y-94245000D02*
X122747000Y-94245000D01*
G75*
G02*
X122697000Y-94195000I0J50000D01*
G01*
X122697000Y-93245000D01*
G75*
G02*
X122747000Y-93195000I50000J0D01*
G01*
X124147000Y-93195000D01*
G75*
G02*
X124197000Y-93245000I0J-50000D01*
G01*
X124197000Y-94195000D01*
G75*
G02*
X124147000Y-94245000I-50000J0D01*
G01*
G37*
G36*
G01*
X124147000Y-96145000D02*
X122747000Y-96145000D01*
G75*
G02*
X122697000Y-96095000I0J50000D01*
G01*
X122697000Y-95145000D01*
G75*
G02*
X122747000Y-95095000I50000J0D01*
G01*
X124147000Y-95095000D01*
G75*
G02*
X124197000Y-95145000I0J-50000D01*
G01*
X124197000Y-96095000D01*
G75*
G02*
X124147000Y-96145000I-50000J0D01*
G01*
G37*
%TD*%
%TO.C,LED43*%
G36*
G01*
X124147000Y-89165000D02*
X122747000Y-89165000D01*
G75*
G02*
X122697000Y-89115000I0J50000D01*
G01*
X122697000Y-88165000D01*
G75*
G02*
X122747000Y-88115000I50000J0D01*
G01*
X124147000Y-88115000D01*
G75*
G02*
X124197000Y-88165000I0J-50000D01*
G01*
X124197000Y-89115000D01*
G75*
G02*
X124147000Y-89165000I-50000J0D01*
G01*
G37*
G36*
G01*
X124147000Y-91065000D02*
X122747000Y-91065000D01*
G75*
G02*
X122697000Y-91015000I0J50000D01*
G01*
X122697000Y-90065000D01*
G75*
G02*
X122747000Y-90015000I50000J0D01*
G01*
X124147000Y-90015000D01*
G75*
G02*
X124197000Y-90065000I0J-50000D01*
G01*
X124197000Y-91015000D01*
G75*
G02*
X124147000Y-91065000I-50000J0D01*
G01*
G37*
%TD*%
%TO.C,LED42*%
G36*
G01*
X124147000Y-84085000D02*
X122747000Y-84085000D01*
G75*
G02*
X122697000Y-84035000I0J50000D01*
G01*
X122697000Y-83085000D01*
G75*
G02*
X122747000Y-83035000I50000J0D01*
G01*
X124147000Y-83035000D01*
G75*
G02*
X124197000Y-83085000I0J-50000D01*
G01*
X124197000Y-84035000D01*
G75*
G02*
X124147000Y-84085000I-50000J0D01*
G01*
G37*
G36*
G01*
X124147000Y-85985000D02*
X122747000Y-85985000D01*
G75*
G02*
X122697000Y-85935000I0J50000D01*
G01*
X122697000Y-84985000D01*
G75*
G02*
X122747000Y-84935000I50000J0D01*
G01*
X124147000Y-84935000D01*
G75*
G02*
X124197000Y-84985000I0J-50000D01*
G01*
X124197000Y-85935000D01*
G75*
G02*
X124147000Y-85985000I-50000J0D01*
G01*
G37*
%TD*%
%TO.C,LED41*%
G36*
G01*
X124147000Y-79005000D02*
X122747000Y-79005000D01*
G75*
G02*
X122697000Y-78955000I0J50000D01*
G01*
X122697000Y-78005000D01*
G75*
G02*
X122747000Y-77955000I50000J0D01*
G01*
X124147000Y-77955000D01*
G75*
G02*
X124197000Y-78005000I0J-50000D01*
G01*
X124197000Y-78955000D01*
G75*
G02*
X124147000Y-79005000I-50000J0D01*
G01*
G37*
G36*
G01*
X124147000Y-80905000D02*
X122747000Y-80905000D01*
G75*
G02*
X122697000Y-80855000I0J50000D01*
G01*
X122697000Y-79905000D01*
G75*
G02*
X122747000Y-79855000I50000J0D01*
G01*
X124147000Y-79855000D01*
G75*
G02*
X124197000Y-79905000I0J-50000D01*
G01*
X124197000Y-80855000D01*
G75*
G02*
X124147000Y-80905000I-50000J0D01*
G01*
G37*
%TD*%
%TO.C,LED40*%
G36*
G01*
X124147000Y-73925000D02*
X122747000Y-73925000D01*
G75*
G02*
X122697000Y-73875000I0J50000D01*
G01*
X122697000Y-72925000D01*
G75*
G02*
X122747000Y-72875000I50000J0D01*
G01*
X124147000Y-72875000D01*
G75*
G02*
X124197000Y-72925000I0J-50000D01*
G01*
X124197000Y-73875000D01*
G75*
G02*
X124147000Y-73925000I-50000J0D01*
G01*
G37*
G36*
G01*
X124147000Y-75825000D02*
X122747000Y-75825000D01*
G75*
G02*
X122697000Y-75775000I0J50000D01*
G01*
X122697000Y-74825000D01*
G75*
G02*
X122747000Y-74775000I50000J0D01*
G01*
X124147000Y-74775000D01*
G75*
G02*
X124197000Y-74825000I0J-50000D01*
G01*
X124197000Y-75775000D01*
G75*
G02*
X124147000Y-75825000I-50000J0D01*
G01*
G37*
%TD*%
%TO.C,LED39*%
G36*
G01*
X124147000Y-68845000D02*
X122747000Y-68845000D01*
G75*
G02*
X122697000Y-68795000I0J50000D01*
G01*
X122697000Y-67845000D01*
G75*
G02*
X122747000Y-67795000I50000J0D01*
G01*
X124147000Y-67795000D01*
G75*
G02*
X124197000Y-67845000I0J-50000D01*
G01*
X124197000Y-68795000D01*
G75*
G02*
X124147000Y-68845000I-50000J0D01*
G01*
G37*
G36*
G01*
X124147000Y-70745000D02*
X122747000Y-70745000D01*
G75*
G02*
X122697000Y-70695000I0J50000D01*
G01*
X122697000Y-69745000D01*
G75*
G02*
X122747000Y-69695000I50000J0D01*
G01*
X124147000Y-69695000D01*
G75*
G02*
X124197000Y-69745000I0J-50000D01*
G01*
X124197000Y-70695000D01*
G75*
G02*
X124147000Y-70745000I-50000J0D01*
G01*
G37*
%TD*%
%TO.C,LED38*%
G36*
G01*
X124147000Y-63765000D02*
X122747000Y-63765000D01*
G75*
G02*
X122697000Y-63715000I0J50000D01*
G01*
X122697000Y-62765000D01*
G75*
G02*
X122747000Y-62715000I50000J0D01*
G01*
X124147000Y-62715000D01*
G75*
G02*
X124197000Y-62765000I0J-50000D01*
G01*
X124197000Y-63715000D01*
G75*
G02*
X124147000Y-63765000I-50000J0D01*
G01*
G37*
G36*
G01*
X124147000Y-65665000D02*
X122747000Y-65665000D01*
G75*
G02*
X122697000Y-65615000I0J50000D01*
G01*
X122697000Y-64665000D01*
G75*
G02*
X122747000Y-64615000I50000J0D01*
G01*
X124147000Y-64615000D01*
G75*
G02*
X124197000Y-64665000I0J-50000D01*
G01*
X124197000Y-65615000D01*
G75*
G02*
X124147000Y-65665000I-50000J0D01*
G01*
G37*
%TD*%
%TO.C,LED37*%
G36*
G01*
X124147000Y-58685000D02*
X122747000Y-58685000D01*
G75*
G02*
X122697000Y-58635000I0J50000D01*
G01*
X122697000Y-57685000D01*
G75*
G02*
X122747000Y-57635000I50000J0D01*
G01*
X124147000Y-57635000D01*
G75*
G02*
X124197000Y-57685000I0J-50000D01*
G01*
X124197000Y-58635000D01*
G75*
G02*
X124147000Y-58685000I-50000J0D01*
G01*
G37*
G36*
G01*
X124147000Y-60585000D02*
X122747000Y-60585000D01*
G75*
G02*
X122697000Y-60535000I0J50000D01*
G01*
X122697000Y-59585000D01*
G75*
G02*
X122747000Y-59535000I50000J0D01*
G01*
X124147000Y-59535000D01*
G75*
G02*
X124197000Y-59585000I0J-50000D01*
G01*
X124197000Y-60535000D01*
G75*
G02*
X124147000Y-60585000I-50000J0D01*
G01*
G37*
%TD*%
%TO.C,LED36*%
G36*
G01*
X124147000Y-53605000D02*
X122747000Y-53605000D01*
G75*
G02*
X122697000Y-53555000I0J50000D01*
G01*
X122697000Y-52605000D01*
G75*
G02*
X122747000Y-52555000I50000J0D01*
G01*
X124147000Y-52555000D01*
G75*
G02*
X124197000Y-52605000I0J-50000D01*
G01*
X124197000Y-53555000D01*
G75*
G02*
X124147000Y-53605000I-50000J0D01*
G01*
G37*
G36*
G01*
X124147000Y-55505000D02*
X122747000Y-55505000D01*
G75*
G02*
X122697000Y-55455000I0J50000D01*
G01*
X122697000Y-54505000D01*
G75*
G02*
X122747000Y-54455000I50000J0D01*
G01*
X124147000Y-54455000D01*
G75*
G02*
X124197000Y-54505000I0J-50000D01*
G01*
X124197000Y-55455000D01*
G75*
G02*
X124147000Y-55505000I-50000J0D01*
G01*
G37*
%TD*%
%TO.C,LED35*%
G36*
G01*
X124147000Y-48525000D02*
X122747000Y-48525000D01*
G75*
G02*
X122697000Y-48475000I0J50000D01*
G01*
X122697000Y-47525000D01*
G75*
G02*
X122747000Y-47475000I50000J0D01*
G01*
X124147000Y-47475000D01*
G75*
G02*
X124197000Y-47525000I0J-50000D01*
G01*
X124197000Y-48475000D01*
G75*
G02*
X124147000Y-48525000I-50000J0D01*
G01*
G37*
G36*
G01*
X124147000Y-50425000D02*
X122747000Y-50425000D01*
G75*
G02*
X122697000Y-50375000I0J50000D01*
G01*
X122697000Y-49425000D01*
G75*
G02*
X122747000Y-49375000I50000J0D01*
G01*
X124147000Y-49375000D01*
G75*
G02*
X124197000Y-49425000I0J-50000D01*
G01*
X124197000Y-50375000D01*
G75*
G02*
X124147000Y-50425000I-50000J0D01*
G01*
G37*
%TD*%
%TO.C,LED34*%
G36*
G01*
X124147000Y-43445000D02*
X122747000Y-43445000D01*
G75*
G02*
X122697000Y-43395000I0J50000D01*
G01*
X122697000Y-42445000D01*
G75*
G02*
X122747000Y-42395000I50000J0D01*
G01*
X124147000Y-42395000D01*
G75*
G02*
X124197000Y-42445000I0J-50000D01*
G01*
X124197000Y-43395000D01*
G75*
G02*
X124147000Y-43445000I-50000J0D01*
G01*
G37*
G36*
G01*
X124147000Y-45345000D02*
X122747000Y-45345000D01*
G75*
G02*
X122697000Y-45295000I0J50000D01*
G01*
X122697000Y-44345000D01*
G75*
G02*
X122747000Y-44295000I50000J0D01*
G01*
X124147000Y-44295000D01*
G75*
G02*
X124197000Y-44345000I0J-50000D01*
G01*
X124197000Y-45295000D01*
G75*
G02*
X124147000Y-45345000I-50000J0D01*
G01*
G37*
%TD*%
%TO.C,LED33*%
G36*
G01*
X124147000Y-38365000D02*
X122747000Y-38365000D01*
G75*
G02*
X122697000Y-38315000I0J50000D01*
G01*
X122697000Y-37365000D01*
G75*
G02*
X122747000Y-37315000I50000J0D01*
G01*
X124147000Y-37315000D01*
G75*
G02*
X124197000Y-37365000I0J-50000D01*
G01*
X124197000Y-38315000D01*
G75*
G02*
X124147000Y-38365000I-50000J0D01*
G01*
G37*
G36*
G01*
X124147000Y-40265000D02*
X122747000Y-40265000D01*
G75*
G02*
X122697000Y-40215000I0J50000D01*
G01*
X122697000Y-39265000D01*
G75*
G02*
X122747000Y-39215000I50000J0D01*
G01*
X124147000Y-39215000D01*
G75*
G02*
X124197000Y-39265000I0J-50000D01*
G01*
X124197000Y-40215000D01*
G75*
G02*
X124147000Y-40265000I-50000J0D01*
G01*
G37*
%TD*%
%TO.C,LED32*%
G36*
G01*
X118926000Y-114565000D02*
X117526000Y-114565000D01*
G75*
G02*
X117476000Y-114515000I0J50000D01*
G01*
X117476000Y-113565000D01*
G75*
G02*
X117526000Y-113515000I50000J0D01*
G01*
X118926000Y-113515000D01*
G75*
G02*
X118976000Y-113565000I0J-50000D01*
G01*
X118976000Y-114515000D01*
G75*
G02*
X118926000Y-114565000I-50000J0D01*
G01*
G37*
G36*
G01*
X118926000Y-116465000D02*
X117526000Y-116465000D01*
G75*
G02*
X117476000Y-116415000I0J50000D01*
G01*
X117476000Y-115465000D01*
G75*
G02*
X117526000Y-115415000I50000J0D01*
G01*
X118926000Y-115415000D01*
G75*
G02*
X118976000Y-115465000I0J-50000D01*
G01*
X118976000Y-116415000D01*
G75*
G02*
X118926000Y-116465000I-50000J0D01*
G01*
G37*
%TD*%
%TO.C,LED31*%
G36*
G01*
X118926000Y-109485000D02*
X117526000Y-109485000D01*
G75*
G02*
X117476000Y-109435000I0J50000D01*
G01*
X117476000Y-108485000D01*
G75*
G02*
X117526000Y-108435000I50000J0D01*
G01*
X118926000Y-108435000D01*
G75*
G02*
X118976000Y-108485000I0J-50000D01*
G01*
X118976000Y-109435000D01*
G75*
G02*
X118926000Y-109485000I-50000J0D01*
G01*
G37*
G36*
G01*
X118926000Y-111385000D02*
X117526000Y-111385000D01*
G75*
G02*
X117476000Y-111335000I0J50000D01*
G01*
X117476000Y-110385000D01*
G75*
G02*
X117526000Y-110335000I50000J0D01*
G01*
X118926000Y-110335000D01*
G75*
G02*
X118976000Y-110385000I0J-50000D01*
G01*
X118976000Y-111335000D01*
G75*
G02*
X118926000Y-111385000I-50000J0D01*
G01*
G37*
%TD*%
%TO.C,LED30*%
G36*
G01*
X118926000Y-104405000D02*
X117526000Y-104405000D01*
G75*
G02*
X117476000Y-104355000I0J50000D01*
G01*
X117476000Y-103405000D01*
G75*
G02*
X117526000Y-103355000I50000J0D01*
G01*
X118926000Y-103355000D01*
G75*
G02*
X118976000Y-103405000I0J-50000D01*
G01*
X118976000Y-104355000D01*
G75*
G02*
X118926000Y-104405000I-50000J0D01*
G01*
G37*
G36*
G01*
X118926000Y-106305000D02*
X117526000Y-106305000D01*
G75*
G02*
X117476000Y-106255000I0J50000D01*
G01*
X117476000Y-105305000D01*
G75*
G02*
X117526000Y-105255000I50000J0D01*
G01*
X118926000Y-105255000D01*
G75*
G02*
X118976000Y-105305000I0J-50000D01*
G01*
X118976000Y-106255000D01*
G75*
G02*
X118926000Y-106305000I-50000J0D01*
G01*
G37*
%TD*%
%TO.C,LED29*%
G36*
G01*
X118926000Y-99325000D02*
X117526000Y-99325000D01*
G75*
G02*
X117476000Y-99275000I0J50000D01*
G01*
X117476000Y-98325000D01*
G75*
G02*
X117526000Y-98275000I50000J0D01*
G01*
X118926000Y-98275000D01*
G75*
G02*
X118976000Y-98325000I0J-50000D01*
G01*
X118976000Y-99275000D01*
G75*
G02*
X118926000Y-99325000I-50000J0D01*
G01*
G37*
G36*
G01*
X118926000Y-101225000D02*
X117526000Y-101225000D01*
G75*
G02*
X117476000Y-101175000I0J50000D01*
G01*
X117476000Y-100225000D01*
G75*
G02*
X117526000Y-100175000I50000J0D01*
G01*
X118926000Y-100175000D01*
G75*
G02*
X118976000Y-100225000I0J-50000D01*
G01*
X118976000Y-101175000D01*
G75*
G02*
X118926000Y-101225000I-50000J0D01*
G01*
G37*
%TD*%
%TO.C,LED28*%
G36*
G01*
X118926000Y-94245000D02*
X117526000Y-94245000D01*
G75*
G02*
X117476000Y-94195000I0J50000D01*
G01*
X117476000Y-93245000D01*
G75*
G02*
X117526000Y-93195000I50000J0D01*
G01*
X118926000Y-93195000D01*
G75*
G02*
X118976000Y-93245000I0J-50000D01*
G01*
X118976000Y-94195000D01*
G75*
G02*
X118926000Y-94245000I-50000J0D01*
G01*
G37*
G36*
G01*
X118926000Y-96145000D02*
X117526000Y-96145000D01*
G75*
G02*
X117476000Y-96095000I0J50000D01*
G01*
X117476000Y-95145000D01*
G75*
G02*
X117526000Y-95095000I50000J0D01*
G01*
X118926000Y-95095000D01*
G75*
G02*
X118976000Y-95145000I0J-50000D01*
G01*
X118976000Y-96095000D01*
G75*
G02*
X118926000Y-96145000I-50000J0D01*
G01*
G37*
%TD*%
%TO.C,LED27*%
G36*
G01*
X118926000Y-89165000D02*
X117526000Y-89165000D01*
G75*
G02*
X117476000Y-89115000I0J50000D01*
G01*
X117476000Y-88165000D01*
G75*
G02*
X117526000Y-88115000I50000J0D01*
G01*
X118926000Y-88115000D01*
G75*
G02*
X118976000Y-88165000I0J-50000D01*
G01*
X118976000Y-89115000D01*
G75*
G02*
X118926000Y-89165000I-50000J0D01*
G01*
G37*
G36*
G01*
X118926000Y-91065000D02*
X117526000Y-91065000D01*
G75*
G02*
X117476000Y-91015000I0J50000D01*
G01*
X117476000Y-90065000D01*
G75*
G02*
X117526000Y-90015000I50000J0D01*
G01*
X118926000Y-90015000D01*
G75*
G02*
X118976000Y-90065000I0J-50000D01*
G01*
X118976000Y-91015000D01*
G75*
G02*
X118926000Y-91065000I-50000J0D01*
G01*
G37*
%TD*%
%TO.C,LED26*%
G36*
G01*
X118926000Y-84085000D02*
X117526000Y-84085000D01*
G75*
G02*
X117476000Y-84035000I0J50000D01*
G01*
X117476000Y-83085000D01*
G75*
G02*
X117526000Y-83035000I50000J0D01*
G01*
X118926000Y-83035000D01*
G75*
G02*
X118976000Y-83085000I0J-50000D01*
G01*
X118976000Y-84035000D01*
G75*
G02*
X118926000Y-84085000I-50000J0D01*
G01*
G37*
G36*
G01*
X118926000Y-85985000D02*
X117526000Y-85985000D01*
G75*
G02*
X117476000Y-85935000I0J50000D01*
G01*
X117476000Y-84985000D01*
G75*
G02*
X117526000Y-84935000I50000J0D01*
G01*
X118926000Y-84935000D01*
G75*
G02*
X118976000Y-84985000I0J-50000D01*
G01*
X118976000Y-85935000D01*
G75*
G02*
X118926000Y-85985000I-50000J0D01*
G01*
G37*
%TD*%
%TO.C,LED25*%
G36*
G01*
X118926000Y-79005000D02*
X117526000Y-79005000D01*
G75*
G02*
X117476000Y-78955000I0J50000D01*
G01*
X117476000Y-78005000D01*
G75*
G02*
X117526000Y-77955000I50000J0D01*
G01*
X118926000Y-77955000D01*
G75*
G02*
X118976000Y-78005000I0J-50000D01*
G01*
X118976000Y-78955000D01*
G75*
G02*
X118926000Y-79005000I-50000J0D01*
G01*
G37*
G36*
G01*
X118926000Y-80905000D02*
X117526000Y-80905000D01*
G75*
G02*
X117476000Y-80855000I0J50000D01*
G01*
X117476000Y-79905000D01*
G75*
G02*
X117526000Y-79855000I50000J0D01*
G01*
X118926000Y-79855000D01*
G75*
G02*
X118976000Y-79905000I0J-50000D01*
G01*
X118976000Y-80855000D01*
G75*
G02*
X118926000Y-80905000I-50000J0D01*
G01*
G37*
%TD*%
%TO.C,LED24*%
G36*
G01*
X118926000Y-73925000D02*
X117526000Y-73925000D01*
G75*
G02*
X117476000Y-73875000I0J50000D01*
G01*
X117476000Y-72925000D01*
G75*
G02*
X117526000Y-72875000I50000J0D01*
G01*
X118926000Y-72875000D01*
G75*
G02*
X118976000Y-72925000I0J-50000D01*
G01*
X118976000Y-73875000D01*
G75*
G02*
X118926000Y-73925000I-50000J0D01*
G01*
G37*
G36*
G01*
X118926000Y-75825000D02*
X117526000Y-75825000D01*
G75*
G02*
X117476000Y-75775000I0J50000D01*
G01*
X117476000Y-74825000D01*
G75*
G02*
X117526000Y-74775000I50000J0D01*
G01*
X118926000Y-74775000D01*
G75*
G02*
X118976000Y-74825000I0J-50000D01*
G01*
X118976000Y-75775000D01*
G75*
G02*
X118926000Y-75825000I-50000J0D01*
G01*
G37*
%TD*%
%TO.C,LED23*%
G36*
G01*
X118926000Y-68845000D02*
X117526000Y-68845000D01*
G75*
G02*
X117476000Y-68795000I0J50000D01*
G01*
X117476000Y-67845000D01*
G75*
G02*
X117526000Y-67795000I50000J0D01*
G01*
X118926000Y-67795000D01*
G75*
G02*
X118976000Y-67845000I0J-50000D01*
G01*
X118976000Y-68795000D01*
G75*
G02*
X118926000Y-68845000I-50000J0D01*
G01*
G37*
G36*
G01*
X118926000Y-70745000D02*
X117526000Y-70745000D01*
G75*
G02*
X117476000Y-70695000I0J50000D01*
G01*
X117476000Y-69745000D01*
G75*
G02*
X117526000Y-69695000I50000J0D01*
G01*
X118926000Y-69695000D01*
G75*
G02*
X118976000Y-69745000I0J-50000D01*
G01*
X118976000Y-70695000D01*
G75*
G02*
X118926000Y-70745000I-50000J0D01*
G01*
G37*
%TD*%
%TO.C,LED22*%
G36*
G01*
X118926000Y-63765000D02*
X117526000Y-63765000D01*
G75*
G02*
X117476000Y-63715000I0J50000D01*
G01*
X117476000Y-62765000D01*
G75*
G02*
X117526000Y-62715000I50000J0D01*
G01*
X118926000Y-62715000D01*
G75*
G02*
X118976000Y-62765000I0J-50000D01*
G01*
X118976000Y-63715000D01*
G75*
G02*
X118926000Y-63765000I-50000J0D01*
G01*
G37*
G36*
G01*
X118926000Y-65665000D02*
X117526000Y-65665000D01*
G75*
G02*
X117476000Y-65615000I0J50000D01*
G01*
X117476000Y-64665000D01*
G75*
G02*
X117526000Y-64615000I50000J0D01*
G01*
X118926000Y-64615000D01*
G75*
G02*
X118976000Y-64665000I0J-50000D01*
G01*
X118976000Y-65615000D01*
G75*
G02*
X118926000Y-65665000I-50000J0D01*
G01*
G37*
%TD*%
%TO.C,LED21*%
G36*
G01*
X118926000Y-58685000D02*
X117526000Y-58685000D01*
G75*
G02*
X117476000Y-58635000I0J50000D01*
G01*
X117476000Y-57685000D01*
G75*
G02*
X117526000Y-57635000I50000J0D01*
G01*
X118926000Y-57635000D01*
G75*
G02*
X118976000Y-57685000I0J-50000D01*
G01*
X118976000Y-58635000D01*
G75*
G02*
X118926000Y-58685000I-50000J0D01*
G01*
G37*
G36*
G01*
X118926000Y-60585000D02*
X117526000Y-60585000D01*
G75*
G02*
X117476000Y-60535000I0J50000D01*
G01*
X117476000Y-59585000D01*
G75*
G02*
X117526000Y-59535000I50000J0D01*
G01*
X118926000Y-59535000D01*
G75*
G02*
X118976000Y-59585000I0J-50000D01*
G01*
X118976000Y-60535000D01*
G75*
G02*
X118926000Y-60585000I-50000J0D01*
G01*
G37*
%TD*%
%TO.C,LED20*%
G36*
G01*
X118926000Y-53605000D02*
X117526000Y-53605000D01*
G75*
G02*
X117476000Y-53555000I0J50000D01*
G01*
X117476000Y-52605000D01*
G75*
G02*
X117526000Y-52555000I50000J0D01*
G01*
X118926000Y-52555000D01*
G75*
G02*
X118976000Y-52605000I0J-50000D01*
G01*
X118976000Y-53555000D01*
G75*
G02*
X118926000Y-53605000I-50000J0D01*
G01*
G37*
G36*
G01*
X118926000Y-55505000D02*
X117526000Y-55505000D01*
G75*
G02*
X117476000Y-55455000I0J50000D01*
G01*
X117476000Y-54505000D01*
G75*
G02*
X117526000Y-54455000I50000J0D01*
G01*
X118926000Y-54455000D01*
G75*
G02*
X118976000Y-54505000I0J-50000D01*
G01*
X118976000Y-55455000D01*
G75*
G02*
X118926000Y-55505000I-50000J0D01*
G01*
G37*
%TD*%
%TO.C,LED19*%
G36*
G01*
X118926000Y-48525000D02*
X117526000Y-48525000D01*
G75*
G02*
X117476000Y-48475000I0J50000D01*
G01*
X117476000Y-47525000D01*
G75*
G02*
X117526000Y-47475000I50000J0D01*
G01*
X118926000Y-47475000D01*
G75*
G02*
X118976000Y-47525000I0J-50000D01*
G01*
X118976000Y-48475000D01*
G75*
G02*
X118926000Y-48525000I-50000J0D01*
G01*
G37*
G36*
G01*
X118926000Y-50425000D02*
X117526000Y-50425000D01*
G75*
G02*
X117476000Y-50375000I0J50000D01*
G01*
X117476000Y-49425000D01*
G75*
G02*
X117526000Y-49375000I50000J0D01*
G01*
X118926000Y-49375000D01*
G75*
G02*
X118976000Y-49425000I0J-50000D01*
G01*
X118976000Y-50375000D01*
G75*
G02*
X118926000Y-50425000I-50000J0D01*
G01*
G37*
%TD*%
%TO.C,LED18*%
G36*
G01*
X118926000Y-43445000D02*
X117526000Y-43445000D01*
G75*
G02*
X117476000Y-43395000I0J50000D01*
G01*
X117476000Y-42445000D01*
G75*
G02*
X117526000Y-42395000I50000J0D01*
G01*
X118926000Y-42395000D01*
G75*
G02*
X118976000Y-42445000I0J-50000D01*
G01*
X118976000Y-43395000D01*
G75*
G02*
X118926000Y-43445000I-50000J0D01*
G01*
G37*
G36*
G01*
X118926000Y-45345000D02*
X117526000Y-45345000D01*
G75*
G02*
X117476000Y-45295000I0J50000D01*
G01*
X117476000Y-44345000D01*
G75*
G02*
X117526000Y-44295000I50000J0D01*
G01*
X118926000Y-44295000D01*
G75*
G02*
X118976000Y-44345000I0J-50000D01*
G01*
X118976000Y-45295000D01*
G75*
G02*
X118926000Y-45345000I-50000J0D01*
G01*
G37*
%TD*%
%TO.C,LED17*%
G36*
G01*
X118926000Y-38365000D02*
X117526000Y-38365000D01*
G75*
G02*
X117476000Y-38315000I0J50000D01*
G01*
X117476000Y-37365000D01*
G75*
G02*
X117526000Y-37315000I50000J0D01*
G01*
X118926000Y-37315000D01*
G75*
G02*
X118976000Y-37365000I0J-50000D01*
G01*
X118976000Y-38315000D01*
G75*
G02*
X118926000Y-38365000I-50000J0D01*
G01*
G37*
G36*
G01*
X118926000Y-40265000D02*
X117526000Y-40265000D01*
G75*
G02*
X117476000Y-40215000I0J50000D01*
G01*
X117476000Y-39265000D01*
G75*
G02*
X117526000Y-39215000I50000J0D01*
G01*
X118926000Y-39215000D01*
G75*
G02*
X118976000Y-39265000I0J-50000D01*
G01*
X118976000Y-40215000D01*
G75*
G02*
X118926000Y-40265000I-50000J0D01*
G01*
G37*
%TD*%
%TO.C,LED16*%
G36*
G01*
X113705000Y-114565000D02*
X112305000Y-114565000D01*
G75*
G02*
X112255000Y-114515000I0J50000D01*
G01*
X112255000Y-113565000D01*
G75*
G02*
X112305000Y-113515000I50000J0D01*
G01*
X113705000Y-113515000D01*
G75*
G02*
X113755000Y-113565000I0J-50000D01*
G01*
X113755000Y-114515000D01*
G75*
G02*
X113705000Y-114565000I-50000J0D01*
G01*
G37*
G36*
G01*
X113705000Y-116465000D02*
X112305000Y-116465000D01*
G75*
G02*
X112255000Y-116415000I0J50000D01*
G01*
X112255000Y-115465000D01*
G75*
G02*
X112305000Y-115415000I50000J0D01*
G01*
X113705000Y-115415000D01*
G75*
G02*
X113755000Y-115465000I0J-50000D01*
G01*
X113755000Y-116415000D01*
G75*
G02*
X113705000Y-116465000I-50000J0D01*
G01*
G37*
%TD*%
%TO.C,LED15*%
G36*
G01*
X113705000Y-109485000D02*
X112305000Y-109485000D01*
G75*
G02*
X112255000Y-109435000I0J50000D01*
G01*
X112255000Y-108485000D01*
G75*
G02*
X112305000Y-108435000I50000J0D01*
G01*
X113705000Y-108435000D01*
G75*
G02*
X113755000Y-108485000I0J-50000D01*
G01*
X113755000Y-109435000D01*
G75*
G02*
X113705000Y-109485000I-50000J0D01*
G01*
G37*
G36*
G01*
X113705000Y-111385000D02*
X112305000Y-111385000D01*
G75*
G02*
X112255000Y-111335000I0J50000D01*
G01*
X112255000Y-110385000D01*
G75*
G02*
X112305000Y-110335000I50000J0D01*
G01*
X113705000Y-110335000D01*
G75*
G02*
X113755000Y-110385000I0J-50000D01*
G01*
X113755000Y-111335000D01*
G75*
G02*
X113705000Y-111385000I-50000J0D01*
G01*
G37*
%TD*%
%TO.C,LED14*%
G36*
G01*
X113705000Y-104405000D02*
X112305000Y-104405000D01*
G75*
G02*
X112255000Y-104355000I0J50000D01*
G01*
X112255000Y-103405000D01*
G75*
G02*
X112305000Y-103355000I50000J0D01*
G01*
X113705000Y-103355000D01*
G75*
G02*
X113755000Y-103405000I0J-50000D01*
G01*
X113755000Y-104355000D01*
G75*
G02*
X113705000Y-104405000I-50000J0D01*
G01*
G37*
G36*
G01*
X113705000Y-106305000D02*
X112305000Y-106305000D01*
G75*
G02*
X112255000Y-106255000I0J50000D01*
G01*
X112255000Y-105305000D01*
G75*
G02*
X112305000Y-105255000I50000J0D01*
G01*
X113705000Y-105255000D01*
G75*
G02*
X113755000Y-105305000I0J-50000D01*
G01*
X113755000Y-106255000D01*
G75*
G02*
X113705000Y-106305000I-50000J0D01*
G01*
G37*
%TD*%
%TO.C,LED13*%
G36*
G01*
X113705000Y-99325000D02*
X112305000Y-99325000D01*
G75*
G02*
X112255000Y-99275000I0J50000D01*
G01*
X112255000Y-98325000D01*
G75*
G02*
X112305000Y-98275000I50000J0D01*
G01*
X113705000Y-98275000D01*
G75*
G02*
X113755000Y-98325000I0J-50000D01*
G01*
X113755000Y-99275000D01*
G75*
G02*
X113705000Y-99325000I-50000J0D01*
G01*
G37*
G36*
G01*
X113705000Y-101225000D02*
X112305000Y-101225000D01*
G75*
G02*
X112255000Y-101175000I0J50000D01*
G01*
X112255000Y-100225000D01*
G75*
G02*
X112305000Y-100175000I50000J0D01*
G01*
X113705000Y-100175000D01*
G75*
G02*
X113755000Y-100225000I0J-50000D01*
G01*
X113755000Y-101175000D01*
G75*
G02*
X113705000Y-101225000I-50000J0D01*
G01*
G37*
%TD*%
%TO.C,LED12*%
G36*
G01*
X113705000Y-94245000D02*
X112305000Y-94245000D01*
G75*
G02*
X112255000Y-94195000I0J50000D01*
G01*
X112255000Y-93245000D01*
G75*
G02*
X112305000Y-93195000I50000J0D01*
G01*
X113705000Y-93195000D01*
G75*
G02*
X113755000Y-93245000I0J-50000D01*
G01*
X113755000Y-94195000D01*
G75*
G02*
X113705000Y-94245000I-50000J0D01*
G01*
G37*
G36*
G01*
X113705000Y-96145000D02*
X112305000Y-96145000D01*
G75*
G02*
X112255000Y-96095000I0J50000D01*
G01*
X112255000Y-95145000D01*
G75*
G02*
X112305000Y-95095000I50000J0D01*
G01*
X113705000Y-95095000D01*
G75*
G02*
X113755000Y-95145000I0J-50000D01*
G01*
X113755000Y-96095000D01*
G75*
G02*
X113705000Y-96145000I-50000J0D01*
G01*
G37*
%TD*%
%TO.C,LED11*%
G36*
G01*
X113705000Y-89165000D02*
X112305000Y-89165000D01*
G75*
G02*
X112255000Y-89115000I0J50000D01*
G01*
X112255000Y-88165000D01*
G75*
G02*
X112305000Y-88115000I50000J0D01*
G01*
X113705000Y-88115000D01*
G75*
G02*
X113755000Y-88165000I0J-50000D01*
G01*
X113755000Y-89115000D01*
G75*
G02*
X113705000Y-89165000I-50000J0D01*
G01*
G37*
G36*
G01*
X113705000Y-91065000D02*
X112305000Y-91065000D01*
G75*
G02*
X112255000Y-91015000I0J50000D01*
G01*
X112255000Y-90065000D01*
G75*
G02*
X112305000Y-90015000I50000J0D01*
G01*
X113705000Y-90015000D01*
G75*
G02*
X113755000Y-90065000I0J-50000D01*
G01*
X113755000Y-91015000D01*
G75*
G02*
X113705000Y-91065000I-50000J0D01*
G01*
G37*
%TD*%
%TO.C,LED10*%
G36*
G01*
X113705000Y-84085000D02*
X112305000Y-84085000D01*
G75*
G02*
X112255000Y-84035000I0J50000D01*
G01*
X112255000Y-83085000D01*
G75*
G02*
X112305000Y-83035000I50000J0D01*
G01*
X113705000Y-83035000D01*
G75*
G02*
X113755000Y-83085000I0J-50000D01*
G01*
X113755000Y-84035000D01*
G75*
G02*
X113705000Y-84085000I-50000J0D01*
G01*
G37*
G36*
G01*
X113705000Y-85985000D02*
X112305000Y-85985000D01*
G75*
G02*
X112255000Y-85935000I0J50000D01*
G01*
X112255000Y-84985000D01*
G75*
G02*
X112305000Y-84935000I50000J0D01*
G01*
X113705000Y-84935000D01*
G75*
G02*
X113755000Y-84985000I0J-50000D01*
G01*
X113755000Y-85935000D01*
G75*
G02*
X113705000Y-85985000I-50000J0D01*
G01*
G37*
%TD*%
%TO.C,LED9*%
G36*
G01*
X113705000Y-79005000D02*
X112305000Y-79005000D01*
G75*
G02*
X112255000Y-78955000I0J50000D01*
G01*
X112255000Y-78005000D01*
G75*
G02*
X112305000Y-77955000I50000J0D01*
G01*
X113705000Y-77955000D01*
G75*
G02*
X113755000Y-78005000I0J-50000D01*
G01*
X113755000Y-78955000D01*
G75*
G02*
X113705000Y-79005000I-50000J0D01*
G01*
G37*
G36*
G01*
X113705000Y-80905000D02*
X112305000Y-80905000D01*
G75*
G02*
X112255000Y-80855000I0J50000D01*
G01*
X112255000Y-79905000D01*
G75*
G02*
X112305000Y-79855000I50000J0D01*
G01*
X113705000Y-79855000D01*
G75*
G02*
X113755000Y-79905000I0J-50000D01*
G01*
X113755000Y-80855000D01*
G75*
G02*
X113705000Y-80905000I-50000J0D01*
G01*
G37*
%TD*%
%TO.C,LED8*%
G36*
G01*
X113705000Y-73925000D02*
X112305000Y-73925000D01*
G75*
G02*
X112255000Y-73875000I0J50000D01*
G01*
X112255000Y-72925000D01*
G75*
G02*
X112305000Y-72875000I50000J0D01*
G01*
X113705000Y-72875000D01*
G75*
G02*
X113755000Y-72925000I0J-50000D01*
G01*
X113755000Y-73875000D01*
G75*
G02*
X113705000Y-73925000I-50000J0D01*
G01*
G37*
G36*
G01*
X113705000Y-75825000D02*
X112305000Y-75825000D01*
G75*
G02*
X112255000Y-75775000I0J50000D01*
G01*
X112255000Y-74825000D01*
G75*
G02*
X112305000Y-74775000I50000J0D01*
G01*
X113705000Y-74775000D01*
G75*
G02*
X113755000Y-74825000I0J-50000D01*
G01*
X113755000Y-75775000D01*
G75*
G02*
X113705000Y-75825000I-50000J0D01*
G01*
G37*
%TD*%
%TO.C,LED7*%
G36*
G01*
X113705000Y-68845000D02*
X112305000Y-68845000D01*
G75*
G02*
X112255000Y-68795000I0J50000D01*
G01*
X112255000Y-67845000D01*
G75*
G02*
X112305000Y-67795000I50000J0D01*
G01*
X113705000Y-67795000D01*
G75*
G02*
X113755000Y-67845000I0J-50000D01*
G01*
X113755000Y-68795000D01*
G75*
G02*
X113705000Y-68845000I-50000J0D01*
G01*
G37*
G36*
G01*
X113705000Y-70745000D02*
X112305000Y-70745000D01*
G75*
G02*
X112255000Y-70695000I0J50000D01*
G01*
X112255000Y-69745000D01*
G75*
G02*
X112305000Y-69695000I50000J0D01*
G01*
X113705000Y-69695000D01*
G75*
G02*
X113755000Y-69745000I0J-50000D01*
G01*
X113755000Y-70695000D01*
G75*
G02*
X113705000Y-70745000I-50000J0D01*
G01*
G37*
%TD*%
%TO.C,LED6*%
G36*
G01*
X113705000Y-63765000D02*
X112305000Y-63765000D01*
G75*
G02*
X112255000Y-63715000I0J50000D01*
G01*
X112255000Y-62765000D01*
G75*
G02*
X112305000Y-62715000I50000J0D01*
G01*
X113705000Y-62715000D01*
G75*
G02*
X113755000Y-62765000I0J-50000D01*
G01*
X113755000Y-63715000D01*
G75*
G02*
X113705000Y-63765000I-50000J0D01*
G01*
G37*
G36*
G01*
X113705000Y-65665000D02*
X112305000Y-65665000D01*
G75*
G02*
X112255000Y-65615000I0J50000D01*
G01*
X112255000Y-64665000D01*
G75*
G02*
X112305000Y-64615000I50000J0D01*
G01*
X113705000Y-64615000D01*
G75*
G02*
X113755000Y-64665000I0J-50000D01*
G01*
X113755000Y-65615000D01*
G75*
G02*
X113705000Y-65665000I-50000J0D01*
G01*
G37*
%TD*%
%TO.C,LED5*%
G36*
G01*
X113705000Y-58685000D02*
X112305000Y-58685000D01*
G75*
G02*
X112255000Y-58635000I0J50000D01*
G01*
X112255000Y-57685000D01*
G75*
G02*
X112305000Y-57635000I50000J0D01*
G01*
X113705000Y-57635000D01*
G75*
G02*
X113755000Y-57685000I0J-50000D01*
G01*
X113755000Y-58635000D01*
G75*
G02*
X113705000Y-58685000I-50000J0D01*
G01*
G37*
G36*
G01*
X113705000Y-60585000D02*
X112305000Y-60585000D01*
G75*
G02*
X112255000Y-60535000I0J50000D01*
G01*
X112255000Y-59585000D01*
G75*
G02*
X112305000Y-59535000I50000J0D01*
G01*
X113705000Y-59535000D01*
G75*
G02*
X113755000Y-59585000I0J-50000D01*
G01*
X113755000Y-60535000D01*
G75*
G02*
X113705000Y-60585000I-50000J0D01*
G01*
G37*
%TD*%
%TO.C,LED4*%
G36*
G01*
X113705000Y-53605000D02*
X112305000Y-53605000D01*
G75*
G02*
X112255000Y-53555000I0J50000D01*
G01*
X112255000Y-52605000D01*
G75*
G02*
X112305000Y-52555000I50000J0D01*
G01*
X113705000Y-52555000D01*
G75*
G02*
X113755000Y-52605000I0J-50000D01*
G01*
X113755000Y-53555000D01*
G75*
G02*
X113705000Y-53605000I-50000J0D01*
G01*
G37*
G36*
G01*
X113705000Y-55505000D02*
X112305000Y-55505000D01*
G75*
G02*
X112255000Y-55455000I0J50000D01*
G01*
X112255000Y-54505000D01*
G75*
G02*
X112305000Y-54455000I50000J0D01*
G01*
X113705000Y-54455000D01*
G75*
G02*
X113755000Y-54505000I0J-50000D01*
G01*
X113755000Y-55455000D01*
G75*
G02*
X113705000Y-55505000I-50000J0D01*
G01*
G37*
%TD*%
%TO.C,LED3*%
G36*
G01*
X113705000Y-48525000D02*
X112305000Y-48525000D01*
G75*
G02*
X112255000Y-48475000I0J50000D01*
G01*
X112255000Y-47525000D01*
G75*
G02*
X112305000Y-47475000I50000J0D01*
G01*
X113705000Y-47475000D01*
G75*
G02*
X113755000Y-47525000I0J-50000D01*
G01*
X113755000Y-48475000D01*
G75*
G02*
X113705000Y-48525000I-50000J0D01*
G01*
G37*
G36*
G01*
X113705000Y-50425000D02*
X112305000Y-50425000D01*
G75*
G02*
X112255000Y-50375000I0J50000D01*
G01*
X112255000Y-49425000D01*
G75*
G02*
X112305000Y-49375000I50000J0D01*
G01*
X113705000Y-49375000D01*
G75*
G02*
X113755000Y-49425000I0J-50000D01*
G01*
X113755000Y-50375000D01*
G75*
G02*
X113705000Y-50425000I-50000J0D01*
G01*
G37*
%TD*%
%TO.C,LED2*%
G36*
G01*
X113705000Y-43445000D02*
X112305000Y-43445000D01*
G75*
G02*
X112255000Y-43395000I0J50000D01*
G01*
X112255000Y-42445000D01*
G75*
G02*
X112305000Y-42395000I50000J0D01*
G01*
X113705000Y-42395000D01*
G75*
G02*
X113755000Y-42445000I0J-50000D01*
G01*
X113755000Y-43395000D01*
G75*
G02*
X113705000Y-43445000I-50000J0D01*
G01*
G37*
G36*
G01*
X113705000Y-45345000D02*
X112305000Y-45345000D01*
G75*
G02*
X112255000Y-45295000I0J50000D01*
G01*
X112255000Y-44345000D01*
G75*
G02*
X112305000Y-44295000I50000J0D01*
G01*
X113705000Y-44295000D01*
G75*
G02*
X113755000Y-44345000I0J-50000D01*
G01*
X113755000Y-45295000D01*
G75*
G02*
X113705000Y-45345000I-50000J0D01*
G01*
G37*
%TD*%
%TO.C,LED1*%
G36*
G01*
X113705000Y-38365000D02*
X112305000Y-38365000D01*
G75*
G02*
X112255000Y-38315000I0J50000D01*
G01*
X112255000Y-37365000D01*
G75*
G02*
X112305000Y-37315000I50000J0D01*
G01*
X113705000Y-37315000D01*
G75*
G02*
X113755000Y-37365000I0J-50000D01*
G01*
X113755000Y-38315000D01*
G75*
G02*
X113705000Y-38365000I-50000J0D01*
G01*
G37*
G36*
G01*
X113705000Y-40265000D02*
X112305000Y-40265000D01*
G75*
G02*
X112255000Y-40215000I0J50000D01*
G01*
X112255000Y-39265000D01*
G75*
G02*
X112305000Y-39215000I50000J0D01*
G01*
X113705000Y-39215000D01*
G75*
G02*
X113755000Y-39265000I0J-50000D01*
G01*
X113755000Y-40215000D01*
G75*
G02*
X113705000Y-40265000I-50000J0D01*
G01*
G37*
%TD*%
D14*
%TO.C,J_USB_C1*%
X142820000Y-153050000D03*
X134180000Y-153050000D03*
X134180000Y-156850000D03*
X142820000Y-156850000D03*
%TD*%
D15*
%TO.C,16MhzCrystal1*%
X146040000Y-124340000D03*
X141160000Y-124340000D03*
%TD*%
M02*
