%TF.GenerationSoftware,KiCad,Pcbnew,7.0.1*%
%TF.CreationDate,2024-01-25T20:04:35+01:00*%
%TF.ProjectId,PicBytesMicro,50696342-7974-4657-934d-6963726f2e6b,rev?*%
%TF.SameCoordinates,Original*%
%TF.FileFunction,Legend,Top*%
%TF.FilePolarity,Positive*%
%FSLAX46Y46*%
G04 Gerber Fmt 4.6, Leading zero omitted, Abs format (unit mm)*
G04 Created by KiCad (PCBNEW 7.0.1) date 2024-01-25 20:04:35*
%MOMM*%
%LPD*%
G01*
G04 APERTURE LIST*
G04 Aperture macros list*
%AMRoundRect*
0 Rectangle with rounded corners*
0 $1 Rounding radius*
0 $2 $3 $4 $5 $6 $7 $8 $9 X,Y pos of 4 corners*
0 Add a 4 corners polygon primitive as box body*
4,1,4,$2,$3,$4,$5,$6,$7,$8,$9,$2,$3,0*
0 Add four circle primitives for the rounded corners*
1,1,$1+$1,$2,$3*
1,1,$1+$1,$4,$5*
1,1,$1+$1,$6,$7*
1,1,$1+$1,$8,$9*
0 Add four rect primitives between the rounded corners*
20,1,$1+$1,$2,$3,$4,$5,0*
20,1,$1+$1,$4,$5,$6,$7,0*
20,1,$1+$1,$6,$7,$8,$9,0*
20,1,$1+$1,$8,$9,$2,$3,0*%
G04 Aperture macros list end*
%ADD10C,0.250000*%
%ADD11C,0.150000*%
%ADD12C,0.120000*%
%ADD13C,0.254000*%
%ADD14C,0.200000*%
%ADD15C,0.100000*%
%ADD16RoundRect,0.050000X0.176777X-0.813173X0.813173X-0.176777X-0.176777X0.813173X-0.813173X0.176777X0*%
%ADD17RoundRect,0.050000X0.700000X-0.450000X0.700000X0.450000X-0.700000X0.450000X-0.700000X-0.450000X0*%
%ADD18RoundRect,0.050000X-0.500000X-0.725000X0.500000X-0.725000X0.500000X0.725000X-0.500000X0.725000X0*%
%ADD19C,0.989000*%
%ADD20C,1.650000*%
%ADD21RoundRect,0.050000X0.775000X-0.650000X0.775000X0.650000X-0.775000X0.650000X-0.775000X-0.650000X0*%
%ADD22RoundRect,0.050000X0.500000X0.725000X-0.500000X0.725000X-0.500000X-0.725000X0.500000X-0.725000X0*%
%ADD23RoundRect,0.050000X0.510000X0.735000X-0.510000X0.735000X-0.510000X-0.735000X0.510000X-0.735000X0*%
%ADD24RoundRect,0.050000X-0.250000X-0.600000X0.250000X-0.600000X0.250000X0.600000X-0.250000X0.600000X0*%
%ADD25RoundRect,0.050000X-0.250000X0.200000X-0.250000X-0.200000X0.250000X-0.200000X0.250000X0.200000X0*%
%ADD26RoundRect,0.050000X-1.200000X1.105000X-1.200000X-1.105000X1.200000X-1.105000X1.200000X1.105000X0*%
%ADD27RoundRect,0.050000X-0.735000X0.510000X-0.735000X-0.510000X0.735000X-0.510000X0.735000X0.510000X0*%
%ADD28C,2.100000*%
%ADD29C,1.400000*%
G04 APERTURE END LIST*
D10*
X139457143Y-129962619D02*
X139457143Y-128962619D01*
X139885714Y-129962619D02*
X139885714Y-129438809D01*
X139885714Y-129438809D02*
X139838095Y-129343571D01*
X139838095Y-129343571D02*
X139742857Y-129295952D01*
X139742857Y-129295952D02*
X139600000Y-129295952D01*
X139600000Y-129295952D02*
X139504762Y-129343571D01*
X139504762Y-129343571D02*
X139457143Y-129391190D01*
X140219048Y-129295952D02*
X140600000Y-129295952D01*
X140361905Y-128962619D02*
X140361905Y-129819761D01*
X140361905Y-129819761D02*
X140409524Y-129915000D01*
X140409524Y-129915000D02*
X140504762Y-129962619D01*
X140504762Y-129962619D02*
X140600000Y-129962619D01*
X140790477Y-129295952D02*
X141171429Y-129295952D01*
X140933334Y-128962619D02*
X140933334Y-129819761D01*
X140933334Y-129819761D02*
X140980953Y-129915000D01*
X140980953Y-129915000D02*
X141076191Y-129962619D01*
X141076191Y-129962619D02*
X141171429Y-129962619D01*
X141504763Y-129295952D02*
X141504763Y-130295952D01*
X141504763Y-129343571D02*
X141600001Y-129295952D01*
X141600001Y-129295952D02*
X141790477Y-129295952D01*
X141790477Y-129295952D02*
X141885715Y-129343571D01*
X141885715Y-129343571D02*
X141933334Y-129391190D01*
X141933334Y-129391190D02*
X141980953Y-129486428D01*
X141980953Y-129486428D02*
X141980953Y-129772142D01*
X141980953Y-129772142D02*
X141933334Y-129867380D01*
X141933334Y-129867380D02*
X141885715Y-129915000D01*
X141885715Y-129915000D02*
X141790477Y-129962619D01*
X141790477Y-129962619D02*
X141600001Y-129962619D01*
X141600001Y-129962619D02*
X141504763Y-129915000D01*
X142361906Y-129915000D02*
X142457144Y-129962619D01*
X142457144Y-129962619D02*
X142647620Y-129962619D01*
X142647620Y-129962619D02*
X142742858Y-129915000D01*
X142742858Y-129915000D02*
X142790477Y-129819761D01*
X142790477Y-129819761D02*
X142790477Y-129772142D01*
X142790477Y-129772142D02*
X142742858Y-129676904D01*
X142742858Y-129676904D02*
X142647620Y-129629285D01*
X142647620Y-129629285D02*
X142504763Y-129629285D01*
X142504763Y-129629285D02*
X142409525Y-129581666D01*
X142409525Y-129581666D02*
X142361906Y-129486428D01*
X142361906Y-129486428D02*
X142361906Y-129438809D01*
X142361906Y-129438809D02*
X142409525Y-129343571D01*
X142409525Y-129343571D02*
X142504763Y-129295952D01*
X142504763Y-129295952D02*
X142647620Y-129295952D01*
X142647620Y-129295952D02*
X142742858Y-129343571D01*
X143219049Y-129867380D02*
X143266668Y-129915000D01*
X143266668Y-129915000D02*
X143219049Y-129962619D01*
X143219049Y-129962619D02*
X143171430Y-129915000D01*
X143171430Y-129915000D02*
X143219049Y-129867380D01*
X143219049Y-129867380D02*
X143219049Y-129962619D01*
X143219049Y-129343571D02*
X143266668Y-129391190D01*
X143266668Y-129391190D02*
X143219049Y-129438809D01*
X143219049Y-129438809D02*
X143171430Y-129391190D01*
X143171430Y-129391190D02*
X143219049Y-129343571D01*
X143219049Y-129343571D02*
X143219049Y-129438809D01*
X144409524Y-128915000D02*
X143552382Y-130200714D01*
X145457143Y-128915000D02*
X144600001Y-130200714D01*
X145790477Y-129962619D02*
X145790477Y-129295952D01*
X145790477Y-129391190D02*
X145838096Y-129343571D01*
X145838096Y-129343571D02*
X145933334Y-129295952D01*
X145933334Y-129295952D02*
X146076191Y-129295952D01*
X146076191Y-129295952D02*
X146171429Y-129343571D01*
X146171429Y-129343571D02*
X146219048Y-129438809D01*
X146219048Y-129438809D02*
X146219048Y-129962619D01*
X146219048Y-129438809D02*
X146266667Y-129343571D01*
X146266667Y-129343571D02*
X146361905Y-129295952D01*
X146361905Y-129295952D02*
X146504762Y-129295952D01*
X146504762Y-129295952D02*
X146600001Y-129343571D01*
X146600001Y-129343571D02*
X146647620Y-129438809D01*
X146647620Y-129438809D02*
X146647620Y-129962619D01*
X147552381Y-129962619D02*
X147552381Y-129438809D01*
X147552381Y-129438809D02*
X147504762Y-129343571D01*
X147504762Y-129343571D02*
X147409524Y-129295952D01*
X147409524Y-129295952D02*
X147219048Y-129295952D01*
X147219048Y-129295952D02*
X147123810Y-129343571D01*
X147552381Y-129915000D02*
X147457143Y-129962619D01*
X147457143Y-129962619D02*
X147219048Y-129962619D01*
X147219048Y-129962619D02*
X147123810Y-129915000D01*
X147123810Y-129915000D02*
X147076191Y-129819761D01*
X147076191Y-129819761D02*
X147076191Y-129724523D01*
X147076191Y-129724523D02*
X147123810Y-129629285D01*
X147123810Y-129629285D02*
X147219048Y-129581666D01*
X147219048Y-129581666D02*
X147457143Y-129581666D01*
X147457143Y-129581666D02*
X147552381Y-129534047D01*
X148028572Y-129962619D02*
X148028572Y-128962619D01*
X148123810Y-129581666D02*
X148409524Y-129962619D01*
X148409524Y-129295952D02*
X148028572Y-129676904D01*
X148838096Y-129962619D02*
X148838096Y-129295952D01*
X148838096Y-128962619D02*
X148790477Y-129010238D01*
X148790477Y-129010238D02*
X148838096Y-129057857D01*
X148838096Y-129057857D02*
X148885715Y-129010238D01*
X148885715Y-129010238D02*
X148838096Y-128962619D01*
X148838096Y-128962619D02*
X148838096Y-129057857D01*
X149314286Y-129295952D02*
X149314286Y-129962619D01*
X149314286Y-129391190D02*
X149361905Y-129343571D01*
X149361905Y-129343571D02*
X149457143Y-129295952D01*
X149457143Y-129295952D02*
X149600000Y-129295952D01*
X149600000Y-129295952D02*
X149695238Y-129343571D01*
X149695238Y-129343571D02*
X149742857Y-129438809D01*
X149742857Y-129438809D02*
X149742857Y-129962619D01*
X150647619Y-129295952D02*
X150647619Y-130105476D01*
X150647619Y-130105476D02*
X150600000Y-130200714D01*
X150600000Y-130200714D02*
X150552381Y-130248333D01*
X150552381Y-130248333D02*
X150457143Y-130295952D01*
X150457143Y-130295952D02*
X150314286Y-130295952D01*
X150314286Y-130295952D02*
X150219048Y-130248333D01*
X150647619Y-129915000D02*
X150552381Y-129962619D01*
X150552381Y-129962619D02*
X150361905Y-129962619D01*
X150361905Y-129962619D02*
X150266667Y-129915000D01*
X150266667Y-129915000D02*
X150219048Y-129867380D01*
X150219048Y-129867380D02*
X150171429Y-129772142D01*
X150171429Y-129772142D02*
X150171429Y-129486428D01*
X150171429Y-129486428D02*
X150219048Y-129391190D01*
X150219048Y-129391190D02*
X150266667Y-129343571D01*
X150266667Y-129343571D02*
X150361905Y-129295952D01*
X150361905Y-129295952D02*
X150552381Y-129295952D01*
X150552381Y-129295952D02*
X150647619Y-129343571D01*
X151552381Y-129962619D02*
X151552381Y-128962619D01*
X151552381Y-129915000D02*
X151457143Y-129962619D01*
X151457143Y-129962619D02*
X151266667Y-129962619D01*
X151266667Y-129962619D02*
X151171429Y-129915000D01*
X151171429Y-129915000D02*
X151123810Y-129867380D01*
X151123810Y-129867380D02*
X151076191Y-129772142D01*
X151076191Y-129772142D02*
X151076191Y-129486428D01*
X151076191Y-129486428D02*
X151123810Y-129391190D01*
X151123810Y-129391190D02*
X151171429Y-129343571D01*
X151171429Y-129343571D02*
X151266667Y-129295952D01*
X151266667Y-129295952D02*
X151457143Y-129295952D01*
X151457143Y-129295952D02*
X151552381Y-129343571D01*
X152409524Y-129915000D02*
X152314286Y-129962619D01*
X152314286Y-129962619D02*
X152123810Y-129962619D01*
X152123810Y-129962619D02*
X152028572Y-129915000D01*
X152028572Y-129915000D02*
X151980953Y-129819761D01*
X151980953Y-129819761D02*
X151980953Y-129438809D01*
X151980953Y-129438809D02*
X152028572Y-129343571D01*
X152028572Y-129343571D02*
X152123810Y-129295952D01*
X152123810Y-129295952D02*
X152314286Y-129295952D01*
X152314286Y-129295952D02*
X152409524Y-129343571D01*
X152409524Y-129343571D02*
X152457143Y-129438809D01*
X152457143Y-129438809D02*
X152457143Y-129534047D01*
X152457143Y-129534047D02*
X151980953Y-129629285D01*
X152790477Y-129295952D02*
X153028572Y-129962619D01*
X153028572Y-129962619D02*
X153266667Y-129295952D01*
X153647620Y-129962619D02*
X153647620Y-129295952D01*
X153647620Y-128962619D02*
X153600001Y-129010238D01*
X153600001Y-129010238D02*
X153647620Y-129057857D01*
X153647620Y-129057857D02*
X153695239Y-129010238D01*
X153695239Y-129010238D02*
X153647620Y-128962619D01*
X153647620Y-128962619D02*
X153647620Y-129057857D01*
X154552381Y-129915000D02*
X154457143Y-129962619D01*
X154457143Y-129962619D02*
X154266667Y-129962619D01*
X154266667Y-129962619D02*
X154171429Y-129915000D01*
X154171429Y-129915000D02*
X154123810Y-129867380D01*
X154123810Y-129867380D02*
X154076191Y-129772142D01*
X154076191Y-129772142D02*
X154076191Y-129486428D01*
X154076191Y-129486428D02*
X154123810Y-129391190D01*
X154123810Y-129391190D02*
X154171429Y-129343571D01*
X154171429Y-129343571D02*
X154266667Y-129295952D01*
X154266667Y-129295952D02*
X154457143Y-129295952D01*
X154457143Y-129295952D02*
X154552381Y-129343571D01*
X155361905Y-129915000D02*
X155266667Y-129962619D01*
X155266667Y-129962619D02*
X155076191Y-129962619D01*
X155076191Y-129962619D02*
X154980953Y-129915000D01*
X154980953Y-129915000D02*
X154933334Y-129819761D01*
X154933334Y-129819761D02*
X154933334Y-129438809D01*
X154933334Y-129438809D02*
X154980953Y-129343571D01*
X154980953Y-129343571D02*
X155076191Y-129295952D01*
X155076191Y-129295952D02*
X155266667Y-129295952D01*
X155266667Y-129295952D02*
X155361905Y-129343571D01*
X155361905Y-129343571D02*
X155409524Y-129438809D01*
X155409524Y-129438809D02*
X155409524Y-129534047D01*
X155409524Y-129534047D02*
X154933334Y-129629285D01*
X155790477Y-129915000D02*
X155885715Y-129962619D01*
X155885715Y-129962619D02*
X156076191Y-129962619D01*
X156076191Y-129962619D02*
X156171429Y-129915000D01*
X156171429Y-129915000D02*
X156219048Y-129819761D01*
X156219048Y-129819761D02*
X156219048Y-129772142D01*
X156219048Y-129772142D02*
X156171429Y-129676904D01*
X156171429Y-129676904D02*
X156076191Y-129629285D01*
X156076191Y-129629285D02*
X155933334Y-129629285D01*
X155933334Y-129629285D02*
X155838096Y-129581666D01*
X155838096Y-129581666D02*
X155790477Y-129486428D01*
X155790477Y-129486428D02*
X155790477Y-129438809D01*
X155790477Y-129438809D02*
X155838096Y-129343571D01*
X155838096Y-129343571D02*
X155933334Y-129295952D01*
X155933334Y-129295952D02*
X156076191Y-129295952D01*
X156076191Y-129295952D02*
X156171429Y-129343571D01*
X156647620Y-129867380D02*
X156695239Y-129915000D01*
X156695239Y-129915000D02*
X156647620Y-129962619D01*
X156647620Y-129962619D02*
X156600001Y-129915000D01*
X156600001Y-129915000D02*
X156647620Y-129867380D01*
X156647620Y-129867380D02*
X156647620Y-129962619D01*
X157552381Y-129915000D02*
X157457143Y-129962619D01*
X157457143Y-129962619D02*
X157266667Y-129962619D01*
X157266667Y-129962619D02*
X157171429Y-129915000D01*
X157171429Y-129915000D02*
X157123810Y-129867380D01*
X157123810Y-129867380D02*
X157076191Y-129772142D01*
X157076191Y-129772142D02*
X157076191Y-129486428D01*
X157076191Y-129486428D02*
X157123810Y-129391190D01*
X157123810Y-129391190D02*
X157171429Y-129343571D01*
X157171429Y-129343571D02*
X157266667Y-129295952D01*
X157266667Y-129295952D02*
X157457143Y-129295952D01*
X157457143Y-129295952D02*
X157552381Y-129343571D01*
X158123810Y-129962619D02*
X158028572Y-129915000D01*
X158028572Y-129915000D02*
X157980953Y-129867380D01*
X157980953Y-129867380D02*
X157933334Y-129772142D01*
X157933334Y-129772142D02*
X157933334Y-129486428D01*
X157933334Y-129486428D02*
X157980953Y-129391190D01*
X157980953Y-129391190D02*
X158028572Y-129343571D01*
X158028572Y-129343571D02*
X158123810Y-129295952D01*
X158123810Y-129295952D02*
X158266667Y-129295952D01*
X158266667Y-129295952D02*
X158361905Y-129343571D01*
X158361905Y-129343571D02*
X158409524Y-129391190D01*
X158409524Y-129391190D02*
X158457143Y-129486428D01*
X158457143Y-129486428D02*
X158457143Y-129772142D01*
X158457143Y-129772142D02*
X158409524Y-129867380D01*
X158409524Y-129867380D02*
X158361905Y-129915000D01*
X158361905Y-129915000D02*
X158266667Y-129962619D01*
X158266667Y-129962619D02*
X158123810Y-129962619D01*
X158885715Y-129962619D02*
X158885715Y-129295952D01*
X158885715Y-129391190D02*
X158933334Y-129343571D01*
X158933334Y-129343571D02*
X159028572Y-129295952D01*
X159028572Y-129295952D02*
X159171429Y-129295952D01*
X159171429Y-129295952D02*
X159266667Y-129343571D01*
X159266667Y-129343571D02*
X159314286Y-129438809D01*
X159314286Y-129438809D02*
X159314286Y-129962619D01*
X159314286Y-129438809D02*
X159361905Y-129343571D01*
X159361905Y-129343571D02*
X159457143Y-129295952D01*
X159457143Y-129295952D02*
X159600000Y-129295952D01*
X159600000Y-129295952D02*
X159695239Y-129343571D01*
X159695239Y-129343571D02*
X159742858Y-129438809D01*
X159742858Y-129438809D02*
X159742858Y-129962619D01*
D11*
X117387526Y-78842380D02*
X116117526Y-78842380D01*
X116117526Y-78842380D02*
X116117526Y-78358570D01*
X116117526Y-78358570D02*
X116178002Y-78237618D01*
X116178002Y-78237618D02*
X116238478Y-78177141D01*
X116238478Y-78177141D02*
X116359430Y-78116665D01*
X116359430Y-78116665D02*
X116540859Y-78116665D01*
X116540859Y-78116665D02*
X116661811Y-78177141D01*
X116661811Y-78177141D02*
X116722288Y-78237618D01*
X116722288Y-78237618D02*
X116782764Y-78358570D01*
X116782764Y-78358570D02*
X116782764Y-78842380D01*
X117387526Y-77572380D02*
X116540859Y-77572380D01*
X116117526Y-77572380D02*
X116178002Y-77632856D01*
X116178002Y-77632856D02*
X116238478Y-77572380D01*
X116238478Y-77572380D02*
X116178002Y-77511903D01*
X116178002Y-77511903D02*
X116117526Y-77572380D01*
X116117526Y-77572380D02*
X116238478Y-77572380D01*
X117327050Y-76423332D02*
X117387526Y-76544284D01*
X117387526Y-76544284D02*
X117387526Y-76786189D01*
X117387526Y-76786189D02*
X117327050Y-76907141D01*
X117327050Y-76907141D02*
X117266573Y-76967618D01*
X117266573Y-76967618D02*
X117145621Y-77028094D01*
X117145621Y-77028094D02*
X116782764Y-77028094D01*
X116782764Y-77028094D02*
X116661811Y-76967618D01*
X116661811Y-76967618D02*
X116601335Y-76907141D01*
X116601335Y-76907141D02*
X116540859Y-76786189D01*
X116540859Y-76786189D02*
X116540859Y-76544284D01*
X116540859Y-76544284D02*
X116601335Y-76423332D01*
X116722288Y-74488094D02*
X116782764Y-74306666D01*
X116782764Y-74306666D02*
X116843240Y-74246189D01*
X116843240Y-74246189D02*
X116964192Y-74185713D01*
X116964192Y-74185713D02*
X117145621Y-74185713D01*
X117145621Y-74185713D02*
X117266573Y-74246189D01*
X117266573Y-74246189D02*
X117327050Y-74306666D01*
X117327050Y-74306666D02*
X117387526Y-74427618D01*
X117387526Y-74427618D02*
X117387526Y-74911428D01*
X117387526Y-74911428D02*
X116117526Y-74911428D01*
X116117526Y-74911428D02*
X116117526Y-74488094D01*
X116117526Y-74488094D02*
X116178002Y-74367142D01*
X116178002Y-74367142D02*
X116238478Y-74306666D01*
X116238478Y-74306666D02*
X116359430Y-74246189D01*
X116359430Y-74246189D02*
X116480383Y-74246189D01*
X116480383Y-74246189D02*
X116601335Y-74306666D01*
X116601335Y-74306666D02*
X116661811Y-74367142D01*
X116661811Y-74367142D02*
X116722288Y-74488094D01*
X116722288Y-74488094D02*
X116722288Y-74911428D01*
X116540859Y-73762380D02*
X117387526Y-73459999D01*
X116540859Y-73157618D02*
X117387526Y-73459999D01*
X117387526Y-73459999D02*
X117689907Y-73580951D01*
X117689907Y-73580951D02*
X117750383Y-73641428D01*
X117750383Y-73641428D02*
X117810859Y-73762380D01*
X116540859Y-72855237D02*
X116540859Y-72371428D01*
X116117526Y-72673809D02*
X117206097Y-72673809D01*
X117206097Y-72673809D02*
X117327050Y-72613332D01*
X117327050Y-72613332D02*
X117387526Y-72492380D01*
X117387526Y-72492380D02*
X117387526Y-72371428D01*
X117327050Y-71464285D02*
X117387526Y-71585237D01*
X117387526Y-71585237D02*
X117387526Y-71827142D01*
X117387526Y-71827142D02*
X117327050Y-71948095D01*
X117327050Y-71948095D02*
X117206097Y-72008571D01*
X117206097Y-72008571D02*
X116722288Y-72008571D01*
X116722288Y-72008571D02*
X116601335Y-71948095D01*
X116601335Y-71948095D02*
X116540859Y-71827142D01*
X116540859Y-71827142D02*
X116540859Y-71585237D01*
X116540859Y-71585237D02*
X116601335Y-71464285D01*
X116601335Y-71464285D02*
X116722288Y-71403809D01*
X116722288Y-71403809D02*
X116843240Y-71403809D01*
X116843240Y-71403809D02*
X116964192Y-72008571D01*
X117327050Y-70920000D02*
X117387526Y-70799047D01*
X117387526Y-70799047D02*
X117387526Y-70557143D01*
X117387526Y-70557143D02*
X117327050Y-70436190D01*
X117327050Y-70436190D02*
X117206097Y-70375714D01*
X117206097Y-70375714D02*
X117145621Y-70375714D01*
X117145621Y-70375714D02*
X117024669Y-70436190D01*
X117024669Y-70436190D02*
X116964192Y-70557143D01*
X116964192Y-70557143D02*
X116964192Y-70738571D01*
X116964192Y-70738571D02*
X116903716Y-70859524D01*
X116903716Y-70859524D02*
X116782764Y-70920000D01*
X116782764Y-70920000D02*
X116722288Y-70920000D01*
X116722288Y-70920000D02*
X116601335Y-70859524D01*
X116601335Y-70859524D02*
X116540859Y-70738571D01*
X116540859Y-70738571D02*
X116540859Y-70557143D01*
X116540859Y-70557143D02*
X116601335Y-70436190D01*
X117387526Y-68863810D02*
X116117526Y-68863810D01*
X116117526Y-68863810D02*
X117024669Y-68440476D01*
X117024669Y-68440476D02*
X116117526Y-68017143D01*
X116117526Y-68017143D02*
X117387526Y-68017143D01*
X117387526Y-67412381D02*
X116540859Y-67412381D01*
X116117526Y-67412381D02*
X116178002Y-67472857D01*
X116178002Y-67472857D02*
X116238478Y-67412381D01*
X116238478Y-67412381D02*
X116178002Y-67351904D01*
X116178002Y-67351904D02*
X116117526Y-67412381D01*
X116117526Y-67412381D02*
X116238478Y-67412381D01*
X117327050Y-66263333D02*
X117387526Y-66384285D01*
X117387526Y-66384285D02*
X117387526Y-66626190D01*
X117387526Y-66626190D02*
X117327050Y-66747142D01*
X117327050Y-66747142D02*
X117266573Y-66807619D01*
X117266573Y-66807619D02*
X117145621Y-66868095D01*
X117145621Y-66868095D02*
X116782764Y-66868095D01*
X116782764Y-66868095D02*
X116661811Y-66807619D01*
X116661811Y-66807619D02*
X116601335Y-66747142D01*
X116601335Y-66747142D02*
X116540859Y-66626190D01*
X116540859Y-66626190D02*
X116540859Y-66384285D01*
X116540859Y-66384285D02*
X116601335Y-66263333D01*
X117387526Y-65719048D02*
X116540859Y-65719048D01*
X116782764Y-65719048D02*
X116661811Y-65658571D01*
X116661811Y-65658571D02*
X116601335Y-65598095D01*
X116601335Y-65598095D02*
X116540859Y-65477143D01*
X116540859Y-65477143D02*
X116540859Y-65356190D01*
X117387526Y-64751429D02*
X117327050Y-64872381D01*
X117327050Y-64872381D02*
X117266573Y-64932858D01*
X117266573Y-64932858D02*
X117145621Y-64993334D01*
X117145621Y-64993334D02*
X116782764Y-64993334D01*
X116782764Y-64993334D02*
X116661811Y-64932858D01*
X116661811Y-64932858D02*
X116601335Y-64872381D01*
X116601335Y-64872381D02*
X116540859Y-64751429D01*
X116540859Y-64751429D02*
X116540859Y-64570000D01*
X116540859Y-64570000D02*
X116601335Y-64449048D01*
X116601335Y-64449048D02*
X116661811Y-64388572D01*
X116661811Y-64388572D02*
X116782764Y-64328096D01*
X116782764Y-64328096D02*
X117145621Y-64328096D01*
X117145621Y-64328096D02*
X117266573Y-64388572D01*
X117266573Y-64388572D02*
X117327050Y-64449048D01*
X117327050Y-64449048D02*
X117387526Y-64570000D01*
X117387526Y-64570000D02*
X117387526Y-64751429D01*
X117387526Y-62090476D02*
X116782764Y-62513810D01*
X117387526Y-62816191D02*
X116117526Y-62816191D01*
X116117526Y-62816191D02*
X116117526Y-62332381D01*
X116117526Y-62332381D02*
X116178002Y-62211429D01*
X116178002Y-62211429D02*
X116238478Y-62150952D01*
X116238478Y-62150952D02*
X116359430Y-62090476D01*
X116359430Y-62090476D02*
X116540859Y-62090476D01*
X116540859Y-62090476D02*
X116661811Y-62150952D01*
X116661811Y-62150952D02*
X116722288Y-62211429D01*
X116722288Y-62211429D02*
X116782764Y-62332381D01*
X116782764Y-62332381D02*
X116782764Y-62816191D01*
X117327050Y-61062381D02*
X117387526Y-61183333D01*
X117387526Y-61183333D02*
X117387526Y-61425238D01*
X117387526Y-61425238D02*
X117327050Y-61546191D01*
X117327050Y-61546191D02*
X117206097Y-61606667D01*
X117206097Y-61606667D02*
X116722288Y-61606667D01*
X116722288Y-61606667D02*
X116601335Y-61546191D01*
X116601335Y-61546191D02*
X116540859Y-61425238D01*
X116540859Y-61425238D02*
X116540859Y-61183333D01*
X116540859Y-61183333D02*
X116601335Y-61062381D01*
X116601335Y-61062381D02*
X116722288Y-61001905D01*
X116722288Y-61001905D02*
X116843240Y-61001905D01*
X116843240Y-61001905D02*
X116964192Y-61606667D01*
X116540859Y-60578572D02*
X117387526Y-60276191D01*
X117387526Y-60276191D02*
X116540859Y-59973810D01*
X117387526Y-57857143D02*
X117387526Y-58582858D01*
X117387526Y-58220001D02*
X116117526Y-58220001D01*
X116117526Y-58220001D02*
X116298954Y-58340953D01*
X116298954Y-58340953D02*
X116419907Y-58461905D01*
X116419907Y-58461905D02*
X116480383Y-58582858D01*
X117266573Y-57312858D02*
X117327050Y-57252381D01*
X117327050Y-57252381D02*
X117387526Y-57312858D01*
X117387526Y-57312858D02*
X117327050Y-57373334D01*
X117327050Y-57373334D02*
X117266573Y-57312858D01*
X117266573Y-57312858D02*
X117387526Y-57312858D01*
X116238478Y-56768572D02*
X116178002Y-56708096D01*
X116178002Y-56708096D02*
X116117526Y-56587143D01*
X116117526Y-56587143D02*
X116117526Y-56284762D01*
X116117526Y-56284762D02*
X116178002Y-56163810D01*
X116178002Y-56163810D02*
X116238478Y-56103334D01*
X116238478Y-56103334D02*
X116359430Y-56042857D01*
X116359430Y-56042857D02*
X116480383Y-56042857D01*
X116480383Y-56042857D02*
X116661811Y-56103334D01*
X116661811Y-56103334D02*
X117387526Y-56829048D01*
X117387526Y-56829048D02*
X117387526Y-56042857D01*
X116903716Y-54530953D02*
X116903716Y-53563334D01*
X116238478Y-52051429D02*
X116178002Y-51990953D01*
X116178002Y-51990953D02*
X116117526Y-51870000D01*
X116117526Y-51870000D02*
X116117526Y-51567619D01*
X116117526Y-51567619D02*
X116178002Y-51446667D01*
X116178002Y-51446667D02*
X116238478Y-51386191D01*
X116238478Y-51386191D02*
X116359430Y-51325714D01*
X116359430Y-51325714D02*
X116480383Y-51325714D01*
X116480383Y-51325714D02*
X116661811Y-51386191D01*
X116661811Y-51386191D02*
X117387526Y-52111905D01*
X117387526Y-52111905D02*
X117387526Y-51325714D01*
X116117526Y-50539524D02*
X116117526Y-50418571D01*
X116117526Y-50418571D02*
X116178002Y-50297619D01*
X116178002Y-50297619D02*
X116238478Y-50237143D01*
X116238478Y-50237143D02*
X116359430Y-50176667D01*
X116359430Y-50176667D02*
X116601335Y-50116190D01*
X116601335Y-50116190D02*
X116903716Y-50116190D01*
X116903716Y-50116190D02*
X117145621Y-50176667D01*
X117145621Y-50176667D02*
X117266573Y-50237143D01*
X117266573Y-50237143D02*
X117327050Y-50297619D01*
X117327050Y-50297619D02*
X117387526Y-50418571D01*
X117387526Y-50418571D02*
X117387526Y-50539524D01*
X117387526Y-50539524D02*
X117327050Y-50660476D01*
X117327050Y-50660476D02*
X117266573Y-50720952D01*
X117266573Y-50720952D02*
X117145621Y-50781429D01*
X117145621Y-50781429D02*
X116903716Y-50841905D01*
X116903716Y-50841905D02*
X116601335Y-50841905D01*
X116601335Y-50841905D02*
X116359430Y-50781429D01*
X116359430Y-50781429D02*
X116238478Y-50720952D01*
X116238478Y-50720952D02*
X116178002Y-50660476D01*
X116178002Y-50660476D02*
X116117526Y-50539524D01*
X116238478Y-49632381D02*
X116178002Y-49571905D01*
X116178002Y-49571905D02*
X116117526Y-49450952D01*
X116117526Y-49450952D02*
X116117526Y-49148571D01*
X116117526Y-49148571D02*
X116178002Y-49027619D01*
X116178002Y-49027619D02*
X116238478Y-48967143D01*
X116238478Y-48967143D02*
X116359430Y-48906666D01*
X116359430Y-48906666D02*
X116480383Y-48906666D01*
X116480383Y-48906666D02*
X116661811Y-48967143D01*
X116661811Y-48967143D02*
X117387526Y-49692857D01*
X117387526Y-49692857D02*
X117387526Y-48906666D01*
X116540859Y-47818095D02*
X117387526Y-47818095D01*
X116057050Y-48120476D02*
X116964192Y-48422857D01*
X116964192Y-48422857D02*
X116964192Y-47636666D01*
D12*
X114000000Y-124547666D02*
X114100000Y-124581000D01*
X114100000Y-124581000D02*
X114133333Y-124614333D01*
X114133333Y-124614333D02*
X114166666Y-124681000D01*
X114166666Y-124681000D02*
X114166666Y-124781000D01*
X114166666Y-124781000D02*
X114133333Y-124847666D01*
X114133333Y-124847666D02*
X114100000Y-124881000D01*
X114100000Y-124881000D02*
X114033333Y-124914333D01*
X114033333Y-124914333D02*
X113766666Y-124914333D01*
X113766666Y-124914333D02*
X113766666Y-124214333D01*
X113766666Y-124214333D02*
X114000000Y-124214333D01*
X114000000Y-124214333D02*
X114066666Y-124247666D01*
X114066666Y-124247666D02*
X114100000Y-124281000D01*
X114100000Y-124281000D02*
X114133333Y-124347666D01*
X114133333Y-124347666D02*
X114133333Y-124414333D01*
X114133333Y-124414333D02*
X114100000Y-124481000D01*
X114100000Y-124481000D02*
X114066666Y-124514333D01*
X114066666Y-124514333D02*
X114000000Y-124547666D01*
X114000000Y-124547666D02*
X113766666Y-124547666D01*
X114766666Y-124914333D02*
X114766666Y-124547666D01*
X114766666Y-124547666D02*
X114733333Y-124481000D01*
X114733333Y-124481000D02*
X114666666Y-124447666D01*
X114666666Y-124447666D02*
X114533333Y-124447666D01*
X114533333Y-124447666D02*
X114466666Y-124481000D01*
X114766666Y-124881000D02*
X114700000Y-124914333D01*
X114700000Y-124914333D02*
X114533333Y-124914333D01*
X114533333Y-124914333D02*
X114466666Y-124881000D01*
X114466666Y-124881000D02*
X114433333Y-124814333D01*
X114433333Y-124814333D02*
X114433333Y-124747666D01*
X114433333Y-124747666D02*
X114466666Y-124681000D01*
X114466666Y-124681000D02*
X114533333Y-124647666D01*
X114533333Y-124647666D02*
X114700000Y-124647666D01*
X114700000Y-124647666D02*
X114766666Y-124614333D01*
X114999999Y-124447666D02*
X115266666Y-124447666D01*
X115099999Y-124214333D02*
X115099999Y-124814333D01*
X115099999Y-124814333D02*
X115133333Y-124881000D01*
X115133333Y-124881000D02*
X115199999Y-124914333D01*
X115199999Y-124914333D02*
X115266666Y-124914333D01*
X115399999Y-124447666D02*
X115666666Y-124447666D01*
X115499999Y-124214333D02*
X115499999Y-124814333D01*
X115499999Y-124814333D02*
X115533333Y-124881000D01*
X115533333Y-124881000D02*
X115599999Y-124914333D01*
X115599999Y-124914333D02*
X115666666Y-124914333D01*
X116166666Y-124881000D02*
X116099999Y-124914333D01*
X116099999Y-124914333D02*
X115966666Y-124914333D01*
X115966666Y-124914333D02*
X115899999Y-124881000D01*
X115899999Y-124881000D02*
X115866666Y-124814333D01*
X115866666Y-124814333D02*
X115866666Y-124547666D01*
X115866666Y-124547666D02*
X115899999Y-124481000D01*
X115899999Y-124481000D02*
X115966666Y-124447666D01*
X115966666Y-124447666D02*
X116099999Y-124447666D01*
X116099999Y-124447666D02*
X116166666Y-124481000D01*
X116166666Y-124481000D02*
X116199999Y-124547666D01*
X116199999Y-124547666D02*
X116199999Y-124614333D01*
X116199999Y-124614333D02*
X115866666Y-124681000D01*
X116499999Y-124914333D02*
X116499999Y-124447666D01*
X116499999Y-124581000D02*
X116533333Y-124514333D01*
X116533333Y-124514333D02*
X116566666Y-124481000D01*
X116566666Y-124481000D02*
X116633333Y-124447666D01*
X116633333Y-124447666D02*
X116699999Y-124447666D01*
X116866666Y-124447666D02*
X117033332Y-124914333D01*
X117199999Y-124447666D02*
X117033332Y-124914333D01*
X117033332Y-124914333D02*
X116966666Y-125081000D01*
X116966666Y-125081000D02*
X116933332Y-125114333D01*
X116933332Y-125114333D02*
X116866666Y-125147666D01*
X117966665Y-124881000D02*
X118066665Y-124914333D01*
X118066665Y-124914333D02*
X118233332Y-124914333D01*
X118233332Y-124914333D02*
X118299998Y-124881000D01*
X118299998Y-124881000D02*
X118333332Y-124847666D01*
X118333332Y-124847666D02*
X118366665Y-124781000D01*
X118366665Y-124781000D02*
X118366665Y-124714333D01*
X118366665Y-124714333D02*
X118333332Y-124647666D01*
X118333332Y-124647666D02*
X118299998Y-124614333D01*
X118299998Y-124614333D02*
X118233332Y-124581000D01*
X118233332Y-124581000D02*
X118099998Y-124547666D01*
X118099998Y-124547666D02*
X118033332Y-124514333D01*
X118033332Y-124514333D02*
X117999998Y-124481000D01*
X117999998Y-124481000D02*
X117966665Y-124414333D01*
X117966665Y-124414333D02*
X117966665Y-124347666D01*
X117966665Y-124347666D02*
X117999998Y-124281000D01*
X117999998Y-124281000D02*
X118033332Y-124247666D01*
X118033332Y-124247666D02*
X118099998Y-124214333D01*
X118099998Y-124214333D02*
X118266665Y-124214333D01*
X118266665Y-124214333D02*
X118366665Y-124247666D01*
X118566665Y-124447666D02*
X118833332Y-124447666D01*
X118666665Y-124214333D02*
X118666665Y-124814333D01*
X118666665Y-124814333D02*
X118699999Y-124881000D01*
X118699999Y-124881000D02*
X118766665Y-124914333D01*
X118766665Y-124914333D02*
X118833332Y-124914333D01*
X119366665Y-124914333D02*
X119366665Y-124547666D01*
X119366665Y-124547666D02*
X119333332Y-124481000D01*
X119333332Y-124481000D02*
X119266665Y-124447666D01*
X119266665Y-124447666D02*
X119133332Y-124447666D01*
X119133332Y-124447666D02*
X119066665Y-124481000D01*
X119366665Y-124881000D02*
X119299999Y-124914333D01*
X119299999Y-124914333D02*
X119133332Y-124914333D01*
X119133332Y-124914333D02*
X119066665Y-124881000D01*
X119066665Y-124881000D02*
X119033332Y-124814333D01*
X119033332Y-124814333D02*
X119033332Y-124747666D01*
X119033332Y-124747666D02*
X119066665Y-124681000D01*
X119066665Y-124681000D02*
X119133332Y-124647666D01*
X119133332Y-124647666D02*
X119299999Y-124647666D01*
X119299999Y-124647666D02*
X119366665Y-124614333D01*
X119599998Y-124447666D02*
X119866665Y-124447666D01*
X119699998Y-124214333D02*
X119699998Y-124814333D01*
X119699998Y-124814333D02*
X119733332Y-124881000D01*
X119733332Y-124881000D02*
X119799998Y-124914333D01*
X119799998Y-124914333D02*
X119866665Y-124914333D01*
X120399998Y-124447666D02*
X120399998Y-124914333D01*
X120099998Y-124447666D02*
X120099998Y-124814333D01*
X120099998Y-124814333D02*
X120133332Y-124881000D01*
X120133332Y-124881000D02*
X120199998Y-124914333D01*
X120199998Y-124914333D02*
X120299998Y-124914333D01*
X120299998Y-124914333D02*
X120366665Y-124881000D01*
X120366665Y-124881000D02*
X120399998Y-124847666D01*
X120699998Y-124881000D02*
X120766665Y-124914333D01*
X120766665Y-124914333D02*
X120899998Y-124914333D01*
X120899998Y-124914333D02*
X120966665Y-124881000D01*
X120966665Y-124881000D02*
X120999998Y-124814333D01*
X120999998Y-124814333D02*
X120999998Y-124781000D01*
X120999998Y-124781000D02*
X120966665Y-124714333D01*
X120966665Y-124714333D02*
X120899998Y-124681000D01*
X120899998Y-124681000D02*
X120799998Y-124681000D01*
X120799998Y-124681000D02*
X120733331Y-124647666D01*
X120733331Y-124647666D02*
X120699998Y-124581000D01*
X120699998Y-124581000D02*
X120699998Y-124547666D01*
X120699998Y-124547666D02*
X120733331Y-124481000D01*
X120733331Y-124481000D02*
X120799998Y-124447666D01*
X120799998Y-124447666D02*
X120899998Y-124447666D01*
X120899998Y-124447666D02*
X120966665Y-124481000D01*
D13*
%TO.C,J1*%
X157446667Y-102952526D02*
X157446667Y-103859669D01*
X157446667Y-103859669D02*
X157386190Y-104041097D01*
X157386190Y-104041097D02*
X157265238Y-104162050D01*
X157265238Y-104162050D02*
X157083809Y-104222526D01*
X157083809Y-104222526D02*
X156962857Y-104222526D01*
X158716667Y-104222526D02*
X157990952Y-104222526D01*
X158353809Y-104222526D02*
X158353809Y-102952526D01*
X158353809Y-102952526D02*
X158232857Y-103133954D01*
X158232857Y-103133954D02*
X158111905Y-103254907D01*
X158111905Y-103254907D02*
X157990952Y-103315383D01*
D14*
%TO.C,LED1*%
X118901159Y-49518667D02*
X120386083Y-51003591D01*
X120386083Y-51003591D02*
X122295272Y-49094403D01*
X120810347Y-47609478D02*
X118901159Y-49518667D01*
%TO.C,LED2*%
X118901159Y-53110770D02*
X120386083Y-54595694D01*
X120386083Y-54595694D02*
X122295272Y-52686506D01*
X120810347Y-51201581D02*
X118901159Y-53110770D01*
%TO.C,LED3*%
X118901159Y-56702872D02*
X120386083Y-58187796D01*
X120386083Y-58187796D02*
X122295272Y-56278608D01*
X120810347Y-54793683D02*
X118901159Y-56702872D01*
%TO.C,LED4*%
X118901159Y-60294975D02*
X120386083Y-61779899D01*
X120386083Y-61779899D02*
X122295272Y-59870711D01*
X120810347Y-58385786D02*
X118901159Y-60294975D01*
%TO.C,LED5*%
X118901159Y-63887077D02*
X120386083Y-65372001D01*
X120386083Y-65372001D02*
X122295272Y-63462813D01*
X120810347Y-61977888D02*
X118901159Y-63887077D01*
%TO.C,LED6*%
X118901159Y-67479180D02*
X120386083Y-68964104D01*
X120386083Y-68964104D02*
X122295272Y-67054916D01*
X120810347Y-65569991D02*
X118901159Y-67479180D01*
%TO.C,LED7*%
X118901159Y-71071282D02*
X120386083Y-72556206D01*
X120386083Y-72556206D02*
X122295272Y-70647018D01*
X120810347Y-69162093D02*
X118901159Y-71071282D01*
%TO.C,LED8*%
X118901159Y-74663384D02*
X120386083Y-76148308D01*
X120386083Y-76148308D02*
X122295272Y-74239120D01*
X120810347Y-72754195D02*
X118901159Y-74663384D01*
%TO.C,LED9*%
X118901159Y-78255487D02*
X120386083Y-79740411D01*
X120386083Y-79740411D02*
X122295272Y-77831223D01*
X120810347Y-76346298D02*
X118901159Y-78255487D01*
%TO.C,LED10*%
X118901159Y-81847589D02*
X120386083Y-83332513D01*
X120386083Y-83332513D02*
X122295272Y-81423325D01*
X120810347Y-79938400D02*
X118901159Y-81847589D01*
%TO.C,LED11*%
X118901159Y-85439692D02*
X120386083Y-86924616D01*
X120386083Y-86924616D02*
X122295272Y-85015428D01*
X120810347Y-83530503D02*
X118901159Y-85439692D01*
%TO.C,LED12*%
X118901159Y-89031794D02*
X120386083Y-90516718D01*
X120386083Y-90516718D02*
X122295272Y-88607530D01*
X120810347Y-87122605D02*
X118901159Y-89031794D01*
%TO.C,LED13*%
X118901159Y-92623897D02*
X120386083Y-94108821D01*
X120386083Y-94108821D02*
X122295272Y-92199633D01*
X120810347Y-90714708D02*
X118901159Y-92623897D01*
%TO.C,LED14*%
X118901159Y-96215999D02*
X120386083Y-97700923D01*
X120386083Y-97700923D02*
X122295272Y-95791735D01*
X120810347Y-94306810D02*
X118901159Y-96215999D01*
%TO.C,LED15*%
X118901159Y-99808102D02*
X120386083Y-101293026D01*
X120386083Y-101293026D02*
X122295272Y-99383838D01*
X120810347Y-97898913D02*
X118901159Y-99808102D01*
%TO.C,LED16*%
X118901159Y-103400204D02*
X120386083Y-104885128D01*
X120386083Y-104885128D02*
X122295272Y-102975940D01*
X120810347Y-101491015D02*
X118901159Y-103400204D01*
%TO.C,LED17*%
X122527630Y-49518667D02*
X124012554Y-51003591D01*
X124012554Y-51003591D02*
X125921743Y-49094403D01*
X124436818Y-47609478D02*
X122527630Y-49518667D01*
%TO.C,LED18*%
X122527630Y-53110769D02*
X124012554Y-54595693D01*
X124012554Y-54595693D02*
X125921743Y-52686505D01*
X124436818Y-51201580D02*
X122527630Y-53110769D01*
%TO.C,LED19*%
X122527630Y-56702872D02*
X124012554Y-58187796D01*
X124012554Y-58187796D02*
X125921743Y-56278608D01*
X124436818Y-54793683D02*
X122527630Y-56702872D01*
%TO.C,LED20*%
X122527630Y-60294974D02*
X124012554Y-61779898D01*
X124012554Y-61779898D02*
X125921743Y-59870710D01*
X124436818Y-58385785D02*
X122527630Y-60294974D01*
%TO.C,LED21*%
X122527630Y-63887076D02*
X124012554Y-65372000D01*
X124012554Y-65372000D02*
X125921743Y-63462812D01*
X124436818Y-61977887D02*
X122527630Y-63887076D01*
%TO.C,LED22*%
X122527630Y-67479179D02*
X124012554Y-68964103D01*
X124012554Y-68964103D02*
X125921743Y-67054915D01*
X124436818Y-65569990D02*
X122527630Y-67479179D01*
%TO.C,LED23*%
X122527630Y-71071281D02*
X124012554Y-72556205D01*
X124012554Y-72556205D02*
X125921743Y-70647017D01*
X124436818Y-69162092D02*
X122527630Y-71071281D01*
%TO.C,LED24*%
X122527630Y-74663384D02*
X124012554Y-76148308D01*
X124012554Y-76148308D02*
X125921743Y-74239120D01*
X124436818Y-72754195D02*
X122527630Y-74663384D01*
%TO.C,LED25*%
X122527630Y-78255486D02*
X124012554Y-79740410D01*
X124012554Y-79740410D02*
X125921743Y-77831222D01*
X124436818Y-76346297D02*
X122527630Y-78255486D01*
%TO.C,LED26*%
X122527630Y-81847589D02*
X124012554Y-83332513D01*
X124012554Y-83332513D02*
X125921743Y-81423325D01*
X124436818Y-79938400D02*
X122527630Y-81847589D01*
%TO.C,LED27*%
X122527630Y-85439691D02*
X124012554Y-86924615D01*
X124012554Y-86924615D02*
X125921743Y-85015427D01*
X124436818Y-83530502D02*
X122527630Y-85439691D01*
%TO.C,LED28*%
X122527630Y-89031794D02*
X124012554Y-90516718D01*
X124012554Y-90516718D02*
X125921743Y-88607530D01*
X124436818Y-87122605D02*
X122527630Y-89031794D01*
%TO.C,LED29*%
X122527630Y-92623896D02*
X124012554Y-94108820D01*
X124012554Y-94108820D02*
X125921743Y-92199632D01*
X124436818Y-90714707D02*
X122527630Y-92623896D01*
%TO.C,LED30*%
X122527630Y-96215999D02*
X124012554Y-97700923D01*
X124012554Y-97700923D02*
X125921743Y-95791735D01*
X124436818Y-94306810D02*
X122527630Y-96215999D01*
%TO.C,LED31*%
X122527630Y-99808101D02*
X124012554Y-101293025D01*
X124012554Y-101293025D02*
X125921743Y-99383837D01*
X124436818Y-97898912D02*
X122527630Y-99808101D01*
%TO.C,LED32*%
X122527630Y-103400203D02*
X124012554Y-104885127D01*
X124012554Y-104885127D02*
X125921743Y-102975939D01*
X124436818Y-101491014D02*
X122527630Y-103400203D01*
%TO.C,LED33*%
X126154101Y-49518667D02*
X127639025Y-51003591D01*
X127639025Y-51003591D02*
X129548214Y-49094403D01*
X128063289Y-47609478D02*
X126154101Y-49518667D01*
%TO.C,LED34*%
X126154101Y-53110770D02*
X127639025Y-54595694D01*
X127639025Y-54595694D02*
X129548214Y-52686506D01*
X128063289Y-51201581D02*
X126154101Y-53110770D01*
%TO.C,LED35*%
X126154101Y-56702872D02*
X127639025Y-58187796D01*
X127639025Y-58187796D02*
X129548214Y-56278608D01*
X128063289Y-54793683D02*
X126154101Y-56702872D01*
%TO.C,LED36*%
X126154101Y-60294975D02*
X127639025Y-61779899D01*
X127639025Y-61779899D02*
X129548214Y-59870711D01*
X128063289Y-58385786D02*
X126154101Y-60294975D01*
%TO.C,LED37*%
X126154101Y-63887077D02*
X127639025Y-65372001D01*
X127639025Y-65372001D02*
X129548214Y-63462813D01*
X128063289Y-61977888D02*
X126154101Y-63887077D01*
%TO.C,LED38*%
X126154101Y-67479180D02*
X127639025Y-68964104D01*
X127639025Y-68964104D02*
X129548214Y-67054916D01*
X128063289Y-65569991D02*
X126154101Y-67479180D01*
%TO.C,LED39*%
X126154101Y-71071282D02*
X127639025Y-72556206D01*
X127639025Y-72556206D02*
X129548214Y-70647018D01*
X128063289Y-69162093D02*
X126154101Y-71071282D01*
%TO.C,LED40*%
X126154101Y-74663384D02*
X127639025Y-76148308D01*
X127639025Y-76148308D02*
X129548214Y-74239120D01*
X128063289Y-72754195D02*
X126154101Y-74663384D01*
%TO.C,LED41*%
X126154101Y-78255487D02*
X127639025Y-79740411D01*
X127639025Y-79740411D02*
X129548214Y-77831223D01*
X128063289Y-76346298D02*
X126154101Y-78255487D01*
%TO.C,LED42*%
X126154101Y-81847589D02*
X127639025Y-83332513D01*
X127639025Y-83332513D02*
X129548214Y-81423325D01*
X128063289Y-79938400D02*
X126154101Y-81847589D01*
%TO.C,LED43*%
X126154101Y-85439692D02*
X127639025Y-86924616D01*
X127639025Y-86924616D02*
X129548214Y-85015428D01*
X128063289Y-83530503D02*
X126154101Y-85439692D01*
%TO.C,LED44*%
X126154101Y-89031794D02*
X127639025Y-90516718D01*
X127639025Y-90516718D02*
X129548214Y-88607530D01*
X128063289Y-87122605D02*
X126154101Y-89031794D01*
%TO.C,LED45*%
X126154101Y-92623897D02*
X127639025Y-94108821D01*
X127639025Y-94108821D02*
X129548214Y-92199633D01*
X128063289Y-90714708D02*
X126154101Y-92623897D01*
%TO.C,LED46*%
X126154101Y-96215999D02*
X127639025Y-97700923D01*
X127639025Y-97700923D02*
X129548214Y-95791735D01*
X128063289Y-94306810D02*
X126154101Y-96215999D01*
%TO.C,LED47*%
X126154101Y-99808102D02*
X127639025Y-101293026D01*
X127639025Y-101293026D02*
X129548214Y-99383838D01*
X128063289Y-97898913D02*
X126154101Y-99808102D01*
%TO.C,LED48*%
X126154101Y-103400204D02*
X127639025Y-104885128D01*
X127639025Y-104885128D02*
X129548214Y-102975940D01*
X128063289Y-101491015D02*
X126154101Y-103400204D01*
%TO.C,LED49*%
X129780572Y-49518667D02*
X131265496Y-51003591D01*
X131265496Y-51003591D02*
X133174685Y-49094403D01*
X131689760Y-47609478D02*
X129780572Y-49518667D01*
%TO.C,LED50*%
X129780572Y-53110770D02*
X131265496Y-54595694D01*
X131265496Y-54595694D02*
X133174685Y-52686506D01*
X131689760Y-51201581D02*
X129780572Y-53110770D01*
%TO.C,LED51*%
X129780572Y-56702872D02*
X131265496Y-58187796D01*
X131265496Y-58187796D02*
X133174685Y-56278608D01*
X131689760Y-54793683D02*
X129780572Y-56702872D01*
%TO.C,LED52*%
X129780572Y-60294975D02*
X131265496Y-61779899D01*
X131265496Y-61779899D02*
X133174685Y-59870711D01*
X131689760Y-58385786D02*
X129780572Y-60294975D01*
%TO.C,LED53*%
X129780572Y-63887077D02*
X131265496Y-65372001D01*
X131265496Y-65372001D02*
X133174685Y-63462813D01*
X131689760Y-61977888D02*
X129780572Y-63887077D01*
%TO.C,LED54*%
X129780572Y-67479180D02*
X131265496Y-68964104D01*
X131265496Y-68964104D02*
X133174685Y-67054916D01*
X131689760Y-65569991D02*
X129780572Y-67479180D01*
%TO.C,LED55*%
X129780572Y-71071282D02*
X131265496Y-72556206D01*
X131265496Y-72556206D02*
X133174685Y-70647018D01*
X131689760Y-69162093D02*
X129780572Y-71071282D01*
%TO.C,LED56*%
X129780572Y-74663384D02*
X131265496Y-76148308D01*
X131265496Y-76148308D02*
X133174685Y-74239120D01*
X131689760Y-72754195D02*
X129780572Y-74663384D01*
%TO.C,LED57*%
X129780572Y-78255487D02*
X131265496Y-79740411D01*
X131265496Y-79740411D02*
X133174685Y-77831223D01*
X131689760Y-76346298D02*
X129780572Y-78255487D01*
%TO.C,LED58*%
X129780572Y-81847589D02*
X131265496Y-83332513D01*
X131265496Y-83332513D02*
X133174685Y-81423325D01*
X131689760Y-79938400D02*
X129780572Y-81847589D01*
%TO.C,LED59*%
X129780572Y-85439692D02*
X131265496Y-86924616D01*
X131265496Y-86924616D02*
X133174685Y-85015428D01*
X131689760Y-83530503D02*
X129780572Y-85439692D01*
%TO.C,LED60*%
X129780572Y-89031794D02*
X131265496Y-90516718D01*
X131265496Y-90516718D02*
X133174685Y-88607530D01*
X131689760Y-87122605D02*
X129780572Y-89031794D01*
%TO.C,LED61*%
X129780572Y-92623897D02*
X131265496Y-94108821D01*
X131265496Y-94108821D02*
X133174685Y-92199633D01*
X131689760Y-90714708D02*
X129780572Y-92623897D01*
%TO.C,LED62*%
X129780572Y-96215999D02*
X131265496Y-97700923D01*
X131265496Y-97700923D02*
X133174685Y-95791735D01*
X131689760Y-94306810D02*
X129780572Y-96215999D01*
%TO.C,LED63*%
X129780572Y-99808102D02*
X131265496Y-101293026D01*
X131265496Y-101293026D02*
X133174685Y-99383838D01*
X131689760Y-97898913D02*
X129780572Y-99808102D01*
%TO.C,LED64*%
X129780572Y-103400204D02*
X131265496Y-104885128D01*
X131265496Y-104885128D02*
X133174685Y-102975940D01*
X131689760Y-101491015D02*
X129780572Y-103400204D01*
%TO.C,LED65*%
X133407043Y-49518667D02*
X134891967Y-51003591D01*
X134891967Y-51003591D02*
X136801156Y-49094403D01*
X135316231Y-47609478D02*
X133407043Y-49518667D01*
%TO.C,LED66*%
X133407043Y-53110770D02*
X134891967Y-54595694D01*
X134891967Y-54595694D02*
X136801156Y-52686506D01*
X135316231Y-51201581D02*
X133407043Y-53110770D01*
%TO.C,LED67*%
X133407043Y-56702872D02*
X134891967Y-58187796D01*
X134891967Y-58187796D02*
X136801156Y-56278608D01*
X135316231Y-54793683D02*
X133407043Y-56702872D01*
%TO.C,LED68*%
X133407043Y-60294975D02*
X134891967Y-61779899D01*
X134891967Y-61779899D02*
X136801156Y-59870711D01*
X135316231Y-58385786D02*
X133407043Y-60294975D01*
%TO.C,LED69*%
X133407043Y-63887077D02*
X134891967Y-65372001D01*
X134891967Y-65372001D02*
X136801156Y-63462813D01*
X135316231Y-61977888D02*
X133407043Y-63887077D01*
%TO.C,LED70*%
X133407043Y-67479180D02*
X134891967Y-68964104D01*
X134891967Y-68964104D02*
X136801156Y-67054916D01*
X135316231Y-65569991D02*
X133407043Y-67479180D01*
%TO.C,LED71*%
X133407043Y-71071282D02*
X134891967Y-72556206D01*
X134891967Y-72556206D02*
X136801156Y-70647018D01*
X135316231Y-69162093D02*
X133407043Y-71071282D01*
%TO.C,LED72*%
X133407043Y-74663384D02*
X134891967Y-76148308D01*
X134891967Y-76148308D02*
X136801156Y-74239120D01*
X135316231Y-72754195D02*
X133407043Y-74663384D01*
%TO.C,LED73*%
X133407043Y-78255487D02*
X134891967Y-79740411D01*
X134891967Y-79740411D02*
X136801156Y-77831223D01*
X135316231Y-76346298D02*
X133407043Y-78255487D01*
%TO.C,LED74*%
X133407043Y-81847589D02*
X134891967Y-83332513D01*
X134891967Y-83332513D02*
X136801156Y-81423325D01*
X135316231Y-79938400D02*
X133407043Y-81847589D01*
%TO.C,LED75*%
X133407043Y-85439692D02*
X134891967Y-86924616D01*
X134891967Y-86924616D02*
X136801156Y-85015428D01*
X135316231Y-83530503D02*
X133407043Y-85439692D01*
%TO.C,LED76*%
X133407043Y-89031794D02*
X134891967Y-90516718D01*
X134891967Y-90516718D02*
X136801156Y-88607530D01*
X135316231Y-87122605D02*
X133407043Y-89031794D01*
%TO.C,LED77*%
X133407043Y-92623897D02*
X134891967Y-94108821D01*
X134891967Y-94108821D02*
X136801156Y-92199633D01*
X135316231Y-90714708D02*
X133407043Y-92623897D01*
%TO.C,LED78*%
X133407043Y-96215999D02*
X134891967Y-97700923D01*
X134891967Y-97700923D02*
X136801156Y-95791735D01*
X135316231Y-94306810D02*
X133407043Y-96215999D01*
%TO.C,LED79*%
X133407043Y-99808102D02*
X134891967Y-101293026D01*
X134891967Y-101293026D02*
X136801156Y-99383838D01*
X135316231Y-97898913D02*
X133407043Y-99808102D01*
%TO.C,LED80*%
X133407043Y-103400204D02*
X134891967Y-104885128D01*
X134891967Y-104885128D02*
X136801156Y-102975940D01*
X135316231Y-101491015D02*
X133407043Y-103400204D01*
%TO.C,LED81*%
X137033514Y-49518667D02*
X138518438Y-51003591D01*
X138518438Y-51003591D02*
X140427627Y-49094403D01*
X138942702Y-47609478D02*
X137033514Y-49518667D01*
%TO.C,LED82*%
X137033514Y-53110770D02*
X138518438Y-54595694D01*
X138518438Y-54595694D02*
X140427627Y-52686506D01*
X138942702Y-51201581D02*
X137033514Y-53110770D01*
%TO.C,LED83*%
X137033514Y-56702872D02*
X138518438Y-58187796D01*
X138518438Y-58187796D02*
X140427627Y-56278608D01*
X138942702Y-54793683D02*
X137033514Y-56702872D01*
%TO.C,LED84*%
X137033514Y-60294975D02*
X138518438Y-61779899D01*
X138518438Y-61779899D02*
X140427627Y-59870711D01*
X138942702Y-58385786D02*
X137033514Y-60294975D01*
%TO.C,LED85*%
X137033514Y-63887077D02*
X138518438Y-65372001D01*
X138518438Y-65372001D02*
X140427627Y-63462813D01*
X138942702Y-61977888D02*
X137033514Y-63887077D01*
%TO.C,LED86*%
X137033514Y-67479180D02*
X138518438Y-68964104D01*
X138518438Y-68964104D02*
X140427627Y-67054916D01*
X138942702Y-65569991D02*
X137033514Y-67479180D01*
%TO.C,LED87*%
X137033514Y-71071282D02*
X138518438Y-72556206D01*
X138518438Y-72556206D02*
X140427627Y-70647018D01*
X138942702Y-69162093D02*
X137033514Y-71071282D01*
%TO.C,LED88*%
X137033514Y-74663384D02*
X138518438Y-76148308D01*
X138518438Y-76148308D02*
X140427627Y-74239120D01*
X138942702Y-72754195D02*
X137033514Y-74663384D01*
%TO.C,LED89*%
X137033514Y-78255487D02*
X138518438Y-79740411D01*
X138518438Y-79740411D02*
X140427627Y-77831223D01*
X138942702Y-76346298D02*
X137033514Y-78255487D01*
%TO.C,LED90*%
X137033514Y-81847589D02*
X138518438Y-83332513D01*
X138518438Y-83332513D02*
X140427627Y-81423325D01*
X138942702Y-79938400D02*
X137033514Y-81847589D01*
%TO.C,LED91*%
X137033514Y-85439692D02*
X138518438Y-86924616D01*
X138518438Y-86924616D02*
X140427627Y-85015428D01*
X138942702Y-83530503D02*
X137033514Y-85439692D01*
%TO.C,LED92*%
X137033514Y-89031794D02*
X138518438Y-90516718D01*
X138518438Y-90516718D02*
X140427627Y-88607530D01*
X138942702Y-87122605D02*
X137033514Y-89031794D01*
%TO.C,LED93*%
X137033514Y-92623897D02*
X138518438Y-94108821D01*
X138518438Y-94108821D02*
X140427627Y-92199633D01*
X138942702Y-90714708D02*
X137033514Y-92623897D01*
%TO.C,LED94*%
X137033514Y-96215999D02*
X138518438Y-97700923D01*
X138518438Y-97700923D02*
X140427627Y-95791735D01*
X138942702Y-94306810D02*
X137033514Y-96215999D01*
%TO.C,LED95*%
X137033514Y-99808102D02*
X138518438Y-101293026D01*
X138518438Y-101293026D02*
X140427627Y-99383838D01*
X138942702Y-97898913D02*
X137033514Y-99808102D01*
%TO.C,LED96*%
X137033514Y-103400204D02*
X138518438Y-104885128D01*
X138518438Y-104885128D02*
X140427627Y-102975940D01*
X138942702Y-101491015D02*
X137033514Y-103400204D01*
%TO.C,LED97*%
X140659985Y-49518667D02*
X142144909Y-51003591D01*
X142144909Y-51003591D02*
X144054098Y-49094403D01*
X142569173Y-47609478D02*
X140659985Y-49518667D01*
%TO.C,LED98*%
X140659985Y-53110770D02*
X142144909Y-54595694D01*
X142144909Y-54595694D02*
X144054098Y-52686506D01*
X142569173Y-51201581D02*
X140659985Y-53110770D01*
%TO.C,LED99*%
X140659985Y-56702872D02*
X142144909Y-58187796D01*
X142144909Y-58187796D02*
X144054098Y-56278608D01*
X142569173Y-54793683D02*
X140659985Y-56702872D01*
%TO.C,LED100*%
X140659985Y-60294975D02*
X142144909Y-61779899D01*
X142144909Y-61779899D02*
X144054098Y-59870711D01*
X142569173Y-58385786D02*
X140659985Y-60294975D01*
%TO.C,LED101*%
X140659985Y-63887077D02*
X142144909Y-65372001D01*
X142144909Y-65372001D02*
X144054098Y-63462813D01*
X142569173Y-61977888D02*
X140659985Y-63887077D01*
%TO.C,LED102*%
X140659985Y-67479180D02*
X142144909Y-68964104D01*
X142144909Y-68964104D02*
X144054098Y-67054916D01*
X142569173Y-65569991D02*
X140659985Y-67479180D01*
%TO.C,LED103*%
X140659985Y-71071282D02*
X142144909Y-72556206D01*
X142144909Y-72556206D02*
X144054098Y-70647018D01*
X142569173Y-69162093D02*
X140659985Y-71071282D01*
%TO.C,LED104*%
X140659985Y-74663384D02*
X142144909Y-76148308D01*
X142144909Y-76148308D02*
X144054098Y-74239120D01*
X142569173Y-72754195D02*
X140659985Y-74663384D01*
%TO.C,LED105*%
X140659985Y-78255487D02*
X142144909Y-79740411D01*
X142144909Y-79740411D02*
X144054098Y-77831223D01*
X142569173Y-76346298D02*
X140659985Y-78255487D01*
%TO.C,LED106*%
X140659985Y-81847589D02*
X142144909Y-83332513D01*
X142144909Y-83332513D02*
X144054098Y-81423325D01*
X142569173Y-79938400D02*
X140659985Y-81847589D01*
%TO.C,LED107*%
X140659985Y-85439692D02*
X142144909Y-86924616D01*
X142144909Y-86924616D02*
X144054098Y-85015428D01*
X142569173Y-83530503D02*
X140659985Y-85439692D01*
%TO.C,LED108*%
X140659985Y-89031794D02*
X142144909Y-90516718D01*
X142144909Y-90516718D02*
X144054098Y-88607530D01*
X142569173Y-87122605D02*
X140659985Y-89031794D01*
%TO.C,LED109*%
X140659985Y-92623897D02*
X142144909Y-94108821D01*
X142144909Y-94108821D02*
X144054098Y-92199633D01*
X142569173Y-90714708D02*
X140659985Y-92623897D01*
%TO.C,LED110*%
X140659985Y-96215999D02*
X142144909Y-97700923D01*
X142144909Y-97700923D02*
X144054098Y-95791735D01*
X142569173Y-94306810D02*
X140659985Y-96215999D01*
%TO.C,LED111*%
X140659985Y-99808102D02*
X142144909Y-101293026D01*
X142144909Y-101293026D02*
X144054098Y-99383838D01*
X142569173Y-97898913D02*
X140659985Y-99808102D01*
%TO.C,LED112*%
X140659985Y-103400204D02*
X142144909Y-104885128D01*
X142144909Y-104885128D02*
X144054098Y-102975940D01*
X142569173Y-101491015D02*
X140659985Y-103400204D01*
%TO.C,LED113*%
X144286456Y-49518667D02*
X145771380Y-51003591D01*
X145771380Y-51003591D02*
X147680569Y-49094403D01*
X146195644Y-47609478D02*
X144286456Y-49518667D01*
%TO.C,LED114*%
X144286456Y-53110770D02*
X145771380Y-54595694D01*
X145771380Y-54595694D02*
X147680569Y-52686506D01*
X146195644Y-51201581D02*
X144286456Y-53110770D01*
%TO.C,LED115*%
X144286456Y-56702872D02*
X145771380Y-58187796D01*
X145771380Y-58187796D02*
X147680569Y-56278608D01*
X146195644Y-54793683D02*
X144286456Y-56702872D01*
%TO.C,LED116*%
X144286456Y-60294975D02*
X145771380Y-61779899D01*
X145771380Y-61779899D02*
X147680569Y-59870711D01*
X146195644Y-58385786D02*
X144286456Y-60294975D01*
%TO.C,LED117*%
X144286456Y-63887077D02*
X145771380Y-65372001D01*
X145771380Y-65372001D02*
X147680569Y-63462813D01*
X146195644Y-61977888D02*
X144286456Y-63887077D01*
%TO.C,LED118*%
X144286456Y-67479180D02*
X145771380Y-68964104D01*
X145771380Y-68964104D02*
X147680569Y-67054916D01*
X146195644Y-65569991D02*
X144286456Y-67479180D01*
%TO.C,LED119*%
X144286456Y-71071282D02*
X145771380Y-72556206D01*
X145771380Y-72556206D02*
X147680569Y-70647018D01*
X146195644Y-69162093D02*
X144286456Y-71071282D01*
%TO.C,LED120*%
X144286456Y-74663384D02*
X145771380Y-76148308D01*
X145771380Y-76148308D02*
X147680569Y-74239120D01*
X146195644Y-72754195D02*
X144286456Y-74663384D01*
%TO.C,LED121*%
X144286456Y-78255487D02*
X145771380Y-79740411D01*
X145771380Y-79740411D02*
X147680569Y-77831223D01*
X146195644Y-76346298D02*
X144286456Y-78255487D01*
%TO.C,LED122*%
X144286456Y-81847589D02*
X145771380Y-83332513D01*
X145771380Y-83332513D02*
X147680569Y-81423325D01*
X146195644Y-79938400D02*
X144286456Y-81847589D01*
%TO.C,LED123*%
X144286456Y-85439692D02*
X145771380Y-86924616D01*
X145771380Y-86924616D02*
X147680569Y-85015428D01*
X146195644Y-83530503D02*
X144286456Y-85439692D01*
%TO.C,LED124*%
X144286456Y-89031794D02*
X145771380Y-90516718D01*
X145771380Y-90516718D02*
X147680569Y-88607530D01*
X146195644Y-87122605D02*
X144286456Y-89031794D01*
%TO.C,LED125*%
X144286456Y-92623897D02*
X145771380Y-94108821D01*
X145771380Y-94108821D02*
X147680569Y-92199633D01*
X146195644Y-90714708D02*
X144286456Y-92623897D01*
%TO.C,LED126*%
X144286456Y-96215999D02*
X145771380Y-97700923D01*
X145771380Y-97700923D02*
X147680569Y-95791735D01*
X146195644Y-94306810D02*
X144286456Y-96215999D01*
%TO.C,LED127*%
X144286456Y-99808102D02*
X145771380Y-101293026D01*
X145771380Y-101293026D02*
X147680569Y-99383838D01*
X146195644Y-97898913D02*
X144286456Y-99808102D01*
%TO.C,LED128*%
X144286456Y-103400204D02*
X145771380Y-104885128D01*
X145771380Y-104885128D02*
X147680569Y-102975940D01*
X146195644Y-101491015D02*
X144286456Y-103400204D01*
%TO.C,LED129*%
X147912927Y-49518667D02*
X149397851Y-51003591D01*
X149397851Y-51003591D02*
X151307040Y-49094403D01*
X149822115Y-47609478D02*
X147912927Y-49518667D01*
%TO.C,LED130*%
X147912927Y-53110770D02*
X149397851Y-54595694D01*
X149397851Y-54595694D02*
X151307040Y-52686506D01*
X149822115Y-51201581D02*
X147912927Y-53110770D01*
%TO.C,LED131*%
X147912927Y-56702872D02*
X149397851Y-58187796D01*
X149397851Y-58187796D02*
X151307040Y-56278608D01*
X149822115Y-54793683D02*
X147912927Y-56702872D01*
%TO.C,LED132*%
X147912927Y-60294975D02*
X149397851Y-61779899D01*
X149397851Y-61779899D02*
X151307040Y-59870711D01*
X149822115Y-58385786D02*
X147912927Y-60294975D01*
%TO.C,LED133*%
X147912927Y-63887077D02*
X149397851Y-65372001D01*
X149397851Y-65372001D02*
X151307040Y-63462813D01*
X149822115Y-61977888D02*
X147912927Y-63887077D01*
%TO.C,LED134*%
X147912927Y-67479180D02*
X149397851Y-68964104D01*
X149397851Y-68964104D02*
X151307040Y-67054916D01*
X149822115Y-65569991D02*
X147912927Y-67479180D01*
%TO.C,LED135*%
X147912927Y-71071282D02*
X149397851Y-72556206D01*
X149397851Y-72556206D02*
X151307040Y-70647018D01*
X149822115Y-69162093D02*
X147912927Y-71071282D01*
%TO.C,LED136*%
X147912927Y-74663384D02*
X149397851Y-76148308D01*
X149397851Y-76148308D02*
X151307040Y-74239120D01*
X149822115Y-72754195D02*
X147912927Y-74663384D01*
%TO.C,LED137*%
X147912927Y-78255487D02*
X149397851Y-79740411D01*
X149397851Y-79740411D02*
X151307040Y-77831223D01*
X149822115Y-76346298D02*
X147912927Y-78255487D01*
%TO.C,LED138*%
X147912927Y-81847589D02*
X149397851Y-83332513D01*
X149397851Y-83332513D02*
X151307040Y-81423325D01*
X149822115Y-79938400D02*
X147912927Y-81847589D01*
%TO.C,LED139*%
X147912927Y-85439692D02*
X149397851Y-86924616D01*
X149397851Y-86924616D02*
X151307040Y-85015428D01*
X149822115Y-83530503D02*
X147912927Y-85439692D01*
%TO.C,LED140*%
X147912927Y-89031794D02*
X149397851Y-90516718D01*
X149397851Y-90516718D02*
X151307040Y-88607530D01*
X149822115Y-87122605D02*
X147912927Y-89031794D01*
%TO.C,LED141*%
X147912927Y-92623897D02*
X149397851Y-94108821D01*
X149397851Y-94108821D02*
X151307040Y-92199633D01*
X149822115Y-90714708D02*
X147912927Y-92623897D01*
%TO.C,LED142*%
X147912927Y-96215999D02*
X149397851Y-97700923D01*
X149397851Y-97700923D02*
X151307040Y-95791735D01*
X149822115Y-94306810D02*
X147912927Y-96215999D01*
%TO.C,LED143*%
X147912927Y-99808102D02*
X149397851Y-101293026D01*
X149397851Y-101293026D02*
X151307040Y-99383838D01*
X149822115Y-97898913D02*
X147912927Y-99808102D01*
%TO.C,LED144*%
X147912927Y-103400204D02*
X149397851Y-104885128D01*
X149397851Y-104885128D02*
X151307040Y-102975940D01*
X149822115Y-101491015D02*
X147912927Y-103400204D01*
%TO.C,LED145*%
X151539398Y-49518667D02*
X153024322Y-51003591D01*
X153024322Y-51003591D02*
X154933511Y-49094403D01*
X153448586Y-47609478D02*
X151539398Y-49518667D01*
%TO.C,LED146*%
X151539398Y-53110770D02*
X153024322Y-54595694D01*
X153024322Y-54595694D02*
X154933511Y-52686506D01*
X153448586Y-51201581D02*
X151539398Y-53110770D01*
%TO.C,LED147*%
X151539398Y-56702872D02*
X153024322Y-58187796D01*
X153024322Y-58187796D02*
X154933511Y-56278608D01*
X153448586Y-54793683D02*
X151539398Y-56702872D01*
%TO.C,LED148*%
X151539398Y-60294975D02*
X153024322Y-61779899D01*
X153024322Y-61779899D02*
X154933511Y-59870711D01*
X153448586Y-58385786D02*
X151539398Y-60294975D01*
%TO.C,LED149*%
X151539398Y-63887077D02*
X153024322Y-65372001D01*
X153024322Y-65372001D02*
X154933511Y-63462813D01*
X153448586Y-61977888D02*
X151539398Y-63887077D01*
%TO.C,LED150*%
X151539398Y-67479180D02*
X153024322Y-68964104D01*
X153024322Y-68964104D02*
X154933511Y-67054916D01*
X153448586Y-65569991D02*
X151539398Y-67479180D01*
%TO.C,LED151*%
X151539398Y-71071282D02*
X153024322Y-72556206D01*
X153024322Y-72556206D02*
X154933511Y-70647018D01*
X153448586Y-69162093D02*
X151539398Y-71071282D01*
%TO.C,LED152*%
X151539398Y-74663384D02*
X153024322Y-76148308D01*
X153024322Y-76148308D02*
X154933511Y-74239120D01*
X153448586Y-72754195D02*
X151539398Y-74663384D01*
%TO.C,LED153*%
X151539398Y-78255487D02*
X153024322Y-79740411D01*
X153024322Y-79740411D02*
X154933511Y-77831223D01*
X153448586Y-76346298D02*
X151539398Y-78255487D01*
%TO.C,LED154*%
X151539398Y-81847589D02*
X153024322Y-83332513D01*
X153024322Y-83332513D02*
X154933511Y-81423325D01*
X153448586Y-79938400D02*
X151539398Y-81847589D01*
%TO.C,LED155*%
X151539398Y-85439692D02*
X153024322Y-86924616D01*
X153024322Y-86924616D02*
X154933511Y-85015428D01*
X153448586Y-83530503D02*
X151539398Y-85439692D01*
%TO.C,LED156*%
X151539398Y-89031794D02*
X153024322Y-90516718D01*
X153024322Y-90516718D02*
X154933511Y-88607530D01*
X153448586Y-87122605D02*
X151539398Y-89031794D01*
%TO.C,LED157*%
X151539398Y-92623897D02*
X153024322Y-94108821D01*
X153024322Y-94108821D02*
X154933511Y-92199633D01*
X153448586Y-90714708D02*
X151539398Y-92623897D01*
%TO.C,LED158*%
X151539398Y-96215999D02*
X153024322Y-97700923D01*
X153024322Y-97700923D02*
X154933511Y-95791735D01*
X153448586Y-94306810D02*
X151539398Y-96215999D01*
%TO.C,LED159*%
X151539398Y-99808102D02*
X153024322Y-101293026D01*
X153024322Y-101293026D02*
X154933511Y-99383838D01*
X153448586Y-97898913D02*
X151539398Y-99808102D01*
%TO.C,LED160*%
X151539398Y-103400204D02*
X153024322Y-104885128D01*
X153024322Y-104885128D02*
X154933511Y-102975940D01*
X153448586Y-101491015D02*
X151539398Y-103400204D01*
%TO.C,LED_Green_bms1*%
X115042500Y-128950000D02*
X117142500Y-128950000D01*
X117142500Y-128950000D02*
X117142500Y-126250000D01*
X115042500Y-126250000D02*
X115042500Y-128950000D01*
%TO.C,LED_RED_bms1*%
X117550000Y-128950000D02*
X119650000Y-128950000D01*
X119650000Y-128950000D02*
X119650000Y-126250000D01*
X117550000Y-126250000D02*
X117550000Y-128950000D01*
%TO.C,R_10K_12*%
X156200000Y-117375000D02*
X156200000Y-118425000D01*
%TO.C,R_10K_13*%
X148300000Y-115475000D02*
X148300000Y-116525000D01*
%TO.C,R_5.1_1*%
X137300000Y-125975000D02*
X137300000Y-127025000D01*
%TO.C,R_5.1k_1*%
X137300000Y-128075000D02*
X137300000Y-129125000D01*
%TO.C,R_10K_11*%
X149450000Y-123875000D02*
X149450000Y-124925000D01*
%TO.C,J1*%
X159130000Y-104621000D02*
G75*
G03*
X159130000Y-104621000I-63000J0D01*
G01*
D13*
%TO.C,S_b1*%
X152900065Y-110421365D02*
X159100065Y-110421365D01*
X152900065Y-112138695D02*
X152900065Y-114928365D01*
X152900065Y-116621365D02*
X159100065Y-116621365D01*
X159100065Y-112124365D02*
X159100065Y-114885695D01*
X150761195Y-110312035D02*
G75*
G03*
X150761195Y-110312035I-76130J0D01*
G01*
D14*
%TO.C,R4*%
X135200000Y-108225000D02*
X135200000Y-107175000D01*
D13*
%TO.C,S_left1*%
X115500000Y-113650000D02*
X121700000Y-113650000D01*
X115500000Y-115367330D02*
X115500000Y-118157000D01*
X115500000Y-119850000D02*
X121700000Y-119850000D01*
X121700000Y-115353000D02*
X121700000Y-118114330D01*
X113361130Y-113540670D02*
G75*
G03*
X113361130Y-113540670I-76130J0D01*
G01*
D14*
%TO.C,R1*%
X115700000Y-113050000D02*
X115700000Y-112000000D01*
D13*
%TO.C,S_right1*%
X131450000Y-113650000D02*
X137650000Y-113650000D01*
X131450000Y-115367330D02*
X131450000Y-118157000D01*
X131450000Y-119850000D02*
X137650000Y-119850000D01*
X137650000Y-115353000D02*
X137650000Y-118114330D01*
X129311130Y-113540670D02*
G75*
G03*
X129311130Y-113540670I-76130J0D01*
G01*
%TO.C,S_down1*%
X123500000Y-120442730D02*
X129700000Y-120442730D01*
X123500000Y-122160060D02*
X123500000Y-124949730D01*
X123500000Y-126642730D02*
X129700000Y-126642730D01*
X129700000Y-122145730D02*
X129700000Y-124907060D01*
X121361130Y-120333400D02*
G75*
G03*
X121361130Y-120333400I-76130J0D01*
G01*
D15*
%TO.C,IC1*%
X115950000Y-108500000D02*
X115950000Y-108500000D01*
X115850000Y-108500000D02*
X115850000Y-108500000D01*
X115850000Y-108500000D02*
G75*
G03*
X115950000Y-108500000I50000J0D01*
G01*
X115950000Y-108500000D02*
G75*
G03*
X115850000Y-108500000I-50000J0D01*
G01*
D14*
%TO.C,R2*%
X119700000Y-112000000D02*
X119700000Y-113050000D01*
%TO.C,R_10K_10*%
X157600000Y-108775000D02*
X157600000Y-109825000D01*
D13*
%TO.C,S_up1*%
X123500000Y-107100000D02*
X129700000Y-107100000D01*
X123500000Y-108817330D02*
X123500000Y-111607000D01*
X123500000Y-113300000D02*
X129700000Y-113300000D01*
X129700000Y-108803000D02*
X129700000Y-111564330D01*
X121361130Y-106990670D02*
G75*
G03*
X121361130Y-106990670I-76130J0D01*
G01*
%TO.C,S_a1*%
X145000065Y-117121365D02*
X151200065Y-117121365D01*
X145000065Y-118838695D02*
X145000065Y-121628365D01*
X145000065Y-123321365D02*
X151200065Y-123321365D01*
X151200065Y-118824365D02*
X151200065Y-121585695D01*
X142861195Y-117012035D02*
G75*
G03*
X142861195Y-117012035I-76130J0D01*
G01*
%TD*%
%LPC*%
D16*
%TO.C,LED1*%
X120209307Y-49695443D03*
X121552809Y-48351941D03*
%TD*%
%TO.C,LED2*%
X120209307Y-53287546D03*
X121552809Y-51944044D03*
%TD*%
%TO.C,LED3*%
X120209307Y-56879648D03*
X121552809Y-55536146D03*
%TD*%
%TO.C,LED4*%
X120209307Y-60471751D03*
X121552809Y-59128249D03*
%TD*%
%TO.C,LED5*%
X120209307Y-64063853D03*
X121552809Y-62720351D03*
%TD*%
%TO.C,LED6*%
X120209307Y-67655956D03*
X121552809Y-66312454D03*
%TD*%
%TO.C,LED7*%
X120209307Y-71248058D03*
X121552809Y-69904556D03*
%TD*%
%TO.C,LED8*%
X120209307Y-74840160D03*
X121552809Y-73496658D03*
%TD*%
%TO.C,LED9*%
X120209307Y-78432263D03*
X121552809Y-77088761D03*
%TD*%
%TO.C,LED10*%
X120209307Y-82024365D03*
X121552809Y-80680863D03*
%TD*%
%TO.C,LED11*%
X120209307Y-85616468D03*
X121552809Y-84272966D03*
%TD*%
%TO.C,LED12*%
X120209307Y-89208570D03*
X121552809Y-87865068D03*
%TD*%
%TO.C,LED13*%
X120209307Y-92800673D03*
X121552809Y-91457171D03*
%TD*%
%TO.C,LED14*%
X120209307Y-96392775D03*
X121552809Y-95049273D03*
%TD*%
%TO.C,LED15*%
X120209307Y-99984878D03*
X121552809Y-98641376D03*
%TD*%
%TO.C,LED16*%
X120209307Y-103576980D03*
X121552809Y-102233478D03*
%TD*%
%TO.C,LED17*%
X123835778Y-49695443D03*
X125179280Y-48351941D03*
%TD*%
%TO.C,LED18*%
X123835778Y-53287545D03*
X125179280Y-51944043D03*
%TD*%
%TO.C,LED19*%
X123835778Y-56879648D03*
X125179280Y-55536146D03*
%TD*%
%TO.C,LED20*%
X123835778Y-60471750D03*
X125179280Y-59128248D03*
%TD*%
%TO.C,LED21*%
X123835778Y-64063852D03*
X125179280Y-62720350D03*
%TD*%
%TO.C,LED22*%
X123835778Y-67655955D03*
X125179280Y-66312453D03*
%TD*%
%TO.C,LED23*%
X123835778Y-71248057D03*
X125179280Y-69904555D03*
%TD*%
%TO.C,LED24*%
X123835778Y-74840160D03*
X125179280Y-73496658D03*
%TD*%
%TO.C,LED25*%
X123835778Y-78432262D03*
X125179280Y-77088760D03*
%TD*%
%TO.C,LED26*%
X123835778Y-82024365D03*
X125179280Y-80680863D03*
%TD*%
%TO.C,LED27*%
X123835778Y-85616467D03*
X125179280Y-84272965D03*
%TD*%
%TO.C,LED28*%
X123835778Y-89208570D03*
X125179280Y-87865068D03*
%TD*%
%TO.C,LED29*%
X123835778Y-92800672D03*
X125179280Y-91457170D03*
%TD*%
%TO.C,LED30*%
X123835778Y-96392775D03*
X125179280Y-95049273D03*
%TD*%
%TO.C,LED31*%
X123835778Y-99984877D03*
X125179280Y-98641375D03*
%TD*%
%TO.C,LED32*%
X123835778Y-103576979D03*
X125179280Y-102233477D03*
%TD*%
%TO.C,LED33*%
X127462249Y-49695443D03*
X128805751Y-48351941D03*
%TD*%
%TO.C,LED34*%
X127462249Y-53287546D03*
X128805751Y-51944044D03*
%TD*%
%TO.C,LED35*%
X127462249Y-56879648D03*
X128805751Y-55536146D03*
%TD*%
%TO.C,LED36*%
X127462249Y-60471751D03*
X128805751Y-59128249D03*
%TD*%
%TO.C,LED37*%
X127462249Y-64063853D03*
X128805751Y-62720351D03*
%TD*%
%TO.C,LED38*%
X127462249Y-67655956D03*
X128805751Y-66312454D03*
%TD*%
%TO.C,LED39*%
X127462249Y-71248058D03*
X128805751Y-69904556D03*
%TD*%
%TO.C,LED40*%
X127462249Y-74840160D03*
X128805751Y-73496658D03*
%TD*%
%TO.C,LED41*%
X127462249Y-78432263D03*
X128805751Y-77088761D03*
%TD*%
%TO.C,LED42*%
X127462249Y-82024365D03*
X128805751Y-80680863D03*
%TD*%
%TO.C,LED43*%
X127462249Y-85616468D03*
X128805751Y-84272966D03*
%TD*%
%TO.C,LED44*%
X127462249Y-89208570D03*
X128805751Y-87865068D03*
%TD*%
%TO.C,LED45*%
X127462249Y-92800673D03*
X128805751Y-91457171D03*
%TD*%
%TO.C,LED46*%
X127462249Y-96392775D03*
X128805751Y-95049273D03*
%TD*%
%TO.C,LED47*%
X127462249Y-99984878D03*
X128805751Y-98641376D03*
%TD*%
%TO.C,LED48*%
X127462249Y-103576980D03*
X128805751Y-102233478D03*
%TD*%
%TO.C,LED49*%
X131088720Y-49695443D03*
X132432222Y-48351941D03*
%TD*%
%TO.C,LED50*%
X131088720Y-53287546D03*
X132432222Y-51944044D03*
%TD*%
%TO.C,LED51*%
X131088720Y-56879648D03*
X132432222Y-55536146D03*
%TD*%
%TO.C,LED52*%
X131088720Y-60471751D03*
X132432222Y-59128249D03*
%TD*%
%TO.C,LED53*%
X131088720Y-64063853D03*
X132432222Y-62720351D03*
%TD*%
%TO.C,LED54*%
X131088720Y-67655956D03*
X132432222Y-66312454D03*
%TD*%
%TO.C,LED55*%
X131088720Y-71248058D03*
X132432222Y-69904556D03*
%TD*%
%TO.C,LED56*%
X131088720Y-74840160D03*
X132432222Y-73496658D03*
%TD*%
%TO.C,LED57*%
X131088720Y-78432263D03*
X132432222Y-77088761D03*
%TD*%
%TO.C,LED58*%
X131088720Y-82024365D03*
X132432222Y-80680863D03*
%TD*%
%TO.C,LED59*%
X131088720Y-85616468D03*
X132432222Y-84272966D03*
%TD*%
%TO.C,LED60*%
X131088720Y-89208570D03*
X132432222Y-87865068D03*
%TD*%
%TO.C,LED61*%
X131088720Y-92800673D03*
X132432222Y-91457171D03*
%TD*%
%TO.C,LED62*%
X131088720Y-96392775D03*
X132432222Y-95049273D03*
%TD*%
%TO.C,LED63*%
X131088720Y-99984878D03*
X132432222Y-98641376D03*
%TD*%
%TO.C,LED64*%
X131088720Y-103576980D03*
X132432222Y-102233478D03*
%TD*%
%TO.C,LED65*%
X134715191Y-49695443D03*
X136058693Y-48351941D03*
%TD*%
%TO.C,LED66*%
X134715191Y-53287546D03*
X136058693Y-51944044D03*
%TD*%
%TO.C,LED67*%
X134715191Y-56879648D03*
X136058693Y-55536146D03*
%TD*%
%TO.C,LED68*%
X134715191Y-60471751D03*
X136058693Y-59128249D03*
%TD*%
%TO.C,LED69*%
X134715191Y-64063853D03*
X136058693Y-62720351D03*
%TD*%
%TO.C,LED70*%
X134715191Y-67655956D03*
X136058693Y-66312454D03*
%TD*%
%TO.C,LED71*%
X134715191Y-71248058D03*
X136058693Y-69904556D03*
%TD*%
%TO.C,LED72*%
X134715191Y-74840160D03*
X136058693Y-73496658D03*
%TD*%
%TO.C,LED73*%
X134715191Y-78432263D03*
X136058693Y-77088761D03*
%TD*%
%TO.C,LED74*%
X134715191Y-82024365D03*
X136058693Y-80680863D03*
%TD*%
%TO.C,LED75*%
X134715191Y-85616468D03*
X136058693Y-84272966D03*
%TD*%
%TO.C,LED76*%
X134715191Y-89208570D03*
X136058693Y-87865068D03*
%TD*%
%TO.C,LED77*%
X134715191Y-92800673D03*
X136058693Y-91457171D03*
%TD*%
%TO.C,LED78*%
X134715191Y-96392775D03*
X136058693Y-95049273D03*
%TD*%
%TO.C,LED79*%
X134715191Y-99984878D03*
X136058693Y-98641376D03*
%TD*%
%TO.C,LED80*%
X134715191Y-103576980D03*
X136058693Y-102233478D03*
%TD*%
%TO.C,LED81*%
X138341662Y-49695443D03*
X139685164Y-48351941D03*
%TD*%
%TO.C,LED82*%
X138341662Y-53287546D03*
X139685164Y-51944044D03*
%TD*%
%TO.C,LED83*%
X138341662Y-56879648D03*
X139685164Y-55536146D03*
%TD*%
%TO.C,LED84*%
X138341662Y-60471751D03*
X139685164Y-59128249D03*
%TD*%
%TO.C,LED85*%
X138341662Y-64063853D03*
X139685164Y-62720351D03*
%TD*%
%TO.C,LED86*%
X138341662Y-67655956D03*
X139685164Y-66312454D03*
%TD*%
%TO.C,LED87*%
X138341662Y-71248058D03*
X139685164Y-69904556D03*
%TD*%
%TO.C,LED88*%
X138341662Y-74840160D03*
X139685164Y-73496658D03*
%TD*%
%TO.C,LED89*%
X138341662Y-78432263D03*
X139685164Y-77088761D03*
%TD*%
%TO.C,LED90*%
X138341662Y-82024365D03*
X139685164Y-80680863D03*
%TD*%
%TO.C,LED91*%
X138341662Y-85616468D03*
X139685164Y-84272966D03*
%TD*%
%TO.C,LED92*%
X138341662Y-89208570D03*
X139685164Y-87865068D03*
%TD*%
%TO.C,LED93*%
X138341662Y-92800673D03*
X139685164Y-91457171D03*
%TD*%
%TO.C,LED94*%
X138341662Y-96392775D03*
X139685164Y-95049273D03*
%TD*%
%TO.C,LED95*%
X138341662Y-99984878D03*
X139685164Y-98641376D03*
%TD*%
%TO.C,LED96*%
X138341662Y-103576980D03*
X139685164Y-102233478D03*
%TD*%
%TO.C,LED97*%
X141968133Y-49695443D03*
X143311635Y-48351941D03*
%TD*%
%TO.C,LED98*%
X141968133Y-53287546D03*
X143311635Y-51944044D03*
%TD*%
%TO.C,LED99*%
X141968133Y-56879648D03*
X143311635Y-55536146D03*
%TD*%
%TO.C,LED100*%
X141968133Y-60471751D03*
X143311635Y-59128249D03*
%TD*%
%TO.C,LED101*%
X141968133Y-64063853D03*
X143311635Y-62720351D03*
%TD*%
%TO.C,LED102*%
X141968133Y-67655956D03*
X143311635Y-66312454D03*
%TD*%
%TO.C,LED103*%
X141968133Y-71248058D03*
X143311635Y-69904556D03*
%TD*%
%TO.C,LED104*%
X141968133Y-74840160D03*
X143311635Y-73496658D03*
%TD*%
%TO.C,LED105*%
X141968133Y-78432263D03*
X143311635Y-77088761D03*
%TD*%
%TO.C,LED106*%
X141968133Y-82024365D03*
X143311635Y-80680863D03*
%TD*%
%TO.C,LED107*%
X141968133Y-85616468D03*
X143311635Y-84272966D03*
%TD*%
%TO.C,LED108*%
X141968133Y-89208570D03*
X143311635Y-87865068D03*
%TD*%
%TO.C,LED109*%
X141968133Y-92800673D03*
X143311635Y-91457171D03*
%TD*%
%TO.C,LED110*%
X141968133Y-96392775D03*
X143311635Y-95049273D03*
%TD*%
%TO.C,LED111*%
X141968133Y-99984878D03*
X143311635Y-98641376D03*
%TD*%
%TO.C,LED112*%
X141968133Y-103576980D03*
X143311635Y-102233478D03*
%TD*%
%TO.C,LED113*%
X145594604Y-49695443D03*
X146938106Y-48351941D03*
%TD*%
%TO.C,LED114*%
X145594604Y-53287546D03*
X146938106Y-51944044D03*
%TD*%
%TO.C,LED115*%
X145594604Y-56879648D03*
X146938106Y-55536146D03*
%TD*%
%TO.C,LED116*%
X145594604Y-60471751D03*
X146938106Y-59128249D03*
%TD*%
%TO.C,LED117*%
X145594604Y-64063853D03*
X146938106Y-62720351D03*
%TD*%
%TO.C,LED118*%
X145594604Y-67655956D03*
X146938106Y-66312454D03*
%TD*%
%TO.C,LED119*%
X145594604Y-71248058D03*
X146938106Y-69904556D03*
%TD*%
%TO.C,LED120*%
X145594604Y-74840160D03*
X146938106Y-73496658D03*
%TD*%
%TO.C,LED121*%
X145594604Y-78432263D03*
X146938106Y-77088761D03*
%TD*%
%TO.C,LED122*%
X145594604Y-82024365D03*
X146938106Y-80680863D03*
%TD*%
%TO.C,LED123*%
X145594604Y-85616468D03*
X146938106Y-84272966D03*
%TD*%
%TO.C,LED124*%
X145594604Y-89208570D03*
X146938106Y-87865068D03*
%TD*%
%TO.C,LED125*%
X145594604Y-92800673D03*
X146938106Y-91457171D03*
%TD*%
%TO.C,LED126*%
X145594604Y-96392775D03*
X146938106Y-95049273D03*
%TD*%
%TO.C,LED127*%
X145594604Y-99984878D03*
X146938106Y-98641376D03*
%TD*%
%TO.C,LED128*%
X145594604Y-103576980D03*
X146938106Y-102233478D03*
%TD*%
%TO.C,LED129*%
X149221075Y-49695443D03*
X150564577Y-48351941D03*
%TD*%
%TO.C,LED130*%
X149221075Y-53287546D03*
X150564577Y-51944044D03*
%TD*%
%TO.C,LED131*%
X149221075Y-56879648D03*
X150564577Y-55536146D03*
%TD*%
%TO.C,LED132*%
X149221075Y-60471751D03*
X150564577Y-59128249D03*
%TD*%
%TO.C,LED133*%
X149221075Y-64063853D03*
X150564577Y-62720351D03*
%TD*%
%TO.C,LED134*%
X149221075Y-67655956D03*
X150564577Y-66312454D03*
%TD*%
%TO.C,LED135*%
X149221075Y-71248058D03*
X150564577Y-69904556D03*
%TD*%
%TO.C,LED136*%
X149221075Y-74840160D03*
X150564577Y-73496658D03*
%TD*%
%TO.C,LED137*%
X149221075Y-78432263D03*
X150564577Y-77088761D03*
%TD*%
%TO.C,LED138*%
X149221075Y-82024365D03*
X150564577Y-80680863D03*
%TD*%
%TO.C,LED139*%
X149221075Y-85616468D03*
X150564577Y-84272966D03*
%TD*%
%TO.C,LED140*%
X149221075Y-89208570D03*
X150564577Y-87865068D03*
%TD*%
%TO.C,LED141*%
X149221075Y-92800673D03*
X150564577Y-91457171D03*
%TD*%
%TO.C,LED142*%
X149221075Y-96392775D03*
X150564577Y-95049273D03*
%TD*%
%TO.C,LED143*%
X149221075Y-99984878D03*
X150564577Y-98641376D03*
%TD*%
%TO.C,LED144*%
X149221075Y-103576980D03*
X150564577Y-102233478D03*
%TD*%
%TO.C,LED145*%
X152847546Y-49695443D03*
X154191048Y-48351941D03*
%TD*%
%TO.C,LED146*%
X152847546Y-53287546D03*
X154191048Y-51944044D03*
%TD*%
%TO.C,LED147*%
X152847546Y-56879648D03*
X154191048Y-55536146D03*
%TD*%
%TO.C,LED148*%
X152847546Y-60471751D03*
X154191048Y-59128249D03*
%TD*%
%TO.C,LED149*%
X152847546Y-64063853D03*
X154191048Y-62720351D03*
%TD*%
%TO.C,LED150*%
X152847546Y-67655956D03*
X154191048Y-66312454D03*
%TD*%
%TO.C,LED151*%
X152847546Y-71248058D03*
X154191048Y-69904556D03*
%TD*%
%TO.C,LED152*%
X152847546Y-74840160D03*
X154191048Y-73496658D03*
%TD*%
%TO.C,LED153*%
X152847546Y-78432263D03*
X154191048Y-77088761D03*
%TD*%
%TO.C,LED154*%
X152847546Y-82024365D03*
X154191048Y-80680863D03*
%TD*%
%TO.C,LED155*%
X152847546Y-85616468D03*
X154191048Y-84272966D03*
%TD*%
%TO.C,LED156*%
X152847546Y-89208570D03*
X154191048Y-87865068D03*
%TD*%
%TO.C,LED157*%
X152847546Y-92800673D03*
X154191048Y-91457171D03*
%TD*%
%TO.C,LED158*%
X152847546Y-96392775D03*
X154191048Y-95049273D03*
%TD*%
%TO.C,LED159*%
X152847546Y-99984878D03*
X154191048Y-98641376D03*
%TD*%
%TO.C,LED160*%
X152847546Y-103576980D03*
X154191048Y-102233478D03*
%TD*%
D17*
%TO.C,LED_Green_bms1*%
X116092500Y-128150000D03*
X116092500Y-126250000D03*
%TD*%
%TO.C,LED_RED_bms1*%
X118600000Y-128150000D03*
X118600000Y-126250000D03*
%TD*%
D18*
%TO.C,R_10K_12*%
X155250000Y-117900000D03*
X157150000Y-117900000D03*
%TD*%
%TO.C,R_10K_13*%
X147350000Y-116000000D03*
X149250000Y-116000000D03*
%TD*%
%TO.C,R_5.1_1*%
X136350000Y-126500000D03*
X138250000Y-126500000D03*
%TD*%
%TO.C,R_5.1k_1*%
X136350000Y-128600000D03*
X138250000Y-128600000D03*
%TD*%
%TO.C,R_10K_11*%
X148500000Y-124400000D03*
X150400000Y-124400000D03*
%TD*%
D19*
%TO.C,J1*%
X159040000Y-105500000D03*
X159040000Y-106770000D03*
X157770000Y-105500000D03*
X157770000Y-106770000D03*
X156500000Y-105500000D03*
X156500000Y-106770000D03*
D20*
X160310000Y-106135000D03*
X155230000Y-107151000D03*
X155230000Y-105119000D03*
%TD*%
D21*
%TO.C,S_b1*%
X152025065Y-111271365D03*
X152025065Y-115771365D03*
X159975065Y-111271365D03*
X159975065Y-115771365D03*
%TD*%
D22*
%TO.C,R4*%
X136150000Y-107700000D03*
X134250000Y-107700000D03*
%TD*%
D21*
%TO.C,S_left1*%
X114625000Y-114500000D03*
X114625000Y-119000000D03*
X122575000Y-114500000D03*
X122575000Y-119000000D03*
%TD*%
D23*
%TO.C,C_22p_6*%
X155150000Y-109300000D03*
X153550000Y-109300000D03*
%TD*%
D22*
%TO.C,R1*%
X116650000Y-112525000D03*
X114750000Y-112525000D03*
%TD*%
D23*
%TO.C,C_22p_7*%
X147000000Y-124400000D03*
X145400000Y-124400000D03*
%TD*%
D21*
%TO.C,S_right1*%
X130575000Y-114500000D03*
X130575000Y-119000000D03*
X138525000Y-114500000D03*
X138525000Y-119000000D03*
%TD*%
%TO.C,S_down1*%
X122625000Y-121292730D03*
X122625000Y-125792730D03*
X130575000Y-121292730D03*
X130575000Y-125792730D03*
%TD*%
D24*
%TO.C,IC1*%
X116700000Y-108500000D03*
D25*
X116700000Y-109450000D03*
X116700000Y-110000000D03*
X120000000Y-110000000D03*
X120000000Y-109450000D03*
D24*
X120000000Y-108500000D03*
D26*
X118350000Y-109050000D03*
%TD*%
D18*
%TO.C,R2*%
X118750000Y-112525000D03*
X120650000Y-112525000D03*
%TD*%
%TO.C,R_10K_10*%
X156650000Y-109300000D03*
X158550000Y-109300000D03*
%TD*%
D21*
%TO.C,S_up1*%
X122625000Y-107950000D03*
X122625000Y-112450000D03*
X130575000Y-107950000D03*
X130575000Y-112450000D03*
%TD*%
%TO.C,S_a1*%
X144125065Y-117971365D03*
X144125065Y-122471365D03*
X152075065Y-117971365D03*
X152075065Y-122471365D03*
%TD*%
D27*
%TO.C,C1*%
X114485000Y-108250000D03*
X114485000Y-109850000D03*
%TD*%
D28*
%TO.C,J_USB_C1*%
X141570000Y-127850000D03*
X132930000Y-127850000D03*
X132930000Y-124050000D03*
X141570000Y-124050000D03*
%TD*%
D29*
%TO.C,LS1*%
X116800000Y-105900000D03*
X124400000Y-105900000D03*
%TD*%
%TO.C,SW_Toggle1*%
X124275000Y-128050000D03*
X126775000Y-128050000D03*
X129275000Y-128050000D03*
%TD*%
M02*
