M48
; DRILL file {KiCad (5.1.10)-1} date 07/01/21 23:21:15
; FORMAT={-:-/ absolute / metric / decimal}
; #@! TF.CreationDate,2021-07-01T23:21:15+02:00
; #@! TF.GenerationSoftware,Kicad,Pcbnew,(5.1.10)-1
FMAT,2
METRIC
T1C0.400
T2C0.755
T3C0.800
T4C1.150
T5C1.250
T6C1.346
T7C1.800
%
G90
G05
T1
X100.757Y-108.691
X101.122Y-99.873
X102.443Y-87.941
X103.329Y-96.1
X103.329Y-102.867
X104.063Y-92.85
X104.656Y-70.256
X104.753Y-64.15
X104.881Y-113.103
X105.722Y-111.048
X105.856Y-59.838
X106.139Y-105.737
X106.553Y-55.04
X106.614Y-101.85
X107.296Y-41.395
X107.422Y-98.648
X107.971Y-86.625
X108.23Y-116.673
X108.248Y-95.833
X109.018Y-100.27
X109.126Y-116.044
X109.588Y-75.212
X109.762Y-110.423
X110.502Y-111.123
X110.548Y-38.454
X110.62Y-75.54
X110.955Y-102.032
X110.972Y-114.174
X110.972Y-116.141
X111.049Y-82.258
X113.005Y-40.825
X113.005Y-45.999
X113.005Y-51.552
X113.005Y-56.366
X113.005Y-61.681
X113.005Y-66.477
X113.005Y-76.925
X113.516Y-96.698
X115.287Y-90.54
X115.429Y-120.009
X115.687Y-70.22
X115.833Y-99.778
X120.381Y-38.45
X120.806Y-81.2
X121.162Y-106.15
X121.175Y-89.56
X121.248Y-116.294
X121.884Y-98.746
X122.111Y-83.46
X122.14Y-88.944
X122.178Y-116.778
X122.178Y-120.931
X123.447Y-45.999
X123.447Y-50.982
X123.447Y-56.078
X123.447Y-61.161
X123.447Y-71.319
X123.447Y-76.385
X124.761Y-106.432
X124.767Y-93.694
X124.772Y-101.271
X125.148Y-116.314
X125.55Y-91.675
X125.747Y-104.653
X126.011Y-98.746
X126.17Y-116.075
X126.349Y-38.964
X126.4Y-44.609
X127.139Y-103.169
X127.139Y-107.3
X127.358Y-83.447
X127.402Y-114.842
X127.941Y-118.129
X128.668Y-50.982
X128.668Y-56.078
X128.668Y-61.161
X128.668Y-76.385
X128.78Y-111.996
X129.173Y-135.97
X129.899Y-37.009
X129.969Y-100.867
X129.97Y-81.2
X130.395Y-106.432
X131.341Y-112.595
X131.981Y-70.154
X132.167Y-114.645
X132.268Y-102.73
X132.368Y-106.153
X132.413Y-44.609
X132.607Y-82.443
X132.678Y-129.542
X133.403Y-117.53
X133.403Y-127.069
X133.889Y-66.229
X133.889Y-81.704
X135.307Y-115.027
X135.383Y-83.436
X135.893Y-37.397
X136.618Y-36.381
X136.618Y-79.475
X136.667Y-108.764
X136.764Y-128.17
X136.764Y-92.222
X136.77Y-111.64
X137.155Y-103.57
X137.683Y-112.781
X138.008Y-101.805
X138.113Y-119.282
X138.786Y-81.992
X139.091Y-36.454
X139.111Y-50.982
X139.111Y-56.07
X139.111Y-61.161
X139.111Y-76.385
X139.111Y-91.623
X139.111Y-96.703
X139.146Y-107.3
X139.226Y-102.228
X139.332Y-41.387
X139.375Y-66.229
X140.447Y-44.907
X140.458Y-70.154
X140.532Y-102.973
X140.708Y-81.609
X141.611Y-86.684
X141.611Y-88.954
X141.708Y-109.884
X141.903Y-120.801
X142.172Y-101.702
X142.303Y-90.944
X142.676Y-56.715
X142.677Y-82.837
X142.686Y-94.338
X144.169Y-149.93
X144.261Y-101.806
X144.285Y-61.161
X144.332Y-45.904
X144.332Y-50.982
X144.332Y-56.07
X144.332Y-76.385
X144.332Y-81.469
X145.278Y-97.705
X145.562Y-42.12
X145.573Y-102.854
X146.04Y-117.219
X146.669Y-103.78
X147.043Y-37.202
X147.451Y-83.167
X147.733Y-100.881
X147.955Y-107.022
X148.225Y-80.203
X148.498Y-67.216
X149.383Y-92.177
X149.401Y-101.912
X150.22Y-87.322
X150.956Y-40.597
X151.604Y-84.022
X151.604Y-96.174
X152.085Y-73.72
X152.448Y-107.022
X152.848Y-42.34
X152.889Y-108.923
X154.604Y-36.677
X154.774Y-50.982
X154.774Y-56.06
X154.774Y-61.136
X155.799Y-87.345
X156.099Y-45.055
X156.202Y-62.528
X156.346Y-67.977
X156.525Y-88.46
X157.117Y-67.034
X157.385Y-79.839
X157.385Y-81.687
X158.69Y-110.175
X159.995Y-36.515
X160.072Y-107.247
X160.286Y-102.128
X161.926Y-111.698
X162.171Y-36.625
X162.61Y-107.537
X162.651Y-63.068
X162.947Y-41.924
X163.565Y-108.633
X163.686Y-105.865
X163.725Y-60.867
X164.16Y-59.72
X164.257Y-52.014
X164.302Y-102.383
X164.578Y-108.646
X165.027Y-56.982
X165.136Y-122.065
X165.922Y-95.95
X166.388Y-54.609
X166.635Y-121.142
X166.778Y-98.15
X166.891Y-102.7
X167.452Y-117.751
X167.46Y-79.083
X168.392Y-76.227
X168.454Y-117.78
X169.003Y-72.557
X169.238Y-143.472
X170.3Y-72.444
T2
X141.16Y-124.34
X146.04Y-124.34
T3
X169.228Y-59.727
X169.228Y-67.327
X173.9Y-50.9
X173.9Y-53.4
X173.9Y-55.9
T4
X173.18Y-140.28
X173.18Y-142.82
X173.18Y-145.36
X173.18Y-147.9
X173.18Y-150.44
X173.18Y-152.98
T5
X101.25Y-135.64
X101.25Y-140.14
X113.75Y-135.64
X113.75Y-140.14
X113.95Y-122.94
X113.95Y-127.44
X113.95Y-148.34
X113.95Y-152.84
X126.45Y-122.94
X126.45Y-127.44
X126.45Y-148.34
X126.45Y-152.84
X126.65Y-135.64
X126.65Y-140.14
X139.15Y-135.64
X139.15Y-140.14
X146.55Y-139.45
X146.55Y-143.95
X159.05Y-139.45
X159.05Y-143.95
X159.25Y-126.75
X159.25Y-131.25
X171.75Y-126.75
X171.75Y-131.25
T6
X134.18Y-153.05
X134.18Y-156.85
X142.82Y-153.05
X142.82Y-156.85
T7
X107.5Y-133.39
X107.5Y-142.39
X120.2Y-120.69
X120.2Y-129.69
X120.2Y-146.09
X120.2Y-155.09
X132.9Y-133.39
X132.9Y-142.39
X152.8Y-137.2
X152.8Y-146.2
X165.5Y-124.5
X165.5Y-133.5
T0
M30
