%TF.GenerationSoftware,KiCad,Pcbnew,(5.1.10)-1*%
%TF.CreationDate,2021-07-01T23:21:13+02:00*%
%TF.ProjectId,PicBytesMicro,50696342-7974-4657-934d-6963726f2e6b,rev?*%
%TF.SameCoordinates,Original*%
%TF.FileFunction,Soldermask,Bot*%
%TF.FilePolarity,Negative*%
%FSLAX46Y46*%
G04 Gerber Fmt 4.6, Leading zero omitted, Abs format (unit mm)*
G04 Created by KiCad (PCBNEW (5.1.10)-1) date 2021-07-01 23:21:13*
%MOMM*%
%LPD*%
G01*
G04 APERTURE LIST*
%ADD10C,1.400000*%
%ADD11C,1.900000*%
%ADD12C,1.950000*%
%ADD13C,1.825000*%
%ADD14C,2.100000*%
%ADD15C,1.394000*%
G04 APERTURE END LIST*
%TO.C,U_StepUp1*%
G36*
G01*
X139653000Y-89665000D02*
X140853000Y-89665000D01*
G75*
G02*
X140903000Y-89715000I0J-50000D01*
G01*
X140903000Y-90315000D01*
G75*
G02*
X140853000Y-90365000I-50000J0D01*
G01*
X139653000Y-90365000D01*
G75*
G02*
X139603000Y-90315000I0J50000D01*
G01*
X139603000Y-89715000D01*
G75*
G02*
X139653000Y-89665000I50000J0D01*
G01*
G37*
G36*
G01*
X139653000Y-88715000D02*
X140853000Y-88715000D01*
G75*
G02*
X140903000Y-88765000I0J-50000D01*
G01*
X140903000Y-89365000D01*
G75*
G02*
X140853000Y-89415000I-50000J0D01*
G01*
X139653000Y-89415000D01*
G75*
G02*
X139603000Y-89365000I0J50000D01*
G01*
X139603000Y-88765000D01*
G75*
G02*
X139653000Y-88715000I50000J0D01*
G01*
G37*
G36*
G01*
X139653000Y-87765000D02*
X140853000Y-87765000D01*
G75*
G02*
X140903000Y-87815000I0J-50000D01*
G01*
X140903000Y-88415000D01*
G75*
G02*
X140853000Y-88465000I-50000J0D01*
G01*
X139653000Y-88465000D01*
G75*
G02*
X139603000Y-88415000I0J50000D01*
G01*
X139603000Y-87815000D01*
G75*
G02*
X139653000Y-87765000I50000J0D01*
G01*
G37*
G36*
G01*
X137153000Y-87765000D02*
X138353000Y-87765000D01*
G75*
G02*
X138403000Y-87815000I0J-50000D01*
G01*
X138403000Y-88415000D01*
G75*
G02*
X138353000Y-88465000I-50000J0D01*
G01*
X137153000Y-88465000D01*
G75*
G02*
X137103000Y-88415000I0J50000D01*
G01*
X137103000Y-87815000D01*
G75*
G02*
X137153000Y-87765000I50000J0D01*
G01*
G37*
G36*
G01*
X137153000Y-88715000D02*
X138353000Y-88715000D01*
G75*
G02*
X138403000Y-88765000I0J-50000D01*
G01*
X138403000Y-89365000D01*
G75*
G02*
X138353000Y-89415000I-50000J0D01*
G01*
X137153000Y-89415000D01*
G75*
G02*
X137103000Y-89365000I0J50000D01*
G01*
X137103000Y-88765000D01*
G75*
G02*
X137153000Y-88715000I50000J0D01*
G01*
G37*
G36*
G01*
X137153000Y-89665000D02*
X138353000Y-89665000D01*
G75*
G02*
X138403000Y-89715000I0J-50000D01*
G01*
X138403000Y-90315000D01*
G75*
G02*
X138353000Y-90365000I-50000J0D01*
G01*
X137153000Y-90365000D01*
G75*
G02*
X137103000Y-90315000I0J50000D01*
G01*
X137103000Y-89715000D01*
G75*
G02*
X137153000Y-89665000I50000J0D01*
G01*
G37*
%TD*%
D10*
%TO.C,SW_Toggle1*%
X173900000Y-50900000D03*
X173900000Y-53400000D03*
X173900000Y-55900000D03*
%TD*%
D11*
%TO.C,S_up1*%
X120200000Y-129690000D03*
X120200000Y-120690000D03*
D12*
X113950000Y-122940000D03*
X126450000Y-122940000D03*
X113950000Y-127440000D03*
X126450000Y-127440000D03*
%TD*%
D11*
%TO.C,S_right1*%
X132900000Y-142390000D03*
X132900000Y-133390000D03*
D12*
X126650000Y-135640000D03*
X139150000Y-135640000D03*
X126650000Y-140140000D03*
X139150000Y-140140000D03*
%TD*%
D11*
%TO.C,S_left1*%
X107500000Y-142390000D03*
X107500000Y-133390000D03*
D12*
X101250000Y-135640000D03*
X113750000Y-135640000D03*
X101250000Y-140140000D03*
X113750000Y-140140000D03*
%TD*%
D11*
%TO.C,S_down1*%
X120200000Y-155090000D03*
X120200000Y-146090000D03*
D12*
X113950000Y-148340000D03*
X126450000Y-148340000D03*
X113950000Y-152840000D03*
X126450000Y-152840000D03*
%TD*%
D11*
%TO.C,S_B1*%
X165500000Y-133500000D03*
X165500000Y-124500000D03*
D12*
X159250000Y-126750000D03*
X171750000Y-126750000D03*
X159250000Y-131250000D03*
X171750000Y-131250000D03*
%TD*%
D11*
%TO.C,S_A1*%
X152800000Y-146200000D03*
X152800000Y-137200000D03*
D12*
X146550000Y-139450000D03*
X159050000Y-139450000D03*
X146550000Y-143950000D03*
X159050000Y-143950000D03*
%TD*%
%TO.C,R_7.5k_1*%
G36*
G01*
X144207000Y-88715000D02*
X142807000Y-88715000D01*
G75*
G02*
X142757000Y-88665000I0J50000D01*
G01*
X142757000Y-87665000D01*
G75*
G02*
X142807000Y-87615000I50000J0D01*
G01*
X144207000Y-87615000D01*
G75*
G02*
X144257000Y-87665000I0J-50000D01*
G01*
X144257000Y-88665000D01*
G75*
G02*
X144207000Y-88715000I-50000J0D01*
G01*
G37*
G36*
G01*
X144207000Y-90615000D02*
X142807000Y-90615000D01*
G75*
G02*
X142757000Y-90565000I0J50000D01*
G01*
X142757000Y-89565000D01*
G75*
G02*
X142807000Y-89515000I50000J0D01*
G01*
X144207000Y-89515000D01*
G75*
G02*
X144257000Y-89565000I0J-50000D01*
G01*
X144257000Y-90565000D01*
G75*
G02*
X144207000Y-90615000I-50000J0D01*
G01*
G37*
%TD*%
%TO.C,R_5.1k_1*%
G36*
G01*
X138405000Y-148200000D02*
X139805000Y-148200000D01*
G75*
G02*
X139855000Y-148250000I0J-50000D01*
G01*
X139855000Y-149250000D01*
G75*
G02*
X139805000Y-149300000I-50000J0D01*
G01*
X138405000Y-149300000D01*
G75*
G02*
X138355000Y-149250000I0J50000D01*
G01*
X138355000Y-148250000D01*
G75*
G02*
X138405000Y-148200000I50000J0D01*
G01*
G37*
G36*
G01*
X138405000Y-146300000D02*
X139805000Y-146300000D01*
G75*
G02*
X139855000Y-146350000I0J-50000D01*
G01*
X139855000Y-147350000D01*
G75*
G02*
X139805000Y-147400000I-50000J0D01*
G01*
X138405000Y-147400000D01*
G75*
G02*
X138355000Y-147350000I0J50000D01*
G01*
X138355000Y-146350000D01*
G75*
G02*
X138405000Y-146300000I50000J0D01*
G01*
G37*
%TD*%
%TO.C,R_5.1_1*%
G36*
G01*
X140700000Y-148200000D02*
X142100000Y-148200000D01*
G75*
G02*
X142150000Y-148250000I0J-50000D01*
G01*
X142150000Y-149250000D01*
G75*
G02*
X142100000Y-149300000I-50000J0D01*
G01*
X140700000Y-149300000D01*
G75*
G02*
X140650000Y-149250000I0J50000D01*
G01*
X140650000Y-148250000D01*
G75*
G02*
X140700000Y-148200000I50000J0D01*
G01*
G37*
G36*
G01*
X140700000Y-146300000D02*
X142100000Y-146300000D01*
G75*
G02*
X142150000Y-146350000I0J-50000D01*
G01*
X142150000Y-147350000D01*
G75*
G02*
X142100000Y-147400000I-50000J0D01*
G01*
X140700000Y-147400000D01*
G75*
G02*
X140650000Y-147350000I0J50000D01*
G01*
X140650000Y-146350000D01*
G75*
G02*
X140700000Y-146300000I50000J0D01*
G01*
G37*
%TD*%
%TO.C,R_2k_2*%
G36*
G01*
X154100000Y-102800000D02*
X154100000Y-101400000D01*
G75*
G02*
X154150000Y-101350000I50000J0D01*
G01*
X155150000Y-101350000D01*
G75*
G02*
X155200000Y-101400000I0J-50000D01*
G01*
X155200000Y-102800000D01*
G75*
G02*
X155150000Y-102850000I-50000J0D01*
G01*
X154150000Y-102850000D01*
G75*
G02*
X154100000Y-102800000I0J50000D01*
G01*
G37*
G36*
G01*
X152200000Y-102800000D02*
X152200000Y-101400000D01*
G75*
G02*
X152250000Y-101350000I50000J0D01*
G01*
X153250000Y-101350000D01*
G75*
G02*
X153300000Y-101400000I0J-50000D01*
G01*
X153300000Y-102800000D01*
G75*
G02*
X153250000Y-102850000I-50000J0D01*
G01*
X152250000Y-102850000D01*
G75*
G02*
X152200000Y-102800000I0J50000D01*
G01*
G37*
%TD*%
%TO.C,R_2k_1*%
G36*
G01*
X171100000Y-84100000D02*
X171100000Y-82700000D01*
G75*
G02*
X171150000Y-82650000I50000J0D01*
G01*
X172150000Y-82650000D01*
G75*
G02*
X172200000Y-82700000I0J-50000D01*
G01*
X172200000Y-84100000D01*
G75*
G02*
X172150000Y-84150000I-50000J0D01*
G01*
X171150000Y-84150000D01*
G75*
G02*
X171100000Y-84100000I0J50000D01*
G01*
G37*
G36*
G01*
X169200000Y-84100000D02*
X169200000Y-82700000D01*
G75*
G02*
X169250000Y-82650000I50000J0D01*
G01*
X170250000Y-82650000D01*
G75*
G02*
X170300000Y-82700000I0J-50000D01*
G01*
X170300000Y-84100000D01*
G75*
G02*
X170250000Y-84150000I-50000J0D01*
G01*
X169250000Y-84150000D01*
G75*
G02*
X169200000Y-84100000I0J50000D01*
G01*
G37*
%TD*%
%TO.C,R_1k_3*%
G36*
G01*
X133800000Y-89515000D02*
X135200000Y-89515000D01*
G75*
G02*
X135250000Y-89565000I0J-50000D01*
G01*
X135250000Y-90565000D01*
G75*
G02*
X135200000Y-90615000I-50000J0D01*
G01*
X133800000Y-90615000D01*
G75*
G02*
X133750000Y-90565000I0J50000D01*
G01*
X133750000Y-89565000D01*
G75*
G02*
X133800000Y-89515000I50000J0D01*
G01*
G37*
G36*
G01*
X133800000Y-87615000D02*
X135200000Y-87615000D01*
G75*
G02*
X135250000Y-87665000I0J-50000D01*
G01*
X135250000Y-88665000D01*
G75*
G02*
X135200000Y-88715000I-50000J0D01*
G01*
X133800000Y-88715000D01*
G75*
G02*
X133750000Y-88665000I0J50000D01*
G01*
X133750000Y-87665000D01*
G75*
G02*
X133800000Y-87615000I50000J0D01*
G01*
G37*
%TD*%
%TO.C,R_10K_6*%
G36*
G01*
X118450000Y-104500000D02*
X118450000Y-105900000D01*
G75*
G02*
X118400000Y-105950000I-50000J0D01*
G01*
X117400000Y-105950000D01*
G75*
G02*
X117350000Y-105900000I0J50000D01*
G01*
X117350000Y-104500000D01*
G75*
G02*
X117400000Y-104450000I50000J0D01*
G01*
X118400000Y-104450000D01*
G75*
G02*
X118450000Y-104500000I0J-50000D01*
G01*
G37*
G36*
G01*
X120350000Y-104500000D02*
X120350000Y-105900000D01*
G75*
G02*
X120300000Y-105950000I-50000J0D01*
G01*
X119300000Y-105950000D01*
G75*
G02*
X119250000Y-105900000I0J50000D01*
G01*
X119250000Y-104500000D01*
G75*
G02*
X119300000Y-104450000I50000J0D01*
G01*
X120300000Y-104450000D01*
G75*
G02*
X120350000Y-104500000I0J-50000D01*
G01*
G37*
%TD*%
%TO.C,R_10K_5*%
G36*
G01*
X118450000Y-102400000D02*
X118450000Y-103800000D01*
G75*
G02*
X118400000Y-103850000I-50000J0D01*
G01*
X117400000Y-103850000D01*
G75*
G02*
X117350000Y-103800000I0J50000D01*
G01*
X117350000Y-102400000D01*
G75*
G02*
X117400000Y-102350000I50000J0D01*
G01*
X118400000Y-102350000D01*
G75*
G02*
X118450000Y-102400000I0J-50000D01*
G01*
G37*
G36*
G01*
X120350000Y-102400000D02*
X120350000Y-103800000D01*
G75*
G02*
X120300000Y-103850000I-50000J0D01*
G01*
X119300000Y-103850000D01*
G75*
G02*
X119250000Y-103800000I0J50000D01*
G01*
X119250000Y-102400000D01*
G75*
G02*
X119300000Y-102350000I50000J0D01*
G01*
X120300000Y-102350000D01*
G75*
G02*
X120350000Y-102400000I0J-50000D01*
G01*
G37*
%TD*%
%TO.C,R_10K_4*%
G36*
G01*
X118450000Y-106600000D02*
X118450000Y-108000000D01*
G75*
G02*
X118400000Y-108050000I-50000J0D01*
G01*
X117400000Y-108050000D01*
G75*
G02*
X117350000Y-108000000I0J50000D01*
G01*
X117350000Y-106600000D01*
G75*
G02*
X117400000Y-106550000I50000J0D01*
G01*
X118400000Y-106550000D01*
G75*
G02*
X118450000Y-106600000I0J-50000D01*
G01*
G37*
G36*
G01*
X120350000Y-106600000D02*
X120350000Y-108000000D01*
G75*
G02*
X120300000Y-108050000I-50000J0D01*
G01*
X119300000Y-108050000D01*
G75*
G02*
X119250000Y-108000000I0J50000D01*
G01*
X119250000Y-106600000D01*
G75*
G02*
X119300000Y-106550000I50000J0D01*
G01*
X120300000Y-106550000D01*
G75*
G02*
X120350000Y-106600000I0J-50000D01*
G01*
G37*
%TD*%
%TO.C,R_10K_3*%
G36*
G01*
X119250000Y-114150000D02*
X119250000Y-112750000D01*
G75*
G02*
X119300000Y-112700000I50000J0D01*
G01*
X120300000Y-112700000D01*
G75*
G02*
X120350000Y-112750000I0J-50000D01*
G01*
X120350000Y-114150000D01*
G75*
G02*
X120300000Y-114200000I-50000J0D01*
G01*
X119300000Y-114200000D01*
G75*
G02*
X119250000Y-114150000I0J50000D01*
G01*
G37*
G36*
G01*
X117350000Y-114150000D02*
X117350000Y-112750000D01*
G75*
G02*
X117400000Y-112700000I50000J0D01*
G01*
X118400000Y-112700000D01*
G75*
G02*
X118450000Y-112750000I0J-50000D01*
G01*
X118450000Y-114150000D01*
G75*
G02*
X118400000Y-114200000I-50000J0D01*
G01*
X117400000Y-114200000D01*
G75*
G02*
X117350000Y-114150000I0J50000D01*
G01*
G37*
%TD*%
%TO.C,R_10K_2*%
G36*
G01*
X118450000Y-110700000D02*
X118450000Y-112100000D01*
G75*
G02*
X118400000Y-112150000I-50000J0D01*
G01*
X117400000Y-112150000D01*
G75*
G02*
X117350000Y-112100000I0J50000D01*
G01*
X117350000Y-110700000D01*
G75*
G02*
X117400000Y-110650000I50000J0D01*
G01*
X118400000Y-110650000D01*
G75*
G02*
X118450000Y-110700000I0J-50000D01*
G01*
G37*
G36*
G01*
X120350000Y-110700000D02*
X120350000Y-112100000D01*
G75*
G02*
X120300000Y-112150000I-50000J0D01*
G01*
X119300000Y-112150000D01*
G75*
G02*
X119250000Y-112100000I0J50000D01*
G01*
X119250000Y-110700000D01*
G75*
G02*
X119300000Y-110650000I50000J0D01*
G01*
X120300000Y-110650000D01*
G75*
G02*
X120350000Y-110700000I0J-50000D01*
G01*
G37*
%TD*%
%TO.C,R_10K_1*%
G36*
G01*
X118450000Y-108650000D02*
X118450000Y-110050000D01*
G75*
G02*
X118400000Y-110100000I-50000J0D01*
G01*
X117400000Y-110100000D01*
G75*
G02*
X117350000Y-110050000I0J50000D01*
G01*
X117350000Y-108650000D01*
G75*
G02*
X117400000Y-108600000I50000J0D01*
G01*
X118400000Y-108600000D01*
G75*
G02*
X118450000Y-108650000I0J-50000D01*
G01*
G37*
G36*
G01*
X120350000Y-108650000D02*
X120350000Y-110050000D01*
G75*
G02*
X120300000Y-110100000I-50000J0D01*
G01*
X119300000Y-110100000D01*
G75*
G02*
X119250000Y-110050000I0J50000D01*
G01*
X119250000Y-108650000D01*
G75*
G02*
X119300000Y-108600000I50000J0D01*
G01*
X120300000Y-108600000D01*
G75*
G02*
X120350000Y-108650000I0J-50000D01*
G01*
G37*
%TD*%
%TO.C,R_10k_1*%
G36*
G01*
X119250000Y-116200000D02*
X119250000Y-114800000D01*
G75*
G02*
X119300000Y-114750000I50000J0D01*
G01*
X120300000Y-114750000D01*
G75*
G02*
X120350000Y-114800000I0J-50000D01*
G01*
X120350000Y-116200000D01*
G75*
G02*
X120300000Y-116250000I-50000J0D01*
G01*
X119300000Y-116250000D01*
G75*
G02*
X119250000Y-116200000I0J50000D01*
G01*
G37*
G36*
G01*
X117350000Y-116200000D02*
X117350000Y-114800000D01*
G75*
G02*
X117400000Y-114750000I50000J0D01*
G01*
X118400000Y-114750000D01*
G75*
G02*
X118450000Y-114800000I0J-50000D01*
G01*
X118450000Y-116200000D01*
G75*
G02*
X118400000Y-116250000I-50000J0D01*
G01*
X117400000Y-116250000D01*
G75*
G02*
X117350000Y-116200000I0J50000D01*
G01*
G37*
%TD*%
%TO.C,R_100_1*%
G36*
G01*
X149000000Y-97620000D02*
X150400000Y-97620000D01*
G75*
G02*
X150450000Y-97670000I0J-50000D01*
G01*
X150450000Y-98670000D01*
G75*
G02*
X150400000Y-98720000I-50000J0D01*
G01*
X149000000Y-98720000D01*
G75*
G02*
X148950000Y-98670000I0J50000D01*
G01*
X148950000Y-97670000D01*
G75*
G02*
X149000000Y-97620000I50000J0D01*
G01*
G37*
G36*
G01*
X149000000Y-95720000D02*
X150400000Y-95720000D01*
G75*
G02*
X150450000Y-95770000I0J-50000D01*
G01*
X150450000Y-96770000D01*
G75*
G02*
X150400000Y-96820000I-50000J0D01*
G01*
X149000000Y-96820000D01*
G75*
G02*
X148950000Y-96770000I0J50000D01*
G01*
X148950000Y-95770000D01*
G75*
G02*
X149000000Y-95720000I50000J0D01*
G01*
G37*
%TD*%
%TO.C,R4K7_29*%
G36*
G01*
X163600000Y-54950000D02*
X165000000Y-54950000D01*
G75*
G02*
X165050000Y-55000000I0J-50000D01*
G01*
X165050000Y-56000000D01*
G75*
G02*
X165000000Y-56050000I-50000J0D01*
G01*
X163600000Y-56050000D01*
G75*
G02*
X163550000Y-56000000I0J50000D01*
G01*
X163550000Y-55000000D01*
G75*
G02*
X163600000Y-54950000I50000J0D01*
G01*
G37*
G36*
G01*
X163600000Y-53050000D02*
X165000000Y-53050000D01*
G75*
G02*
X165050000Y-53100000I0J-50000D01*
G01*
X165050000Y-54100000D01*
G75*
G02*
X165000000Y-54150000I-50000J0D01*
G01*
X163600000Y-54150000D01*
G75*
G02*
X163550000Y-54100000I0J50000D01*
G01*
X163550000Y-53100000D01*
G75*
G02*
X163600000Y-53050000I50000J0D01*
G01*
G37*
%TD*%
%TO.C,R4K7_28*%
G36*
G01*
X166700000Y-95750000D02*
X168100000Y-95750000D01*
G75*
G02*
X168150000Y-95800000I0J-50000D01*
G01*
X168150000Y-96800000D01*
G75*
G02*
X168100000Y-96850000I-50000J0D01*
G01*
X166700000Y-96850000D01*
G75*
G02*
X166650000Y-96800000I0J50000D01*
G01*
X166650000Y-95800000D01*
G75*
G02*
X166700000Y-95750000I50000J0D01*
G01*
G37*
G36*
G01*
X166700000Y-93850000D02*
X168100000Y-93850000D01*
G75*
G02*
X168150000Y-93900000I0J-50000D01*
G01*
X168150000Y-94900000D01*
G75*
G02*
X168100000Y-94950000I-50000J0D01*
G01*
X166700000Y-94950000D01*
G75*
G02*
X166650000Y-94900000I0J50000D01*
G01*
X166650000Y-93900000D01*
G75*
G02*
X166700000Y-93850000I50000J0D01*
G01*
G37*
%TD*%
%TO.C,R4K7_27*%
G36*
G01*
X105300000Y-89400000D02*
X103900000Y-89400000D01*
G75*
G02*
X103850000Y-89350000I0J50000D01*
G01*
X103850000Y-88350000D01*
G75*
G02*
X103900000Y-88300000I50000J0D01*
G01*
X105300000Y-88300000D01*
G75*
G02*
X105350000Y-88350000I0J-50000D01*
G01*
X105350000Y-89350000D01*
G75*
G02*
X105300000Y-89400000I-50000J0D01*
G01*
G37*
G36*
G01*
X105300000Y-91300000D02*
X103900000Y-91300000D01*
G75*
G02*
X103850000Y-91250000I0J50000D01*
G01*
X103850000Y-90250000D01*
G75*
G02*
X103900000Y-90200000I50000J0D01*
G01*
X105300000Y-90200000D01*
G75*
G02*
X105350000Y-90250000I0J-50000D01*
G01*
X105350000Y-91250000D01*
G75*
G02*
X105300000Y-91300000I-50000J0D01*
G01*
G37*
%TD*%
%TO.C,R4K7_26*%
G36*
G01*
X100800000Y-38875000D02*
X99400000Y-38875000D01*
G75*
G02*
X99350000Y-38825000I0J50000D01*
G01*
X99350000Y-37825000D01*
G75*
G02*
X99400000Y-37775000I50000J0D01*
G01*
X100800000Y-37775000D01*
G75*
G02*
X100850000Y-37825000I0J-50000D01*
G01*
X100850000Y-38825000D01*
G75*
G02*
X100800000Y-38875000I-50000J0D01*
G01*
G37*
G36*
G01*
X100800000Y-40775000D02*
X99400000Y-40775000D01*
G75*
G02*
X99350000Y-40725000I0J50000D01*
G01*
X99350000Y-39725000D01*
G75*
G02*
X99400000Y-39675000I50000J0D01*
G01*
X100800000Y-39675000D01*
G75*
G02*
X100850000Y-39725000I0J-50000D01*
G01*
X100850000Y-40725000D01*
G75*
G02*
X100800000Y-40775000I-50000J0D01*
G01*
G37*
%TD*%
%TO.C,R4K7_25*%
G36*
G01*
X139700000Y-38875000D02*
X138300000Y-38875000D01*
G75*
G02*
X138250000Y-38825000I0J50000D01*
G01*
X138250000Y-37825000D01*
G75*
G02*
X138300000Y-37775000I50000J0D01*
G01*
X139700000Y-37775000D01*
G75*
G02*
X139750000Y-37825000I0J-50000D01*
G01*
X139750000Y-38825000D01*
G75*
G02*
X139700000Y-38875000I-50000J0D01*
G01*
G37*
G36*
G01*
X139700000Y-40775000D02*
X138300000Y-40775000D01*
G75*
G02*
X138250000Y-40725000I0J50000D01*
G01*
X138250000Y-39725000D01*
G75*
G02*
X138300000Y-39675000I50000J0D01*
G01*
X139700000Y-39675000D01*
G75*
G02*
X139750000Y-39725000I0J-50000D01*
G01*
X139750000Y-40725000D01*
G75*
G02*
X139700000Y-40775000I-50000J0D01*
G01*
G37*
%TD*%
%TO.C,R4K7_24*%
G36*
G01*
X166700000Y-100600000D02*
X168100000Y-100600000D01*
G75*
G02*
X168150000Y-100650000I0J-50000D01*
G01*
X168150000Y-101650000D01*
G75*
G02*
X168100000Y-101700000I-50000J0D01*
G01*
X166700000Y-101700000D01*
G75*
G02*
X166650000Y-101650000I0J50000D01*
G01*
X166650000Y-100650000D01*
G75*
G02*
X166700000Y-100600000I50000J0D01*
G01*
G37*
G36*
G01*
X166700000Y-98700000D02*
X168100000Y-98700000D01*
G75*
G02*
X168150000Y-98750000I0J-50000D01*
G01*
X168150000Y-99750000D01*
G75*
G02*
X168100000Y-99800000I-50000J0D01*
G01*
X166700000Y-99800000D01*
G75*
G02*
X166650000Y-99750000I0J50000D01*
G01*
X166650000Y-98750000D01*
G75*
G02*
X166700000Y-98700000I50000J0D01*
G01*
G37*
%TD*%
%TO.C,R4K7_23*%
G36*
G01*
X105300000Y-84200000D02*
X103900000Y-84200000D01*
G75*
G02*
X103850000Y-84150000I0J50000D01*
G01*
X103850000Y-83150000D01*
G75*
G02*
X103900000Y-83100000I50000J0D01*
G01*
X105300000Y-83100000D01*
G75*
G02*
X105350000Y-83150000I0J-50000D01*
G01*
X105350000Y-84150000D01*
G75*
G02*
X105300000Y-84200000I-50000J0D01*
G01*
G37*
G36*
G01*
X105300000Y-86100000D02*
X103900000Y-86100000D01*
G75*
G02*
X103850000Y-86050000I0J50000D01*
G01*
X103850000Y-85050000D01*
G75*
G02*
X103900000Y-85000000I50000J0D01*
G01*
X105300000Y-85000000D01*
G75*
G02*
X105350000Y-85050000I0J-50000D01*
G01*
X105350000Y-86050000D01*
G75*
G02*
X105300000Y-86100000I-50000J0D01*
G01*
G37*
%TD*%
%TO.C,R4K7_22*%
G36*
G01*
X170800000Y-38875000D02*
X169400000Y-38875000D01*
G75*
G02*
X169350000Y-38825000I0J50000D01*
G01*
X169350000Y-37825000D01*
G75*
G02*
X169400000Y-37775000I50000J0D01*
G01*
X170800000Y-37775000D01*
G75*
G02*
X170850000Y-37825000I0J-50000D01*
G01*
X170850000Y-38825000D01*
G75*
G02*
X170800000Y-38875000I-50000J0D01*
G01*
G37*
G36*
G01*
X170800000Y-40775000D02*
X169400000Y-40775000D01*
G75*
G02*
X169350000Y-40725000I0J50000D01*
G01*
X169350000Y-39725000D01*
G75*
G02*
X169400000Y-39675000I50000J0D01*
G01*
X170800000Y-39675000D01*
G75*
G02*
X170850000Y-39725000I0J-50000D01*
G01*
X170850000Y-40725000D01*
G75*
G02*
X170800000Y-40775000I-50000J0D01*
G01*
G37*
%TD*%
%TO.C,R4K7_21*%
G36*
G01*
X131800000Y-38875000D02*
X130400000Y-38875000D01*
G75*
G02*
X130350000Y-38825000I0J50000D01*
G01*
X130350000Y-37825000D01*
G75*
G02*
X130400000Y-37775000I50000J0D01*
G01*
X131800000Y-37775000D01*
G75*
G02*
X131850000Y-37825000I0J-50000D01*
G01*
X131850000Y-38825000D01*
G75*
G02*
X131800000Y-38875000I-50000J0D01*
G01*
G37*
G36*
G01*
X131800000Y-40775000D02*
X130400000Y-40775000D01*
G75*
G02*
X130350000Y-40725000I0J50000D01*
G01*
X130350000Y-39725000D01*
G75*
G02*
X130400000Y-39675000I50000J0D01*
G01*
X131800000Y-39675000D01*
G75*
G02*
X131850000Y-39725000I0J-50000D01*
G01*
X131850000Y-40725000D01*
G75*
G02*
X131800000Y-40775000I-50000J0D01*
G01*
G37*
%TD*%
%TO.C,R4K7_20*%
G36*
G01*
X166700000Y-105600000D02*
X168100000Y-105600000D01*
G75*
G02*
X168150000Y-105650000I0J-50000D01*
G01*
X168150000Y-106650000D01*
G75*
G02*
X168100000Y-106700000I-50000J0D01*
G01*
X166700000Y-106700000D01*
G75*
G02*
X166650000Y-106650000I0J50000D01*
G01*
X166650000Y-105650000D01*
G75*
G02*
X166700000Y-105600000I50000J0D01*
G01*
G37*
G36*
G01*
X166700000Y-103700000D02*
X168100000Y-103700000D01*
G75*
G02*
X168150000Y-103750000I0J-50000D01*
G01*
X168150000Y-104750000D01*
G75*
G02*
X168100000Y-104800000I-50000J0D01*
G01*
X166700000Y-104800000D01*
G75*
G02*
X166650000Y-104750000I0J50000D01*
G01*
X166650000Y-103750000D01*
G75*
G02*
X166700000Y-103700000I50000J0D01*
G01*
G37*
%TD*%
%TO.C,R4K7_19*%
G36*
G01*
X105300000Y-78150000D02*
X103900000Y-78150000D01*
G75*
G02*
X103850000Y-78100000I0J50000D01*
G01*
X103850000Y-77100000D01*
G75*
G02*
X103900000Y-77050000I50000J0D01*
G01*
X105300000Y-77050000D01*
G75*
G02*
X105350000Y-77100000I0J-50000D01*
G01*
X105350000Y-78100000D01*
G75*
G02*
X105300000Y-78150000I-50000J0D01*
G01*
G37*
G36*
G01*
X105300000Y-80050000D02*
X103900000Y-80050000D01*
G75*
G02*
X103850000Y-80000000I0J50000D01*
G01*
X103850000Y-79000000D01*
G75*
G02*
X103900000Y-78950000I50000J0D01*
G01*
X105300000Y-78950000D01*
G75*
G02*
X105350000Y-79000000I0J-50000D01*
G01*
X105350000Y-80000000D01*
G75*
G02*
X105300000Y-80050000I-50000J0D01*
G01*
G37*
%TD*%
%TO.C,R4K7_18*%
G36*
G01*
X105300000Y-115850000D02*
X103900000Y-115850000D01*
G75*
G02*
X103850000Y-115800000I0J50000D01*
G01*
X103850000Y-114800000D01*
G75*
G02*
X103900000Y-114750000I50000J0D01*
G01*
X105300000Y-114750000D01*
G75*
G02*
X105350000Y-114800000I0J-50000D01*
G01*
X105350000Y-115800000D01*
G75*
G02*
X105300000Y-115850000I-50000J0D01*
G01*
G37*
G36*
G01*
X105300000Y-117750000D02*
X103900000Y-117750000D01*
G75*
G02*
X103850000Y-117700000I0J50000D01*
G01*
X103850000Y-116700000D01*
G75*
G02*
X103900000Y-116650000I50000J0D01*
G01*
X105300000Y-116650000D01*
G75*
G02*
X105350000Y-116700000I0J-50000D01*
G01*
X105350000Y-117700000D01*
G75*
G02*
X105300000Y-117750000I-50000J0D01*
G01*
G37*
%TD*%
%TO.C,R4K7_17*%
G36*
G01*
X105300000Y-67800000D02*
X103900000Y-67800000D01*
G75*
G02*
X103850000Y-67750000I0J50000D01*
G01*
X103850000Y-66750000D01*
G75*
G02*
X103900000Y-66700000I50000J0D01*
G01*
X105300000Y-66700000D01*
G75*
G02*
X105350000Y-66750000I0J-50000D01*
G01*
X105350000Y-67750000D01*
G75*
G02*
X105300000Y-67800000I-50000J0D01*
G01*
G37*
G36*
G01*
X105300000Y-69700000D02*
X103900000Y-69700000D01*
G75*
G02*
X103850000Y-69650000I0J50000D01*
G01*
X103850000Y-68650000D01*
G75*
G02*
X103900000Y-68600000I50000J0D01*
G01*
X105300000Y-68600000D01*
G75*
G02*
X105350000Y-68650000I0J-50000D01*
G01*
X105350000Y-69650000D01*
G75*
G02*
X105300000Y-69700000I-50000J0D01*
G01*
G37*
%TD*%
%TO.C,R4K7_16*%
G36*
G01*
X162900000Y-38875000D02*
X161500000Y-38875000D01*
G75*
G02*
X161450000Y-38825000I0J50000D01*
G01*
X161450000Y-37825000D01*
G75*
G02*
X161500000Y-37775000I50000J0D01*
G01*
X162900000Y-37775000D01*
G75*
G02*
X162950000Y-37825000I0J-50000D01*
G01*
X162950000Y-38825000D01*
G75*
G02*
X162900000Y-38875000I-50000J0D01*
G01*
G37*
G36*
G01*
X162900000Y-40775000D02*
X161500000Y-40775000D01*
G75*
G02*
X161450000Y-40725000I0J50000D01*
G01*
X161450000Y-39725000D01*
G75*
G02*
X161500000Y-39675000I50000J0D01*
G01*
X162900000Y-39675000D01*
G75*
G02*
X162950000Y-39725000I0J-50000D01*
G01*
X162950000Y-40725000D01*
G75*
G02*
X162900000Y-40775000I-50000J0D01*
G01*
G37*
%TD*%
%TO.C,R4K7_15*%
G36*
G01*
X124100000Y-38875000D02*
X122700000Y-38875000D01*
G75*
G02*
X122650000Y-38825000I0J50000D01*
G01*
X122650000Y-37825000D01*
G75*
G02*
X122700000Y-37775000I50000J0D01*
G01*
X124100000Y-37775000D01*
G75*
G02*
X124150000Y-37825000I0J-50000D01*
G01*
X124150000Y-38825000D01*
G75*
G02*
X124100000Y-38875000I-50000J0D01*
G01*
G37*
G36*
G01*
X124100000Y-40775000D02*
X122700000Y-40775000D01*
G75*
G02*
X122650000Y-40725000I0J50000D01*
G01*
X122650000Y-39725000D01*
G75*
G02*
X122700000Y-39675000I50000J0D01*
G01*
X124100000Y-39675000D01*
G75*
G02*
X124150000Y-39725000I0J-50000D01*
G01*
X124150000Y-40725000D01*
G75*
G02*
X124100000Y-40775000I-50000J0D01*
G01*
G37*
%TD*%
%TO.C,R4K7_14*%
G36*
G01*
X166700000Y-90750000D02*
X168100000Y-90750000D01*
G75*
G02*
X168150000Y-90800000I0J-50000D01*
G01*
X168150000Y-91800000D01*
G75*
G02*
X168100000Y-91850000I-50000J0D01*
G01*
X166700000Y-91850000D01*
G75*
G02*
X166650000Y-91800000I0J50000D01*
G01*
X166650000Y-90800000D01*
G75*
G02*
X166700000Y-90750000I50000J0D01*
G01*
G37*
G36*
G01*
X166700000Y-88850000D02*
X168100000Y-88850000D01*
G75*
G02*
X168150000Y-88900000I0J-50000D01*
G01*
X168150000Y-89900000D01*
G75*
G02*
X168100000Y-89950000I-50000J0D01*
G01*
X166700000Y-89950000D01*
G75*
G02*
X166650000Y-89900000I0J50000D01*
G01*
X166650000Y-88900000D01*
G75*
G02*
X166700000Y-88850000I50000J0D01*
G01*
G37*
%TD*%
%TO.C,R4K7_13*%
G36*
G01*
X105300000Y-95650000D02*
X103900000Y-95650000D01*
G75*
G02*
X103850000Y-95600000I0J50000D01*
G01*
X103850000Y-94600000D01*
G75*
G02*
X103900000Y-94550000I50000J0D01*
G01*
X105300000Y-94550000D01*
G75*
G02*
X105350000Y-94600000I0J-50000D01*
G01*
X105350000Y-95600000D01*
G75*
G02*
X105300000Y-95650000I-50000J0D01*
G01*
G37*
G36*
G01*
X105300000Y-97550000D02*
X103900000Y-97550000D01*
G75*
G02*
X103850000Y-97500000I0J50000D01*
G01*
X103850000Y-96500000D01*
G75*
G02*
X103900000Y-96450000I50000J0D01*
G01*
X105300000Y-96450000D01*
G75*
G02*
X105350000Y-96500000I0J-50000D01*
G01*
X105350000Y-97500000D01*
G75*
G02*
X105300000Y-97550000I-50000J0D01*
G01*
G37*
%TD*%
%TO.C,R4K7_12*%
G36*
G01*
X166700000Y-110600000D02*
X168100000Y-110600000D01*
G75*
G02*
X168150000Y-110650000I0J-50000D01*
G01*
X168150000Y-111650000D01*
G75*
G02*
X168100000Y-111700000I-50000J0D01*
G01*
X166700000Y-111700000D01*
G75*
G02*
X166650000Y-111650000I0J50000D01*
G01*
X166650000Y-110650000D01*
G75*
G02*
X166700000Y-110600000I50000J0D01*
G01*
G37*
G36*
G01*
X166700000Y-108700000D02*
X168100000Y-108700000D01*
G75*
G02*
X168150000Y-108750000I0J-50000D01*
G01*
X168150000Y-109750000D01*
G75*
G02*
X168100000Y-109800000I-50000J0D01*
G01*
X166700000Y-109800000D01*
G75*
G02*
X166650000Y-109750000I0J50000D01*
G01*
X166650000Y-108750000D01*
G75*
G02*
X166700000Y-108700000I50000J0D01*
G01*
G37*
%TD*%
%TO.C,R4K7_11*%
G36*
G01*
X105300000Y-73150000D02*
X103900000Y-73150000D01*
G75*
G02*
X103850000Y-73100000I0J50000D01*
G01*
X103850000Y-72100000D01*
G75*
G02*
X103900000Y-72050000I50000J0D01*
G01*
X105300000Y-72050000D01*
G75*
G02*
X105350000Y-72100000I0J-50000D01*
G01*
X105350000Y-73100000D01*
G75*
G02*
X105300000Y-73150000I-50000J0D01*
G01*
G37*
G36*
G01*
X105300000Y-75050000D02*
X103900000Y-75050000D01*
G75*
G02*
X103850000Y-75000000I0J50000D01*
G01*
X103850000Y-74000000D01*
G75*
G02*
X103900000Y-73950000I50000J0D01*
G01*
X105300000Y-73950000D01*
G75*
G02*
X105350000Y-74000000I0J-50000D01*
G01*
X105350000Y-75000000D01*
G75*
G02*
X105300000Y-75050000I-50000J0D01*
G01*
G37*
%TD*%
%TO.C,R4K7_10*%
G36*
G01*
X105300000Y-110650000D02*
X103900000Y-110650000D01*
G75*
G02*
X103850000Y-110600000I0J50000D01*
G01*
X103850000Y-109600000D01*
G75*
G02*
X103900000Y-109550000I50000J0D01*
G01*
X105300000Y-109550000D01*
G75*
G02*
X105350000Y-109600000I0J-50000D01*
G01*
X105350000Y-110600000D01*
G75*
G02*
X105300000Y-110650000I-50000J0D01*
G01*
G37*
G36*
G01*
X105300000Y-112550000D02*
X103900000Y-112550000D01*
G75*
G02*
X103850000Y-112500000I0J50000D01*
G01*
X103850000Y-111500000D01*
G75*
G02*
X103900000Y-111450000I50000J0D01*
G01*
X105300000Y-111450000D01*
G75*
G02*
X105350000Y-111500000I0J-50000D01*
G01*
X105350000Y-112500000D01*
G75*
G02*
X105300000Y-112550000I-50000J0D01*
G01*
G37*
%TD*%
%TO.C,R4K7_9*%
G36*
G01*
X105300000Y-61700000D02*
X103900000Y-61700000D01*
G75*
G02*
X103850000Y-61650000I0J50000D01*
G01*
X103850000Y-60650000D01*
G75*
G02*
X103900000Y-60600000I50000J0D01*
G01*
X105300000Y-60600000D01*
G75*
G02*
X105350000Y-60650000I0J-50000D01*
G01*
X105350000Y-61650000D01*
G75*
G02*
X105300000Y-61700000I-50000J0D01*
G01*
G37*
G36*
G01*
X105300000Y-63600000D02*
X103900000Y-63600000D01*
G75*
G02*
X103850000Y-63550000I0J50000D01*
G01*
X103850000Y-62550000D01*
G75*
G02*
X103900000Y-62500000I50000J0D01*
G01*
X105300000Y-62500000D01*
G75*
G02*
X105350000Y-62550000I0J-50000D01*
G01*
X105350000Y-63550000D01*
G75*
G02*
X105300000Y-63600000I-50000J0D01*
G01*
G37*
%TD*%
%TO.C,R4K7_8*%
G36*
G01*
X155100000Y-38875000D02*
X153700000Y-38875000D01*
G75*
G02*
X153650000Y-38825000I0J50000D01*
G01*
X153650000Y-37825000D01*
G75*
G02*
X153700000Y-37775000I50000J0D01*
G01*
X155100000Y-37775000D01*
G75*
G02*
X155150000Y-37825000I0J-50000D01*
G01*
X155150000Y-38825000D01*
G75*
G02*
X155100000Y-38875000I-50000J0D01*
G01*
G37*
G36*
G01*
X155100000Y-40775000D02*
X153700000Y-40775000D01*
G75*
G02*
X153650000Y-40725000I0J50000D01*
G01*
X153650000Y-39725000D01*
G75*
G02*
X153700000Y-39675000I50000J0D01*
G01*
X155100000Y-39675000D01*
G75*
G02*
X155150000Y-39725000I0J-50000D01*
G01*
X155150000Y-40725000D01*
G75*
G02*
X155100000Y-40775000I-50000J0D01*
G01*
G37*
%TD*%
%TO.C,R4K7_7*%
G36*
G01*
X116200000Y-38875000D02*
X114800000Y-38875000D01*
G75*
G02*
X114750000Y-38825000I0J50000D01*
G01*
X114750000Y-37825000D01*
G75*
G02*
X114800000Y-37775000I50000J0D01*
G01*
X116200000Y-37775000D01*
G75*
G02*
X116250000Y-37825000I0J-50000D01*
G01*
X116250000Y-38825000D01*
G75*
G02*
X116200000Y-38875000I-50000J0D01*
G01*
G37*
G36*
G01*
X116200000Y-40775000D02*
X114800000Y-40775000D01*
G75*
G02*
X114750000Y-40725000I0J50000D01*
G01*
X114750000Y-39725000D01*
G75*
G02*
X114800000Y-39675000I50000J0D01*
G01*
X116200000Y-39675000D01*
G75*
G02*
X116250000Y-39725000I0J-50000D01*
G01*
X116250000Y-40725000D01*
G75*
G02*
X116200000Y-40775000I-50000J0D01*
G01*
G37*
%TD*%
%TO.C,R4K7_6*%
G36*
G01*
X105300000Y-105400000D02*
X103900000Y-105400000D01*
G75*
G02*
X103850000Y-105350000I0J50000D01*
G01*
X103850000Y-104350000D01*
G75*
G02*
X103900000Y-104300000I50000J0D01*
G01*
X105300000Y-104300000D01*
G75*
G02*
X105350000Y-104350000I0J-50000D01*
G01*
X105350000Y-105350000D01*
G75*
G02*
X105300000Y-105400000I-50000J0D01*
G01*
G37*
G36*
G01*
X105300000Y-107300000D02*
X103900000Y-107300000D01*
G75*
G02*
X103850000Y-107250000I0J50000D01*
G01*
X103850000Y-106250000D01*
G75*
G02*
X103900000Y-106200000I50000J0D01*
G01*
X105300000Y-106200000D01*
G75*
G02*
X105350000Y-106250000I0J-50000D01*
G01*
X105350000Y-107250000D01*
G75*
G02*
X105300000Y-107300000I-50000J0D01*
G01*
G37*
%TD*%
%TO.C,R4K7_5*%
G36*
G01*
X105300000Y-55900000D02*
X103900000Y-55900000D01*
G75*
G02*
X103850000Y-55850000I0J50000D01*
G01*
X103850000Y-54850000D01*
G75*
G02*
X103900000Y-54800000I50000J0D01*
G01*
X105300000Y-54800000D01*
G75*
G02*
X105350000Y-54850000I0J-50000D01*
G01*
X105350000Y-55850000D01*
G75*
G02*
X105300000Y-55900000I-50000J0D01*
G01*
G37*
G36*
G01*
X105300000Y-57800000D02*
X103900000Y-57800000D01*
G75*
G02*
X103850000Y-57750000I0J50000D01*
G01*
X103850000Y-56750000D01*
G75*
G02*
X103900000Y-56700000I50000J0D01*
G01*
X105300000Y-56700000D01*
G75*
G02*
X105350000Y-56750000I0J-50000D01*
G01*
X105350000Y-57750000D01*
G75*
G02*
X105300000Y-57800000I-50000J0D01*
G01*
G37*
%TD*%
%TO.C,R4K7_4*%
G36*
G01*
X147300000Y-38875000D02*
X145900000Y-38875000D01*
G75*
G02*
X145850000Y-38825000I0J50000D01*
G01*
X145850000Y-37825000D01*
G75*
G02*
X145900000Y-37775000I50000J0D01*
G01*
X147300000Y-37775000D01*
G75*
G02*
X147350000Y-37825000I0J-50000D01*
G01*
X147350000Y-38825000D01*
G75*
G02*
X147300000Y-38875000I-50000J0D01*
G01*
G37*
G36*
G01*
X147300000Y-40775000D02*
X145900000Y-40775000D01*
G75*
G02*
X145850000Y-40725000I0J50000D01*
G01*
X145850000Y-39725000D01*
G75*
G02*
X145900000Y-39675000I50000J0D01*
G01*
X147300000Y-39675000D01*
G75*
G02*
X147350000Y-39725000I0J-50000D01*
G01*
X147350000Y-40725000D01*
G75*
G02*
X147300000Y-40775000I-50000J0D01*
G01*
G37*
%TD*%
%TO.C,R4K7_3*%
G36*
G01*
X108200000Y-38875000D02*
X106800000Y-38875000D01*
G75*
G02*
X106750000Y-38825000I0J50000D01*
G01*
X106750000Y-37825000D01*
G75*
G02*
X106800000Y-37775000I50000J0D01*
G01*
X108200000Y-37775000D01*
G75*
G02*
X108250000Y-37825000I0J-50000D01*
G01*
X108250000Y-38825000D01*
G75*
G02*
X108200000Y-38875000I-50000J0D01*
G01*
G37*
G36*
G01*
X108200000Y-40775000D02*
X106800000Y-40775000D01*
G75*
G02*
X106750000Y-40725000I0J50000D01*
G01*
X106750000Y-39725000D01*
G75*
G02*
X106800000Y-39675000I50000J0D01*
G01*
X108200000Y-39675000D01*
G75*
G02*
X108250000Y-39725000I0J-50000D01*
G01*
X108250000Y-40725000D01*
G75*
G02*
X108200000Y-40775000I-50000J0D01*
G01*
G37*
%TD*%
%TO.C,R4K7_2*%
G36*
G01*
X105300000Y-100500000D02*
X103900000Y-100500000D01*
G75*
G02*
X103850000Y-100450000I0J50000D01*
G01*
X103850000Y-99450000D01*
G75*
G02*
X103900000Y-99400000I50000J0D01*
G01*
X105300000Y-99400000D01*
G75*
G02*
X105350000Y-99450000I0J-50000D01*
G01*
X105350000Y-100450000D01*
G75*
G02*
X105300000Y-100500000I-50000J0D01*
G01*
G37*
G36*
G01*
X105300000Y-102400000D02*
X103900000Y-102400000D01*
G75*
G02*
X103850000Y-102350000I0J50000D01*
G01*
X103850000Y-101350000D01*
G75*
G02*
X103900000Y-101300000I50000J0D01*
G01*
X105300000Y-101300000D01*
G75*
G02*
X105350000Y-101350000I0J-50000D01*
G01*
X105350000Y-102350000D01*
G75*
G02*
X105300000Y-102400000I-50000J0D01*
G01*
G37*
%TD*%
%TO.C,R4K7_1*%
G36*
G01*
X105300000Y-50500000D02*
X103900000Y-50500000D01*
G75*
G02*
X103850000Y-50450000I0J50000D01*
G01*
X103850000Y-49450000D01*
G75*
G02*
X103900000Y-49400000I50000J0D01*
G01*
X105300000Y-49400000D01*
G75*
G02*
X105350000Y-49450000I0J-50000D01*
G01*
X105350000Y-50450000D01*
G75*
G02*
X105300000Y-50500000I-50000J0D01*
G01*
G37*
G36*
G01*
X105300000Y-52400000D02*
X103900000Y-52400000D01*
G75*
G02*
X103850000Y-52350000I0J50000D01*
G01*
X103850000Y-51350000D01*
G75*
G02*
X103900000Y-51300000I50000J0D01*
G01*
X105300000Y-51300000D01*
G75*
G02*
X105350000Y-51350000I0J-50000D01*
G01*
X105350000Y-52350000D01*
G75*
G02*
X105300000Y-52400000I-50000J0D01*
G01*
G37*
%TD*%
%TO.C,R220_10*%
G36*
G01*
X103500000Y-43400000D02*
X103500000Y-42000000D01*
G75*
G02*
X103550000Y-41950000I50000J0D01*
G01*
X104550000Y-41950000D01*
G75*
G02*
X104600000Y-42000000I0J-50000D01*
G01*
X104600000Y-43400000D01*
G75*
G02*
X104550000Y-43450000I-50000J0D01*
G01*
X103550000Y-43450000D01*
G75*
G02*
X103500000Y-43400000I0J50000D01*
G01*
G37*
G36*
G01*
X101600000Y-43400000D02*
X101600000Y-42000000D01*
G75*
G02*
X101650000Y-41950000I50000J0D01*
G01*
X102650000Y-41950000D01*
G75*
G02*
X102700000Y-42000000I0J-50000D01*
G01*
X102700000Y-43400000D01*
G75*
G02*
X102650000Y-43450000I-50000J0D01*
G01*
X101650000Y-43450000D01*
G75*
G02*
X101600000Y-43400000I0J50000D01*
G01*
G37*
%TD*%
%TO.C,R220_9*%
G36*
G01*
X142500000Y-43400000D02*
X142500000Y-42000000D01*
G75*
G02*
X142550000Y-41950000I50000J0D01*
G01*
X143550000Y-41950000D01*
G75*
G02*
X143600000Y-42000000I0J-50000D01*
G01*
X143600000Y-43400000D01*
G75*
G02*
X143550000Y-43450000I-50000J0D01*
G01*
X142550000Y-43450000D01*
G75*
G02*
X142500000Y-43400000I0J50000D01*
G01*
G37*
G36*
G01*
X140600000Y-43400000D02*
X140600000Y-42000000D01*
G75*
G02*
X140650000Y-41950000I50000J0D01*
G01*
X141650000Y-41950000D01*
G75*
G02*
X141700000Y-42000000I0J-50000D01*
G01*
X141700000Y-43400000D01*
G75*
G02*
X141650000Y-43450000I-50000J0D01*
G01*
X140650000Y-43450000D01*
G75*
G02*
X140600000Y-43400000I0J50000D01*
G01*
G37*
%TD*%
%TO.C,R220_8*%
G36*
G01*
X173600000Y-43400000D02*
X173600000Y-42000000D01*
G75*
G02*
X173650000Y-41950000I50000J0D01*
G01*
X174650000Y-41950000D01*
G75*
G02*
X174700000Y-42000000I0J-50000D01*
G01*
X174700000Y-43400000D01*
G75*
G02*
X174650000Y-43450000I-50000J0D01*
G01*
X173650000Y-43450000D01*
G75*
G02*
X173600000Y-43400000I0J50000D01*
G01*
G37*
G36*
G01*
X171700000Y-43400000D02*
X171700000Y-42000000D01*
G75*
G02*
X171750000Y-41950000I50000J0D01*
G01*
X172750000Y-41950000D01*
G75*
G02*
X172800000Y-42000000I0J-50000D01*
G01*
X172800000Y-43400000D01*
G75*
G02*
X172750000Y-43450000I-50000J0D01*
G01*
X171750000Y-43450000D01*
G75*
G02*
X171700000Y-43400000I0J50000D01*
G01*
G37*
%TD*%
%TO.C,R220_7*%
G36*
G01*
X134650000Y-43400000D02*
X134650000Y-42000000D01*
G75*
G02*
X134700000Y-41950000I50000J0D01*
G01*
X135700000Y-41950000D01*
G75*
G02*
X135750000Y-42000000I0J-50000D01*
G01*
X135750000Y-43400000D01*
G75*
G02*
X135700000Y-43450000I-50000J0D01*
G01*
X134700000Y-43450000D01*
G75*
G02*
X134650000Y-43400000I0J50000D01*
G01*
G37*
G36*
G01*
X132750000Y-43400000D02*
X132750000Y-42000000D01*
G75*
G02*
X132800000Y-41950000I50000J0D01*
G01*
X133800000Y-41950000D01*
G75*
G02*
X133850000Y-42000000I0J-50000D01*
G01*
X133850000Y-43400000D01*
G75*
G02*
X133800000Y-43450000I-50000J0D01*
G01*
X132800000Y-43450000D01*
G75*
G02*
X132750000Y-43400000I0J50000D01*
G01*
G37*
%TD*%
%TO.C,R220_6*%
G36*
G01*
X165600000Y-43400000D02*
X165600000Y-42000000D01*
G75*
G02*
X165650000Y-41950000I50000J0D01*
G01*
X166650000Y-41950000D01*
G75*
G02*
X166700000Y-42000000I0J-50000D01*
G01*
X166700000Y-43400000D01*
G75*
G02*
X166650000Y-43450000I-50000J0D01*
G01*
X165650000Y-43450000D01*
G75*
G02*
X165600000Y-43400000I0J50000D01*
G01*
G37*
G36*
G01*
X163700000Y-43400000D02*
X163700000Y-42000000D01*
G75*
G02*
X163750000Y-41950000I50000J0D01*
G01*
X164750000Y-41950000D01*
G75*
G02*
X164800000Y-42000000I0J-50000D01*
G01*
X164800000Y-43400000D01*
G75*
G02*
X164750000Y-43450000I-50000J0D01*
G01*
X163750000Y-43450000D01*
G75*
G02*
X163700000Y-43400000I0J50000D01*
G01*
G37*
%TD*%
%TO.C,R220_5*%
G36*
G01*
X126900000Y-43400000D02*
X126900000Y-42000000D01*
G75*
G02*
X126950000Y-41950000I50000J0D01*
G01*
X127950000Y-41950000D01*
G75*
G02*
X128000000Y-42000000I0J-50000D01*
G01*
X128000000Y-43400000D01*
G75*
G02*
X127950000Y-43450000I-50000J0D01*
G01*
X126950000Y-43450000D01*
G75*
G02*
X126900000Y-43400000I0J50000D01*
G01*
G37*
G36*
G01*
X125000000Y-43400000D02*
X125000000Y-42000000D01*
G75*
G02*
X125050000Y-41950000I50000J0D01*
G01*
X126050000Y-41950000D01*
G75*
G02*
X126100000Y-42000000I0J-50000D01*
G01*
X126100000Y-43400000D01*
G75*
G02*
X126050000Y-43450000I-50000J0D01*
G01*
X125050000Y-43450000D01*
G75*
G02*
X125000000Y-43400000I0J50000D01*
G01*
G37*
%TD*%
%TO.C,R220_4*%
G36*
G01*
X157050000Y-42000000D02*
X157050000Y-43400000D01*
G75*
G02*
X157000000Y-43450000I-50000J0D01*
G01*
X156000000Y-43450000D01*
G75*
G02*
X155950000Y-43400000I0J50000D01*
G01*
X155950000Y-42000000D01*
G75*
G02*
X156000000Y-41950000I50000J0D01*
G01*
X157000000Y-41950000D01*
G75*
G02*
X157050000Y-42000000I0J-50000D01*
G01*
G37*
G36*
G01*
X158950000Y-42000000D02*
X158950000Y-43400000D01*
G75*
G02*
X158900000Y-43450000I-50000J0D01*
G01*
X157900000Y-43450000D01*
G75*
G02*
X157850000Y-43400000I0J50000D01*
G01*
X157850000Y-42000000D01*
G75*
G02*
X157900000Y-41950000I50000J0D01*
G01*
X158900000Y-41950000D01*
G75*
G02*
X158950000Y-42000000I0J-50000D01*
G01*
G37*
%TD*%
%TO.C,R220_3*%
G36*
G01*
X118950000Y-43400000D02*
X118950000Y-42000000D01*
G75*
G02*
X119000000Y-41950000I50000J0D01*
G01*
X120000000Y-41950000D01*
G75*
G02*
X120050000Y-42000000I0J-50000D01*
G01*
X120050000Y-43400000D01*
G75*
G02*
X120000000Y-43450000I-50000J0D01*
G01*
X119000000Y-43450000D01*
G75*
G02*
X118950000Y-43400000I0J50000D01*
G01*
G37*
G36*
G01*
X117050000Y-43400000D02*
X117050000Y-42000000D01*
G75*
G02*
X117100000Y-41950000I50000J0D01*
G01*
X118100000Y-41950000D01*
G75*
G02*
X118150000Y-42000000I0J-50000D01*
G01*
X118150000Y-43400000D01*
G75*
G02*
X118100000Y-43450000I-50000J0D01*
G01*
X117100000Y-43450000D01*
G75*
G02*
X117050000Y-43400000I0J50000D01*
G01*
G37*
%TD*%
%TO.C,R220_2*%
G36*
G01*
X150050000Y-43400000D02*
X150050000Y-42000000D01*
G75*
G02*
X150100000Y-41950000I50000J0D01*
G01*
X151100000Y-41950000D01*
G75*
G02*
X151150000Y-42000000I0J-50000D01*
G01*
X151150000Y-43400000D01*
G75*
G02*
X151100000Y-43450000I-50000J0D01*
G01*
X150100000Y-43450000D01*
G75*
G02*
X150050000Y-43400000I0J50000D01*
G01*
G37*
G36*
G01*
X148150000Y-43400000D02*
X148150000Y-42000000D01*
G75*
G02*
X148200000Y-41950000I50000J0D01*
G01*
X149200000Y-41950000D01*
G75*
G02*
X149250000Y-42000000I0J-50000D01*
G01*
X149250000Y-43400000D01*
G75*
G02*
X149200000Y-43450000I-50000J0D01*
G01*
X148200000Y-43450000D01*
G75*
G02*
X148150000Y-43400000I0J50000D01*
G01*
G37*
%TD*%
%TO.C,R220_1*%
G36*
G01*
X110150000Y-42000000D02*
X110150000Y-43400000D01*
G75*
G02*
X110100000Y-43450000I-50000J0D01*
G01*
X109100000Y-43450000D01*
G75*
G02*
X109050000Y-43400000I0J50000D01*
G01*
X109050000Y-42000000D01*
G75*
G02*
X109100000Y-41950000I50000J0D01*
G01*
X110100000Y-41950000D01*
G75*
G02*
X110150000Y-42000000I0J-50000D01*
G01*
G37*
G36*
G01*
X112050000Y-42000000D02*
X112050000Y-43400000D01*
G75*
G02*
X112000000Y-43450000I-50000J0D01*
G01*
X111000000Y-43450000D01*
G75*
G02*
X110950000Y-43400000I0J50000D01*
G01*
X110950000Y-42000000D01*
G75*
G02*
X111000000Y-41950000I50000J0D01*
G01*
X112000000Y-41950000D01*
G75*
G02*
X112050000Y-42000000I0J-50000D01*
G01*
G37*
%TD*%
%TO.C,Q30*%
G36*
G01*
X159200000Y-96395000D02*
X159200000Y-94995000D01*
G75*
G02*
X159250000Y-94945000I50000J0D01*
G01*
X159850000Y-94945000D01*
G75*
G02*
X159900000Y-94995000I0J-50000D01*
G01*
X159900000Y-96395000D01*
G75*
G02*
X159850000Y-96445000I-50000J0D01*
G01*
X159250000Y-96445000D01*
G75*
G02*
X159200000Y-96395000I0J50000D01*
G01*
G37*
G36*
G01*
X160150000Y-96395000D02*
X160150000Y-94995000D01*
G75*
G02*
X160200000Y-94945000I50000J0D01*
G01*
X160800000Y-94945000D01*
G75*
G02*
X160850000Y-94995000I0J-50000D01*
G01*
X160850000Y-96395000D01*
G75*
G02*
X160800000Y-96445000I-50000J0D01*
G01*
X160200000Y-96445000D01*
G75*
G02*
X160150000Y-96395000I0J50000D01*
G01*
G37*
G36*
G01*
X161100000Y-96395000D02*
X161100000Y-94995000D01*
G75*
G02*
X161150000Y-94945000I50000J0D01*
G01*
X161750000Y-94945000D01*
G75*
G02*
X161800000Y-94995000I0J-50000D01*
G01*
X161800000Y-96395000D01*
G75*
G02*
X161750000Y-96445000I-50000J0D01*
G01*
X161150000Y-96445000D01*
G75*
G02*
X161100000Y-96395000I0J50000D01*
G01*
G37*
G36*
G01*
X159200000Y-98695000D02*
X159200000Y-97295000D01*
G75*
G02*
X159250000Y-97245000I50000J0D01*
G01*
X159850000Y-97245000D01*
G75*
G02*
X159900000Y-97295000I0J-50000D01*
G01*
X159900000Y-98695000D01*
G75*
G02*
X159850000Y-98745000I-50000J0D01*
G01*
X159250000Y-98745000D01*
G75*
G02*
X159200000Y-98695000I0J50000D01*
G01*
G37*
G36*
G01*
X160150000Y-98695000D02*
X160150000Y-97295000D01*
G75*
G02*
X160200000Y-97245000I50000J0D01*
G01*
X160800000Y-97245000D01*
G75*
G02*
X160850000Y-97295000I0J-50000D01*
G01*
X160850000Y-98695000D01*
G75*
G02*
X160800000Y-98745000I-50000J0D01*
G01*
X160200000Y-98745000D01*
G75*
G02*
X160150000Y-98695000I0J50000D01*
G01*
G37*
G36*
G01*
X161100000Y-98695000D02*
X161100000Y-97295000D01*
G75*
G02*
X161150000Y-97245000I50000J0D01*
G01*
X161750000Y-97245000D01*
G75*
G02*
X161800000Y-97295000I0J-50000D01*
G01*
X161800000Y-98695000D01*
G75*
G02*
X161750000Y-98745000I-50000J0D01*
G01*
X161150000Y-98745000D01*
G75*
G02*
X161100000Y-98695000I0J50000D01*
G01*
G37*
%TD*%
%TO.C,Q29*%
G36*
G01*
X167775000Y-54250000D02*
X169025000Y-54250000D01*
G75*
G02*
X169075000Y-54300000I0J-50000D01*
G01*
X169075000Y-54900000D01*
G75*
G02*
X169025000Y-54950000I-50000J0D01*
G01*
X167775000Y-54950000D01*
G75*
G02*
X167725000Y-54900000I0J50000D01*
G01*
X167725000Y-54300000D01*
G75*
G02*
X167775000Y-54250000I50000J0D01*
G01*
G37*
G36*
G01*
X165675000Y-53295000D02*
X166925000Y-53295000D01*
G75*
G02*
X166975000Y-53345000I0J-50000D01*
G01*
X166975000Y-53945000D01*
G75*
G02*
X166925000Y-53995000I-50000J0D01*
G01*
X165675000Y-53995000D01*
G75*
G02*
X165625000Y-53945000I0J50000D01*
G01*
X165625000Y-53345000D01*
G75*
G02*
X165675000Y-53295000I50000J0D01*
G01*
G37*
G36*
G01*
X165675000Y-55205000D02*
X166925000Y-55205000D01*
G75*
G02*
X166975000Y-55255000I0J-50000D01*
G01*
X166975000Y-55855000D01*
G75*
G02*
X166925000Y-55905000I-50000J0D01*
G01*
X165675000Y-55905000D01*
G75*
G02*
X165625000Y-55855000I0J50000D01*
G01*
X165625000Y-55255000D01*
G75*
G02*
X165675000Y-55205000I50000J0D01*
G01*
G37*
%TD*%
%TO.C,Q28*%
G36*
G01*
X171125000Y-94950000D02*
X172375000Y-94950000D01*
G75*
G02*
X172425000Y-95000000I0J-50000D01*
G01*
X172425000Y-95600000D01*
G75*
G02*
X172375000Y-95650000I-50000J0D01*
G01*
X171125000Y-95650000D01*
G75*
G02*
X171075000Y-95600000I0J50000D01*
G01*
X171075000Y-95000000D01*
G75*
G02*
X171125000Y-94950000I50000J0D01*
G01*
G37*
G36*
G01*
X169025000Y-93995000D02*
X170275000Y-93995000D01*
G75*
G02*
X170325000Y-94045000I0J-50000D01*
G01*
X170325000Y-94645000D01*
G75*
G02*
X170275000Y-94695000I-50000J0D01*
G01*
X169025000Y-94695000D01*
G75*
G02*
X168975000Y-94645000I0J50000D01*
G01*
X168975000Y-94045000D01*
G75*
G02*
X169025000Y-93995000I50000J0D01*
G01*
G37*
G36*
G01*
X169025000Y-95905000D02*
X170275000Y-95905000D01*
G75*
G02*
X170325000Y-95955000I0J-50000D01*
G01*
X170325000Y-96555000D01*
G75*
G02*
X170275000Y-96605000I-50000J0D01*
G01*
X169025000Y-96605000D01*
G75*
G02*
X168975000Y-96555000I0J50000D01*
G01*
X168975000Y-95955000D01*
G75*
G02*
X169025000Y-95905000I50000J0D01*
G01*
G37*
%TD*%
%TO.C,Q27*%
G36*
G01*
X100975000Y-90150000D02*
X99725000Y-90150000D01*
G75*
G02*
X99675000Y-90100000I0J50000D01*
G01*
X99675000Y-89500000D01*
G75*
G02*
X99725000Y-89450000I50000J0D01*
G01*
X100975000Y-89450000D01*
G75*
G02*
X101025000Y-89500000I0J-50000D01*
G01*
X101025000Y-90100000D01*
G75*
G02*
X100975000Y-90150000I-50000J0D01*
G01*
G37*
G36*
G01*
X103075000Y-91105000D02*
X101825000Y-91105000D01*
G75*
G02*
X101775000Y-91055000I0J50000D01*
G01*
X101775000Y-90455000D01*
G75*
G02*
X101825000Y-90405000I50000J0D01*
G01*
X103075000Y-90405000D01*
G75*
G02*
X103125000Y-90455000I0J-50000D01*
G01*
X103125000Y-91055000D01*
G75*
G02*
X103075000Y-91105000I-50000J0D01*
G01*
G37*
G36*
G01*
X103075000Y-89195000D02*
X101825000Y-89195000D01*
G75*
G02*
X101775000Y-89145000I0J50000D01*
G01*
X101775000Y-88545000D01*
G75*
G02*
X101825000Y-88495000I50000J0D01*
G01*
X103075000Y-88495000D01*
G75*
G02*
X103125000Y-88545000I0J-50000D01*
G01*
X103125000Y-89145000D01*
G75*
G02*
X103075000Y-89195000I-50000J0D01*
G01*
G37*
%TD*%
%TO.C,Q26*%
G36*
G01*
X103450000Y-39925000D02*
X103450000Y-41175000D01*
G75*
G02*
X103400000Y-41225000I-50000J0D01*
G01*
X102800000Y-41225000D01*
G75*
G02*
X102750000Y-41175000I0J50000D01*
G01*
X102750000Y-39925000D01*
G75*
G02*
X102800000Y-39875000I50000J0D01*
G01*
X103400000Y-39875000D01*
G75*
G02*
X103450000Y-39925000I0J-50000D01*
G01*
G37*
G36*
G01*
X104405000Y-37825000D02*
X104405000Y-39075000D01*
G75*
G02*
X104355000Y-39125000I-50000J0D01*
G01*
X103755000Y-39125000D01*
G75*
G02*
X103705000Y-39075000I0J50000D01*
G01*
X103705000Y-37825000D01*
G75*
G02*
X103755000Y-37775000I50000J0D01*
G01*
X104355000Y-37775000D01*
G75*
G02*
X104405000Y-37825000I0J-50000D01*
G01*
G37*
G36*
G01*
X102495000Y-37825000D02*
X102495000Y-39075000D01*
G75*
G02*
X102445000Y-39125000I-50000J0D01*
G01*
X101845000Y-39125000D01*
G75*
G02*
X101795000Y-39075000I0J50000D01*
G01*
X101795000Y-37825000D01*
G75*
G02*
X101845000Y-37775000I50000J0D01*
G01*
X102445000Y-37775000D01*
G75*
G02*
X102495000Y-37825000I0J-50000D01*
G01*
G37*
%TD*%
%TO.C,Q25*%
G36*
G01*
X142350000Y-39925000D02*
X142350000Y-41175000D01*
G75*
G02*
X142300000Y-41225000I-50000J0D01*
G01*
X141700000Y-41225000D01*
G75*
G02*
X141650000Y-41175000I0J50000D01*
G01*
X141650000Y-39925000D01*
G75*
G02*
X141700000Y-39875000I50000J0D01*
G01*
X142300000Y-39875000D01*
G75*
G02*
X142350000Y-39925000I0J-50000D01*
G01*
G37*
G36*
G01*
X143305000Y-37825000D02*
X143305000Y-39075000D01*
G75*
G02*
X143255000Y-39125000I-50000J0D01*
G01*
X142655000Y-39125000D01*
G75*
G02*
X142605000Y-39075000I0J50000D01*
G01*
X142605000Y-37825000D01*
G75*
G02*
X142655000Y-37775000I50000J0D01*
G01*
X143255000Y-37775000D01*
G75*
G02*
X143305000Y-37825000I0J-50000D01*
G01*
G37*
G36*
G01*
X141395000Y-37825000D02*
X141395000Y-39075000D01*
G75*
G02*
X141345000Y-39125000I-50000J0D01*
G01*
X140745000Y-39125000D01*
G75*
G02*
X140695000Y-39075000I0J50000D01*
G01*
X140695000Y-37825000D01*
G75*
G02*
X140745000Y-37775000I50000J0D01*
G01*
X141345000Y-37775000D01*
G75*
G02*
X141395000Y-37825000I0J-50000D01*
G01*
G37*
%TD*%
%TO.C,Q24*%
G36*
G01*
X171125000Y-99850000D02*
X172375000Y-99850000D01*
G75*
G02*
X172425000Y-99900000I0J-50000D01*
G01*
X172425000Y-100500000D01*
G75*
G02*
X172375000Y-100550000I-50000J0D01*
G01*
X171125000Y-100550000D01*
G75*
G02*
X171075000Y-100500000I0J50000D01*
G01*
X171075000Y-99900000D01*
G75*
G02*
X171125000Y-99850000I50000J0D01*
G01*
G37*
G36*
G01*
X169025000Y-98895000D02*
X170275000Y-98895000D01*
G75*
G02*
X170325000Y-98945000I0J-50000D01*
G01*
X170325000Y-99545000D01*
G75*
G02*
X170275000Y-99595000I-50000J0D01*
G01*
X169025000Y-99595000D01*
G75*
G02*
X168975000Y-99545000I0J50000D01*
G01*
X168975000Y-98945000D01*
G75*
G02*
X169025000Y-98895000I50000J0D01*
G01*
G37*
G36*
G01*
X169025000Y-100805000D02*
X170275000Y-100805000D01*
G75*
G02*
X170325000Y-100855000I0J-50000D01*
G01*
X170325000Y-101455000D01*
G75*
G02*
X170275000Y-101505000I-50000J0D01*
G01*
X169025000Y-101505000D01*
G75*
G02*
X168975000Y-101455000I0J50000D01*
G01*
X168975000Y-100855000D01*
G75*
G02*
X169025000Y-100805000I50000J0D01*
G01*
G37*
%TD*%
%TO.C,Q23*%
G36*
G01*
X100975000Y-84950000D02*
X99725000Y-84950000D01*
G75*
G02*
X99675000Y-84900000I0J50000D01*
G01*
X99675000Y-84300000D01*
G75*
G02*
X99725000Y-84250000I50000J0D01*
G01*
X100975000Y-84250000D01*
G75*
G02*
X101025000Y-84300000I0J-50000D01*
G01*
X101025000Y-84900000D01*
G75*
G02*
X100975000Y-84950000I-50000J0D01*
G01*
G37*
G36*
G01*
X103075000Y-85905000D02*
X101825000Y-85905000D01*
G75*
G02*
X101775000Y-85855000I0J50000D01*
G01*
X101775000Y-85255000D01*
G75*
G02*
X101825000Y-85205000I50000J0D01*
G01*
X103075000Y-85205000D01*
G75*
G02*
X103125000Y-85255000I0J-50000D01*
G01*
X103125000Y-85855000D01*
G75*
G02*
X103075000Y-85905000I-50000J0D01*
G01*
G37*
G36*
G01*
X103075000Y-83995000D02*
X101825000Y-83995000D01*
G75*
G02*
X101775000Y-83945000I0J50000D01*
G01*
X101775000Y-83345000D01*
G75*
G02*
X101825000Y-83295000I50000J0D01*
G01*
X103075000Y-83295000D01*
G75*
G02*
X103125000Y-83345000I0J-50000D01*
G01*
X103125000Y-83945000D01*
G75*
G02*
X103075000Y-83995000I-50000J0D01*
G01*
G37*
%TD*%
%TO.C,Q22*%
G36*
G01*
X173450000Y-39925000D02*
X173450000Y-41175000D01*
G75*
G02*
X173400000Y-41225000I-50000J0D01*
G01*
X172800000Y-41225000D01*
G75*
G02*
X172750000Y-41175000I0J50000D01*
G01*
X172750000Y-39925000D01*
G75*
G02*
X172800000Y-39875000I50000J0D01*
G01*
X173400000Y-39875000D01*
G75*
G02*
X173450000Y-39925000I0J-50000D01*
G01*
G37*
G36*
G01*
X174405000Y-37825000D02*
X174405000Y-39075000D01*
G75*
G02*
X174355000Y-39125000I-50000J0D01*
G01*
X173755000Y-39125000D01*
G75*
G02*
X173705000Y-39075000I0J50000D01*
G01*
X173705000Y-37825000D01*
G75*
G02*
X173755000Y-37775000I50000J0D01*
G01*
X174355000Y-37775000D01*
G75*
G02*
X174405000Y-37825000I0J-50000D01*
G01*
G37*
G36*
G01*
X172495000Y-37825000D02*
X172495000Y-39075000D01*
G75*
G02*
X172445000Y-39125000I-50000J0D01*
G01*
X171845000Y-39125000D01*
G75*
G02*
X171795000Y-39075000I0J50000D01*
G01*
X171795000Y-37825000D01*
G75*
G02*
X171845000Y-37775000I50000J0D01*
G01*
X172445000Y-37775000D01*
G75*
G02*
X172495000Y-37825000I0J-50000D01*
G01*
G37*
%TD*%
%TO.C,Q21*%
G36*
G01*
X134550000Y-39925000D02*
X134550000Y-41175000D01*
G75*
G02*
X134500000Y-41225000I-50000J0D01*
G01*
X133900000Y-41225000D01*
G75*
G02*
X133850000Y-41175000I0J50000D01*
G01*
X133850000Y-39925000D01*
G75*
G02*
X133900000Y-39875000I50000J0D01*
G01*
X134500000Y-39875000D01*
G75*
G02*
X134550000Y-39925000I0J-50000D01*
G01*
G37*
G36*
G01*
X135505000Y-37825000D02*
X135505000Y-39075000D01*
G75*
G02*
X135455000Y-39125000I-50000J0D01*
G01*
X134855000Y-39125000D01*
G75*
G02*
X134805000Y-39075000I0J50000D01*
G01*
X134805000Y-37825000D01*
G75*
G02*
X134855000Y-37775000I50000J0D01*
G01*
X135455000Y-37775000D01*
G75*
G02*
X135505000Y-37825000I0J-50000D01*
G01*
G37*
G36*
G01*
X133595000Y-37825000D02*
X133595000Y-39075000D01*
G75*
G02*
X133545000Y-39125000I-50000J0D01*
G01*
X132945000Y-39125000D01*
G75*
G02*
X132895000Y-39075000I0J50000D01*
G01*
X132895000Y-37825000D01*
G75*
G02*
X132945000Y-37775000I50000J0D01*
G01*
X133545000Y-37775000D01*
G75*
G02*
X133595000Y-37825000I0J-50000D01*
G01*
G37*
%TD*%
%TO.C,Q20*%
G36*
G01*
X171125000Y-104750000D02*
X172375000Y-104750000D01*
G75*
G02*
X172425000Y-104800000I0J-50000D01*
G01*
X172425000Y-105400000D01*
G75*
G02*
X172375000Y-105450000I-50000J0D01*
G01*
X171125000Y-105450000D01*
G75*
G02*
X171075000Y-105400000I0J50000D01*
G01*
X171075000Y-104800000D01*
G75*
G02*
X171125000Y-104750000I50000J0D01*
G01*
G37*
G36*
G01*
X169025000Y-103795000D02*
X170275000Y-103795000D01*
G75*
G02*
X170325000Y-103845000I0J-50000D01*
G01*
X170325000Y-104445000D01*
G75*
G02*
X170275000Y-104495000I-50000J0D01*
G01*
X169025000Y-104495000D01*
G75*
G02*
X168975000Y-104445000I0J50000D01*
G01*
X168975000Y-103845000D01*
G75*
G02*
X169025000Y-103795000I50000J0D01*
G01*
G37*
G36*
G01*
X169025000Y-105705000D02*
X170275000Y-105705000D01*
G75*
G02*
X170325000Y-105755000I0J-50000D01*
G01*
X170325000Y-106355000D01*
G75*
G02*
X170275000Y-106405000I-50000J0D01*
G01*
X169025000Y-106405000D01*
G75*
G02*
X168975000Y-106355000I0J50000D01*
G01*
X168975000Y-105755000D01*
G75*
G02*
X169025000Y-105705000I50000J0D01*
G01*
G37*
%TD*%
%TO.C,Q19*%
G36*
G01*
X100975000Y-78950000D02*
X99725000Y-78950000D01*
G75*
G02*
X99675000Y-78900000I0J50000D01*
G01*
X99675000Y-78300000D01*
G75*
G02*
X99725000Y-78250000I50000J0D01*
G01*
X100975000Y-78250000D01*
G75*
G02*
X101025000Y-78300000I0J-50000D01*
G01*
X101025000Y-78900000D01*
G75*
G02*
X100975000Y-78950000I-50000J0D01*
G01*
G37*
G36*
G01*
X103075000Y-79905000D02*
X101825000Y-79905000D01*
G75*
G02*
X101775000Y-79855000I0J50000D01*
G01*
X101775000Y-79255000D01*
G75*
G02*
X101825000Y-79205000I50000J0D01*
G01*
X103075000Y-79205000D01*
G75*
G02*
X103125000Y-79255000I0J-50000D01*
G01*
X103125000Y-79855000D01*
G75*
G02*
X103075000Y-79905000I-50000J0D01*
G01*
G37*
G36*
G01*
X103075000Y-77995000D02*
X101825000Y-77995000D01*
G75*
G02*
X101775000Y-77945000I0J50000D01*
G01*
X101775000Y-77345000D01*
G75*
G02*
X101825000Y-77295000I50000J0D01*
G01*
X103075000Y-77295000D01*
G75*
G02*
X103125000Y-77345000I0J-50000D01*
G01*
X103125000Y-77945000D01*
G75*
G02*
X103075000Y-77995000I-50000J0D01*
G01*
G37*
%TD*%
%TO.C,Q18*%
G36*
G01*
X100975000Y-116550000D02*
X99725000Y-116550000D01*
G75*
G02*
X99675000Y-116500000I0J50000D01*
G01*
X99675000Y-115900000D01*
G75*
G02*
X99725000Y-115850000I50000J0D01*
G01*
X100975000Y-115850000D01*
G75*
G02*
X101025000Y-115900000I0J-50000D01*
G01*
X101025000Y-116500000D01*
G75*
G02*
X100975000Y-116550000I-50000J0D01*
G01*
G37*
G36*
G01*
X103075000Y-117505000D02*
X101825000Y-117505000D01*
G75*
G02*
X101775000Y-117455000I0J50000D01*
G01*
X101775000Y-116855000D01*
G75*
G02*
X101825000Y-116805000I50000J0D01*
G01*
X103075000Y-116805000D01*
G75*
G02*
X103125000Y-116855000I0J-50000D01*
G01*
X103125000Y-117455000D01*
G75*
G02*
X103075000Y-117505000I-50000J0D01*
G01*
G37*
G36*
G01*
X103075000Y-115595000D02*
X101825000Y-115595000D01*
G75*
G02*
X101775000Y-115545000I0J50000D01*
G01*
X101775000Y-114945000D01*
G75*
G02*
X101825000Y-114895000I50000J0D01*
G01*
X103075000Y-114895000D01*
G75*
G02*
X103125000Y-114945000I0J-50000D01*
G01*
X103125000Y-115545000D01*
G75*
G02*
X103075000Y-115595000I-50000J0D01*
G01*
G37*
%TD*%
%TO.C,Q17*%
G36*
G01*
X100975000Y-68550000D02*
X99725000Y-68550000D01*
G75*
G02*
X99675000Y-68500000I0J50000D01*
G01*
X99675000Y-67900000D01*
G75*
G02*
X99725000Y-67850000I50000J0D01*
G01*
X100975000Y-67850000D01*
G75*
G02*
X101025000Y-67900000I0J-50000D01*
G01*
X101025000Y-68500000D01*
G75*
G02*
X100975000Y-68550000I-50000J0D01*
G01*
G37*
G36*
G01*
X103075000Y-69505000D02*
X101825000Y-69505000D01*
G75*
G02*
X101775000Y-69455000I0J50000D01*
G01*
X101775000Y-68855000D01*
G75*
G02*
X101825000Y-68805000I50000J0D01*
G01*
X103075000Y-68805000D01*
G75*
G02*
X103125000Y-68855000I0J-50000D01*
G01*
X103125000Y-69455000D01*
G75*
G02*
X103075000Y-69505000I-50000J0D01*
G01*
G37*
G36*
G01*
X103075000Y-67595000D02*
X101825000Y-67595000D01*
G75*
G02*
X101775000Y-67545000I0J50000D01*
G01*
X101775000Y-66945000D01*
G75*
G02*
X101825000Y-66895000I50000J0D01*
G01*
X103075000Y-66895000D01*
G75*
G02*
X103125000Y-66945000I0J-50000D01*
G01*
X103125000Y-67545000D01*
G75*
G02*
X103075000Y-67595000I-50000J0D01*
G01*
G37*
%TD*%
%TO.C,Q16*%
G36*
G01*
X165550000Y-39925000D02*
X165550000Y-41175000D01*
G75*
G02*
X165500000Y-41225000I-50000J0D01*
G01*
X164900000Y-41225000D01*
G75*
G02*
X164850000Y-41175000I0J50000D01*
G01*
X164850000Y-39925000D01*
G75*
G02*
X164900000Y-39875000I50000J0D01*
G01*
X165500000Y-39875000D01*
G75*
G02*
X165550000Y-39925000I0J-50000D01*
G01*
G37*
G36*
G01*
X166505000Y-37825000D02*
X166505000Y-39075000D01*
G75*
G02*
X166455000Y-39125000I-50000J0D01*
G01*
X165855000Y-39125000D01*
G75*
G02*
X165805000Y-39075000I0J50000D01*
G01*
X165805000Y-37825000D01*
G75*
G02*
X165855000Y-37775000I50000J0D01*
G01*
X166455000Y-37775000D01*
G75*
G02*
X166505000Y-37825000I0J-50000D01*
G01*
G37*
G36*
G01*
X164595000Y-37825000D02*
X164595000Y-39075000D01*
G75*
G02*
X164545000Y-39125000I-50000J0D01*
G01*
X163945000Y-39125000D01*
G75*
G02*
X163895000Y-39075000I0J50000D01*
G01*
X163895000Y-37825000D01*
G75*
G02*
X163945000Y-37775000I50000J0D01*
G01*
X164545000Y-37775000D01*
G75*
G02*
X164595000Y-37825000I0J-50000D01*
G01*
G37*
%TD*%
%TO.C,Q15*%
G36*
G01*
X126750000Y-39925000D02*
X126750000Y-41175000D01*
G75*
G02*
X126700000Y-41225000I-50000J0D01*
G01*
X126100000Y-41225000D01*
G75*
G02*
X126050000Y-41175000I0J50000D01*
G01*
X126050000Y-39925000D01*
G75*
G02*
X126100000Y-39875000I50000J0D01*
G01*
X126700000Y-39875000D01*
G75*
G02*
X126750000Y-39925000I0J-50000D01*
G01*
G37*
G36*
G01*
X127705000Y-37825000D02*
X127705000Y-39075000D01*
G75*
G02*
X127655000Y-39125000I-50000J0D01*
G01*
X127055000Y-39125000D01*
G75*
G02*
X127005000Y-39075000I0J50000D01*
G01*
X127005000Y-37825000D01*
G75*
G02*
X127055000Y-37775000I50000J0D01*
G01*
X127655000Y-37775000D01*
G75*
G02*
X127705000Y-37825000I0J-50000D01*
G01*
G37*
G36*
G01*
X125795000Y-37825000D02*
X125795000Y-39075000D01*
G75*
G02*
X125745000Y-39125000I-50000J0D01*
G01*
X125145000Y-39125000D01*
G75*
G02*
X125095000Y-39075000I0J50000D01*
G01*
X125095000Y-37825000D01*
G75*
G02*
X125145000Y-37775000I50000J0D01*
G01*
X125745000Y-37775000D01*
G75*
G02*
X125795000Y-37825000I0J-50000D01*
G01*
G37*
%TD*%
%TO.C,Q14*%
G36*
G01*
X171125000Y-89950000D02*
X172375000Y-89950000D01*
G75*
G02*
X172425000Y-90000000I0J-50000D01*
G01*
X172425000Y-90600000D01*
G75*
G02*
X172375000Y-90650000I-50000J0D01*
G01*
X171125000Y-90650000D01*
G75*
G02*
X171075000Y-90600000I0J50000D01*
G01*
X171075000Y-90000000D01*
G75*
G02*
X171125000Y-89950000I50000J0D01*
G01*
G37*
G36*
G01*
X169025000Y-88995000D02*
X170275000Y-88995000D01*
G75*
G02*
X170325000Y-89045000I0J-50000D01*
G01*
X170325000Y-89645000D01*
G75*
G02*
X170275000Y-89695000I-50000J0D01*
G01*
X169025000Y-89695000D01*
G75*
G02*
X168975000Y-89645000I0J50000D01*
G01*
X168975000Y-89045000D01*
G75*
G02*
X169025000Y-88995000I50000J0D01*
G01*
G37*
G36*
G01*
X169025000Y-90905000D02*
X170275000Y-90905000D01*
G75*
G02*
X170325000Y-90955000I0J-50000D01*
G01*
X170325000Y-91555000D01*
G75*
G02*
X170275000Y-91605000I-50000J0D01*
G01*
X169025000Y-91605000D01*
G75*
G02*
X168975000Y-91555000I0J50000D01*
G01*
X168975000Y-90955000D01*
G75*
G02*
X169025000Y-90905000I50000J0D01*
G01*
G37*
%TD*%
%TO.C,Q13*%
G36*
G01*
X100975000Y-96450000D02*
X99725000Y-96450000D01*
G75*
G02*
X99675000Y-96400000I0J50000D01*
G01*
X99675000Y-95800000D01*
G75*
G02*
X99725000Y-95750000I50000J0D01*
G01*
X100975000Y-95750000D01*
G75*
G02*
X101025000Y-95800000I0J-50000D01*
G01*
X101025000Y-96400000D01*
G75*
G02*
X100975000Y-96450000I-50000J0D01*
G01*
G37*
G36*
G01*
X103075000Y-97405000D02*
X101825000Y-97405000D01*
G75*
G02*
X101775000Y-97355000I0J50000D01*
G01*
X101775000Y-96755000D01*
G75*
G02*
X101825000Y-96705000I50000J0D01*
G01*
X103075000Y-96705000D01*
G75*
G02*
X103125000Y-96755000I0J-50000D01*
G01*
X103125000Y-97355000D01*
G75*
G02*
X103075000Y-97405000I-50000J0D01*
G01*
G37*
G36*
G01*
X103075000Y-95495000D02*
X101825000Y-95495000D01*
G75*
G02*
X101775000Y-95445000I0J50000D01*
G01*
X101775000Y-94845000D01*
G75*
G02*
X101825000Y-94795000I50000J0D01*
G01*
X103075000Y-94795000D01*
G75*
G02*
X103125000Y-94845000I0J-50000D01*
G01*
X103125000Y-95445000D01*
G75*
G02*
X103075000Y-95495000I-50000J0D01*
G01*
G37*
%TD*%
%TO.C,Q12*%
G36*
G01*
X171125000Y-109850000D02*
X172375000Y-109850000D01*
G75*
G02*
X172425000Y-109900000I0J-50000D01*
G01*
X172425000Y-110500000D01*
G75*
G02*
X172375000Y-110550000I-50000J0D01*
G01*
X171125000Y-110550000D01*
G75*
G02*
X171075000Y-110500000I0J50000D01*
G01*
X171075000Y-109900000D01*
G75*
G02*
X171125000Y-109850000I50000J0D01*
G01*
G37*
G36*
G01*
X169025000Y-108895000D02*
X170275000Y-108895000D01*
G75*
G02*
X170325000Y-108945000I0J-50000D01*
G01*
X170325000Y-109545000D01*
G75*
G02*
X170275000Y-109595000I-50000J0D01*
G01*
X169025000Y-109595000D01*
G75*
G02*
X168975000Y-109545000I0J50000D01*
G01*
X168975000Y-108945000D01*
G75*
G02*
X169025000Y-108895000I50000J0D01*
G01*
G37*
G36*
G01*
X169025000Y-110805000D02*
X170275000Y-110805000D01*
G75*
G02*
X170325000Y-110855000I0J-50000D01*
G01*
X170325000Y-111455000D01*
G75*
G02*
X170275000Y-111505000I-50000J0D01*
G01*
X169025000Y-111505000D01*
G75*
G02*
X168975000Y-111455000I0J50000D01*
G01*
X168975000Y-110855000D01*
G75*
G02*
X169025000Y-110805000I50000J0D01*
G01*
G37*
%TD*%
%TO.C,Q11*%
G36*
G01*
X100975000Y-73950000D02*
X99725000Y-73950000D01*
G75*
G02*
X99675000Y-73900000I0J50000D01*
G01*
X99675000Y-73300000D01*
G75*
G02*
X99725000Y-73250000I50000J0D01*
G01*
X100975000Y-73250000D01*
G75*
G02*
X101025000Y-73300000I0J-50000D01*
G01*
X101025000Y-73900000D01*
G75*
G02*
X100975000Y-73950000I-50000J0D01*
G01*
G37*
G36*
G01*
X103075000Y-74905000D02*
X101825000Y-74905000D01*
G75*
G02*
X101775000Y-74855000I0J50000D01*
G01*
X101775000Y-74255000D01*
G75*
G02*
X101825000Y-74205000I50000J0D01*
G01*
X103075000Y-74205000D01*
G75*
G02*
X103125000Y-74255000I0J-50000D01*
G01*
X103125000Y-74855000D01*
G75*
G02*
X103075000Y-74905000I-50000J0D01*
G01*
G37*
G36*
G01*
X103075000Y-72995000D02*
X101825000Y-72995000D01*
G75*
G02*
X101775000Y-72945000I0J50000D01*
G01*
X101775000Y-72345000D01*
G75*
G02*
X101825000Y-72295000I50000J0D01*
G01*
X103075000Y-72295000D01*
G75*
G02*
X103125000Y-72345000I0J-50000D01*
G01*
X103125000Y-72945000D01*
G75*
G02*
X103075000Y-72995000I-50000J0D01*
G01*
G37*
%TD*%
%TO.C,Q10*%
G36*
G01*
X100975000Y-111450000D02*
X99725000Y-111450000D01*
G75*
G02*
X99675000Y-111400000I0J50000D01*
G01*
X99675000Y-110800000D01*
G75*
G02*
X99725000Y-110750000I50000J0D01*
G01*
X100975000Y-110750000D01*
G75*
G02*
X101025000Y-110800000I0J-50000D01*
G01*
X101025000Y-111400000D01*
G75*
G02*
X100975000Y-111450000I-50000J0D01*
G01*
G37*
G36*
G01*
X103075000Y-112405000D02*
X101825000Y-112405000D01*
G75*
G02*
X101775000Y-112355000I0J50000D01*
G01*
X101775000Y-111755000D01*
G75*
G02*
X101825000Y-111705000I50000J0D01*
G01*
X103075000Y-111705000D01*
G75*
G02*
X103125000Y-111755000I0J-50000D01*
G01*
X103125000Y-112355000D01*
G75*
G02*
X103075000Y-112405000I-50000J0D01*
G01*
G37*
G36*
G01*
X103075000Y-110495000D02*
X101825000Y-110495000D01*
G75*
G02*
X101775000Y-110445000I0J50000D01*
G01*
X101775000Y-109845000D01*
G75*
G02*
X101825000Y-109795000I50000J0D01*
G01*
X103075000Y-109795000D01*
G75*
G02*
X103125000Y-109845000I0J-50000D01*
G01*
X103125000Y-110445000D01*
G75*
G02*
X103075000Y-110495000I-50000J0D01*
G01*
G37*
%TD*%
%TO.C,Q9*%
G36*
G01*
X100975000Y-62350000D02*
X99725000Y-62350000D01*
G75*
G02*
X99675000Y-62300000I0J50000D01*
G01*
X99675000Y-61700000D01*
G75*
G02*
X99725000Y-61650000I50000J0D01*
G01*
X100975000Y-61650000D01*
G75*
G02*
X101025000Y-61700000I0J-50000D01*
G01*
X101025000Y-62300000D01*
G75*
G02*
X100975000Y-62350000I-50000J0D01*
G01*
G37*
G36*
G01*
X103075000Y-63305000D02*
X101825000Y-63305000D01*
G75*
G02*
X101775000Y-63255000I0J50000D01*
G01*
X101775000Y-62655000D01*
G75*
G02*
X101825000Y-62605000I50000J0D01*
G01*
X103075000Y-62605000D01*
G75*
G02*
X103125000Y-62655000I0J-50000D01*
G01*
X103125000Y-63255000D01*
G75*
G02*
X103075000Y-63305000I-50000J0D01*
G01*
G37*
G36*
G01*
X103075000Y-61395000D02*
X101825000Y-61395000D01*
G75*
G02*
X101775000Y-61345000I0J50000D01*
G01*
X101775000Y-60745000D01*
G75*
G02*
X101825000Y-60695000I50000J0D01*
G01*
X103075000Y-60695000D01*
G75*
G02*
X103125000Y-60745000I0J-50000D01*
G01*
X103125000Y-61345000D01*
G75*
G02*
X103075000Y-61395000I-50000J0D01*
G01*
G37*
%TD*%
%TO.C,Q8*%
G36*
G01*
X157750000Y-39925000D02*
X157750000Y-41175000D01*
G75*
G02*
X157700000Y-41225000I-50000J0D01*
G01*
X157100000Y-41225000D01*
G75*
G02*
X157050000Y-41175000I0J50000D01*
G01*
X157050000Y-39925000D01*
G75*
G02*
X157100000Y-39875000I50000J0D01*
G01*
X157700000Y-39875000D01*
G75*
G02*
X157750000Y-39925000I0J-50000D01*
G01*
G37*
G36*
G01*
X158705000Y-37825000D02*
X158705000Y-39075000D01*
G75*
G02*
X158655000Y-39125000I-50000J0D01*
G01*
X158055000Y-39125000D01*
G75*
G02*
X158005000Y-39075000I0J50000D01*
G01*
X158005000Y-37825000D01*
G75*
G02*
X158055000Y-37775000I50000J0D01*
G01*
X158655000Y-37775000D01*
G75*
G02*
X158705000Y-37825000I0J-50000D01*
G01*
G37*
G36*
G01*
X156795000Y-37825000D02*
X156795000Y-39075000D01*
G75*
G02*
X156745000Y-39125000I-50000J0D01*
G01*
X156145000Y-39125000D01*
G75*
G02*
X156095000Y-39075000I0J50000D01*
G01*
X156095000Y-37825000D01*
G75*
G02*
X156145000Y-37775000I50000J0D01*
G01*
X156745000Y-37775000D01*
G75*
G02*
X156795000Y-37825000I0J-50000D01*
G01*
G37*
%TD*%
%TO.C,Q7*%
G36*
G01*
X118850000Y-39925000D02*
X118850000Y-41175000D01*
G75*
G02*
X118800000Y-41225000I-50000J0D01*
G01*
X118200000Y-41225000D01*
G75*
G02*
X118150000Y-41175000I0J50000D01*
G01*
X118150000Y-39925000D01*
G75*
G02*
X118200000Y-39875000I50000J0D01*
G01*
X118800000Y-39875000D01*
G75*
G02*
X118850000Y-39925000I0J-50000D01*
G01*
G37*
G36*
G01*
X119805000Y-37825000D02*
X119805000Y-39075000D01*
G75*
G02*
X119755000Y-39125000I-50000J0D01*
G01*
X119155000Y-39125000D01*
G75*
G02*
X119105000Y-39075000I0J50000D01*
G01*
X119105000Y-37825000D01*
G75*
G02*
X119155000Y-37775000I50000J0D01*
G01*
X119755000Y-37775000D01*
G75*
G02*
X119805000Y-37825000I0J-50000D01*
G01*
G37*
G36*
G01*
X117895000Y-37825000D02*
X117895000Y-39075000D01*
G75*
G02*
X117845000Y-39125000I-50000J0D01*
G01*
X117245000Y-39125000D01*
G75*
G02*
X117195000Y-39075000I0J50000D01*
G01*
X117195000Y-37825000D01*
G75*
G02*
X117245000Y-37775000I50000J0D01*
G01*
X117845000Y-37775000D01*
G75*
G02*
X117895000Y-37825000I0J-50000D01*
G01*
G37*
%TD*%
%TO.C,Q6*%
G36*
G01*
X100975000Y-106350000D02*
X99725000Y-106350000D01*
G75*
G02*
X99675000Y-106300000I0J50000D01*
G01*
X99675000Y-105700000D01*
G75*
G02*
X99725000Y-105650000I50000J0D01*
G01*
X100975000Y-105650000D01*
G75*
G02*
X101025000Y-105700000I0J-50000D01*
G01*
X101025000Y-106300000D01*
G75*
G02*
X100975000Y-106350000I-50000J0D01*
G01*
G37*
G36*
G01*
X103075000Y-107305000D02*
X101825000Y-107305000D01*
G75*
G02*
X101775000Y-107255000I0J50000D01*
G01*
X101775000Y-106655000D01*
G75*
G02*
X101825000Y-106605000I50000J0D01*
G01*
X103075000Y-106605000D01*
G75*
G02*
X103125000Y-106655000I0J-50000D01*
G01*
X103125000Y-107255000D01*
G75*
G02*
X103075000Y-107305000I-50000J0D01*
G01*
G37*
G36*
G01*
X103075000Y-105395000D02*
X101825000Y-105395000D01*
G75*
G02*
X101775000Y-105345000I0J50000D01*
G01*
X101775000Y-104745000D01*
G75*
G02*
X101825000Y-104695000I50000J0D01*
G01*
X103075000Y-104695000D01*
G75*
G02*
X103125000Y-104745000I0J-50000D01*
G01*
X103125000Y-105345000D01*
G75*
G02*
X103075000Y-105395000I-50000J0D01*
G01*
G37*
%TD*%
%TO.C,Q5*%
G36*
G01*
X100975000Y-56705000D02*
X99725000Y-56705000D01*
G75*
G02*
X99675000Y-56655000I0J50000D01*
G01*
X99675000Y-56055000D01*
G75*
G02*
X99725000Y-56005000I50000J0D01*
G01*
X100975000Y-56005000D01*
G75*
G02*
X101025000Y-56055000I0J-50000D01*
G01*
X101025000Y-56655000D01*
G75*
G02*
X100975000Y-56705000I-50000J0D01*
G01*
G37*
G36*
G01*
X103075000Y-57660000D02*
X101825000Y-57660000D01*
G75*
G02*
X101775000Y-57610000I0J50000D01*
G01*
X101775000Y-57010000D01*
G75*
G02*
X101825000Y-56960000I50000J0D01*
G01*
X103075000Y-56960000D01*
G75*
G02*
X103125000Y-57010000I0J-50000D01*
G01*
X103125000Y-57610000D01*
G75*
G02*
X103075000Y-57660000I-50000J0D01*
G01*
G37*
G36*
G01*
X103075000Y-55750000D02*
X101825000Y-55750000D01*
G75*
G02*
X101775000Y-55700000I0J50000D01*
G01*
X101775000Y-55100000D01*
G75*
G02*
X101825000Y-55050000I50000J0D01*
G01*
X103075000Y-55050000D01*
G75*
G02*
X103125000Y-55100000I0J-50000D01*
G01*
X103125000Y-55700000D01*
G75*
G02*
X103075000Y-55750000I-50000J0D01*
G01*
G37*
%TD*%
%TO.C,Q4*%
G36*
G01*
X149950000Y-39925000D02*
X149950000Y-41175000D01*
G75*
G02*
X149900000Y-41225000I-50000J0D01*
G01*
X149300000Y-41225000D01*
G75*
G02*
X149250000Y-41175000I0J50000D01*
G01*
X149250000Y-39925000D01*
G75*
G02*
X149300000Y-39875000I50000J0D01*
G01*
X149900000Y-39875000D01*
G75*
G02*
X149950000Y-39925000I0J-50000D01*
G01*
G37*
G36*
G01*
X150905000Y-37825000D02*
X150905000Y-39075000D01*
G75*
G02*
X150855000Y-39125000I-50000J0D01*
G01*
X150255000Y-39125000D01*
G75*
G02*
X150205000Y-39075000I0J50000D01*
G01*
X150205000Y-37825000D01*
G75*
G02*
X150255000Y-37775000I50000J0D01*
G01*
X150855000Y-37775000D01*
G75*
G02*
X150905000Y-37825000I0J-50000D01*
G01*
G37*
G36*
G01*
X148995000Y-37825000D02*
X148995000Y-39075000D01*
G75*
G02*
X148945000Y-39125000I-50000J0D01*
G01*
X148345000Y-39125000D01*
G75*
G02*
X148295000Y-39075000I0J50000D01*
G01*
X148295000Y-37825000D01*
G75*
G02*
X148345000Y-37775000I50000J0D01*
G01*
X148945000Y-37775000D01*
G75*
G02*
X148995000Y-37825000I0J-50000D01*
G01*
G37*
%TD*%
%TO.C,Q3*%
G36*
G01*
X110850000Y-39925000D02*
X110850000Y-41175000D01*
G75*
G02*
X110800000Y-41225000I-50000J0D01*
G01*
X110200000Y-41225000D01*
G75*
G02*
X110150000Y-41175000I0J50000D01*
G01*
X110150000Y-39925000D01*
G75*
G02*
X110200000Y-39875000I50000J0D01*
G01*
X110800000Y-39875000D01*
G75*
G02*
X110850000Y-39925000I0J-50000D01*
G01*
G37*
G36*
G01*
X111805000Y-37825000D02*
X111805000Y-39075000D01*
G75*
G02*
X111755000Y-39125000I-50000J0D01*
G01*
X111155000Y-39125000D01*
G75*
G02*
X111105000Y-39075000I0J50000D01*
G01*
X111105000Y-37825000D01*
G75*
G02*
X111155000Y-37775000I50000J0D01*
G01*
X111755000Y-37775000D01*
G75*
G02*
X111805000Y-37825000I0J-50000D01*
G01*
G37*
G36*
G01*
X109895000Y-37825000D02*
X109895000Y-39075000D01*
G75*
G02*
X109845000Y-39125000I-50000J0D01*
G01*
X109245000Y-39125000D01*
G75*
G02*
X109195000Y-39075000I0J50000D01*
G01*
X109195000Y-37825000D01*
G75*
G02*
X109245000Y-37775000I50000J0D01*
G01*
X109845000Y-37775000D01*
G75*
G02*
X109895000Y-37825000I0J-50000D01*
G01*
G37*
%TD*%
%TO.C,Q2*%
G36*
G01*
X100975000Y-101350000D02*
X99725000Y-101350000D01*
G75*
G02*
X99675000Y-101300000I0J50000D01*
G01*
X99675000Y-100700000D01*
G75*
G02*
X99725000Y-100650000I50000J0D01*
G01*
X100975000Y-100650000D01*
G75*
G02*
X101025000Y-100700000I0J-50000D01*
G01*
X101025000Y-101300000D01*
G75*
G02*
X100975000Y-101350000I-50000J0D01*
G01*
G37*
G36*
G01*
X103075000Y-102305000D02*
X101825000Y-102305000D01*
G75*
G02*
X101775000Y-102255000I0J50000D01*
G01*
X101775000Y-101655000D01*
G75*
G02*
X101825000Y-101605000I50000J0D01*
G01*
X103075000Y-101605000D01*
G75*
G02*
X103125000Y-101655000I0J-50000D01*
G01*
X103125000Y-102255000D01*
G75*
G02*
X103075000Y-102305000I-50000J0D01*
G01*
G37*
G36*
G01*
X103075000Y-100395000D02*
X101825000Y-100395000D01*
G75*
G02*
X101775000Y-100345000I0J50000D01*
G01*
X101775000Y-99745000D01*
G75*
G02*
X101825000Y-99695000I50000J0D01*
G01*
X103075000Y-99695000D01*
G75*
G02*
X103125000Y-99745000I0J-50000D01*
G01*
X103125000Y-100345000D01*
G75*
G02*
X103075000Y-100395000I-50000J0D01*
G01*
G37*
%TD*%
%TO.C,Q1*%
G36*
G01*
X100975000Y-51250000D02*
X99725000Y-51250000D01*
G75*
G02*
X99675000Y-51200000I0J50000D01*
G01*
X99675000Y-50600000D01*
G75*
G02*
X99725000Y-50550000I50000J0D01*
G01*
X100975000Y-50550000D01*
G75*
G02*
X101025000Y-50600000I0J-50000D01*
G01*
X101025000Y-51200000D01*
G75*
G02*
X100975000Y-51250000I-50000J0D01*
G01*
G37*
G36*
G01*
X103075000Y-52205000D02*
X101825000Y-52205000D01*
G75*
G02*
X101775000Y-52155000I0J50000D01*
G01*
X101775000Y-51555000D01*
G75*
G02*
X101825000Y-51505000I50000J0D01*
G01*
X103075000Y-51505000D01*
G75*
G02*
X103125000Y-51555000I0J-50000D01*
G01*
X103125000Y-52155000D01*
G75*
G02*
X103075000Y-52205000I-50000J0D01*
G01*
G37*
G36*
G01*
X103075000Y-50295000D02*
X101825000Y-50295000D01*
G75*
G02*
X101775000Y-50245000I0J50000D01*
G01*
X101775000Y-49645000D01*
G75*
G02*
X101825000Y-49595000I50000J0D01*
G01*
X103075000Y-49595000D01*
G75*
G02*
X103125000Y-49645000I0J-50000D01*
G01*
X103125000Y-50245000D01*
G75*
G02*
X103075000Y-50295000I-50000J0D01*
G01*
G37*
%TD*%
D13*
%TO.C,PicKit1*%
X173180000Y-152980000D03*
X173180000Y-150440000D03*
X173180000Y-147900000D03*
X173180000Y-145360000D03*
X173180000Y-142820000D03*
G36*
G01*
X172267500Y-141142500D02*
X172267500Y-139417500D01*
G75*
G02*
X172317500Y-139367500I50000J0D01*
G01*
X174042500Y-139367500D01*
G75*
G02*
X174092500Y-139417500I0J-50000D01*
G01*
X174092500Y-141142500D01*
G75*
G02*
X174042500Y-141192500I-50000J0D01*
G01*
X172317500Y-141192500D01*
G75*
G02*
X172267500Y-141142500I0J50000D01*
G01*
G37*
%TD*%
%TO.C,PIC18F45K50*%
G36*
G01*
X146175500Y-115450000D02*
X144700500Y-115450000D01*
G75*
G02*
X144650500Y-115400000I0J50000D01*
G01*
X144650500Y-114800000D01*
G75*
G02*
X144700500Y-114750000I50000J0D01*
G01*
X146175500Y-114750000D01*
G75*
G02*
X146225500Y-114800000I0J-50000D01*
G01*
X146225500Y-115400000D01*
G75*
G02*
X146175500Y-115450000I-50000J0D01*
G01*
G37*
G36*
G01*
X146175500Y-114650000D02*
X144700500Y-114650000D01*
G75*
G02*
X144650500Y-114600000I0J50000D01*
G01*
X144650500Y-114000000D01*
G75*
G02*
X144700500Y-113950000I50000J0D01*
G01*
X146175500Y-113950000D01*
G75*
G02*
X146225500Y-114000000I0J-50000D01*
G01*
X146225500Y-114600000D01*
G75*
G02*
X146175500Y-114650000I-50000J0D01*
G01*
G37*
G36*
G01*
X146175500Y-113850000D02*
X144700500Y-113850000D01*
G75*
G02*
X144650500Y-113800000I0J50000D01*
G01*
X144650500Y-113200000D01*
G75*
G02*
X144700500Y-113150000I50000J0D01*
G01*
X146175500Y-113150000D01*
G75*
G02*
X146225500Y-113200000I0J-50000D01*
G01*
X146225500Y-113800000D01*
G75*
G02*
X146175500Y-113850000I-50000J0D01*
G01*
G37*
G36*
G01*
X146175500Y-113050000D02*
X144700500Y-113050000D01*
G75*
G02*
X144650500Y-113000000I0J50000D01*
G01*
X144650500Y-112400000D01*
G75*
G02*
X144700500Y-112350000I50000J0D01*
G01*
X146175500Y-112350000D01*
G75*
G02*
X146225500Y-112400000I0J-50000D01*
G01*
X146225500Y-113000000D01*
G75*
G02*
X146175500Y-113050000I-50000J0D01*
G01*
G37*
G36*
G01*
X146175500Y-112250000D02*
X144700500Y-112250000D01*
G75*
G02*
X144650500Y-112200000I0J50000D01*
G01*
X144650500Y-111600000D01*
G75*
G02*
X144700500Y-111550000I50000J0D01*
G01*
X146175500Y-111550000D01*
G75*
G02*
X146225500Y-111600000I0J-50000D01*
G01*
X146225500Y-112200000D01*
G75*
G02*
X146175500Y-112250000I-50000J0D01*
G01*
G37*
G36*
G01*
X146175500Y-111450000D02*
X144700500Y-111450000D01*
G75*
G02*
X144650500Y-111400000I0J50000D01*
G01*
X144650500Y-110800000D01*
G75*
G02*
X144700500Y-110750000I50000J0D01*
G01*
X146175500Y-110750000D01*
G75*
G02*
X146225500Y-110800000I0J-50000D01*
G01*
X146225500Y-111400000D01*
G75*
G02*
X146175500Y-111450000I-50000J0D01*
G01*
G37*
G36*
G01*
X146175500Y-110650000D02*
X144700500Y-110650000D01*
G75*
G02*
X144650500Y-110600000I0J50000D01*
G01*
X144650500Y-110000000D01*
G75*
G02*
X144700500Y-109950000I50000J0D01*
G01*
X146175500Y-109950000D01*
G75*
G02*
X146225500Y-110000000I0J-50000D01*
G01*
X146225500Y-110600000D01*
G75*
G02*
X146175500Y-110650000I-50000J0D01*
G01*
G37*
G36*
G01*
X146175500Y-109850000D02*
X144700500Y-109850000D01*
G75*
G02*
X144650500Y-109800000I0J50000D01*
G01*
X144650500Y-109200000D01*
G75*
G02*
X144700500Y-109150000I50000J0D01*
G01*
X146175500Y-109150000D01*
G75*
G02*
X146225500Y-109200000I0J-50000D01*
G01*
X146225500Y-109800000D01*
G75*
G02*
X146175500Y-109850000I-50000J0D01*
G01*
G37*
G36*
G01*
X146175500Y-109050000D02*
X144700500Y-109050000D01*
G75*
G02*
X144650500Y-109000000I0J50000D01*
G01*
X144650500Y-108400000D01*
G75*
G02*
X144700500Y-108350000I50000J0D01*
G01*
X146175500Y-108350000D01*
G75*
G02*
X146225500Y-108400000I0J-50000D01*
G01*
X146225500Y-109000000D01*
G75*
G02*
X146175500Y-109050000I-50000J0D01*
G01*
G37*
G36*
G01*
X146175500Y-108250000D02*
X144700500Y-108250000D01*
G75*
G02*
X144650500Y-108200000I0J50000D01*
G01*
X144650500Y-107600000D01*
G75*
G02*
X144700500Y-107550000I50000J0D01*
G01*
X146175500Y-107550000D01*
G75*
G02*
X146225500Y-107600000I0J-50000D01*
G01*
X146225500Y-108200000D01*
G75*
G02*
X146175500Y-108250000I-50000J0D01*
G01*
G37*
G36*
G01*
X146175500Y-107450000D02*
X144700500Y-107450000D01*
G75*
G02*
X144650500Y-107400000I0J50000D01*
G01*
X144650500Y-106800000D01*
G75*
G02*
X144700500Y-106750000I50000J0D01*
G01*
X146175500Y-106750000D01*
G75*
G02*
X146225500Y-106800000I0J-50000D01*
G01*
X146225500Y-107400000D01*
G75*
G02*
X146175500Y-107450000I-50000J0D01*
G01*
G37*
G36*
G01*
X143350000Y-106099500D02*
X143350000Y-104624500D01*
G75*
G02*
X143400000Y-104574500I50000J0D01*
G01*
X144000000Y-104574500D01*
G75*
G02*
X144050000Y-104624500I0J-50000D01*
G01*
X144050000Y-106099500D01*
G75*
G02*
X144000000Y-106149500I-50000J0D01*
G01*
X143400000Y-106149500D01*
G75*
G02*
X143350000Y-106099500I0J50000D01*
G01*
G37*
G36*
G01*
X142550000Y-106099500D02*
X142550000Y-104624500D01*
G75*
G02*
X142600000Y-104574500I50000J0D01*
G01*
X143200000Y-104574500D01*
G75*
G02*
X143250000Y-104624500I0J-50000D01*
G01*
X143250000Y-106099500D01*
G75*
G02*
X143200000Y-106149500I-50000J0D01*
G01*
X142600000Y-106149500D01*
G75*
G02*
X142550000Y-106099500I0J50000D01*
G01*
G37*
G36*
G01*
X141750000Y-106099500D02*
X141750000Y-104624500D01*
G75*
G02*
X141800000Y-104574500I50000J0D01*
G01*
X142400000Y-104574500D01*
G75*
G02*
X142450000Y-104624500I0J-50000D01*
G01*
X142450000Y-106099500D01*
G75*
G02*
X142400000Y-106149500I-50000J0D01*
G01*
X141800000Y-106149500D01*
G75*
G02*
X141750000Y-106099500I0J50000D01*
G01*
G37*
G36*
G01*
X140950000Y-106099500D02*
X140950000Y-104624500D01*
G75*
G02*
X141000000Y-104574500I50000J0D01*
G01*
X141600000Y-104574500D01*
G75*
G02*
X141650000Y-104624500I0J-50000D01*
G01*
X141650000Y-106099500D01*
G75*
G02*
X141600000Y-106149500I-50000J0D01*
G01*
X141000000Y-106149500D01*
G75*
G02*
X140950000Y-106099500I0J50000D01*
G01*
G37*
G36*
G01*
X140150000Y-106099500D02*
X140150000Y-104624500D01*
G75*
G02*
X140200000Y-104574500I50000J0D01*
G01*
X140800000Y-104574500D01*
G75*
G02*
X140850000Y-104624500I0J-50000D01*
G01*
X140850000Y-106099500D01*
G75*
G02*
X140800000Y-106149500I-50000J0D01*
G01*
X140200000Y-106149500D01*
G75*
G02*
X140150000Y-106099500I0J50000D01*
G01*
G37*
G36*
G01*
X139350000Y-106099500D02*
X139350000Y-104624500D01*
G75*
G02*
X139400000Y-104574500I50000J0D01*
G01*
X140000000Y-104574500D01*
G75*
G02*
X140050000Y-104624500I0J-50000D01*
G01*
X140050000Y-106099500D01*
G75*
G02*
X140000000Y-106149500I-50000J0D01*
G01*
X139400000Y-106149500D01*
G75*
G02*
X139350000Y-106099500I0J50000D01*
G01*
G37*
G36*
G01*
X138550000Y-106099500D02*
X138550000Y-104624500D01*
G75*
G02*
X138600000Y-104574500I50000J0D01*
G01*
X139200000Y-104574500D01*
G75*
G02*
X139250000Y-104624500I0J-50000D01*
G01*
X139250000Y-106099500D01*
G75*
G02*
X139200000Y-106149500I-50000J0D01*
G01*
X138600000Y-106149500D01*
G75*
G02*
X138550000Y-106099500I0J50000D01*
G01*
G37*
G36*
G01*
X137750000Y-106099500D02*
X137750000Y-104624500D01*
G75*
G02*
X137800000Y-104574500I50000J0D01*
G01*
X138400000Y-104574500D01*
G75*
G02*
X138450000Y-104624500I0J-50000D01*
G01*
X138450000Y-106099500D01*
G75*
G02*
X138400000Y-106149500I-50000J0D01*
G01*
X137800000Y-106149500D01*
G75*
G02*
X137750000Y-106099500I0J50000D01*
G01*
G37*
G36*
G01*
X136950000Y-106099500D02*
X136950000Y-104624500D01*
G75*
G02*
X137000000Y-104574500I50000J0D01*
G01*
X137600000Y-104574500D01*
G75*
G02*
X137650000Y-104624500I0J-50000D01*
G01*
X137650000Y-106099500D01*
G75*
G02*
X137600000Y-106149500I-50000J0D01*
G01*
X137000000Y-106149500D01*
G75*
G02*
X136950000Y-106099500I0J50000D01*
G01*
G37*
G36*
G01*
X136150000Y-106099500D02*
X136150000Y-104624500D01*
G75*
G02*
X136200000Y-104574500I50000J0D01*
G01*
X136800000Y-104574500D01*
G75*
G02*
X136850000Y-104624500I0J-50000D01*
G01*
X136850000Y-106099500D01*
G75*
G02*
X136800000Y-106149500I-50000J0D01*
G01*
X136200000Y-106149500D01*
G75*
G02*
X136150000Y-106099500I0J50000D01*
G01*
G37*
G36*
G01*
X135350000Y-106099500D02*
X135350000Y-104624500D01*
G75*
G02*
X135400000Y-104574500I50000J0D01*
G01*
X136000000Y-104574500D01*
G75*
G02*
X136050000Y-104624500I0J-50000D01*
G01*
X136050000Y-106099500D01*
G75*
G02*
X136000000Y-106149500I-50000J0D01*
G01*
X135400000Y-106149500D01*
G75*
G02*
X135350000Y-106099500I0J50000D01*
G01*
G37*
G36*
G01*
X134699500Y-107450000D02*
X133224500Y-107450000D01*
G75*
G02*
X133174500Y-107400000I0J50000D01*
G01*
X133174500Y-106800000D01*
G75*
G02*
X133224500Y-106750000I50000J0D01*
G01*
X134699500Y-106750000D01*
G75*
G02*
X134749500Y-106800000I0J-50000D01*
G01*
X134749500Y-107400000D01*
G75*
G02*
X134699500Y-107450000I-50000J0D01*
G01*
G37*
G36*
G01*
X134699500Y-108250000D02*
X133224500Y-108250000D01*
G75*
G02*
X133174500Y-108200000I0J50000D01*
G01*
X133174500Y-107600000D01*
G75*
G02*
X133224500Y-107550000I50000J0D01*
G01*
X134699500Y-107550000D01*
G75*
G02*
X134749500Y-107600000I0J-50000D01*
G01*
X134749500Y-108200000D01*
G75*
G02*
X134699500Y-108250000I-50000J0D01*
G01*
G37*
G36*
G01*
X134699500Y-109050000D02*
X133224500Y-109050000D01*
G75*
G02*
X133174500Y-109000000I0J50000D01*
G01*
X133174500Y-108400000D01*
G75*
G02*
X133224500Y-108350000I50000J0D01*
G01*
X134699500Y-108350000D01*
G75*
G02*
X134749500Y-108400000I0J-50000D01*
G01*
X134749500Y-109000000D01*
G75*
G02*
X134699500Y-109050000I-50000J0D01*
G01*
G37*
G36*
G01*
X134699500Y-109850000D02*
X133224500Y-109850000D01*
G75*
G02*
X133174500Y-109800000I0J50000D01*
G01*
X133174500Y-109200000D01*
G75*
G02*
X133224500Y-109150000I50000J0D01*
G01*
X134699500Y-109150000D01*
G75*
G02*
X134749500Y-109200000I0J-50000D01*
G01*
X134749500Y-109800000D01*
G75*
G02*
X134699500Y-109850000I-50000J0D01*
G01*
G37*
G36*
G01*
X134699500Y-110650000D02*
X133224500Y-110650000D01*
G75*
G02*
X133174500Y-110600000I0J50000D01*
G01*
X133174500Y-110000000D01*
G75*
G02*
X133224500Y-109950000I50000J0D01*
G01*
X134699500Y-109950000D01*
G75*
G02*
X134749500Y-110000000I0J-50000D01*
G01*
X134749500Y-110600000D01*
G75*
G02*
X134699500Y-110650000I-50000J0D01*
G01*
G37*
G36*
G01*
X134699500Y-111450000D02*
X133224500Y-111450000D01*
G75*
G02*
X133174500Y-111400000I0J50000D01*
G01*
X133174500Y-110800000D01*
G75*
G02*
X133224500Y-110750000I50000J0D01*
G01*
X134699500Y-110750000D01*
G75*
G02*
X134749500Y-110800000I0J-50000D01*
G01*
X134749500Y-111400000D01*
G75*
G02*
X134699500Y-111450000I-50000J0D01*
G01*
G37*
G36*
G01*
X134699500Y-112250000D02*
X133224500Y-112250000D01*
G75*
G02*
X133174500Y-112200000I0J50000D01*
G01*
X133174500Y-111600000D01*
G75*
G02*
X133224500Y-111550000I50000J0D01*
G01*
X134699500Y-111550000D01*
G75*
G02*
X134749500Y-111600000I0J-50000D01*
G01*
X134749500Y-112200000D01*
G75*
G02*
X134699500Y-112250000I-50000J0D01*
G01*
G37*
G36*
G01*
X134699500Y-113050000D02*
X133224500Y-113050000D01*
G75*
G02*
X133174500Y-113000000I0J50000D01*
G01*
X133174500Y-112400000D01*
G75*
G02*
X133224500Y-112350000I50000J0D01*
G01*
X134699500Y-112350000D01*
G75*
G02*
X134749500Y-112400000I0J-50000D01*
G01*
X134749500Y-113000000D01*
G75*
G02*
X134699500Y-113050000I-50000J0D01*
G01*
G37*
G36*
G01*
X134699500Y-113850000D02*
X133224500Y-113850000D01*
G75*
G02*
X133174500Y-113800000I0J50000D01*
G01*
X133174500Y-113200000D01*
G75*
G02*
X133224500Y-113150000I50000J0D01*
G01*
X134699500Y-113150000D01*
G75*
G02*
X134749500Y-113200000I0J-50000D01*
G01*
X134749500Y-113800000D01*
G75*
G02*
X134699500Y-113850000I-50000J0D01*
G01*
G37*
G36*
G01*
X134699500Y-114650000D02*
X133224500Y-114650000D01*
G75*
G02*
X133174500Y-114600000I0J50000D01*
G01*
X133174500Y-114000000D01*
G75*
G02*
X133224500Y-113950000I50000J0D01*
G01*
X134699500Y-113950000D01*
G75*
G02*
X134749500Y-114000000I0J-50000D01*
G01*
X134749500Y-114600000D01*
G75*
G02*
X134699500Y-114650000I-50000J0D01*
G01*
G37*
G36*
G01*
X134699500Y-115450000D02*
X133224500Y-115450000D01*
G75*
G02*
X133174500Y-115400000I0J50000D01*
G01*
X133174500Y-114800000D01*
G75*
G02*
X133224500Y-114750000I50000J0D01*
G01*
X134699500Y-114750000D01*
G75*
G02*
X134749500Y-114800000I0J-50000D01*
G01*
X134749500Y-115400000D01*
G75*
G02*
X134699500Y-115450000I-50000J0D01*
G01*
G37*
G36*
G01*
X135350000Y-117575500D02*
X135350000Y-116100500D01*
G75*
G02*
X135400000Y-116050500I50000J0D01*
G01*
X136000000Y-116050500D01*
G75*
G02*
X136050000Y-116100500I0J-50000D01*
G01*
X136050000Y-117575500D01*
G75*
G02*
X136000000Y-117625500I-50000J0D01*
G01*
X135400000Y-117625500D01*
G75*
G02*
X135350000Y-117575500I0J50000D01*
G01*
G37*
G36*
G01*
X136150000Y-117575500D02*
X136150000Y-116100500D01*
G75*
G02*
X136200000Y-116050500I50000J0D01*
G01*
X136800000Y-116050500D01*
G75*
G02*
X136850000Y-116100500I0J-50000D01*
G01*
X136850000Y-117575500D01*
G75*
G02*
X136800000Y-117625500I-50000J0D01*
G01*
X136200000Y-117625500D01*
G75*
G02*
X136150000Y-117575500I0J50000D01*
G01*
G37*
G36*
G01*
X136950000Y-117575500D02*
X136950000Y-116100500D01*
G75*
G02*
X137000000Y-116050500I50000J0D01*
G01*
X137600000Y-116050500D01*
G75*
G02*
X137650000Y-116100500I0J-50000D01*
G01*
X137650000Y-117575500D01*
G75*
G02*
X137600000Y-117625500I-50000J0D01*
G01*
X137000000Y-117625500D01*
G75*
G02*
X136950000Y-117575500I0J50000D01*
G01*
G37*
G36*
G01*
X137750000Y-117575500D02*
X137750000Y-116100500D01*
G75*
G02*
X137800000Y-116050500I50000J0D01*
G01*
X138400000Y-116050500D01*
G75*
G02*
X138450000Y-116100500I0J-50000D01*
G01*
X138450000Y-117575500D01*
G75*
G02*
X138400000Y-117625500I-50000J0D01*
G01*
X137800000Y-117625500D01*
G75*
G02*
X137750000Y-117575500I0J50000D01*
G01*
G37*
G36*
G01*
X138550000Y-117575500D02*
X138550000Y-116100500D01*
G75*
G02*
X138600000Y-116050500I50000J0D01*
G01*
X139200000Y-116050500D01*
G75*
G02*
X139250000Y-116100500I0J-50000D01*
G01*
X139250000Y-117575500D01*
G75*
G02*
X139200000Y-117625500I-50000J0D01*
G01*
X138600000Y-117625500D01*
G75*
G02*
X138550000Y-117575500I0J50000D01*
G01*
G37*
G36*
G01*
X139350000Y-117575500D02*
X139350000Y-116100500D01*
G75*
G02*
X139400000Y-116050500I50000J0D01*
G01*
X140000000Y-116050500D01*
G75*
G02*
X140050000Y-116100500I0J-50000D01*
G01*
X140050000Y-117575500D01*
G75*
G02*
X140000000Y-117625500I-50000J0D01*
G01*
X139400000Y-117625500D01*
G75*
G02*
X139350000Y-117575500I0J50000D01*
G01*
G37*
G36*
G01*
X140150000Y-117575500D02*
X140150000Y-116100500D01*
G75*
G02*
X140200000Y-116050500I50000J0D01*
G01*
X140800000Y-116050500D01*
G75*
G02*
X140850000Y-116100500I0J-50000D01*
G01*
X140850000Y-117575500D01*
G75*
G02*
X140800000Y-117625500I-50000J0D01*
G01*
X140200000Y-117625500D01*
G75*
G02*
X140150000Y-117575500I0J50000D01*
G01*
G37*
G36*
G01*
X140950000Y-117575500D02*
X140950000Y-116100500D01*
G75*
G02*
X141000000Y-116050500I50000J0D01*
G01*
X141600000Y-116050500D01*
G75*
G02*
X141650000Y-116100500I0J-50000D01*
G01*
X141650000Y-117575500D01*
G75*
G02*
X141600000Y-117625500I-50000J0D01*
G01*
X141000000Y-117625500D01*
G75*
G02*
X140950000Y-117575500I0J50000D01*
G01*
G37*
G36*
G01*
X141750000Y-117575500D02*
X141750000Y-116100500D01*
G75*
G02*
X141800000Y-116050500I50000J0D01*
G01*
X142400000Y-116050500D01*
G75*
G02*
X142450000Y-116100500I0J-50000D01*
G01*
X142450000Y-117575500D01*
G75*
G02*
X142400000Y-117625500I-50000J0D01*
G01*
X141800000Y-117625500D01*
G75*
G02*
X141750000Y-117575500I0J50000D01*
G01*
G37*
G36*
G01*
X142550000Y-117575500D02*
X142550000Y-116100500D01*
G75*
G02*
X142600000Y-116050500I50000J0D01*
G01*
X143200000Y-116050500D01*
G75*
G02*
X143250000Y-116100500I0J-50000D01*
G01*
X143250000Y-117575500D01*
G75*
G02*
X143200000Y-117625500I-50000J0D01*
G01*
X142600000Y-117625500D01*
G75*
G02*
X142550000Y-117575500I0J50000D01*
G01*
G37*
G36*
G01*
X143350000Y-117575500D02*
X143350000Y-116100500D01*
G75*
G02*
X143400000Y-116050500I50000J0D01*
G01*
X144000000Y-116050500D01*
G75*
G02*
X144050000Y-116100500I0J-50000D01*
G01*
X144050000Y-117575500D01*
G75*
G02*
X144000000Y-117625500I-50000J0D01*
G01*
X143400000Y-117625500D01*
G75*
G02*
X143350000Y-117575500I0J50000D01*
G01*
G37*
%TD*%
D10*
%TO.C,LS1*%
X169228000Y-59727000D03*
X169228000Y-67327000D03*
%TD*%
%TO.C,L_22uH_1*%
G36*
G01*
X121600000Y-94250000D02*
X127000000Y-94250000D01*
G75*
G02*
X127050000Y-94300000I0J-50000D01*
G01*
X127050000Y-97200000D01*
G75*
G02*
X127000000Y-97250000I-50000J0D01*
G01*
X121600000Y-97250000D01*
G75*
G02*
X121550000Y-97200000I0J50000D01*
G01*
X121550000Y-94300000D01*
G75*
G02*
X121600000Y-94250000I50000J0D01*
G01*
G37*
G36*
G01*
X121600000Y-84550000D02*
X127000000Y-84550000D01*
G75*
G02*
X127050000Y-84600000I0J-50000D01*
G01*
X127050000Y-87500000D01*
G75*
G02*
X127000000Y-87550000I-50000J0D01*
G01*
X121600000Y-87550000D01*
G75*
G02*
X121550000Y-87500000I0J50000D01*
G01*
X121550000Y-84600000D01*
G75*
G02*
X121600000Y-84550000I50000J0D01*
G01*
G37*
%TD*%
D14*
%TO.C,J_USB_C1*%
X142820000Y-153050000D03*
X134180000Y-153050000D03*
X134180000Y-156850000D03*
X142820000Y-156850000D03*
G36*
G01*
X141700000Y-152300000D02*
X141700000Y-153500000D01*
G75*
G02*
X141650000Y-153550000I-50000J0D01*
G01*
X140850000Y-153550000D01*
G75*
G02*
X140800000Y-153500000I0J50000D01*
G01*
X140800000Y-152300000D01*
G75*
G02*
X140850000Y-152250000I50000J0D01*
G01*
X141650000Y-152250000D01*
G75*
G02*
X141700000Y-152300000I0J-50000D01*
G01*
G37*
G36*
G01*
X140450000Y-152300000D02*
X140450000Y-153500000D01*
G75*
G02*
X140400000Y-153550000I-50000J0D01*
G01*
X139640000Y-153550000D01*
G75*
G02*
X139590000Y-153500000I0J50000D01*
G01*
X139590000Y-152300000D01*
G75*
G02*
X139640000Y-152250000I50000J0D01*
G01*
X140400000Y-152250000D01*
G75*
G02*
X140450000Y-152300000I0J-50000D01*
G01*
G37*
G36*
G01*
X138400000Y-152300000D02*
X138400000Y-153500000D01*
G75*
G02*
X138350000Y-153550000I-50000J0D01*
G01*
X137650000Y-153550000D01*
G75*
G02*
X137600000Y-153500000I0J50000D01*
G01*
X137600000Y-152300000D01*
G75*
G02*
X137650000Y-152250000I50000J0D01*
G01*
X138350000Y-152250000D01*
G75*
G02*
X138400000Y-152300000I0J-50000D01*
G01*
G37*
G36*
G01*
X136200000Y-152300000D02*
X136200000Y-153500000D01*
G75*
G02*
X136150000Y-153550000I-50000J0D01*
G01*
X135350000Y-153550000D01*
G75*
G02*
X135300000Y-153500000I0J50000D01*
G01*
X135300000Y-152300000D01*
G75*
G02*
X135350000Y-152250000I50000J0D01*
G01*
X136150000Y-152250000D01*
G75*
G02*
X136200000Y-152300000I0J-50000D01*
G01*
G37*
G36*
G01*
X137410000Y-152300000D02*
X137410000Y-153500000D01*
G75*
G02*
X137360000Y-153550000I-50000J0D01*
G01*
X136600000Y-153550000D01*
G75*
G02*
X136550000Y-153500000I0J50000D01*
G01*
X136550000Y-152300000D01*
G75*
G02*
X136600000Y-152250000I50000J0D01*
G01*
X137360000Y-152250000D01*
G75*
G02*
X137410000Y-152300000I0J-50000D01*
G01*
G37*
G36*
G01*
X139400000Y-152300000D02*
X139400000Y-153500000D01*
G75*
G02*
X139350000Y-153550000I-50000J0D01*
G01*
X138650000Y-153550000D01*
G75*
G02*
X138600000Y-153500000I0J50000D01*
G01*
X138600000Y-152300000D01*
G75*
G02*
X138650000Y-152250000I50000J0D01*
G01*
X139350000Y-152250000D01*
G75*
G02*
X139400000Y-152300000I0J-50000D01*
G01*
G37*
%TD*%
%TO.C,IC_BMS_TP4056*%
G36*
G01*
X172401001Y-78706500D02*
X168998999Y-78706500D01*
G75*
G02*
X168949000Y-78656501I0J49999D01*
G01*
X168949000Y-76143499D01*
G75*
G02*
X168998999Y-76093500I49999J0D01*
G01*
X172401001Y-76093500D01*
G75*
G02*
X172451000Y-76143499I0J-49999D01*
G01*
X172451000Y-78656501D01*
G75*
G02*
X172401001Y-78706500I-49999J0D01*
G01*
G37*
G36*
G01*
X172205000Y-75450500D02*
X172205000Y-73925500D01*
G75*
G02*
X172255000Y-73875500I50000J0D01*
G01*
X172955000Y-73875500D01*
G75*
G02*
X173005000Y-73925500I0J-50000D01*
G01*
X173005000Y-75450500D01*
G75*
G02*
X172955000Y-75500500I-50000J0D01*
G01*
X172255000Y-75500500D01*
G75*
G02*
X172205000Y-75450500I0J50000D01*
G01*
G37*
G36*
G01*
X170935000Y-75450500D02*
X170935000Y-73925500D01*
G75*
G02*
X170985000Y-73875500I50000J0D01*
G01*
X171685000Y-73875500D01*
G75*
G02*
X171735000Y-73925500I0J-50000D01*
G01*
X171735000Y-75450500D01*
G75*
G02*
X171685000Y-75500500I-50000J0D01*
G01*
X170985000Y-75500500D01*
G75*
G02*
X170935000Y-75450500I0J50000D01*
G01*
G37*
G36*
G01*
X169665000Y-75450500D02*
X169665000Y-73925500D01*
G75*
G02*
X169715000Y-73875500I50000J0D01*
G01*
X170415000Y-73875500D01*
G75*
G02*
X170465000Y-73925500I0J-50000D01*
G01*
X170465000Y-75450500D01*
G75*
G02*
X170415000Y-75500500I-50000J0D01*
G01*
X169715000Y-75500500D01*
G75*
G02*
X169665000Y-75450500I0J50000D01*
G01*
G37*
G36*
G01*
X168395000Y-75450500D02*
X168395000Y-73925500D01*
G75*
G02*
X168445000Y-73875500I50000J0D01*
G01*
X169145000Y-73875500D01*
G75*
G02*
X169195000Y-73925500I0J-50000D01*
G01*
X169195000Y-75450500D01*
G75*
G02*
X169145000Y-75500500I-50000J0D01*
G01*
X168445000Y-75500500D01*
G75*
G02*
X168395000Y-75450500I0J50000D01*
G01*
G37*
G36*
G01*
X168395000Y-80874500D02*
X168395000Y-79349500D01*
G75*
G02*
X168445000Y-79299500I50000J0D01*
G01*
X169145000Y-79299500D01*
G75*
G02*
X169195000Y-79349500I0J-50000D01*
G01*
X169195000Y-80874500D01*
G75*
G02*
X169145000Y-80924500I-50000J0D01*
G01*
X168445000Y-80924500D01*
G75*
G02*
X168395000Y-80874500I0J50000D01*
G01*
G37*
G36*
G01*
X169665000Y-80874500D02*
X169665000Y-79349500D01*
G75*
G02*
X169715000Y-79299500I50000J0D01*
G01*
X170415000Y-79299500D01*
G75*
G02*
X170465000Y-79349500I0J-50000D01*
G01*
X170465000Y-80874500D01*
G75*
G02*
X170415000Y-80924500I-50000J0D01*
G01*
X169715000Y-80924500D01*
G75*
G02*
X169665000Y-80874500I0J50000D01*
G01*
G37*
G36*
G01*
X170935000Y-80874500D02*
X170935000Y-79349500D01*
G75*
G02*
X170985000Y-79299500I50000J0D01*
G01*
X171685000Y-79299500D01*
G75*
G02*
X171735000Y-79349500I0J-50000D01*
G01*
X171735000Y-80874500D01*
G75*
G02*
X171685000Y-80924500I-50000J0D01*
G01*
X170985000Y-80924500D01*
G75*
G02*
X170935000Y-80874500I0J50000D01*
G01*
G37*
G36*
G01*
X172205000Y-80874500D02*
X172205000Y-79349500D01*
G75*
G02*
X172255000Y-79299500I50000J0D01*
G01*
X172955000Y-79299500D01*
G75*
G02*
X173005000Y-79349500I0J-50000D01*
G01*
X173005000Y-80874500D01*
G75*
G02*
X172955000Y-80924500I-50000J0D01*
G01*
X172255000Y-80924500D01*
G75*
G02*
X172205000Y-80874500I0J50000D01*
G01*
G37*
%TD*%
%TO.C,IC1*%
G36*
G01*
X154300000Y-96570000D02*
X154300000Y-95370000D01*
G75*
G02*
X154350000Y-95320000I50000J0D01*
G01*
X154950000Y-95320000D01*
G75*
G02*
X155000000Y-95370000I0J-50000D01*
G01*
X155000000Y-96570000D01*
G75*
G02*
X154950000Y-96620000I-50000J0D01*
G01*
X154350000Y-96620000D01*
G75*
G02*
X154300000Y-96570000I0J50000D01*
G01*
G37*
G36*
G01*
X153350000Y-96570000D02*
X153350000Y-95370000D01*
G75*
G02*
X153400000Y-95320000I50000J0D01*
G01*
X154000000Y-95320000D01*
G75*
G02*
X154050000Y-95370000I0J-50000D01*
G01*
X154050000Y-96570000D01*
G75*
G02*
X154000000Y-96620000I-50000J0D01*
G01*
X153400000Y-96620000D01*
G75*
G02*
X153350000Y-96570000I0J50000D01*
G01*
G37*
G36*
G01*
X152400000Y-96570000D02*
X152400000Y-95370000D01*
G75*
G02*
X152450000Y-95320000I50000J0D01*
G01*
X153050000Y-95320000D01*
G75*
G02*
X153100000Y-95370000I0J-50000D01*
G01*
X153100000Y-96570000D01*
G75*
G02*
X153050000Y-96620000I-50000J0D01*
G01*
X152450000Y-96620000D01*
G75*
G02*
X152400000Y-96570000I0J50000D01*
G01*
G37*
G36*
G01*
X152400000Y-99070000D02*
X152400000Y-97870000D01*
G75*
G02*
X152450000Y-97820000I50000J0D01*
G01*
X153050000Y-97820000D01*
G75*
G02*
X153100000Y-97870000I0J-50000D01*
G01*
X153100000Y-99070000D01*
G75*
G02*
X153050000Y-99120000I-50000J0D01*
G01*
X152450000Y-99120000D01*
G75*
G02*
X152400000Y-99070000I0J50000D01*
G01*
G37*
G36*
G01*
X153350000Y-99070000D02*
X153350000Y-97870000D01*
G75*
G02*
X153400000Y-97820000I50000J0D01*
G01*
X154000000Y-97820000D01*
G75*
G02*
X154050000Y-97870000I0J-50000D01*
G01*
X154050000Y-99070000D01*
G75*
G02*
X154000000Y-99120000I-50000J0D01*
G01*
X153400000Y-99120000D01*
G75*
G02*
X153350000Y-99070000I0J50000D01*
G01*
G37*
G36*
G01*
X154300000Y-99070000D02*
X154300000Y-97870000D01*
G75*
G02*
X154350000Y-97820000I50000J0D01*
G01*
X154950000Y-97820000D01*
G75*
G02*
X155000000Y-97870000I0J-50000D01*
G01*
X155000000Y-99070000D01*
G75*
G02*
X154950000Y-99120000I-50000J0D01*
G01*
X154350000Y-99120000D01*
G75*
G02*
X154300000Y-99070000I0J50000D01*
G01*
G37*
%TD*%
%TO.C,H_Bat-1*%
G36*
G01*
X159050000Y-85050000D02*
X155550000Y-85050000D01*
G75*
G02*
X155500000Y-85000000I0J50000D01*
G01*
X155500000Y-83000000D01*
G75*
G02*
X155550000Y-82950000I50000J0D01*
G01*
X159050000Y-82950000D01*
G75*
G02*
X159100000Y-83000000I0J-50000D01*
G01*
X159100000Y-85000000D01*
G75*
G02*
X159050000Y-85050000I-50000J0D01*
G01*
G37*
%TD*%
%TO.C,H_Bat+1*%
G36*
G01*
X160750000Y-79550000D02*
X160750000Y-76050000D01*
G75*
G02*
X160800000Y-76000000I50000J0D01*
G01*
X162800000Y-76000000D01*
G75*
G02*
X162850000Y-76050000I0J-50000D01*
G01*
X162850000Y-79550000D01*
G75*
G02*
X162800000Y-79600000I-50000J0D01*
G01*
X160800000Y-79600000D01*
G75*
G02*
X160750000Y-79550000I0J50000D01*
G01*
G37*
%TD*%
%TO.C,D_1*%
G36*
G01*
X136950000Y-95225000D02*
X136950000Y-98375000D01*
G75*
G02*
X136900000Y-98425000I-50000J0D01*
G01*
X134700000Y-98425000D01*
G75*
G02*
X134650000Y-98375000I0J50000D01*
G01*
X134650000Y-95225000D01*
G75*
G02*
X134700000Y-95175000I50000J0D01*
G01*
X136900000Y-95175000D01*
G75*
G02*
X136950000Y-95225000I0J-50000D01*
G01*
G37*
G36*
G01*
X143950000Y-95225000D02*
X143950000Y-98375000D01*
G75*
G02*
X143900000Y-98425000I-50000J0D01*
G01*
X141700000Y-98425000D01*
G75*
G02*
X141650000Y-98375000I0J50000D01*
G01*
X141650000Y-95225000D01*
G75*
G02*
X141700000Y-95175000I50000J0D01*
G01*
X143900000Y-95175000D01*
G75*
G02*
X143950000Y-95225000I0J-50000D01*
G01*
G37*
%TD*%
%TO.C,C_22u_2*%
G36*
G01*
X147535000Y-89035000D02*
X146065000Y-89035000D01*
G75*
G02*
X146015000Y-88985000I0J50000D01*
G01*
X146015000Y-87935000D01*
G75*
G02*
X146065000Y-87885000I50000J0D01*
G01*
X147535000Y-87885000D01*
G75*
G02*
X147585000Y-87935000I0J-50000D01*
G01*
X147585000Y-88985000D01*
G75*
G02*
X147535000Y-89035000I-50000J0D01*
G01*
G37*
G36*
G01*
X147535000Y-90715000D02*
X146065000Y-90715000D01*
G75*
G02*
X146015000Y-90665000I0J50000D01*
G01*
X146015000Y-89615000D01*
G75*
G02*
X146065000Y-89565000I50000J0D01*
G01*
X147535000Y-89565000D01*
G75*
G02*
X147585000Y-89615000I0J-50000D01*
G01*
X147585000Y-90665000D01*
G75*
G02*
X147535000Y-90715000I-50000J0D01*
G01*
G37*
%TD*%
%TO.C,C_22u_1*%
G36*
G01*
X138535000Y-83765000D02*
X138535000Y-85235000D01*
G75*
G02*
X138485000Y-85285000I-50000J0D01*
G01*
X137435000Y-85285000D01*
G75*
G02*
X137385000Y-85235000I0J50000D01*
G01*
X137385000Y-83765000D01*
G75*
G02*
X137435000Y-83715000I50000J0D01*
G01*
X138485000Y-83715000D01*
G75*
G02*
X138535000Y-83765000I0J-50000D01*
G01*
G37*
G36*
G01*
X140215000Y-83765000D02*
X140215000Y-85235000D01*
G75*
G02*
X140165000Y-85285000I-50000J0D01*
G01*
X139115000Y-85285000D01*
G75*
G02*
X139065000Y-85235000I0J50000D01*
G01*
X139065000Y-83765000D01*
G75*
G02*
X139115000Y-83715000I50000J0D01*
G01*
X140165000Y-83715000D01*
G75*
G02*
X140215000Y-83765000I0J-50000D01*
G01*
G37*
%TD*%
%TO.C,C_22p_2*%
G36*
G01*
X148875000Y-123605000D02*
X148875000Y-125075000D01*
G75*
G02*
X148825000Y-125125000I-50000J0D01*
G01*
X147775000Y-125125000D01*
G75*
G02*
X147725000Y-125075000I0J50000D01*
G01*
X147725000Y-123605000D01*
G75*
G02*
X147775000Y-123555000I50000J0D01*
G01*
X148825000Y-123555000D01*
G75*
G02*
X148875000Y-123605000I0J-50000D01*
G01*
G37*
G36*
G01*
X150555000Y-123605000D02*
X150555000Y-125075000D01*
G75*
G02*
X150505000Y-125125000I-50000J0D01*
G01*
X149455000Y-125125000D01*
G75*
G02*
X149405000Y-125075000I0J50000D01*
G01*
X149405000Y-123605000D01*
G75*
G02*
X149455000Y-123555000I50000J0D01*
G01*
X150505000Y-123555000D01*
G75*
G02*
X150555000Y-123605000I0J-50000D01*
G01*
G37*
%TD*%
%TO.C,C_22p_1*%
G36*
G01*
X138325000Y-125075000D02*
X138325000Y-123605000D01*
G75*
G02*
X138375000Y-123555000I50000J0D01*
G01*
X139425000Y-123555000D01*
G75*
G02*
X139475000Y-123605000I0J-50000D01*
G01*
X139475000Y-125075000D01*
G75*
G02*
X139425000Y-125125000I-50000J0D01*
G01*
X138375000Y-125125000D01*
G75*
G02*
X138325000Y-125075000I0J50000D01*
G01*
G37*
G36*
G01*
X136645000Y-125075000D02*
X136645000Y-123605000D01*
G75*
G02*
X136695000Y-123555000I50000J0D01*
G01*
X137745000Y-123555000D01*
G75*
G02*
X137795000Y-123605000I0J-50000D01*
G01*
X137795000Y-125075000D01*
G75*
G02*
X137745000Y-125125000I-50000J0D01*
G01*
X136695000Y-125125000D01*
G75*
G02*
X136645000Y-125075000I0J50000D01*
G01*
G37*
%TD*%
%TO.C,C_10u_1*%
G36*
G01*
X165365000Y-77665000D02*
X166835000Y-77665000D01*
G75*
G02*
X166885000Y-77715000I0J-50000D01*
G01*
X166885000Y-78765000D01*
G75*
G02*
X166835000Y-78815000I-50000J0D01*
G01*
X165365000Y-78815000D01*
G75*
G02*
X165315000Y-78765000I0J50000D01*
G01*
X165315000Y-77715000D01*
G75*
G02*
X165365000Y-77665000I50000J0D01*
G01*
G37*
G36*
G01*
X165365000Y-75985000D02*
X166835000Y-75985000D01*
G75*
G02*
X166885000Y-76035000I0J-50000D01*
G01*
X166885000Y-77085000D01*
G75*
G02*
X166835000Y-77135000I-50000J0D01*
G01*
X165365000Y-77135000D01*
G75*
G02*
X165315000Y-77085000I0J50000D01*
G01*
X165315000Y-76035000D01*
G75*
G02*
X165365000Y-75985000I50000J0D01*
G01*
G37*
%TD*%
%TO.C,C_0.1u_1*%
G36*
G01*
X153965000Y-93135000D02*
X153965000Y-91665000D01*
G75*
G02*
X154015000Y-91615000I50000J0D01*
G01*
X155065000Y-91615000D01*
G75*
G02*
X155115000Y-91665000I0J-50000D01*
G01*
X155115000Y-93135000D01*
G75*
G02*
X155065000Y-93185000I-50000J0D01*
G01*
X154015000Y-93185000D01*
G75*
G02*
X153965000Y-93135000I0J50000D01*
G01*
G37*
G36*
G01*
X152285000Y-93135000D02*
X152285000Y-91665000D01*
G75*
G02*
X152335000Y-91615000I50000J0D01*
G01*
X153385000Y-91615000D01*
G75*
G02*
X153435000Y-91665000I0J-50000D01*
G01*
X153435000Y-93135000D01*
G75*
G02*
X153385000Y-93185000I-50000J0D01*
G01*
X152335000Y-93185000D01*
G75*
G02*
X152285000Y-93135000I0J50000D01*
G01*
G37*
%TD*%
D15*
%TO.C,16MhzCrystal1*%
X146040000Y-124340000D03*
X141160000Y-124340000D03*
%TD*%
M02*
