M48
; DRILL file {KiCad 7.0.1} date Wed Aug  2 19:59:55 2023
; FORMAT={-:-/ absolute / metric / decimal}
; #@! TF.CreationDate,2023-08-02T19:59:55+02:00
; #@! TF.GenerationSoftware,Kicad,Pcbnew,7.0.1
; #@! TF.FileFunction,MixedPlating,1,4
FMAT,2
METRIC
; #@! TA.AperFunction,Plated,PTH,ViaDrill
T1C0.400
; #@! TA.AperFunction,Plated,PTH,ComponentDrill
T2C0.800
; #@! TA.AperFunction,Plated,PTH,ComponentDrill
T3C1.067
; #@! TA.AperFunction,Plated,PTH,ComponentDrill
T4C1.346
%
G90
G05
T1
X113.575Y-90.128
X113.7Y-93.0
X114.1Y-52.2
X114.1Y-55.7
X114.1Y-60.1
X114.1Y-63.7
X114.1Y-67.1
X114.1Y-70.7
X114.1Y-74.2
X114.1Y-77.5
X114.1Y-79.3
X114.6Y-88.6
X114.8Y-92.1
X115.0Y-96.6
X115.175Y-81.8
X115.18Y-78.171
X115.192Y-67.188
X115.8Y-100.2
X116.1Y-116.1
X116.4Y-101.4
X116.5Y-129.4
X117.1Y-63.383
X117.5Y-122.4
X117.6Y-58.4
X117.7Y-95.3
X117.9Y-119.6
X118.0Y-111.4
X118.1Y-48.075
X118.15Y-54.403
X118.8Y-90.991
X118.849Y-92.922
X119.1Y-98.8
X119.2Y-87.7
X119.4Y-84.4
X119.446Y-48.8
X119.48Y-50.56
X119.5Y-97.6
X119.5Y-113.1
X119.599Y-73.612
X119.6Y-51.6
X119.6Y-119.9
X119.7Y-54.8
X119.7Y-58.6
X119.7Y-69.9
X119.7Y-72.6
X119.7Y-90.3
X119.8Y-62.4
X119.8Y-68.9
X119.8Y-76.3
X119.8Y-79.8
X119.8Y-93.9
X119.9Y-83.2
X119.9Y-86.7
X120.0Y-130.0
X120.114Y-94.966
X120.3Y-105.4
X122.277Y-89.4
X122.539Y-52.751
X122.6Y-124.6
X123.0Y-48.8
X123.0Y-51.6
X123.0Y-72.6
X123.1Y-62.4
X123.1Y-66.1
X123.1Y-79.8
X123.1Y-83.2
X123.1Y-90.3
X123.1Y-97.6
X123.2Y-58.6
X123.2Y-93.9
X123.3Y-54.8
X123.3Y-68.9
X123.3Y-86.7
X123.4Y-76.3
X123.4Y-98.8
X123.7Y-46.8
X123.8Y-112.3
X124.6Y-113.5
X125.6Y-117.6
X125.904Y-53.7
X126.0Y-46.805
X126.1Y-100.8
X126.2Y-57.4
X126.452Y-56.052
X126.5Y-72.6
X126.569Y-48.8
X126.6Y-54.8
X126.6Y-97.6
X126.7Y-51.6
X126.7Y-79.8
X126.7Y-104.7
X126.8Y-58.6
X126.8Y-62.4
X126.8Y-86.7
X126.8Y-90.3
X126.8Y-93.9
X126.8Y-118.2
X126.9Y-66.1
X126.9Y-83.2
X126.9Y-98.8
X127.0Y-76.3
X128.7Y-117.2
X128.7Y-121.2
X128.8Y-109.6
X129.3Y-46.8
X129.53Y-64.0
X129.687Y-56.904
X129.7Y-124.4
X130.0Y-123.1
X130.049Y-60.951
X130.1Y-97.6
X130.2Y-54.8
X130.2Y-83.2
X130.236Y-48.8
X130.3Y-58.6
X130.3Y-72.6
X130.3Y-79.8
X130.3Y-90.3
X130.3Y-93.9
X130.4Y-51.6
X130.4Y-62.4
X130.4Y-66.1
X130.4Y-76.3
X130.5Y-86.7
X130.6Y-98.8
X130.7Y-105.7
X131.1Y-113.1
X131.283Y-46.8
X131.4Y-110.745
X131.898Y-105.625
X132.4Y-104.4
X132.4Y-112.8
X133.0Y-46.8
X133.2Y-64.8
X133.2Y-115.9
X133.311Y-60.489
X133.76Y-59.59
X133.813Y-48.8
X133.9Y-58.6
X133.9Y-72.6
X133.9Y-76.3
X133.9Y-93.9
X133.9Y-108.8
X133.9Y-120.2
X134.0Y-66.1
X134.0Y-79.8
X134.0Y-86.7
X134.1Y-54.8
X134.1Y-62.4
X134.1Y-97.6
X134.1Y-98.8
X134.2Y-51.6
X134.2Y-83.2
X134.2Y-90.3
X134.633Y-80.599
X134.9Y-46.799
X135.1Y-125.8
X135.4Y-115.9
X136.007Y-111.907
X136.7Y-46.799
X136.9Y-104.9
X136.964Y-52.884
X137.0Y-115.8
X137.025Y-67.146
X137.025Y-125.2
X137.3Y-122.6
X137.4Y-86.7
X137.432Y-48.798
X137.5Y-54.8
X137.5Y-58.6
X137.5Y-66.1
X137.5Y-72.6
X137.5Y-93.9
X137.5Y-97.6
X137.5Y-98.8
X137.6Y-76.3
X137.6Y-79.8
X137.6Y-83.2
X137.6Y-107.6
X137.6Y-51.325
X137.7Y-62.4
X137.7Y-90.3
X137.887Y-105.506
X138.177Y-68.992
X138.26Y-102.152
X138.6Y-46.799
X138.603Y-110.912
X138.8Y-105.1
X139.7Y-117.0
X139.8Y-125.6
X139.9Y-113.7
X140.1Y-109.0
X140.496Y-49.606
X140.559Y-52.908
X140.6Y-46.799
X140.7Y-105.2
X141.0Y-86.7
X141.054Y-48.777
X141.1Y-54.8
X141.1Y-58.6
X141.1Y-83.2
X141.1Y-93.9
X141.2Y-62.4
X141.2Y-70.0
X141.2Y-97.6
X141.3Y-51.6
X141.3Y-66.1
X141.3Y-79.8
X141.3Y-90.3
X141.344Y-115.51
X141.35Y-113.794
X141.4Y-76.3
X141.5Y-72.6
X141.5Y-98.8
X141.9Y-116.4
X142.3Y-46.799
X142.3Y-110.825
X142.4Y-113.6
X143.3Y-123.4
X143.541Y-110.85
X143.9Y-125.7
X144.036Y-49.875
X144.036Y-68.7
X144.036Y-71.3
X144.194Y-74.867
X144.3Y-110.2
X144.5Y-76.3
X144.5Y-128.8
X144.6Y-62.4
X144.6Y-72.7
X144.665Y-102.099
X144.697Y-48.74
X144.7Y-83.2
X144.7Y-90.3
X144.8Y-54.8
X144.8Y-86.7
X144.9Y-51.6
X144.9Y-58.6
X144.9Y-66.1
X144.9Y-79.8
X144.9Y-93.9
X144.9Y-97.6
X145.1Y-98.8
X145.3Y-108.275
X145.35Y-126.974
X145.4Y-106.4
X145.508Y-84.097
X145.527Y-87.555
X146.2Y-46.805
X146.8Y-112.0
X147.1Y-117.6
X147.296Y-112.868
X147.693Y-49.61
X147.8Y-78.4
X147.9Y-50.6
X148.012Y-109.732
X148.064Y-53.651
X148.085Y-47.83
X148.1Y-58.6
X148.1Y-72.6
X148.1Y-86.7
X148.2Y-51.6
X148.2Y-83.2
X148.29Y-48.808
X148.3Y-62.4
X148.3Y-79.8
X148.3Y-118.9
X148.39Y-77.293
X148.4Y-54.8
X148.4Y-105.7
X148.4Y-108.275
X148.5Y-66.1
X148.5Y-76.3
X148.5Y-97.6
X148.6Y-98.8
X148.6Y-102.3
X148.6Y-104.7
X148.7Y-90.3
X148.7Y-93.9
X148.706Y-61.487
X149.1Y-114.2
X149.2Y-112.2
X149.299Y-101.41
X149.9Y-46.799
X150.229Y-111.649
X150.3Y-123.05
X150.5Y-113.9
X151.289Y-101.275
X151.489Y-57.006
X151.7Y-46.8
X151.9Y-86.7
X151.939Y-48.765
X152.0Y-95.4
X152.2Y-76.3
X152.2Y-83.2
X152.2Y-93.9
X152.3Y-90.3
X152.4Y-51.6
X152.4Y-62.4
X152.4Y-97.6
X152.4Y-102.4
X152.5Y-66.1
X152.5Y-98.8
X152.6Y-54.8
X152.6Y-58.6
X152.6Y-72.7
X152.769Y-80.256
X152.8Y-119.4
X152.819Y-112.568
X152.848Y-78.432
X153.275Y-106.1
X153.467Y-92.524
X153.467Y-96.124
X153.75Y-46.799
X153.9Y-129.0
X154.125Y-107.969
X154.15Y-117.65
X154.3Y-123.3
X155.296Y-111.271
X155.8Y-112.6
X155.9Y-97.0
X155.975Y-51.65
X156.1Y-121.5
X156.225Y-104.1
X157.1Y-53.4
X157.1Y-56.7
X157.1Y-60.1
X157.1Y-63.8
X157.1Y-67.7
X157.1Y-75.1
X157.1Y-78.9
X157.1Y-82.7
X157.3Y-112.4
X157.7Y-104.6
X157.8Y-107.8
X157.9Y-52.3
X157.9Y-85.6
X157.9Y-110.497
X157.9Y-126.5
X157.925Y-118.368
X158.0Y-60.9
X158.088Y-74.412
X158.1Y-67.0
X158.2Y-99.042
X158.3Y-70.8
X158.3Y-113.3
X158.374Y-56.325
X158.5Y-78.2
X158.6Y-102.7
X158.712Y-68.488
X158.923Y-83.568
X159.1Y-95.6
X159.3Y-56.7
X159.4Y-61.9
X159.4Y-91.8
X159.7Y-64.1
X159.8Y-75.1
X159.9Y-104.8
X160.0Y-108.3
X160.0Y-114.7
X160.1Y-54.1
X160.1Y-80.7
X160.3Y-49.1
X160.4Y-79.0
X160.6Y-60.5
X160.6Y-88.2
X160.8Y-71.6
T2
X116.8Y-105.9
X124.275Y-128.05
X124.4Y-105.9
X126.775Y-128.05
X129.275Y-128.05
T3
X155.23Y-105.119
X155.23Y-107.151
X160.31Y-106.135
T4
X132.93Y-124.05
X132.93Y-127.85
X141.57Y-124.05
X141.57Y-127.85
T0
M30
