%TF.GenerationSoftware,KiCad,Pcbnew,7.0.1*%
%TF.CreationDate,2023-08-02T19:59:42+02:00*%
%TF.ProjectId,PicBytesMicro,50696342-7974-4657-934d-6963726f2e6b,rev?*%
%TF.SameCoordinates,Original*%
%TF.FileFunction,Legend,Bot*%
%TF.FilePolarity,Positive*%
%FSLAX46Y46*%
G04 Gerber Fmt 4.6, Leading zero omitted, Abs format (unit mm)*
G04 Created by KiCad (PCBNEW 7.0.1) date 2023-08-02 19:59:42*
%MOMM*%
%LPD*%
G01*
G04 APERTURE LIST*
G04 Aperture macros list*
%AMRoundRect*
0 Rectangle with rounded corners*
0 $1 Rounding radius*
0 $2 $3 $4 $5 $6 $7 $8 $9 X,Y pos of 4 corners*
0 Add a 4 corners polygon primitive as box body*
4,1,4,$2,$3,$4,$5,$6,$7,$8,$9,$2,$3,0*
0 Add four circle primitives for the rounded corners*
1,1,$1+$1,$2,$3*
1,1,$1+$1,$4,$5*
1,1,$1+$1,$6,$7*
1,1,$1+$1,$8,$9*
0 Add four rect primitives between the rounded corners*
20,1,$1+$1,$2,$3,$4,$5,0*
20,1,$1+$1,$4,$5,$6,$7,0*
20,1,$1+$1,$6,$7,$8,$9,0*
20,1,$1+$1,$8,$9,$2,$3,0*%
G04 Aperture macros list end*
%ADD10C,0.120000*%
%ADD11C,0.150000*%
%ADD12C,0.250000*%
%ADD13C,0.254000*%
%ADD14C,0.200000*%
%ADD15C,0.100000*%
%ADD16C,2.000000*%
%ADD17C,1.300000*%
%ADD18C,1.650000*%
%ADD19RoundRect,0.050000X0.735000X-0.525000X0.735000X0.525000X-0.735000X0.525000X-0.735000X-0.525000X0*%
%ADD20RoundRect,0.050000X-0.525000X-0.735000X0.525000X-0.735000X0.525000X0.735000X-0.525000X0.735000X0*%
%ADD21RoundRect,0.050000X0.525000X0.735000X-0.525000X0.735000X-0.525000X-0.735000X0.525000X-0.735000X0*%
%ADD22RoundRect,0.050000X-1.750000X1.000000X-1.750000X-1.000000X1.750000X-1.000000X1.750000X1.000000X0*%
%ADD23RoundRect,0.050000X1.750000X-1.000000X1.750000X1.000000X-1.750000X1.000000X-1.750000X-1.000000X0*%
%ADD24RoundRect,0.050000X0.762500X-0.350000X0.762500X0.350000X-0.762500X0.350000X-0.762500X-0.350000X0*%
%ADD25RoundRect,0.050000X1.256500X1.701000X-1.256500X1.701000X-1.256500X-1.701000X1.256500X-1.701000X0*%
%ADD26RoundRect,0.050000X0.350000X0.600000X-0.350000X0.600000X-0.350000X-0.600000X0.350000X-0.600000X0*%
%ADD27RoundRect,0.050000X0.380000X0.600000X-0.380000X0.600000X-0.380000X-0.600000X0.380000X-0.600000X0*%
%ADD28RoundRect,0.050000X0.400000X0.600000X-0.400000X0.600000X-0.400000X-0.600000X0.400000X-0.600000X0*%
%ADD29C,2.100000*%
%ADD30C,1.400000*%
%ADD31RoundRect,0.050000X0.737500X-0.300000X0.737500X0.300000X-0.737500X0.300000X-0.737500X-0.300000X0*%
%ADD32RoundRect,0.050000X0.300000X0.737500X-0.300000X0.737500X-0.300000X-0.737500X0.300000X-0.737500X0*%
%ADD33RoundRect,0.050000X0.625000X-0.300000X0.625000X0.300000X-0.625000X0.300000X-0.625000X-0.300000X0*%
%ADD34RoundRect,0.050000X0.700000X-0.500000X0.700000X0.500000X-0.700000X0.500000X-0.700000X-0.500000X0*%
%ADD35RoundRect,0.050000X-0.700000X0.500000X-0.700000X-0.500000X0.700000X-0.500000X0.700000X0.500000X0*%
%ADD36RoundRect,0.050000X0.500000X0.700000X-0.500000X0.700000X-0.500000X-0.700000X0.500000X-0.700000X0*%
%ADD37RoundRect,0.050000X-0.500000X-0.700000X0.500000X-0.700000X0.500000X0.700000X-0.500000X0.700000X0*%
%ADD38RoundRect,0.050000X3.000000X-1.005000X3.000000X1.005000X-3.000000X1.005000X-3.000000X-1.005000X0*%
%ADD39RoundRect,0.050000X-0.735000X0.510000X-0.735000X-0.510000X0.735000X-0.510000X0.735000X0.510000X0*%
%ADD40RoundRect,0.050000X-0.500000X-0.725000X0.500000X-0.725000X0.500000X0.725000X-0.500000X0.725000X0*%
%ADD41RoundRect,0.050000X0.725000X-0.500000X0.725000X0.500000X-0.725000X0.500000X-0.725000X-0.500000X0*%
%ADD42RoundRect,0.050000X0.735000X-0.510000X0.735000X0.510000X-0.735000X0.510000X-0.735000X-0.510000X0*%
%ADD43RoundRect,0.050000X0.500000X0.725000X-0.500000X0.725000X-0.500000X-0.725000X0.500000X-0.725000X0*%
%ADD44RoundRect,0.050000X0.510000X0.735000X-0.510000X0.735000X-0.510000X-0.735000X0.510000X-0.735000X0*%
%ADD45RoundRect,0.050000X-0.725000X0.500000X-0.725000X-0.500000X0.725000X-0.500000X0.725000X0.500000X0*%
%ADD46RoundRect,0.050000X0.700000X-0.225000X0.700000X0.225000X-0.700000X0.225000X-0.700000X-0.225000X0*%
%ADD47RoundRect,0.050000X0.700000X1.150000X-0.700000X1.150000X-0.700000X-1.150000X0.700000X-1.150000X0*%
%ADD48RoundRect,0.050000X-0.700000X0.625000X-0.700000X-0.625000X0.700000X-0.625000X0.700000X0.625000X0*%
%ADD49RoundRect,0.050000X-0.600000X0.500000X-0.600000X-0.500000X0.600000X-0.500000X0.600000X0.500000X0*%
%ADD50RoundRect,0.050000X-0.510000X-0.735000X0.510000X-0.735000X0.510000X0.735000X-0.510000X0.735000X0*%
G04 APERTURE END LIST*
D10*
X154700000Y-48600000D02*
X154700000Y-98600000D01*
X154700000Y-98600000D02*
X119700000Y-98600000D01*
X119700000Y-48600000D02*
X119700000Y-98600000D01*
X154700000Y-48600000D02*
X119700000Y-48600000D01*
D11*
X137183571Y-86014286D02*
X137040714Y-85585714D01*
X137040714Y-85585714D02*
X136897857Y-85442857D01*
X136897857Y-85442857D02*
X136612142Y-85300000D01*
X136612142Y-85300000D02*
X136183571Y-85300000D01*
X136183571Y-85300000D02*
X135897857Y-85442857D01*
X135897857Y-85442857D02*
X135755000Y-85585714D01*
X135755000Y-85585714D02*
X135612142Y-85871429D01*
X135612142Y-85871429D02*
X135612142Y-87014286D01*
X135612142Y-87014286D02*
X138612142Y-87014286D01*
X138612142Y-87014286D02*
X138612142Y-86014286D01*
X138612142Y-86014286D02*
X138469285Y-85728572D01*
X138469285Y-85728572D02*
X138326428Y-85585714D01*
X138326428Y-85585714D02*
X138040714Y-85442857D01*
X138040714Y-85442857D02*
X137755000Y-85442857D01*
X137755000Y-85442857D02*
X137469285Y-85585714D01*
X137469285Y-85585714D02*
X137326428Y-85728572D01*
X137326428Y-85728572D02*
X137183571Y-86014286D01*
X137183571Y-86014286D02*
X137183571Y-87014286D01*
X135612142Y-82728572D02*
X137183571Y-82728572D01*
X137183571Y-82728572D02*
X137469285Y-82871429D01*
X137469285Y-82871429D02*
X137612142Y-83157143D01*
X137612142Y-83157143D02*
X137612142Y-83728572D01*
X137612142Y-83728572D02*
X137469285Y-84014286D01*
X135755000Y-82728572D02*
X135612142Y-83014286D01*
X135612142Y-83014286D02*
X135612142Y-83728572D01*
X135612142Y-83728572D02*
X135755000Y-84014286D01*
X135755000Y-84014286D02*
X136040714Y-84157143D01*
X136040714Y-84157143D02*
X136326428Y-84157143D01*
X136326428Y-84157143D02*
X136612142Y-84014286D01*
X136612142Y-84014286D02*
X136755000Y-83728572D01*
X136755000Y-83728572D02*
X136755000Y-83014286D01*
X136755000Y-83014286D02*
X136897857Y-82728572D01*
X137612142Y-81728571D02*
X137612142Y-80585714D01*
X138612142Y-81300000D02*
X136040714Y-81300000D01*
X136040714Y-81300000D02*
X135755000Y-81157143D01*
X135755000Y-81157143D02*
X135612142Y-80871428D01*
X135612142Y-80871428D02*
X135612142Y-80585714D01*
X137612142Y-80014285D02*
X137612142Y-78871428D01*
X138612142Y-79585714D02*
X136040714Y-79585714D01*
X136040714Y-79585714D02*
X135755000Y-79442857D01*
X135755000Y-79442857D02*
X135612142Y-79157142D01*
X135612142Y-79157142D02*
X135612142Y-78871428D01*
X135755000Y-76728571D02*
X135612142Y-77014285D01*
X135612142Y-77014285D02*
X135612142Y-77585714D01*
X135612142Y-77585714D02*
X135755000Y-77871428D01*
X135755000Y-77871428D02*
X136040714Y-78014285D01*
X136040714Y-78014285D02*
X137183571Y-78014285D01*
X137183571Y-78014285D02*
X137469285Y-77871428D01*
X137469285Y-77871428D02*
X137612142Y-77585714D01*
X137612142Y-77585714D02*
X137612142Y-77014285D01*
X137612142Y-77014285D02*
X137469285Y-76728571D01*
X137469285Y-76728571D02*
X137183571Y-76585714D01*
X137183571Y-76585714D02*
X136897857Y-76585714D01*
X136897857Y-76585714D02*
X136612142Y-78014285D01*
X135612142Y-75299999D02*
X137612142Y-75299999D01*
X137040714Y-75299999D02*
X137326428Y-75157142D01*
X137326428Y-75157142D02*
X137469285Y-75014285D01*
X137469285Y-75014285D02*
X137612142Y-74728570D01*
X137612142Y-74728570D02*
X137612142Y-74442856D01*
X137612142Y-73728570D02*
X135612142Y-73014284D01*
X137612142Y-72299999D02*
X135612142Y-73014284D01*
X135612142Y-73014284D02*
X134897857Y-73299999D01*
X134897857Y-73299999D02*
X134755000Y-73442856D01*
X134755000Y-73442856D02*
X134612142Y-73728570D01*
X138612142Y-69157142D02*
X138612142Y-67299999D01*
X138612142Y-67299999D02*
X137469285Y-68299999D01*
X137469285Y-68299999D02*
X137469285Y-67871428D01*
X137469285Y-67871428D02*
X137326428Y-67585714D01*
X137326428Y-67585714D02*
X137183571Y-67442856D01*
X137183571Y-67442856D02*
X136897857Y-67299999D01*
X136897857Y-67299999D02*
X136183571Y-67299999D01*
X136183571Y-67299999D02*
X135897857Y-67442856D01*
X135897857Y-67442856D02*
X135755000Y-67585714D01*
X135755000Y-67585714D02*
X135612142Y-67871428D01*
X135612142Y-67871428D02*
X135612142Y-68728571D01*
X135612142Y-68728571D02*
X135755000Y-69014285D01*
X135755000Y-69014285D02*
X135897857Y-69157142D01*
X135897857Y-66014285D02*
X135755000Y-65871428D01*
X135755000Y-65871428D02*
X135612142Y-66014285D01*
X135612142Y-66014285D02*
X135755000Y-66157142D01*
X135755000Y-66157142D02*
X135897857Y-66014285D01*
X135897857Y-66014285D02*
X135612142Y-66014285D01*
X138612142Y-64871428D02*
X138612142Y-62871428D01*
X138612142Y-62871428D02*
X135612142Y-64157142D01*
X138612142Y-62157142D02*
X135612142Y-61157142D01*
X135612142Y-61157142D02*
X138612142Y-60157142D01*
X122528571Y-105838809D02*
X122385714Y-105886428D01*
X122385714Y-105886428D02*
X122338095Y-105934047D01*
X122338095Y-105934047D02*
X122290476Y-106029285D01*
X122290476Y-106029285D02*
X122290476Y-106172142D01*
X122290476Y-106172142D02*
X122338095Y-106267380D01*
X122338095Y-106267380D02*
X122385714Y-106315000D01*
X122385714Y-106315000D02*
X122480952Y-106362619D01*
X122480952Y-106362619D02*
X122861904Y-106362619D01*
X122861904Y-106362619D02*
X122861904Y-105362619D01*
X122861904Y-105362619D02*
X122528571Y-105362619D01*
X122528571Y-105362619D02*
X122433333Y-105410238D01*
X122433333Y-105410238D02*
X122385714Y-105457857D01*
X122385714Y-105457857D02*
X122338095Y-105553095D01*
X122338095Y-105553095D02*
X122338095Y-105648333D01*
X122338095Y-105648333D02*
X122385714Y-105743571D01*
X122385714Y-105743571D02*
X122433333Y-105791190D01*
X122433333Y-105791190D02*
X122528571Y-105838809D01*
X122528571Y-105838809D02*
X122861904Y-105838809D01*
X121433333Y-105695952D02*
X121433333Y-106362619D01*
X121861904Y-105695952D02*
X121861904Y-106219761D01*
X121861904Y-106219761D02*
X121814285Y-106315000D01*
X121814285Y-106315000D02*
X121719047Y-106362619D01*
X121719047Y-106362619D02*
X121576190Y-106362619D01*
X121576190Y-106362619D02*
X121480952Y-106315000D01*
X121480952Y-106315000D02*
X121433333Y-106267380D01*
X121052380Y-105695952D02*
X120528571Y-105695952D01*
X120528571Y-105695952D02*
X121052380Y-106362619D01*
X121052380Y-106362619D02*
X120528571Y-106362619D01*
X120242856Y-105695952D02*
X119719047Y-105695952D01*
X119719047Y-105695952D02*
X120242856Y-106362619D01*
X120242856Y-106362619D02*
X119719047Y-106362619D01*
X118957142Y-106315000D02*
X119052380Y-106362619D01*
X119052380Y-106362619D02*
X119242856Y-106362619D01*
X119242856Y-106362619D02*
X119338094Y-106315000D01*
X119338094Y-106315000D02*
X119385713Y-106219761D01*
X119385713Y-106219761D02*
X119385713Y-105838809D01*
X119385713Y-105838809D02*
X119338094Y-105743571D01*
X119338094Y-105743571D02*
X119242856Y-105695952D01*
X119242856Y-105695952D02*
X119052380Y-105695952D01*
X119052380Y-105695952D02*
X118957142Y-105743571D01*
X118957142Y-105743571D02*
X118909523Y-105838809D01*
X118909523Y-105838809D02*
X118909523Y-105934047D01*
X118909523Y-105934047D02*
X119385713Y-106029285D01*
X118480951Y-106362619D02*
X118480951Y-105695952D01*
X118480951Y-105886428D02*
X118433332Y-105791190D01*
X118433332Y-105791190D02*
X118385713Y-105743571D01*
X118385713Y-105743571D02*
X118290475Y-105695952D01*
X118290475Y-105695952D02*
X118195237Y-105695952D01*
X116357142Y-100638809D02*
X116214285Y-100686428D01*
X116214285Y-100686428D02*
X116166666Y-100734047D01*
X116166666Y-100734047D02*
X116119047Y-100829285D01*
X116119047Y-100829285D02*
X116119047Y-100972142D01*
X116119047Y-100972142D02*
X116166666Y-101067380D01*
X116166666Y-101067380D02*
X116214285Y-101115000D01*
X116214285Y-101115000D02*
X116309523Y-101162619D01*
X116309523Y-101162619D02*
X116690475Y-101162619D01*
X116690475Y-101162619D02*
X116690475Y-100162619D01*
X116690475Y-100162619D02*
X116357142Y-100162619D01*
X116357142Y-100162619D02*
X116261904Y-100210238D01*
X116261904Y-100210238D02*
X116214285Y-100257857D01*
X116214285Y-100257857D02*
X116166666Y-100353095D01*
X116166666Y-100353095D02*
X116166666Y-100448333D01*
X116166666Y-100448333D02*
X116214285Y-100543571D01*
X116214285Y-100543571D02*
X116261904Y-100591190D01*
X116261904Y-100591190D02*
X116357142Y-100638809D01*
X116357142Y-100638809D02*
X116690475Y-100638809D01*
X115738094Y-100876904D02*
X115261904Y-100876904D01*
X115833332Y-101162619D02*
X115499999Y-100162619D01*
X115499999Y-100162619D02*
X115166666Y-101162619D01*
X114976189Y-100162619D02*
X114404761Y-100162619D01*
X114690475Y-101162619D02*
X114690475Y-100162619D01*
X114071427Y-100781666D02*
X113309523Y-100781666D01*
X133657142Y-100738809D02*
X133514285Y-100786428D01*
X133514285Y-100786428D02*
X133466666Y-100834047D01*
X133466666Y-100834047D02*
X133419047Y-100929285D01*
X133419047Y-100929285D02*
X133419047Y-101072142D01*
X133419047Y-101072142D02*
X133466666Y-101167380D01*
X133466666Y-101167380D02*
X133514285Y-101215000D01*
X133514285Y-101215000D02*
X133609523Y-101262619D01*
X133609523Y-101262619D02*
X133990475Y-101262619D01*
X133990475Y-101262619D02*
X133990475Y-100262619D01*
X133990475Y-100262619D02*
X133657142Y-100262619D01*
X133657142Y-100262619D02*
X133561904Y-100310238D01*
X133561904Y-100310238D02*
X133514285Y-100357857D01*
X133514285Y-100357857D02*
X133466666Y-100453095D01*
X133466666Y-100453095D02*
X133466666Y-100548333D01*
X133466666Y-100548333D02*
X133514285Y-100643571D01*
X133514285Y-100643571D02*
X133561904Y-100691190D01*
X133561904Y-100691190D02*
X133657142Y-100738809D01*
X133657142Y-100738809D02*
X133990475Y-100738809D01*
X133038094Y-100976904D02*
X132561904Y-100976904D01*
X133133332Y-101262619D02*
X132799999Y-100262619D01*
X132799999Y-100262619D02*
X132466666Y-101262619D01*
X132276189Y-100262619D02*
X131704761Y-100262619D01*
X131990475Y-101262619D02*
X131990475Y-100262619D01*
X131371427Y-100881666D02*
X130609523Y-100881666D01*
X130990475Y-101262619D02*
X130990475Y-100500714D01*
X128814285Y-130015000D02*
X128671428Y-130062619D01*
X128671428Y-130062619D02*
X128433333Y-130062619D01*
X128433333Y-130062619D02*
X128338095Y-130015000D01*
X128338095Y-130015000D02*
X128290476Y-129967380D01*
X128290476Y-129967380D02*
X128242857Y-129872142D01*
X128242857Y-129872142D02*
X128242857Y-129776904D01*
X128242857Y-129776904D02*
X128290476Y-129681666D01*
X128290476Y-129681666D02*
X128338095Y-129634047D01*
X128338095Y-129634047D02*
X128433333Y-129586428D01*
X128433333Y-129586428D02*
X128623809Y-129538809D01*
X128623809Y-129538809D02*
X128719047Y-129491190D01*
X128719047Y-129491190D02*
X128766666Y-129443571D01*
X128766666Y-129443571D02*
X128814285Y-129348333D01*
X128814285Y-129348333D02*
X128814285Y-129253095D01*
X128814285Y-129253095D02*
X128766666Y-129157857D01*
X128766666Y-129157857D02*
X128719047Y-129110238D01*
X128719047Y-129110238D02*
X128623809Y-129062619D01*
X128623809Y-129062619D02*
X128385714Y-129062619D01*
X128385714Y-129062619D02*
X128242857Y-129110238D01*
X127909523Y-129395952D02*
X127719047Y-130062619D01*
X127719047Y-130062619D02*
X127528571Y-129586428D01*
X127528571Y-129586428D02*
X127338095Y-130062619D01*
X127338095Y-130062619D02*
X127147619Y-129395952D01*
X126766666Y-130062619D02*
X126766666Y-129395952D01*
X126766666Y-129062619D02*
X126814285Y-129110238D01*
X126814285Y-129110238D02*
X126766666Y-129157857D01*
X126766666Y-129157857D02*
X126719047Y-129110238D01*
X126719047Y-129110238D02*
X126766666Y-129062619D01*
X126766666Y-129062619D02*
X126766666Y-129157857D01*
X126433333Y-129395952D02*
X126052381Y-129395952D01*
X126290476Y-129062619D02*
X126290476Y-129919761D01*
X126290476Y-129919761D02*
X126242857Y-130015000D01*
X126242857Y-130015000D02*
X126147619Y-130062619D01*
X126147619Y-130062619D02*
X126052381Y-130062619D01*
X125290476Y-130015000D02*
X125385714Y-130062619D01*
X125385714Y-130062619D02*
X125576190Y-130062619D01*
X125576190Y-130062619D02*
X125671428Y-130015000D01*
X125671428Y-130015000D02*
X125719047Y-129967380D01*
X125719047Y-129967380D02*
X125766666Y-129872142D01*
X125766666Y-129872142D02*
X125766666Y-129586428D01*
X125766666Y-129586428D02*
X125719047Y-129491190D01*
X125719047Y-129491190D02*
X125671428Y-129443571D01*
X125671428Y-129443571D02*
X125576190Y-129395952D01*
X125576190Y-129395952D02*
X125385714Y-129395952D01*
X125385714Y-129395952D02*
X125290476Y-129443571D01*
X124861904Y-130062619D02*
X124861904Y-129062619D01*
X124433333Y-130062619D02*
X124433333Y-129538809D01*
X124433333Y-129538809D02*
X124480952Y-129443571D01*
X124480952Y-129443571D02*
X124576190Y-129395952D01*
X124576190Y-129395952D02*
X124719047Y-129395952D01*
X124719047Y-129395952D02*
X124814285Y-129443571D01*
X124814285Y-129443571D02*
X124861904Y-129491190D01*
D12*
%TO.C,PIC18F45K1*%
X143882172Y-109874414D02*
X144589279Y-109167307D01*
X144589279Y-109167307D02*
X144319905Y-108897933D01*
X144319905Y-108897933D02*
X144218889Y-108864261D01*
X144218889Y-108864261D02*
X144151546Y-108864261D01*
X144151546Y-108864261D02*
X144050531Y-108897933D01*
X144050531Y-108897933D02*
X143949515Y-108998949D01*
X143949515Y-108998949D02*
X143915844Y-109099964D01*
X143915844Y-109099964D02*
X143915844Y-109167307D01*
X143915844Y-109167307D02*
X143949515Y-109268323D01*
X143949515Y-109268323D02*
X144218889Y-109537697D01*
X143175065Y-109167307D02*
X143882172Y-108460200D01*
X142501630Y-108359186D02*
X142501630Y-108426529D01*
X142501630Y-108426529D02*
X142568974Y-108561216D01*
X142568974Y-108561216D02*
X142636317Y-108628560D01*
X142636317Y-108628560D02*
X142771004Y-108695903D01*
X142771004Y-108695903D02*
X142905691Y-108695903D01*
X142905691Y-108695903D02*
X143006707Y-108662231D01*
X143006707Y-108662231D02*
X143175065Y-108561216D01*
X143175065Y-108561216D02*
X143276081Y-108460201D01*
X143276081Y-108460201D02*
X143377096Y-108291842D01*
X143377096Y-108291842D02*
X143410768Y-108190827D01*
X143410768Y-108190827D02*
X143410768Y-108056140D01*
X143410768Y-108056140D02*
X143343424Y-107921453D01*
X143343424Y-107921453D02*
X143276081Y-107854109D01*
X143276081Y-107854109D02*
X143141394Y-107786766D01*
X143141394Y-107786766D02*
X143074050Y-107786766D01*
X141760852Y-107753094D02*
X142164913Y-108157155D01*
X141962882Y-107955125D02*
X142669989Y-107248018D01*
X142669989Y-107248018D02*
X142636317Y-107416377D01*
X142636317Y-107416377D02*
X142636317Y-107551064D01*
X142636317Y-107551064D02*
X142669989Y-107652079D01*
X141760852Y-106944972D02*
X141861867Y-106978644D01*
X141861867Y-106978644D02*
X141929211Y-106978644D01*
X141929211Y-106978644D02*
X142030226Y-106944972D01*
X142030226Y-106944972D02*
X142063898Y-106911300D01*
X142063898Y-106911300D02*
X142097569Y-106810285D01*
X142097569Y-106810285D02*
X142097569Y-106742941D01*
X142097569Y-106742941D02*
X142063898Y-106641926D01*
X142063898Y-106641926D02*
X141929211Y-106507239D01*
X141929211Y-106507239D02*
X141828195Y-106473567D01*
X141828195Y-106473567D02*
X141760852Y-106473567D01*
X141760852Y-106473567D02*
X141659837Y-106507239D01*
X141659837Y-106507239D02*
X141626165Y-106540911D01*
X141626165Y-106540911D02*
X141592493Y-106641926D01*
X141592493Y-106641926D02*
X141592493Y-106709270D01*
X141592493Y-106709270D02*
X141626165Y-106810285D01*
X141626165Y-106810285D02*
X141760852Y-106944972D01*
X141760852Y-106944972D02*
X141794524Y-107045987D01*
X141794524Y-107045987D02*
X141794524Y-107113331D01*
X141794524Y-107113331D02*
X141760852Y-107214346D01*
X141760852Y-107214346D02*
X141626165Y-107349033D01*
X141626165Y-107349033D02*
X141525150Y-107382705D01*
X141525150Y-107382705D02*
X141457806Y-107382705D01*
X141457806Y-107382705D02*
X141356791Y-107349033D01*
X141356791Y-107349033D02*
X141222104Y-107214346D01*
X141222104Y-107214346D02*
X141188432Y-107113331D01*
X141188432Y-107113331D02*
X141188432Y-107045987D01*
X141188432Y-107045987D02*
X141222104Y-106944972D01*
X141222104Y-106944972D02*
X141356791Y-106810285D01*
X141356791Y-106810285D02*
X141457806Y-106776613D01*
X141457806Y-106776613D02*
X141525150Y-106776613D01*
X141525150Y-106776613D02*
X141626165Y-106810285D01*
X140919058Y-106170522D02*
X141154760Y-106406224D01*
X140784371Y-106776613D02*
X141491478Y-106069506D01*
X141491478Y-106069506D02*
X141154760Y-105732789D01*
X140346638Y-105396071D02*
X139875234Y-105867476D01*
X140784371Y-105295056D02*
X140447653Y-105968491D01*
X140447653Y-105968491D02*
X140009921Y-105530758D01*
X139875234Y-104453262D02*
X140211951Y-104789980D01*
X140211951Y-104789980D02*
X139908905Y-105160369D01*
X139908905Y-105160369D02*
X139908905Y-105093025D01*
X139908905Y-105093025D02*
X139875234Y-104992010D01*
X139875234Y-104992010D02*
X139706875Y-104823651D01*
X139706875Y-104823651D02*
X139605860Y-104789980D01*
X139605860Y-104789980D02*
X139538516Y-104789980D01*
X139538516Y-104789980D02*
X139437501Y-104823651D01*
X139437501Y-104823651D02*
X139269142Y-104992010D01*
X139269142Y-104992010D02*
X139235470Y-105093025D01*
X139235470Y-105093025D02*
X139235470Y-105160369D01*
X139235470Y-105160369D02*
X139269142Y-105261384D01*
X139269142Y-105261384D02*
X139437501Y-105429743D01*
X139437501Y-105429743D02*
X139538516Y-105463415D01*
X139538516Y-105463415D02*
X139605860Y-105463415D01*
X138831409Y-104823651D02*
X139538516Y-104116545D01*
X138427348Y-104419590D02*
X139134455Y-104318575D01*
X139134455Y-103712484D02*
X139134455Y-104520606D01*
X137753913Y-103746155D02*
X138157974Y-104150216D01*
X137955944Y-103948186D02*
X138663051Y-103241079D01*
X138663051Y-103241079D02*
X138629379Y-103409438D01*
X138629379Y-103409438D02*
X138629379Y-103544125D01*
X138629379Y-103544125D02*
X138663051Y-103645140D01*
D13*
%TO.C,L1*%
X148024526Y-118365333D02*
X148024526Y-117760571D01*
X148024526Y-117760571D02*
X146754526Y-117760571D01*
X148024526Y-119453905D02*
X148024526Y-118728190D01*
X148024526Y-119091047D02*
X146754526Y-119091047D01*
X146754526Y-119091047D02*
X146935954Y-118970095D01*
X146935954Y-118970095D02*
X147056907Y-118849143D01*
X147056907Y-118849143D02*
X147117383Y-118728190D01*
%TO.C,C4*%
X143466573Y-115338333D02*
X143527050Y-115277857D01*
X143527050Y-115277857D02*
X143587526Y-115096428D01*
X143587526Y-115096428D02*
X143587526Y-114975476D01*
X143587526Y-114975476D02*
X143527050Y-114794047D01*
X143527050Y-114794047D02*
X143406097Y-114673095D01*
X143406097Y-114673095D02*
X143285145Y-114612618D01*
X143285145Y-114612618D02*
X143043240Y-114552142D01*
X143043240Y-114552142D02*
X142861811Y-114552142D01*
X142861811Y-114552142D02*
X142619907Y-114612618D01*
X142619907Y-114612618D02*
X142498954Y-114673095D01*
X142498954Y-114673095D02*
X142378002Y-114794047D01*
X142378002Y-114794047D02*
X142317526Y-114975476D01*
X142317526Y-114975476D02*
X142317526Y-115096428D01*
X142317526Y-115096428D02*
X142378002Y-115277857D01*
X142378002Y-115277857D02*
X142438478Y-115338333D01*
X142740859Y-116426904D02*
X143587526Y-116426904D01*
X142257050Y-116124523D02*
X143164192Y-115822142D01*
X143164192Y-115822142D02*
X143164192Y-116608333D01*
%TO.C,D1*%
X143587526Y-118987618D02*
X142317526Y-118987618D01*
X142317526Y-118987618D02*
X142317526Y-119289999D01*
X142317526Y-119289999D02*
X142378002Y-119471428D01*
X142378002Y-119471428D02*
X142498954Y-119592380D01*
X142498954Y-119592380D02*
X142619907Y-119652857D01*
X142619907Y-119652857D02*
X142861811Y-119713333D01*
X142861811Y-119713333D02*
X143043240Y-119713333D01*
X143043240Y-119713333D02*
X143285145Y-119652857D01*
X143285145Y-119652857D02*
X143406097Y-119592380D01*
X143406097Y-119592380D02*
X143527050Y-119471428D01*
X143527050Y-119471428D02*
X143587526Y-119289999D01*
X143587526Y-119289999D02*
X143587526Y-118987618D01*
X143587526Y-120922857D02*
X143587526Y-120197142D01*
X143587526Y-120559999D02*
X142317526Y-120559999D01*
X142317526Y-120559999D02*
X142498954Y-120439047D01*
X142498954Y-120439047D02*
X142619907Y-120318095D01*
X142619907Y-120318095D02*
X142680383Y-120197142D01*
%TO.C,Y1*%
X128854761Y-106182764D02*
X128854761Y-106787526D01*
X129278094Y-105517526D02*
X128854761Y-106182764D01*
X128854761Y-106182764D02*
X128431427Y-105517526D01*
X127342856Y-106787526D02*
X128068571Y-106787526D01*
X127705714Y-106787526D02*
X127705714Y-105517526D01*
X127705714Y-105517526D02*
X127826666Y-105698954D01*
X127826666Y-105698954D02*
X127947618Y-105819907D01*
X127947618Y-105819907D02*
X128068571Y-105880383D01*
D10*
%TO.C,H_Bat+1*%
X129650000Y-99100000D02*
X125950000Y-99100000D01*
X125950000Y-99100000D02*
X125950000Y-102100000D01*
X130450000Y-99900000D02*
X129650000Y-99100000D01*
X130450000Y-102100000D02*
X130450000Y-99900000D01*
X125950000Y-102100000D02*
X130450000Y-102100000D01*
%TO.C,H_Bat-1*%
X115150000Y-99900000D02*
X118850000Y-99900000D01*
X118850000Y-99900000D02*
X118850000Y-96900000D01*
X114350000Y-99100000D02*
X115150000Y-99900000D01*
X114350000Y-96900000D02*
X114350000Y-99100000D01*
X118850000Y-96900000D02*
X114350000Y-96900000D01*
D14*
%TO.C,IC_BMS_TP1*%
X155075000Y-123295000D02*
X153550000Y-123295000D01*
D15*
%TO.C,J_USB_C1*%
X141720000Y-130450000D02*
X132930000Y-130450000D01*
D14*
X134500000Y-122550000D02*
X134500000Y-122550000D01*
X134500000Y-122350000D02*
X134500000Y-122350000D01*
X134500000Y-122350000D02*
G75*
G03*
X134500000Y-122550000I0J-100000D01*
G01*
X134500000Y-122550000D02*
G75*
G03*
X134500000Y-122350000I0J100000D01*
G01*
D15*
%TO.C,LS1*%
X120600000Y-111900000D02*
X120600000Y-111900000D01*
X120600000Y-99900000D02*
X120600000Y-99900000D01*
X120600000Y-99900000D02*
G75*
G03*
X120600000Y-111900000I0J-6000000D01*
G01*
X120600000Y-111900000D02*
G75*
G03*
X120600000Y-99900000I0J6000000D01*
G01*
D14*
%TO.C,PIC18F45K1*%
X145812000Y-111150000D02*
X145812000Y-101850000D01*
X145812000Y-101850000D02*
X136512000Y-101850000D01*
X136512000Y-111150000D02*
X145812000Y-111150000D01*
X136512000Y-101850000D02*
X136512000Y-111150000D01*
D13*
X147437000Y-101300000D02*
G75*
G03*
X147437000Y-101300000I-200000J0D01*
G01*
D14*
%TO.C,Q2*%
X116775000Y-49145000D02*
X115525000Y-49145000D01*
X115175000Y-52110000D02*
X115175000Y-49190000D01*
X115175000Y-49190000D02*
X115025000Y-49190000D01*
X115025000Y-52110000D02*
X115175000Y-52110000D01*
X115025000Y-49190000D02*
X115025000Y-52110000D01*
%TO.C,Q3*%
X116775000Y-82084997D02*
X115525000Y-82084997D01*
X115175000Y-85049997D02*
X115175000Y-82129997D01*
X115175000Y-82129997D02*
X115025000Y-82129997D01*
X115025000Y-85049997D02*
X115175000Y-85049997D01*
X115025000Y-82129997D02*
X115025000Y-85049997D01*
%TO.C,Q4*%
X160675000Y-49195000D02*
X159425000Y-49195000D01*
X159075000Y-52160000D02*
X159075000Y-49240000D01*
X159075000Y-49240000D02*
X158925000Y-49240000D01*
X158925000Y-52160000D02*
X159075000Y-52160000D01*
X158925000Y-49240000D02*
X158925000Y-52160000D01*
%TO.C,Q5*%
X160675000Y-67872776D02*
X159425000Y-67872776D01*
X159075000Y-70837776D02*
X159075000Y-67917776D01*
X159075000Y-67917776D02*
X158925000Y-67917776D01*
X158925000Y-70837776D02*
X159075000Y-70837776D01*
X158925000Y-67917776D02*
X158925000Y-70837776D01*
%TO.C,Q6*%
X116775000Y-52803333D02*
X115525000Y-52803333D01*
X115175000Y-55768333D02*
X115175000Y-52848333D01*
X115175000Y-52848333D02*
X115025000Y-52848333D01*
X115025000Y-55768333D02*
X115175000Y-55768333D01*
X115025000Y-52848333D02*
X115025000Y-55768333D01*
%TO.C,Q7*%
X116775000Y-85793330D02*
X115525000Y-85793330D01*
X115175000Y-88758330D02*
X115175000Y-85838330D01*
X115175000Y-85838330D02*
X115025000Y-85838330D01*
X115025000Y-88758330D02*
X115175000Y-88758330D01*
X115025000Y-85838330D02*
X115025000Y-88758330D01*
%TO.C,Q8*%
X160675000Y-52895000D02*
X159425000Y-52895000D01*
X159075000Y-55860000D02*
X159075000Y-52940000D01*
X159075000Y-52940000D02*
X158925000Y-52940000D01*
X158925000Y-55860000D02*
X159075000Y-55860000D01*
X158925000Y-52940000D02*
X158925000Y-55860000D01*
%TO.C,Q9*%
X160675000Y-71617220D02*
X159425000Y-71617220D01*
X159075000Y-74582220D02*
X159075000Y-71662220D01*
X159075000Y-71662220D02*
X158925000Y-71662220D01*
X158925000Y-74582220D02*
X159075000Y-74582220D01*
X158925000Y-71662220D02*
X158925000Y-74582220D01*
%TO.C,Q10*%
X116775000Y-56446666D02*
X115525000Y-56446666D01*
X115175000Y-59411666D02*
X115175000Y-56491666D01*
X115175000Y-56491666D02*
X115025000Y-56491666D01*
X115025000Y-59411666D02*
X115175000Y-59411666D01*
X115025000Y-56491666D02*
X115025000Y-59411666D01*
%TO.C,Q11*%
X116775000Y-89386663D02*
X115525000Y-89386663D01*
X115175000Y-92351663D02*
X115175000Y-89431663D01*
X115175000Y-89431663D02*
X115025000Y-89431663D01*
X115025000Y-92351663D02*
X115175000Y-92351663D01*
X115025000Y-89431663D02*
X115025000Y-92351663D01*
%TO.C,Q12*%
X116775000Y-63778332D02*
X115525000Y-63778332D01*
X115175000Y-66743332D02*
X115175000Y-63823332D01*
X115175000Y-63823332D02*
X115025000Y-63823332D01*
X115025000Y-66743332D02*
X115175000Y-66743332D01*
X115025000Y-63823332D02*
X115025000Y-66743332D01*
%TO.C,Q13*%
X158600000Y-86456108D02*
X157350000Y-86456108D01*
X157000000Y-89421108D02*
X157000000Y-86501108D01*
X157000000Y-86501108D02*
X156850000Y-86501108D01*
X156850000Y-89421108D02*
X157000000Y-89421108D01*
X156850000Y-86501108D02*
X156850000Y-89421108D01*
%TO.C,Q14*%
X116775000Y-78411664D02*
X115525000Y-78411664D01*
X115175000Y-81376664D02*
X115175000Y-78456664D01*
X115175000Y-78456664D02*
X115025000Y-78456664D01*
X115025000Y-81376664D02*
X115175000Y-81376664D01*
X115025000Y-78456664D02*
X115025000Y-81376664D01*
%TO.C,Q15*%
X158600000Y-101156108D02*
X157350000Y-101156108D01*
X157000000Y-104121108D02*
X157000000Y-101201108D01*
X157000000Y-101201108D02*
X156850000Y-101201108D01*
X156850000Y-104121108D02*
X157000000Y-104121108D01*
X156850000Y-101201108D02*
X156850000Y-104121108D01*
%TO.C,Q16*%
X160675000Y-56639444D02*
X159425000Y-56639444D01*
X159075000Y-59604444D02*
X159075000Y-56684444D01*
X159075000Y-56684444D02*
X158925000Y-56684444D01*
X158925000Y-59604444D02*
X159075000Y-59604444D01*
X158925000Y-56684444D02*
X158925000Y-59604444D01*
%TO.C,Q17*%
X160662500Y-75361664D02*
X159412500Y-75361664D01*
X159062500Y-78326664D02*
X159062500Y-75406664D01*
X159062500Y-75406664D02*
X158912500Y-75406664D01*
X158912500Y-78326664D02*
X159062500Y-78326664D01*
X158912500Y-75406664D02*
X158912500Y-78326664D01*
%TO.C,Q18*%
X116775000Y-60119999D02*
X115525000Y-60119999D01*
X115175000Y-63084999D02*
X115175000Y-60164999D01*
X115175000Y-60164999D02*
X115025000Y-60164999D01*
X115025000Y-63084999D02*
X115175000Y-63084999D01*
X115025000Y-60164999D02*
X115025000Y-63084999D01*
%TO.C,Q19*%
X116775000Y-93416664D02*
X115525000Y-93416664D01*
X115175000Y-96381664D02*
X115175000Y-93461664D01*
X115175000Y-93461664D02*
X115025000Y-93461664D01*
X115025000Y-96381664D02*
X115175000Y-96381664D01*
X115025000Y-93461664D02*
X115025000Y-96381664D01*
%TO.C,Q20*%
X116775000Y-67436665D02*
X115525000Y-67436665D01*
X115175000Y-70401665D02*
X115175000Y-67481665D01*
X115175000Y-67481665D02*
X115025000Y-67481665D01*
X115025000Y-70401665D02*
X115175000Y-70401665D01*
X115025000Y-67481665D02*
X115025000Y-70401665D01*
%TO.C,Q21*%
X158600000Y-90146108D02*
X157350000Y-90146108D01*
X157000000Y-93111108D02*
X157000000Y-90191108D01*
X157000000Y-90191108D02*
X156850000Y-90191108D01*
X156850000Y-93111108D02*
X157000000Y-93111108D01*
X156850000Y-90191108D02*
X156850000Y-93111108D01*
%TO.C,Q22*%
X160675000Y-60383888D02*
X159425000Y-60383888D01*
X159075000Y-63348888D02*
X159075000Y-60428888D01*
X159075000Y-60428888D02*
X158925000Y-60428888D01*
X158925000Y-63348888D02*
X159075000Y-63348888D01*
X158925000Y-60428888D02*
X158925000Y-63348888D01*
%TO.C,Q23*%
X160700000Y-79106108D02*
X159450000Y-79106108D01*
X159100000Y-82071108D02*
X159100000Y-79151108D01*
X159100000Y-79151108D02*
X158950000Y-79151108D01*
X158950000Y-82071108D02*
X159100000Y-82071108D01*
X158950000Y-79151108D02*
X158950000Y-82071108D01*
%TO.C,Q24*%
X116775000Y-71094998D02*
X115525000Y-71094998D01*
X115175000Y-74059998D02*
X115175000Y-71139998D01*
X115175000Y-71139998D02*
X115025000Y-71139998D01*
X115025000Y-74059998D02*
X115175000Y-74059998D01*
X115025000Y-71139998D02*
X115025000Y-74059998D01*
%TO.C,Q25*%
X158600000Y-93806108D02*
X157350000Y-93806108D01*
X157000000Y-96771108D02*
X157000000Y-93851108D01*
X157000000Y-93851108D02*
X156850000Y-93851108D01*
X156850000Y-96771108D02*
X157000000Y-96771108D01*
X156850000Y-93851108D02*
X156850000Y-96771108D01*
%TO.C,Q26*%
X160675000Y-64128332D02*
X159425000Y-64128332D01*
X159075000Y-67093332D02*
X159075000Y-64173332D01*
X159075000Y-64173332D02*
X158925000Y-64173332D01*
X158925000Y-67093332D02*
X159075000Y-67093332D01*
X158925000Y-64173332D02*
X158925000Y-67093332D01*
%TO.C,Q27*%
X160675000Y-82850552D02*
X159425000Y-82850552D01*
X159075000Y-85815552D02*
X159075000Y-82895552D01*
X159075000Y-82895552D02*
X158925000Y-82895552D01*
X158925000Y-85815552D02*
X159075000Y-85815552D01*
X158925000Y-82895552D02*
X158925000Y-85815552D01*
%TO.C,Q28*%
X116775000Y-74753331D02*
X115525000Y-74753331D01*
X115175000Y-77718331D02*
X115175000Y-74798331D01*
X115175000Y-74798331D02*
X115025000Y-74798331D01*
X115025000Y-77718331D02*
X115175000Y-77718331D01*
X115025000Y-74798331D02*
X115025000Y-77718331D01*
%TO.C,Q29*%
X158600000Y-97481108D02*
X157350000Y-97481108D01*
X157000000Y-100446108D02*
X157000000Y-97526108D01*
X157000000Y-97526108D02*
X156850000Y-97526108D01*
X156850000Y-100446108D02*
X157000000Y-100446108D01*
X156850000Y-97526108D02*
X156850000Y-100446108D01*
%TO.C,Q1*%
X127825000Y-110140000D02*
X126575000Y-110140000D01*
X126225000Y-113105000D02*
X126225000Y-110185000D01*
X126225000Y-110185000D02*
X126075000Y-110185000D01*
X126075000Y-113105000D02*
X126225000Y-113105000D01*
X126075000Y-110185000D02*
X126075000Y-113105000D01*
%TO.C,R220_1*%
X156500000Y-50700000D02*
X155450000Y-50700000D01*
%TO.C,R220_2*%
X155450000Y-69377776D02*
X156500000Y-69377776D01*
%TO.C,R220_3*%
X155450000Y-54400000D02*
X156500000Y-54400000D01*
%TO.C,R220_4*%
X156500000Y-73122220D02*
X155450000Y-73122220D01*
%TO.C,R220_5*%
X155450000Y-58144444D02*
X156500000Y-58144444D01*
%TO.C,R220_6*%
X155462500Y-76866664D02*
X156512500Y-76866664D01*
%TO.C,R220_7*%
X155450000Y-61888888D02*
X156500000Y-61888888D01*
%TO.C,R220_8*%
X155425000Y-80611108D02*
X156475000Y-80611108D01*
%TO.C,R220_9*%
X155450000Y-65633332D02*
X156500000Y-65633332D01*
%TO.C,R220_10*%
X155450000Y-84355552D02*
X156500000Y-84355552D01*
%TO.C,R4K7_2*%
X118825000Y-50650000D02*
X117775000Y-50650000D01*
%TO.C,R4K7_3*%
X118825000Y-83489997D02*
X117775000Y-83489997D01*
%TO.C,R4K7_4*%
X120199668Y-46975000D02*
X120199668Y-48025000D01*
%TO.C,R4K7_5*%
X138921888Y-46975000D02*
X138921888Y-48025000D01*
%TO.C,R4K7_6*%
X118825000Y-54253333D02*
X117775000Y-54253333D01*
%TO.C,R4K7_7*%
X118825000Y-87098330D02*
X117775000Y-87098330D01*
%TO.C,R4K7_8*%
X123944112Y-46975000D02*
X123944112Y-48025000D01*
%TO.C,R4K7_9*%
X142666332Y-46975000D02*
X142666332Y-48025000D01*
%TO.C,R4K7_10*%
X118825000Y-58051666D02*
X117775000Y-58051666D01*
%TO.C,R4K7_11*%
X118825000Y-90841663D02*
X117775000Y-90841663D01*
%TO.C,R4K7_12*%
X118825000Y-65233332D02*
X117775000Y-65233332D01*
%TO.C,R4K7_13*%
X160750000Y-87961108D02*
X159700000Y-87961108D01*
%TO.C,R4K7_14*%
X118825000Y-79866664D02*
X117775000Y-79866664D01*
%TO.C,R4K7_15*%
X160750000Y-102611108D02*
X159700000Y-102611108D01*
%TO.C,R4K7_16*%
X127688556Y-46975000D02*
X127688556Y-48025000D01*
%TO.C,R4K7_17*%
X146410776Y-46975000D02*
X146410776Y-48025000D01*
%TO.C,R4K7_18*%
X118825000Y-61624999D02*
X117775000Y-61624999D01*
%TO.C,R4K7_19*%
X118825000Y-94971664D02*
X117775000Y-94971664D01*
%TO.C,R4K7_20*%
X118825000Y-68891665D02*
X117775000Y-68891665D01*
%TO.C,R4K7_21*%
X160750000Y-91551108D02*
X159700000Y-91551108D01*
%TO.C,R4K7_22*%
X131433000Y-46975000D02*
X131433000Y-48025000D01*
%TO.C,R4K7_23*%
X150155220Y-46975000D02*
X150155220Y-48025000D01*
%TO.C,R4K7_24*%
X118825000Y-72599998D02*
X117775000Y-72599998D01*
%TO.C,R4K7_25*%
X160750000Y-95311108D02*
X159700000Y-95311108D01*
%TO.C,R4K7_26*%
X135177444Y-46975000D02*
X135177444Y-48025000D01*
%TO.C,R4K7_27*%
X153899664Y-46975000D02*
X153899664Y-48025000D01*
%TO.C,R4K7_28*%
X118825000Y-76258331D02*
X117775000Y-76258331D01*
%TO.C,R4K7_29*%
X160750000Y-98936108D02*
X159700000Y-98936108D01*
%TO.C,R4K7_1*%
X128675000Y-111695000D02*
X129725000Y-111695000D01*
%TO.C,R_10k_1*%
X139025000Y-118100000D02*
X137975000Y-118100000D01*
%TO.C,R_10K_3*%
X118600000Y-115425000D02*
X118600000Y-114375000D01*
%TO.C,R_10K_7*%
X125095000Y-123600000D02*
X124045000Y-123600000D01*
%TO.C,R_10K_6*%
X126175000Y-115400000D02*
X127225000Y-115400000D01*
%TO.C,R_10K_9*%
X135900000Y-118100000D02*
X136950000Y-118100000D01*
%TO.C,R_1k_1*%
X146275000Y-127900000D02*
X147325000Y-127900000D01*
%TO.C,R_1k_2*%
X147325000Y-124350000D02*
X146275000Y-124350000D01*
%TO.C,R_2k_1*%
X156925000Y-124300000D02*
X155875000Y-124300000D01*
D15*
%TO.C,SW_Toggle1*%
X122225000Y-127050000D02*
X122225000Y-130550000D01*
X122225000Y-130550000D02*
X131375000Y-130550000D01*
X131375000Y-127050000D02*
X122225000Y-127050000D01*
X131375000Y-130550000D02*
X131375000Y-127050000D01*
D14*
%TO.C,L1*%
X144400000Y-119100000D02*
X144400000Y-117400000D01*
X150400000Y-119100000D02*
X150400000Y-117400000D01*
%TO.C,R_10K_2*%
X118600000Y-117225000D02*
X118600000Y-116175000D01*
%TO.C,R_10K_4*%
X127125000Y-123600000D02*
X126075000Y-123600000D01*
%TO.C,R3*%
X155800000Y-120325000D02*
X155800000Y-121375000D01*
%TO.C,R_10K_8*%
X135025000Y-118100000D02*
X133975000Y-118100000D01*
%TO.C,R2*%
X158275000Y-119850000D02*
X159325000Y-119850000D01*
%TO.C,R_10K_5*%
X129230000Y-115400000D02*
X128180000Y-115400000D01*
%TO.C,IC1*%
X157300000Y-116500000D02*
X155900000Y-116500000D01*
X155550000Y-119550000D02*
X155550000Y-116550000D01*
X155550000Y-116550000D02*
X153250000Y-116550000D01*
X153250000Y-119550000D02*
X155550000Y-119550000D01*
X153250000Y-116550000D02*
X153250000Y-119550000D01*
%TO.C,D1*%
X143100000Y-117750000D02*
X143100000Y-117750000D01*
X142900000Y-117750000D02*
X142900000Y-117750000D01*
D15*
X143900000Y-118750000D02*
X143900000Y-121550000D01*
X142100000Y-118750000D02*
X142100000Y-121550000D01*
D14*
X142900000Y-117750000D02*
G75*
G03*
X143100000Y-117750000I100000J0D01*
G01*
X143100000Y-117750000D02*
G75*
G03*
X142900000Y-117750000I-100000J0D01*
G01*
%TO.C,R1*%
X155800000Y-115775000D02*
X155800000Y-114725000D01*
D15*
%TO.C,Y1*%
X126575000Y-105550000D02*
X126575000Y-105550000D01*
X126675000Y-105550000D02*
X126675000Y-105550000D01*
X126675000Y-105550000D02*
G75*
G03*
X126575000Y-105550000I-50000J0D01*
G01*
X126575000Y-105550000D02*
G75*
G03*
X126675000Y-105550000I50000J0D01*
G01*
%TD*%
D16*
%TO.C,J_USB_C1*%
X141570000Y-127850000D03*
X132930000Y-127850000D03*
X132930000Y-124050000D03*
X141570000Y-124050000D03*
%TD*%
D17*
%TO.C,LS1*%
X116800000Y-105900000D03*
X124400000Y-105900000D03*
%TD*%
%TO.C,SW_Toggle1*%
X124275000Y-128050000D03*
X126775000Y-128050000D03*
X129275000Y-128050000D03*
%TD*%
%LPC*%
D18*
%TO.C,ICSP*%
X160310000Y-106135000D03*
X155230000Y-107151000D03*
X155230000Y-105119000D03*
%TD*%
D19*
%TO.C,C_10u_1*%
X156400000Y-128580000D03*
X156400000Y-126900000D03*
%TD*%
D20*
%TO.C,C_22p_1*%
X127610000Y-108650000D03*
X129290000Y-108650000D03*
%TD*%
D21*
%TO.C,C_22p_2*%
X129290000Y-103750000D03*
X127610000Y-103750000D03*
%TD*%
D22*
%TO.C,H_Bat+1*%
X128200000Y-100600000D03*
%TD*%
D23*
%TO.C,H_Bat-1*%
X116600000Y-98400000D03*
%TD*%
D24*
%TO.C,IC_BMS_TP1*%
X154312000Y-123995000D03*
X154312000Y-125265000D03*
X154312000Y-126535000D03*
X154312000Y-127805000D03*
X148888000Y-127805000D03*
X148888000Y-126535000D03*
X148888000Y-125265000D03*
X148888000Y-123995000D03*
D25*
X151600000Y-125900000D03*
%TD*%
D26*
%TO.C,J_USB_C1*%
X137750000Y-123900000D03*
D27*
X135730000Y-123900000D03*
D28*
X134500000Y-123900000D03*
D26*
X136750000Y-123900000D03*
D27*
X138770000Y-123900000D03*
D28*
X140000000Y-123900000D03*
D29*
X141570000Y-127850000D03*
X132930000Y-127850000D03*
X132930000Y-124050000D03*
X141570000Y-124050000D03*
%TD*%
D30*
%TO.C,LS1*%
X116800000Y-105900000D03*
X124400000Y-105900000D03*
%TD*%
D31*
%TO.C,PIC18F45K1*%
X146900000Y-102500000D03*
X146900000Y-103300000D03*
X146900000Y-104100000D03*
X146900000Y-104900000D03*
X146900000Y-105700000D03*
X146900000Y-106500000D03*
X146900000Y-107300000D03*
X146900000Y-108100000D03*
X146900000Y-108900000D03*
X146900000Y-109700000D03*
X146900000Y-110500000D03*
D32*
X145162000Y-112238000D03*
X144362000Y-112238000D03*
X143562000Y-112238000D03*
X142762000Y-112238000D03*
X141962000Y-112238000D03*
X141162000Y-112238000D03*
X140362000Y-112238000D03*
X139562000Y-112238000D03*
X138762000Y-112238000D03*
X137962000Y-112238000D03*
X137162000Y-112238000D03*
D31*
X135424000Y-110500000D03*
X135424000Y-109700000D03*
X135424000Y-108900000D03*
X135424000Y-108100000D03*
X135424000Y-107300000D03*
X135424000Y-106500000D03*
X135424000Y-105700000D03*
X135424000Y-104900000D03*
X135424000Y-104100000D03*
X135424000Y-103300000D03*
X135424000Y-102500000D03*
D32*
X137162000Y-100762000D03*
X137962000Y-100762000D03*
X138762000Y-100762000D03*
X139562000Y-100762000D03*
X140362000Y-100762000D03*
X141162000Y-100762000D03*
X141962000Y-100762000D03*
X142762000Y-100762000D03*
X143562000Y-100762000D03*
X144362000Y-100762000D03*
X145162000Y-100762000D03*
%TD*%
D33*
%TO.C,Q2*%
X116150000Y-49695000D03*
X116150000Y-51605000D03*
X114050000Y-50650000D03*
%TD*%
%TO.C,Q3*%
X116150000Y-82634997D03*
X116150000Y-84544997D03*
X114050000Y-83589997D03*
%TD*%
%TO.C,Q4*%
X160050000Y-49745000D03*
X160050000Y-51655000D03*
X157950000Y-50700000D03*
%TD*%
%TO.C,Q5*%
X160050000Y-68422776D03*
X160050000Y-70332776D03*
X157950000Y-69377776D03*
%TD*%
%TO.C,Q6*%
X116150000Y-53353333D03*
X116150000Y-55263333D03*
X114050000Y-54308333D03*
%TD*%
%TO.C,Q7*%
X116150000Y-86343330D03*
X116150000Y-88253330D03*
X114050000Y-87298330D03*
%TD*%
%TO.C,Q8*%
X160050000Y-53445000D03*
X160050000Y-55355000D03*
X157950000Y-54400000D03*
%TD*%
%TO.C,Q9*%
X160050000Y-72167220D03*
X160050000Y-74077220D03*
X157950000Y-73122220D03*
%TD*%
%TO.C,Q10*%
X116150000Y-56996666D03*
X116150000Y-58906666D03*
X114050000Y-57951666D03*
%TD*%
%TO.C,Q11*%
X116150000Y-89936663D03*
X116150000Y-91846663D03*
X114050000Y-90891663D03*
%TD*%
%TO.C,Q12*%
X116150000Y-64328332D03*
X116150000Y-66238332D03*
X114050000Y-65283332D03*
%TD*%
%TO.C,Q13*%
X157975000Y-87006108D03*
X157975000Y-88916108D03*
X155875000Y-87961108D03*
%TD*%
%TO.C,Q14*%
X116150000Y-78961664D03*
X116150000Y-80871664D03*
X114050000Y-79916664D03*
%TD*%
%TO.C,Q15*%
X157975000Y-101706108D03*
X157975000Y-103616108D03*
X155875000Y-102661108D03*
%TD*%
%TO.C,Q16*%
X160050000Y-57189444D03*
X160050000Y-59099444D03*
X157950000Y-58144444D03*
%TD*%
%TO.C,Q17*%
X160037500Y-75911664D03*
X160037500Y-77821664D03*
X157937500Y-76866664D03*
%TD*%
%TO.C,Q18*%
X116150000Y-60669999D03*
X116150000Y-62579999D03*
X114050000Y-61624999D03*
%TD*%
%TO.C,Q19*%
X116150000Y-93966664D03*
X116150000Y-95876664D03*
X114050000Y-94921664D03*
%TD*%
%TO.C,Q20*%
X116150000Y-67986665D03*
X116150000Y-69896665D03*
X114050000Y-68941665D03*
%TD*%
%TO.C,Q21*%
X157975000Y-90696108D03*
X157975000Y-92606108D03*
X155875000Y-91651108D03*
%TD*%
%TO.C,Q22*%
X160050000Y-60933888D03*
X160050000Y-62843888D03*
X157950000Y-61888888D03*
%TD*%
%TO.C,Q23*%
X160075000Y-79656108D03*
X160075000Y-81566108D03*
X157975000Y-80611108D03*
%TD*%
%TO.C,Q24*%
X116150000Y-71644998D03*
X116150000Y-73554998D03*
X114050000Y-72599998D03*
%TD*%
%TO.C,Q25*%
X157975000Y-94356108D03*
X157975000Y-96266108D03*
X155875000Y-95311108D03*
%TD*%
%TO.C,Q26*%
X160050000Y-64678332D03*
X160050000Y-66588332D03*
X157950000Y-65633332D03*
%TD*%
%TO.C,Q27*%
X160050000Y-83400552D03*
X160050000Y-85310552D03*
X157950000Y-84355552D03*
%TD*%
%TO.C,Q28*%
X116150000Y-75303331D03*
X116150000Y-77213331D03*
X114050000Y-76258331D03*
%TD*%
%TO.C,Q29*%
X157975000Y-98031108D03*
X157975000Y-99941108D03*
X155875000Y-98986108D03*
%TD*%
%TO.C,Q1*%
X127200000Y-110690000D03*
X127200000Y-112600000D03*
X125100000Y-111645000D03*
%TD*%
D34*
%TO.C,R220_1*%
X155975000Y-51650000D03*
X155975000Y-49750000D03*
%TD*%
D35*
%TO.C,R220_2*%
X155975000Y-68427776D03*
X155975000Y-70327776D03*
%TD*%
%TO.C,R220_3*%
X155975000Y-53450000D03*
X155975000Y-55350000D03*
%TD*%
D34*
%TO.C,R220_4*%
X155975000Y-74072220D03*
X155975000Y-72172220D03*
%TD*%
D35*
%TO.C,R220_5*%
X155975000Y-57194444D03*
X155975000Y-59094444D03*
%TD*%
%TO.C,R220_6*%
X155987500Y-75916664D03*
X155987500Y-77816664D03*
%TD*%
%TO.C,R220_7*%
X155975000Y-60938888D03*
X155975000Y-62838888D03*
%TD*%
%TO.C,R220_8*%
X155950000Y-79661108D03*
X155950000Y-81561108D03*
%TD*%
%TO.C,R220_9*%
X155975000Y-64683332D03*
X155975000Y-66583332D03*
%TD*%
%TO.C,R220_10*%
X155975000Y-83405552D03*
X155975000Y-85305552D03*
%TD*%
D34*
%TO.C,R4K7_2*%
X118300000Y-51600000D03*
X118300000Y-49700000D03*
%TD*%
%TO.C,R4K7_3*%
X118300000Y-84439997D03*
X118300000Y-82539997D03*
%TD*%
D36*
%TO.C,R4K7_4*%
X121149668Y-47500000D03*
X119249668Y-47500000D03*
%TD*%
%TO.C,R4K7_5*%
X139871888Y-47500000D03*
X137971888Y-47500000D03*
%TD*%
D34*
%TO.C,R4K7_6*%
X118300000Y-55203333D03*
X118300000Y-53303333D03*
%TD*%
%TO.C,R4K7_7*%
X118300000Y-88048330D03*
X118300000Y-86148330D03*
%TD*%
D36*
%TO.C,R4K7_8*%
X124894112Y-47500000D03*
X122994112Y-47500000D03*
%TD*%
%TO.C,R4K7_9*%
X143616332Y-47500000D03*
X141716332Y-47500000D03*
%TD*%
D34*
%TO.C,R4K7_10*%
X118300000Y-59001666D03*
X118300000Y-57101666D03*
%TD*%
%TO.C,R4K7_11*%
X118300000Y-91791663D03*
X118300000Y-89891663D03*
%TD*%
%TO.C,R4K7_12*%
X118300000Y-66183332D03*
X118300000Y-64283332D03*
%TD*%
%TO.C,R4K7_13*%
X160225000Y-88911108D03*
X160225000Y-87011108D03*
%TD*%
%TO.C,R4K7_14*%
X118300000Y-80816664D03*
X118300000Y-78916664D03*
%TD*%
%TO.C,R4K7_15*%
X160225000Y-103561108D03*
X160225000Y-101661108D03*
%TD*%
D36*
%TO.C,R4K7_16*%
X128638556Y-47500000D03*
X126738556Y-47500000D03*
%TD*%
%TO.C,R4K7_17*%
X147360776Y-47500000D03*
X145460776Y-47500000D03*
%TD*%
D34*
%TO.C,R4K7_18*%
X118300000Y-62574999D03*
X118300000Y-60674999D03*
%TD*%
%TO.C,R4K7_19*%
X118300000Y-95921664D03*
X118300000Y-94021664D03*
%TD*%
%TO.C,R4K7_20*%
X118300000Y-69841665D03*
X118300000Y-67941665D03*
%TD*%
%TO.C,R4K7_21*%
X160225000Y-92501108D03*
X160225000Y-90601108D03*
%TD*%
D36*
%TO.C,R4K7_22*%
X132383000Y-47500000D03*
X130483000Y-47500000D03*
%TD*%
%TO.C,R4K7_23*%
X151105220Y-47500000D03*
X149205220Y-47500000D03*
%TD*%
D34*
%TO.C,R4K7_24*%
X118300000Y-73549998D03*
X118300000Y-71649998D03*
%TD*%
%TO.C,R4K7_25*%
X160225000Y-96261108D03*
X160225000Y-94361108D03*
%TD*%
D36*
%TO.C,R4K7_26*%
X136127444Y-47500000D03*
X134227444Y-47500000D03*
%TD*%
%TO.C,R4K7_27*%
X154849664Y-47500000D03*
X152949664Y-47500000D03*
%TD*%
D34*
%TO.C,R4K7_28*%
X118300000Y-77208331D03*
X118300000Y-75308331D03*
%TD*%
%TO.C,R4K7_29*%
X160225000Y-99886108D03*
X160225000Y-97986108D03*
%TD*%
D35*
%TO.C,R4K7_1*%
X129200000Y-110745000D03*
X129200000Y-112645000D03*
%TD*%
D34*
%TO.C,R_10k_1*%
X138500000Y-119050000D03*
X138500000Y-117150000D03*
%TD*%
D37*
%TO.C,R_10K_3*%
X117650000Y-114900000D03*
X119550000Y-114900000D03*
%TD*%
D34*
%TO.C,R_10K_7*%
X124570000Y-124550000D03*
X124570000Y-122650000D03*
%TD*%
D35*
%TO.C,R_10K_6*%
X126700000Y-114450000D03*
X126700000Y-116350000D03*
%TD*%
%TO.C,R_10K_9*%
X136425000Y-117150000D03*
X136425000Y-119050000D03*
%TD*%
%TO.C,R_1k_1*%
X146800000Y-126950000D03*
X146800000Y-128850000D03*
%TD*%
D34*
%TO.C,R_1k_2*%
X146800000Y-125300000D03*
X146800000Y-123400000D03*
%TD*%
%TO.C,R_2k_1*%
X156400000Y-125250000D03*
X156400000Y-123350000D03*
%TD*%
D30*
%TO.C,SW_Toggle1*%
X124275000Y-128050000D03*
X126775000Y-128050000D03*
X129275000Y-128050000D03*
%TD*%
D38*
%TO.C,L1*%
X147400000Y-120400000D03*
X147400000Y-116100000D03*
%TD*%
D39*
%TO.C,C4*%
X143000000Y-114750000D03*
X143000000Y-116350000D03*
%TD*%
D40*
%TO.C,R_10K_2*%
X117650000Y-116700000D03*
X119550000Y-116700000D03*
%TD*%
D41*
%TO.C,R_10K_4*%
X126600000Y-124550000D03*
X126600000Y-122650000D03*
%TD*%
D42*
%TO.C,C_22p_5*%
X132575000Y-118900000D03*
X132575000Y-117300000D03*
%TD*%
D43*
%TO.C,R3*%
X156750000Y-120850000D03*
X154850000Y-120850000D03*
%TD*%
D41*
%TO.C,R_10K_8*%
X134500000Y-119050000D03*
X134500000Y-117150000D03*
%TD*%
D44*
%TO.C,C2*%
X153200000Y-120850000D03*
X151600000Y-120850000D03*
%TD*%
D45*
%TO.C,R2*%
X158800000Y-118900000D03*
X158800000Y-120800000D03*
%TD*%
D41*
%TO.C,R_10K_5*%
X128705000Y-116350000D03*
X128705000Y-114450000D03*
%TD*%
D39*
%TO.C,C1*%
X158800000Y-115650000D03*
X158800000Y-117250000D03*
%TD*%
D44*
%TO.C,C3*%
X153200000Y-115250000D03*
X151600000Y-115250000D03*
%TD*%
D46*
%TO.C,IC1*%
X156600000Y-117075000D03*
X156600000Y-117725000D03*
X156600000Y-118375000D03*
X156600000Y-119025000D03*
X152200000Y-119025000D03*
X152200000Y-118375000D03*
X152200000Y-117725000D03*
X152200000Y-117075000D03*
%TD*%
D47*
%TO.C,D1*%
X143000000Y-119250000D03*
D48*
X143000000Y-121575000D03*
%TD*%
D40*
%TO.C,R1*%
X154850000Y-115250000D03*
X156750000Y-115250000D03*
%TD*%
D49*
%TO.C,Y1*%
X127625000Y-105550000D03*
X129325000Y-105550000D03*
X129325000Y-106850000D03*
X127625000Y-106850000D03*
%TD*%
D42*
%TO.C,C_22p_4*%
X128570000Y-124400000D03*
X128570000Y-122800000D03*
%TD*%
D39*
%TO.C,C_100F_1*%
X124805000Y-114600000D03*
X124805000Y-116200000D03*
%TD*%
D50*
%TO.C,C_22p_3*%
X117800000Y-118700000D03*
X119400000Y-118700000D03*
%TD*%
M02*
